<?xml version="1.0" encoding="utf-8"?>
<!-- Generator: Adobe Illustrator 16.0.0, SVG Export Plug-In . SVG Version: 6.00 Build 0)  -->
<!DOCTYPE svg PUBLIC "-//W3C//DTD SVG 1.1//EN" "http://www.w3.org/Graphics/SVG/1.1/DTD/svg11.dtd">
<svg version="1.1" id="Layer_1" xmlns="http://www.w3.org/2000/svg" xmlns:xlink="http://www.w3.org/1999/xlink" x="0px" y="0px"
	 width="500px" height="325px" viewBox="0 0 500 325" enable-background="new 0 0 500 325" xml:space="preserve">
<g>
	<g>
		<circle fill="#FFC432" cx="245.599" cy="22.892" r="10.269"/>
	</g>
	<g>
		<circle fill="#FFC432" cx="415.77" cy="209.2" r="10.269"/>
	</g>
	<g>
		<path fill="#33C1D8" d="M112.104,179.86c0,5.67-4.597,10.268-10.27,10.268c-5.671,0-10.268-4.598-10.268-10.268
			c0-5.674,4.597-10.271,10.268-10.271C107.506,169.59,112.104,174.187,112.104,179.86z"/>
	</g>
	<g>
		<circle fill="#33C1D8" cx="274.939" cy="188.662" r="10.269"/>
	</g>
	<g>
		<g>
			<g>
				<path fill="#231F20" d="M89.365,107.748c-0.493,0-0.981-0.165-1.379-0.485L64.558,88.418H45.354c-1.215,0-2.2-0.985-2.2-2.201
					V24.603c0-1.215,0.985-2.2,2.2-2.2h86.553c1.216,0,2.201,0.985,2.201,2.2v61.614c0,1.216-0.985,2.201-2.201,2.201H91.565v17.13
					c0,0.847-0.486,1.619-1.25,1.984C90.013,107.678,89.688,107.748,89.365,107.748z M47.555,84.017h17.778
					c0.501,0,0.988,0.172,1.379,0.486l20.452,16.451V86.217c0-1.215,0.985-2.2,2.2-2.2h40.342V26.804H47.555V84.017z"/>
			</g>
		</g>
		<g>
			<rect x="53.423" y="31.204" fill="#F26823" width="70.416" height="45.478"/>
		</g>
		<g>
			<rect x="107.701" y="37.072" fill="#231F20" width="5.869" height="4.401"/>
		</g>
		<g>
			<rect x="97.434" y="37.072" fill="#231F20" width="5.868" height="4.401"/>
		</g>
		<g>
			<rect x="66.626" y="47.342" fill="#231F20" width="46.943" height="4.401"/>
		</g>
		<g>
			<rect x="66.626" y="59.077" fill="#231F20" width="46.943" height="4.401"/>
		</g>
	</g>
	<g>
		<polygon fill="#FFC432" points="389.364,57.61 101.833,57.61 101.833,158.833 167.849,158.833 167.849,180.391 188.901,158.833 
			239.731,158.833 239.731,180.391 262.021,158.833 291.726,158.833 304.277,158.833 304.277,180.391 326,158.833 389.364,158.833 
					"/>
	</g>
	<g>
		<path fill="#F26823" d="M368.826,321.668v-44.017c0-14.214-10.023-23.464-24.242-23.464h-42.905
			c-14.219,0-26.74,9.25-26.74,23.464v44.017"/>
	</g>
	<g>
		<path fill="#FFC432" d="M291.075,321.668v-44.017c0-14.214-9.965-23.464-24.182-23.464h-42.906
			c-14.218,0-26.799,9.25-26.799,23.464v44.017"/>
	</g>
	<g>
		<g>
			<g>
				<g>
					<path fill="#33C1D8" d="M213.325,321.668v-44.017c0-14.214-9.904-23.464-24.121-23.464h-42.906
						c-14.218,0-26.86,9.25-26.86,23.464v44.017"/>
				</g>
				<g>
					<path fill="#231F20" d="M167.751,288.433c-0.917,0-1.738-0.569-2.06-1.428l-10.522-28.056l4.121-1.545l8.461,22.562
						l8.535-22.759l4.121,1.545l-10.595,28.253C169.49,287.863,168.668,288.433,167.751,288.433z"/>
				</g>
				<g>
					<rect x="163.448" y="295.264" fill="#231F20" width="4.401" height="10.268"/>
				</g>
				<g>
					<rect x="163.448" y="312.867" fill="#231F20" width="4.401" height="8.801"/>
				</g>
				<g>
					<path fill="#231F20" d="M171.958,243.917h-9.686c-10.677,0-19.363-8.686-19.363-19.362v-12.619
						c0-10.676,8.686-19.361,19.363-19.361h9.686c10.676,0,19.362,8.686,19.362,19.361v12.619
						C191.321,235.231,182.635,243.917,171.958,243.917z M162.272,196.975c-8.25,0-14.961,6.712-14.961,14.961v12.619
						c0,8.25,6.711,14.962,14.961,14.962h9.686c8.25,0,14.961-6.712,14.961-14.962v-12.619c0-8.249-6.711-14.961-14.961-14.961
						H162.272z"/>
				</g>
			</g>
			<g>
				<rect x="138.509" y="290.861" fill="#231F20" width="4.401" height="30.807"/>
			</g>
			<g>
				<rect x="189.853" y="290.861" fill="#231F20" width="4.401" height="30.807"/>
			</g>
		</g>
		<g>
			<g>
				<g>
					<path fill="#231F20" d="M292.541,321.668h-4.399v-44.017c0-12.664-8.316-20.531-21.704-20.531h-42.843v-4.401h42.843
						c15.857,0,26.104,9.787,26.104,24.933V321.668z"/>
				</g>
				<g>
					<path fill="#231F20" d="M244.985,288.433c-0.899,0-1.709-0.546-2.043-1.382L230.07,254.9l4.085-1.636l10.761,26.88
						l10.063-26.835l4.121,1.546l-12.057,32.149c-0.319,0.851-1.128,1.418-2.036,1.428
						C245.001,288.433,244.992,288.433,244.985,288.433z"/>
				</g>
				<g>
					<rect x="241.198" y="295.264" fill="#231F20" width="4.401" height="10.268"/>
				</g>
				<g>
					<rect x="241.198" y="312.867" fill="#231F20" width="4.401" height="8.801"/>
				</g>
				<g>
					<path fill="#231F20" d="M248.24,243.917h-9.682c-10.678,0-19.365-8.686-19.365-19.362v-12.619
						c0-10.676,8.687-19.361,19.365-19.361h9.682c10.677,0,19.364,8.686,19.364,19.361v12.619
						C267.604,235.231,258.917,243.917,248.24,243.917z M238.558,196.975c-8.251,0-14.963,6.712-14.963,14.961v12.619
						c0,8.25,6.712,14.962,14.963,14.962h9.682c8.25,0,14.963-6.712,14.963-14.962v-12.619c0-8.249-6.713-14.961-14.963-14.961
						H238.558z"/>
				</g>
			</g>
			<g>
				<rect x="267.604" y="290.861" fill="#231F20" width="4.4" height="30.807"/>
			</g>
		</g>
		<g>
			<g>
				<g>
					<path fill="#231F20" d="M370.293,321.668h-4.4v-44.017c0-12.473-8.723-20.531-22.222-20.531h-42.326v-4.401h42.326
						c15.924,0,26.622,10.02,26.622,24.933V321.668z"/>
				</g>
				<g>
					<path fill="#231F20" d="M322.209,288.412C322.209,288.412,322.209,288.412,322.209,288.412c-0.918,0-1.738-0.569-2.062-1.428
						l-12.047-32.129l4.121-1.546l9.988,26.639l9.788-26.068l4.12,1.548l-11.85,31.558
						C323.946,287.844,323.125,288.412,322.209,288.412z"/>
				</g>
				<g>
					<rect x="318.949" y="295.264" fill="#231F20" width="4.4" height="10.268"/>
				</g>
				<g>
					<rect x="318.949" y="312.867" fill="#231F20" width="4.4" height="8.801"/>
				</g>
				<g>
					<path fill="#231F20" d="M325.99,243.917h-9.682c-10.678,0-19.364-8.686-19.364-19.362v-12.619
						c0-10.676,8.687-19.361,19.364-19.361h9.682c10.678,0,19.364,8.686,19.364,19.361v12.619
						C345.354,235.231,336.668,243.917,325.99,243.917z M316.309,196.975c-8.252,0-14.965,6.712-14.965,14.961v12.619
						c0,8.25,6.713,14.962,14.965,14.962h9.682c8.25,0,14.964-6.712,14.964-14.962v-12.619c0-8.249-6.714-14.961-14.964-14.961
						H316.309z"/>
				</g>
			</g>
			<g>
				<rect x="343.888" y="290.861" fill="#231F20" width="4.399" height="30.807"/>
			</g>
		</g>
	</g>
	<g>
		<circle fill="#FFFFFF" cx="244.122" cy="106.512" r="15.615"/>
	</g>
	<g>
		<circle fill="#FFFFFF" cx="167.575" cy="106.512" r="15.614"/>
	</g>
	<g>
		<circle fill="#FFFFFF" cx="319.526" cy="106.512" r="15.614"/>
	</g>
	<g>
		<rect x="348.288" y="40.007" fill="#231F20" width="11.735" height="4.401"/>
	</g>
	<g>
		<rect x="365.893" y="40.007" fill="#231F20" width="64.547" height="4.401"/>
	</g>
	<g>
		<g>
			<rect x="348.288" y="51.743" fill="#231F20" width="11.735" height="4.4"/>
		</g>
		<g>
			<rect x="365.893" y="51.743" fill="#231F20" width="64.547" height="4.4"/>
		</g>
		<g>
			<rect x="348.288" y="63.479" fill="#231F20" width="11.735" height="4.4"/>
		</g>
		<g>
			<rect x="365.893" y="63.479" fill="#231F20" width="64.547" height="4.4"/>
		</g>
		<g>
			<rect x="348.288" y="75.215" fill="#231F20" width="11.735" height="4.401"/>
		</g>
		<g>
			<rect x="365.893" y="75.215" fill="#231F20" width="38.142" height="4.401"/>
		</g>
	</g>
	<g>
		<rect x="126.773" y="169.102" fill="#231F20" width="10.269" height="4.4"/>
	</g>
	<g>
		<rect x="54.891" y="169.102" fill="#231F20" width="66.014" height="4.4"/>
	</g>
	<g>
		<rect x="126.773" y="157.366" fill="#231F20" width="10.269" height="4.4"/>
	</g>
	<g>
		<rect x="54.891" y="157.366" fill="#231F20" width="66.014" height="4.4"/>
	</g>
	<g>
		<rect x="126.773" y="145.63" fill="#231F20" width="10.269" height="4.401"/>
	</g>
	<g>
		<rect x="54.891" y="145.63" fill="#231F20" width="66.014" height="4.401"/>
	</g>
	<g>
		<rect x="126.773" y="133.894" fill="#231F20" width="10.269" height="4.401"/>
	</g>
	<g>
		<rect x="82.763" y="133.894" fill="#231F20" width="38.142" height="4.401"/>
	</g>
	<g>
		<g>
			<g>
				<path fill="#231F20" d="M395.965,190.333c-0.326,0-0.653-0.072-0.959-0.22c-0.759-0.368-1.241-1.138-1.241-1.98v-17.563h-41.81
					c-1.215,0-2.199-0.985-2.199-2.2v-61.614c0-1.216,0.984-2.201,2.199-2.201h88.021c1.215,0,2.2,0.985,2.2,2.201v61.614
					c0,1.215-0.985,2.2-2.2,2.2H421.77l-24.44,19.29C396.932,190.172,396.45,190.333,395.965,190.333z M354.156,166.168h41.809
					c1.216,0,2.2,0.984,2.2,2.201v15.224l21.478-16.951c0.389-0.307,0.868-0.474,1.363-0.474h16.77v-57.213h-83.619V166.168z"/>
			</g>
		</g>
		<g>
			<rect x="360.023" y="114.822" fill="#33C1D8" width="71.883" height="44.011"/>
		</g>
		<g>
			<rect x="373.227" y="122.158" fill="#231F20" width="5.868" height="4.401"/>
		</g>
		<g>
			<rect x="383.496" y="122.158" fill="#231F20" width="5.868" height="4.401"/>
		</g>
		<g>
			<rect x="373.227" y="132.427" fill="#231F20" width="46.944" height="4.401"/>
		</g>
		<g>
			<rect x="373.227" y="144.163" fill="#231F20" width="46.944" height="4.401"/>
		</g>
	</g>
	<g>
		<g>
			<path fill="#231F20" d="M202.23,66.058c-6.253,0-11.341-5.088-11.341-11.341s5.088-11.34,11.341-11.34
				c6.252,0,11.339,5.087,11.339,11.34S208.483,66.058,202.23,66.058z M202.23,47.777c-3.826,0-6.939,3.113-6.939,6.939
				s3.113,6.939,6.939,6.939s6.939-3.113,6.939-6.939S206.057,47.777,202.23,47.777z"/>
		</g>
		<g>
			<path fill="#231F20" d="M236.504,66.058c-6.253,0-11.341-5.088-11.341-11.341s5.088-11.34,11.341-11.34
				s11.341,5.087,11.341,11.34S242.758,66.058,236.504,66.058z M236.504,47.777c-3.826,0-6.94,3.113-6.94,6.939
				s3.114,6.939,6.94,6.939c3.827,0,6.94-3.113,6.94-6.939S240.331,47.777,236.504,47.777z"/>
		</g>
		<g>
			<path fill="#231F20" d="M270.779,66.058c-6.253,0-11.341-5.088-11.341-11.341s5.088-11.34,11.341-11.34
				c6.254,0,11.342,5.087,11.342,11.34S277.033,66.058,270.779,66.058z M270.779,47.777c-3.826,0-6.94,3.113-6.94,6.939
				s3.114,6.939,6.94,6.939c3.828,0,6.941-3.113,6.941-6.939S274.607,47.777,270.779,47.777z"/>
		</g>
	</g>
	<g>
		<g>
			<path fill="#231F20" d="M379.972,229.601c-5.354,0-9.711-4.356-9.711-9.711c0-5.353,4.356-9.708,9.711-9.708
				s9.71,4.355,9.71,9.708C389.682,225.244,385.326,229.601,379.972,229.601z M379.972,214.582c-2.928,0-5.311,2.382-5.311,5.308
				c0,2.928,2.383,5.31,5.311,5.31c2.927,0,5.309-2.382,5.309-5.31C385.28,216.964,382.898,214.582,379.972,214.582z"/>
		</g>
		<g>
			<path fill="#231F20" d="M408.131,229.601c-5.354,0-9.71-4.356-9.71-9.711c0-5.353,4.356-9.708,9.71-9.708s9.71,4.355,9.71,9.708
				C417.841,225.244,413.484,229.601,408.131,229.601z M408.131,214.582c-2.927,0-5.309,2.382-5.309,5.308
				c0,2.928,2.382,5.31,5.309,5.31c2.928,0,5.309-2.382,5.309-5.31C413.439,216.964,411.059,214.582,408.131,214.582z"/>
		</g>
		<g>
			<path fill="#231F20" d="M436.291,229.601c-5.354,0-9.711-4.356-9.711-9.711c0-5.353,4.356-9.708,9.711-9.708
				c5.354,0,9.709,4.355,9.709,9.708C446,225.244,441.645,229.601,436.291,229.601z M436.291,214.582
				c-2.929,0-5.311,2.382-5.311,5.308c0,2.928,2.382,5.31,5.311,5.31c2.927,0,5.31-2.382,5.31-5.31
				C441.601,216.964,439.218,214.582,436.291,214.582z"/>
		</g>
	</g>
	<g>
		<g>
			<path fill="#231F20" d="M60.072,211.32c-5.354,0-9.71-4.356-9.71-9.709c0-5.354,4.356-9.711,9.71-9.711
				c5.354,0,9.711,4.356,9.711,9.711C69.783,206.964,65.426,211.32,60.072,211.32z M60.072,196.302c-2.927,0-5.309,2.382-5.309,5.31
				c0,2.927,2.381,5.309,5.309,5.309c2.928,0,5.31-2.382,5.31-5.309C65.381,198.684,63,196.302,60.072,196.302z"/>
		</g>
		<g>
			<path fill="#231F20" d="M88.232,211.32c-5.354,0-9.71-4.356-9.71-9.709c0-5.354,4.356-9.711,9.71-9.711s9.71,4.356,9.71,9.711
				C97.942,206.964,93.586,211.32,88.232,211.32z M88.232,196.302c-2.928,0-5.31,2.382-5.31,5.31c0,2.927,2.382,5.309,5.31,5.309
				c2.927,0,5.309-2.382,5.309-5.309C93.541,198.684,91.159,196.302,88.232,196.302z"/>
		</g>
		<g>
			<path fill="#231F20" d="M116.393,211.32c-5.355,0-9.712-4.356-9.712-9.709c0-5.354,4.357-9.711,9.712-9.711
				c5.354,0,9.709,4.356,9.709,9.711C126.102,206.964,121.746,211.32,116.393,211.32z M116.393,196.302
				c-2.928,0-5.311,2.382-5.311,5.31c0,2.927,2.382,5.309,5.311,5.309c2.927,0,5.309-2.382,5.309-5.309
				C121.701,198.684,119.32,196.302,116.393,196.302z"/>
		</g>
	</g>
	<g>
		<g>
			<rect x="195.721" y="3.332" fill="#231F20" width="4.401" height="19.071"/>
		</g>
		<g>
			<rect x="188.387" y="12.135" fill="#231F20" width="19.07" height="4.401"/>
		</g>
	</g>
	<g>
		<g>
			<rect x="79.83" y="232.182" fill="#231F20" width="4.401" height="19.071"/>
		</g>
		<g>
			<rect x="72.494" y="240.984" fill="#231F20" width="19.071" height="4.4"/>
		</g>
	</g>
	<g>
		<g>
			<rect x="455.379" y="72.28" fill="#231F20" width="4.4" height="19.071"/>
		</g>
		<g>
			<rect x="448.043" y="81.083" fill="#231F20" width="19.071" height="4.4"/>
		</g>
	</g>
	<g>
		<g>
			<rect x="277.873" y="172.035" fill="#231F20" width="4.401" height="19.071"/>
		</g>
		<g>
			<rect x="270.538" y="180.838" fill="#231F20" width="19.069" height="4.4"/>
		</g>
	</g>
	<g>
		<rect x="266.137" y="22.402" fill="#231F20" width="13.203" height="4.401"/>
	</g>
	<g>
		<rect x="285.208" y="22.402" fill="#231F20" width="14.67" height="4.401"/>
	</g>
	<g>
		<rect x="32.886" y="221.914" fill="#231F20" width="13.203" height="4.399"/>
	</g>
	<g>
		<rect x="51.956" y="221.914" fill="#231F20" width="14.67" height="4.399"/>
	</g>
	<g>
		<rect x="427.507" y="192.574" fill="#231F20" width="13.202" height="4.4"/>
	</g>
	<g>
		<rect x="446.576" y="192.574" fill="#231F20" width="14.671" height="4.4"/>
	</g>
	<g>
		<rect x="210.392" y="166.168" fill="#231F20" width="13.203" height="4.401"/>
	</g>
	<g>
		<rect x="229.462" y="166.168" fill="#231F20" width="14.67" height="4.401"/>
	</g>
</g>
</svg>
