<?xml version="1.0" encoding="utf-8"?>
<!-- Generator: Adobe Illustrator 16.0.0, SVG Export Plug-In . SVG Version: 6.00 Build 0)  -->
<!DOCTYPE svg PUBLIC "-//W3C//DTD SVG 1.1//EN" "http://www.w3.org/Graphics/SVG/1.1/DTD/svg11.dtd">
<svg version="1.1" id="Layer_1" xmlns="http://www.w3.org/2000/svg" xmlns:xlink="http://www.w3.org/1999/xlink" x="0px" y="0px"
	 width="170px" height="160px" viewBox="0 0 170 160" enable-background="new 0 0 170 160" xml:space="preserve">
<g>
	<g>
		<g>
			<path fill="#271F19" d="M169.754,74.074c-0.037-0.077-0.084-0.141-0.133-0.186c-0.027-0.023-0.053-0.04-0.082-0.057
				c-0.029-0.021-0.061-0.036-0.089-0.041c-0.476-0.094-0.942-0.124-1.388-0.104c-2.119,0.236-3.701,0.842-4.908,1.586
				s-2.033,1.633-2.6,2.421c0,0,0.055-0.912,0.075-1.83c0.013-0.458,0.019-0.919,0.015-1.267c-0.002-0.176-0.004-0.32-0.006-0.423
				c-0.004-0.107-0.007-0.168-0.007-0.168l-0.024,0.001c1.01-1.021,2.559-3.192,1.777-6.411c-1.126-4.616-4.14-6.198-4.394-5.536
				c-0.136,0.348-4.396,8.849,1.022,12.188c0.002,0.093,0.004,0.215,0.006,0.363c0.002,0.328-0.002,0.771-0.014,1.214
				c-0.02,0.887-0.074,1.775-0.074,1.775c-0.471-0.825-1.236-1.741-2.426-2.396c-1.188-0.657-2.811-1.047-4.932-0.81
				c-0.44,0.019-0.906,0.033-1.379,0.027c-0.03-0.002-0.06-0.003-0.086-0.009c-0.029,0.005-0.058,0.013-0.082,0.018
				c-0.049,0.018-0.096,0.038-0.129,0.061c-0.065,0.036-0.088,0.14-0.053,0.212c0.01,0.02,0.045,0.1,0.106,0.25
				c0.03,0.072,0.067,0.158,0.112,0.255c0.045,0.104,0.095,0.22,0.154,0.343c0.119,0.245,0.256,0.552,0.432,0.871
				c0.173,0.327,0.375,0.678,0.607,1.039c0.469,0.721,1.059,1.473,1.826,2.086c0.758,0.612,1.693,1.087,2.855,1.218l0,0
				c0.854,0.094,1.783-0.019,2.764-0.355c0,0-0.018,0.158-0.041,0.396c-0.027,0.239-0.057,0.56-0.102,0.875
				c-0.039,0.317-0.078,0.635-0.107,0.872c-0.029,0.238-0.053,0.396-0.053,0.396s-0.033,0.222-0.082,0.555
				c-0.049,0.33-0.107,0.771-0.187,1.212c-0.073,0.439-0.146,0.881-0.204,1.211c-0.06,0.328-0.103,0.549-0.103,0.549
				c-0.177-0.44-0.433-0.914-0.771-1.382c-0.343-0.469-0.765-0.93-1.31-1.354c-1.086-0.847-2.604-1.519-4.716-1.806
				c-0.438-0.061-0.901-0.104-1.377-0.132c-0.118-0.009-0.235,0.034-0.315,0.111c-0.08,0.078-0.119,0.187-0.101,0.294
				c0.019,0.119,0.265,1.578,0.992,3.172c0.377,0.798,0.861,1.626,1.549,2.336c0.693,0.706,1.556,1.286,2.693,1.551l0,0
				c0.838,0.196,1.779,0.194,2.788-0.025c0,0-0.03,0.156-0.088,0.392c-0.054,0.231-0.13,0.543-0.204,0.854s-0.15,0.621-0.208,0.855
				c-0.062,0.232-0.101,0.387-0.101,0.387s-0.059,0.217-0.143,0.541c-0.091,0.322-0.193,0.756-0.324,1.184
				c-0.25,0.859-0.5,1.716-0.5,1.716c-0.273-0.923-0.775-1.993-1.764-2.956c-0.98-0.968-2.412-1.813-4.476-2.342
				c-0.429-0.11-0.884-0.208-1.353-0.289c-0.117-0.02-0.236,0.008-0.326,0.076c-0.088,0.07-0.139,0.172-0.133,0.283
				c0,0.058,0.023,0.463,0.111,1.059c0.074,0.593,0.239,1.384,0.514,2.218c0.264,0.83,0.683,1.718,1.273,2.496
				c0.594,0.776,1.396,1.454,2.496,1.847v0.002c0.811,0.287,1.738,0.39,2.771,0.287c0,0-0.214,0.605-0.426,1.209
				c-0.102,0.303-0.225,0.6-0.311,0.823s-0.146,0.373-0.146,0.373s-0.078,0.209-0.199,0.522c-0.119,0.312-0.277,0.729-0.455,1.139
				c-0.349,0.822-0.692,1.646-0.692,1.646c-0.167-0.947-0.552-2.071-1.407-3.138c-0.869-1.073-2.197-2.075-4.189-2.837
				c-0.414-0.158-0.852-0.309-1.309-0.441c-0.113-0.035-0.236-0.02-0.332,0.039c-0.097,0.059-0.156,0.154-0.163,0.265
				c0,0.127-0.116,1.598,0.248,3.317c0.171,0.854,0.474,1.778,0.982,2.623c0.499,0.838,1.216,1.604,2.262,2.121l0,0
				c0.772,0.383,1.683,0.594,2.724,0.612c0,0-0.285,0.571-0.57,1.146c-0.143,0.287-0.286,0.572-0.396,0.787
				c-0.112,0.213-0.188,0.353-0.188,0.353s-0.424,0.786-0.848,1.571c-0.207,0.395-0.445,0.771-0.611,1.063
				c-0.17,0.29-0.28,0.482-0.28,0.482c-0.021-0.478-0.093-1.006-0.248-1.558c-0.153-0.553-0.416-1.143-0.781-1.722
				c-0.729-1.166-1.93-2.313-3.813-3.301c-0.395-0.207-0.814-0.406-1.248-0.594c-0.112-0.047-0.236-0.047-0.338,0
				c-0.103,0.043-0.176,0.133-0.195,0.237c-0.014,0.062-0.088,0.454-0.131,1.054c-0.02,0.303-0.045,0.647-0.055,1.025
				c-0.006,0.384,0.006,0.799,0.045,1.236c0.094,0.882,0.258,1.814,0.66,2.714c0.403,0.896,1.03,1.741,2.006,2.381l0,0
				c0.723,0.474,1.598,0.788,2.621,0.928c0,0-0.084,0.136-0.215,0.339c-0.129,0.201-0.291,0.478-0.479,0.737
				c-0.363,0.526-0.725,1.054-0.725,1.054s-0.129,0.187-0.314,0.461c-0.098,0.139-0.205,0.299-0.324,0.471
				c-0.125,0.17-0.258,0.35-0.389,0.525c-0.533,0.717-1.066,1.435-1.066,1.435c0.066-0.958-0.045-2.142-0.623-3.375
				c-0.591-1.249-1.65-2.536-3.402-3.742c-0.364-0.252-0.76-0.5-1.168-0.738c-0.104-0.062-0.227-0.075-0.332-0.043
				c-0.106,0.035-0.188,0.114-0.219,0.218c-0.021,0.131-0.496,1.51-0.529,3.273c-0.039,0.866,0.027,1.827,0.32,2.768
				c0.148,0.471,0.355,0.936,0.633,1.377c0.275,0.438,0.623,0.854,1.069,1.23v0.001c0.659,0.556,1.5,0.981,2.493,1.24
				c0,0-0.1,0.122-0.25,0.312c-0.159,0.182-0.367,0.422-0.578,0.662c-0.42,0.483-0.84,0.967-0.84,0.967s-0.146,0.168-0.365,0.42
				c-0.217,0.256-0.533,0.572-0.836,0.899c-0.613,0.647-1.225,1.298-1.225,1.298c0.178-0.943,0.207-2.136-0.217-3.432
				c-0.207-0.645-0.543-1.327-1.023-2.021c-0.479-0.693-1.104-1.396-1.898-2.103c-0.332-0.294-0.693-0.589-1.069-0.874
				c-0.097-0.071-0.214-0.102-0.322-0.08s-0.198,0.092-0.242,0.191c-0.022,0.059-0.192,0.418-0.392,0.979
				c-0.194,0.562-0.409,1.335-0.538,2.204c-0.146,0.852-0.188,1.813-0.009,2.784c0.091,0.483,0.238,0.969,0.463,1.442
				c0.218,0.467,0.517,0.922,0.912,1.35v0.003c0.587,0.629,1.369,1.155,2.324,1.532c0,0-0.115,0.11-0.287,0.277
				c-0.178,0.162-0.416,0.374-0.653,0.588c-0.476,0.428-0.951,0.855-0.951,0.855s-0.166,0.148-0.414,0.372
				c-0.246,0.229-0.599,0.503-0.938,0.792c-0.688,0.566-1.377,1.138-1.377,1.138c0.297-0.917,0.47-2.096,0.207-3.435
				c-0.127-0.662-0.375-1.383-0.77-2.129c-0.391-0.746-0.925-1.52-1.628-2.316c-0.295-0.333-0.617-0.669-0.954-0.998
				c-0.087-0.083-0.202-0.127-0.313-0.119c-0.109,0.008-0.207,0.066-0.26,0.159c-0.031,0.058-0.242,0.39-0.505,0.922
				c-0.264,0.529-0.563,1.274-0.801,2.113c-0.246,0.83-0.412,1.782-0.353,2.768c0.017,0.248,0.045,0.495,0.09,0.744
				c0.043,0.245,0.105,0.491,0.187,0.737c0.158,0.492,0.396,0.98,0.738,1.453h0.002c0.502,0.699,1.214,1.315,2.123,1.816
				c0,0-0.035,0.023-0.091,0.065c-0.059,0.041-0.139,0.098-0.236,0.168c-0.193,0.138-0.456,0.321-0.718,0.507
				c-0.523,0.368-1.048,0.738-1.048,0.738s-0.045,0.031-0.125,0.088c-0.078,0.059-0.191,0.134-0.336,0.225
				c-0.278,0.184-0.653,0.428-1.026,0.672c-0.373,0.241-0.748,0.485-1.03,0.668c-0.283,0.174-0.478,0.287-0.478,0.287
				c0.104-0.213,0.202-0.441,0.291-0.691c0.081-0.254,0.155-0.523,0.217-0.809c0.114-0.568,0.168-1.197,0.119-1.881
				c-0.052-0.681-0.201-1.416-0.496-2.199c-0.295-0.785-0.731-1.623-1.332-2.5c-0.252-0.367-0.526-0.738-0.826-1.107
				c-0.075-0.092-0.185-0.148-0.293-0.154s-0.217,0.035-0.286,0.117c-0.037,0.048-0.294,0.355-0.613,0.857
				c-0.162,0.252-0.34,0.551-0.521,0.892c-0.181,0.345-0.375,0.704-0.543,1.108c-0.174,0.401-0.324,0.836-0.446,1.293
				c-0.06,0.229-0.111,0.463-0.148,0.703c-0.041,0.234-0.074,0.475-0.09,0.719c-0.066,0.973,0.086,2.012,0.649,3.033l0,0
				c0.418,0.756,1.046,1.446,1.89,2.053c0,0-0.562,0.312-1.119,0.621c-0.279,0.158-0.56,0.313-0.775,0.42
				c-0.213,0.109-0.355,0.182-0.355,0.182s-0.795,0.408-1.59,0.814c-0.807,0.383-1.613,0.765-1.613,0.765
				c0.252-0.406,0.492-0.884,0.678-1.429c0.095-0.273,0.176-0.562,0.234-0.87c0.058-0.313,0.095-0.64,0.107-0.984
				c0.063-1.377-0.27-3.005-1.256-4.892c-0.207-0.393-0.439-0.797-0.691-1.197c-0.063-0.104-0.164-0.172-0.274-0.193
				c-0.109-0.018-0.22,0.012-0.3,0.088c-0.041,0.043-0.328,0.326-0.709,0.797c-0.385,0.459-0.871,1.092-1.305,1.863
				c-0.432,0.768-0.828,1.642-1.004,2.614c-0.176,0.978-0.146,2.019,0.297,3.099l0,0c0.328,0.791,0.879,1.563,1.643,2.252
				c0,0-0.146,0.067-0.368,0.156c-0.224,0.09-0.519,0.209-0.815,0.329c-0.595,0.237-1.191,0.476-1.191,0.476
				s-0.838,0.311-1.674,0.621c-0.418,0.158-0.842,0.301-1.16,0.406c-0.316,0.106-0.529,0.18-0.529,0.18
				c0.298-0.375,0.592-0.821,0.836-1.342c0.243-0.527,0.439-1.133,0.549-1.811c0.217-1.357,0.076-3.008-0.693-4.996
				c-0.157-0.414-0.344-0.84-0.551-1.268c-0.051-0.107-0.146-0.19-0.252-0.224c-0.111-0.032-0.223-0.013-0.311,0.054
				c-0.102,0.069-1.27,1.002-2.317,2.418c-0.132,0.181-0.257,0.366-0.379,0.563c-0.124,0.191-0.245,0.391-0.358,0.6
				c-0.226,0.414-0.418,0.858-0.56,1.33c-0.282,0.951-0.366,1.992-0.041,3.113v0.001c0.239,0.824,0.704,1.647,1.386,2.418
				c0,0-0.152,0.049-0.383,0.115c-0.23,0.063-0.539,0.149-0.848,0.237s-0.617,0.176-0.85,0.238
				c-0.229,0.068-0.388,0.104-0.388,0.104s-0.864,0.223-1.731,0.442c-0.869,0.202-1.738,0.403-1.738,0.403
				c0.334-0.343,0.672-0.76,0.973-1.253c0.148-0.246,0.289-0.514,0.414-0.801c0.127-0.291,0.236-0.604,0.323-0.936
				c0.364-1.328,0.399-2.99-0.147-5.046c-0.117-0.43-0.254-0.874-0.412-1.321c-0.039-0.113-0.125-0.205-0.229-0.246
				c-0.104-0.045-0.221-0.037-0.313,0.021c-0.056,0.031-0.401,0.245-0.881,0.621c-0.48,0.36-1.097,0.89-1.691,1.54
				c-0.596,0.646-1.17,1.441-1.555,2.342c-0.386,0.905-0.576,1.942-0.373,3.092l0,0c0.15,0.848,0.521,1.703,1.121,2.547
				c0,0-0.158,0.03-0.396,0.073c-0.233,0.048-0.552,0.101-0.867,0.152s-0.633,0.104-0.869,0.146
				c-0.235,0.041-0.396,0.061-0.396,0.061s-0.221,0.031-0.551,0.081c-0.33,0.051-0.776,0.114-1.217,0.169
				c-0.445,0.056-0.885,0.115-1.22,0.148c-0.33,0.037-0.556,0.063-0.556,0.063c0.742-0.6,1.525-1.503,2.025-2.776
				c0.502-1.284,0.715-2.933,0.389-5.036c-0.067-0.439-0.155-0.896-0.266-1.357c-0.027-0.115-0.103-0.215-0.199-0.271
				c-0.098-0.053-0.213-0.06-0.313-0.012c-0.111,0.055-1.451,0.703-2.75,1.863c-0.324,0.285-0.65,0.611-0.949,0.97
				c-0.301,0.354-0.578,0.745-0.814,1.173c-0.471,0.852-0.778,1.854-0.721,3.018l0,0c0.043,0.859,0.301,1.76,0.791,2.67
				c0,0-0.637,0.041-1.271,0.065c-0.318,0.013-0.633,0.021-0.869,0.022c-0.229,0.001-0.383,0.001-0.383,0.001l-0.022,1.625
				c0,0,0.171-0.002,0.427-0.002c0.25-0.005,0.581-0.015,0.909-0.025c0.657-0.024,1.312-0.067,1.312-0.067
				c-0.384,0.966-0.577,1.887-0.534,2.746c0.057,1.168,0.531,2.125,1.242,2.9c0.354,0.387,0.763,0.723,1.207,1.02
				c0.438,0.295,0.908,0.541,1.383,0.754c1.883,0.843,3.775,1.019,3.928,1.029c0.137,0.014,0.277-0.031,0.381-0.113
				c0.103-0.084,0.158-0.202,0.152-0.322c-0.023-0.475-0.07-0.938-0.137-1.375c-0.326-2.104-1.098-3.607-1.982-4.689
				c-0.888-1.091-1.893-1.761-2.762-2.193c0,0,0.227-0.025,0.566-0.063c0.342-0.033,0.789-0.096,1.244-0.154
				c0.452-0.052,0.903-0.121,1.241-0.17c0.336-0.052,0.563-0.084,0.563-0.084s0.162-0.021,0.404-0.063
				c0.241-0.039,0.563-0.094,0.885-0.146c0.324-0.054,0.646-0.106,0.886-0.154c0.239-0.045,0.401-0.074,0.401-0.074
				c-0.263,1.005-0.338,1.943-0.187,2.793c0.205,1.146,0.778,2.041,1.563,2.729c0.778,0.693,1.752,1.153,2.722,1.475
				c0.969,0.314,1.928,0.462,2.663,0.543c0.73,0.066,1.238,0.061,1.316,0.059c0.135-0.002,0.271-0.059,0.362-0.152
				c0.093-0.096,0.138-0.217,0.117-0.336c-0.073-0.469-0.17-0.924-0.282-1.352c-0.552-2.057-1.48-3.473-2.475-4.454
				c-0.25-0.245-0.504-0.463-0.758-0.655c-0.256-0.199-0.511-0.373-0.766-0.527c-0.506-0.307-1.002-0.53-1.457-0.69
				c0,0,0.887-0.204,1.775-0.411c0.883-0.226,1.766-0.453,1.766-0.453s0.16-0.035,0.395-0.104c0.234-0.066,0.552-0.154,0.863-0.244
				c0.316-0.088,0.631-0.179,0.865-0.242c0.234-0.066,0.391-0.119,0.391-0.119c-0.153,1.035-0.129,1.963,0.111,2.793
				c0.326,1.121,0.998,1.957,1.844,2.55c0.422,0.299,0.889,0.54,1.375,0.733c0.241,0.1,0.492,0.185,0.741,0.26
				c0.249,0.069,0.499,0.129,0.749,0.183c1.998,0.426,3.877,0.187,4.027,0.173c0.139-0.016,0.268-0.089,0.35-0.189
				c0.082-0.104,0.11-0.229,0.08-0.347c-0.125-0.459-0.27-0.901-0.43-1.315c-0.766-1.982-1.844-3.293-2.938-4.164
				c-0.55-0.438-1.105-0.762-1.642-1.008c-0.539-0.254-1.056-0.426-1.522-0.541c0,0,0.215-0.073,0.536-0.184
				c0.326-0.107,0.757-0.251,1.183-0.415c0.854-0.315,1.707-0.631,1.707-0.631s0.608-0.242,1.217-0.485
				c0.302-0.123,0.605-0.246,0.832-0.334c0.229-0.092,0.375-0.16,0.375-0.16c-0.039,1.047,0.084,1.963,0.414,2.764
				c0.445,1.079,1.205,1.838,2.109,2.332c0.907,0.494,1.975,0.762,2.988,0.851c1.016,0.087,1.993,0.035,2.73-0.052
				c0.734-0.1,1.231-0.218,1.311-0.238c0.132-0.033,0.251-0.117,0.323-0.23c0.069-0.114,0.085-0.243,0.043-0.354
				c-0.175-0.44-0.369-0.864-0.575-1.258c-0.986-1.888-2.204-3.06-3.391-3.799c-0.297-0.185-0.594-0.341-0.883-0.476
				c-0.293-0.137-0.582-0.252-0.862-0.348c-0.565-0.189-1.097-0.303-1.574-0.363c0,0,0.821-0.391,1.646-0.779
				c0.813-0.415,1.623-0.831,1.623-0.831s0.146-0.075,0.363-0.188c0.221-0.108,0.506-0.266,0.791-0.427
				c0.572-0.316,1.143-0.637,1.143-0.637c0.076,1.035,0.313,1.945,0.729,2.699c0.563,1.021,1.4,1.681,2.37,2.08
				c0.239,0.1,0.489,0.184,0.743,0.252c0.252,0.064,0.509,0.112,0.766,0.149c0.521,0.073,1.046,0.099,1.563,0.086
				c0.509-0.014,1.02-0.049,1.475-0.126c0.457-0.074,0.877-0.165,1.24-0.256c0.724-0.182,1.21-0.355,1.283-0.381
				c0.131-0.049,0.24-0.143,0.299-0.266s0.057-0.256-0.002-0.362c-0.225-0.416-0.469-0.814-0.721-1.183
				c-0.6-0.88-1.236-1.568-1.883-2.115c-0.646-0.551-1.302-0.959-1.938-1.258c-0.637-0.302-1.254-0.492-1.832-0.608
				c-0.289-0.06-0.568-0.099-0.836-0.124c-0.268-0.028-0.526-0.047-0.771-0.051c0,0,0.195-0.117,0.488-0.295
				c0.287-0.188,0.67-0.436,1.051-0.686c0.384-0.247,0.767-0.497,1.052-0.684c0.145-0.092,0.264-0.17,0.344-0.229
				c0.08-0.059,0.125-0.09,0.125-0.09s0.537-0.378,1.07-0.755c0.268-0.188,0.534-0.377,0.733-0.52
				c0.103-0.07,0.187-0.129,0.244-0.172c0.057-0.043,0.09-0.066,0.09-0.066c0.198,1.02,0.535,1.89,1.039,2.588
				c0.344,0.474,0.741,0.85,1.185,1.143c0.219,0.146,0.45,0.273,0.688,0.381c0.236,0.104,0.48,0.187,0.732,0.254
				c0.998,0.269,2.092,0.258,3.116,0.114c1.019-0.151,1.948-0.459,2.65-0.721c0.7-0.263,1.167-0.494,1.233-0.536
				c0.121-0.066,0.217-0.181,0.258-0.309c0.039-0.129,0.024-0.26-0.045-0.357c-0.278-0.387-0.564-0.752-0.859-1.084
				c-0.705-0.799-1.424-1.406-2.129-1.868c-0.707-0.463-1.4-0.778-2.073-1.003c-1.339-0.441-2.554-0.473-3.507-0.355
				c0,0,0.701-0.58,1.404-1.164c0.35-0.295,0.709-0.575,0.959-0.807c0.256-0.229,0.426-0.382,0.426-0.382s0.482-0.438,0.971-0.875
				c0.244-0.219,0.488-0.438,0.67-0.601c0.176-0.172,0.29-0.287,0.29-0.287c0.335,0.996,0.772,1.816,1.36,2.447
				c0.398,0.428,0.842,0.752,1.314,0.988c0.469,0.23,0.969,0.375,1.481,0.445c1.026,0.143,2.112-0.002,3.116-0.268
				c0.982-0.28,1.869-0.691,2.531-1.037s1.096-0.631,1.152-0.68c0.115-0.082,0.191-0.203,0.219-0.338
				c0.025-0.132-0.007-0.26-0.086-0.349c-0.322-0.349-0.654-0.677-0.986-0.972c-0.797-0.707-1.582-1.221-2.342-1.594
				c-0.756-0.373-1.481-0.603-2.18-0.746c-1.383-0.275-2.592-0.153-3.523,0.078c0,0,0.625-0.664,1.252-1.328
				c0.312-0.332,0.633-0.656,0.854-0.918c0.226-0.257,0.375-0.43,0.375-0.43s0.429-0.492,0.858-0.984
				c0.216-0.248,0.429-0.494,0.588-0.681c0.152-0.19,0.259-0.317,0.259-0.317c0.446,0.945,0.983,1.709,1.646,2.264
				c0.444,0.377,0.924,0.646,1.424,0.82c0.494,0.176,1.005,0.259,1.521,0.269c1.038,0.019,2.102-0.253,3.061-0.638
				c1.879-0.803,3.354-2.043,3.451-2.157c0.104-0.093,0.168-0.226,0.18-0.358c0.011-0.136-0.04-0.259-0.131-0.336
				c-0.361-0.309-0.729-0.593-1.096-0.845c-1.755-1.21-3.373-1.673-4.764-1.771c-1.411-0.106-2.598,0.155-3.495,0.496
				c0,0,0.541-0.73,1.086-1.464c0.136-0.183,0.271-0.368,0.4-0.538c0.118-0.176,0.231-0.342,0.329-0.481
				c0.193-0.281,0.322-0.47,0.322-0.47s0.371-0.539,0.738-1.078c0.191-0.268,0.359-0.547,0.493-0.754
				c0.13-0.207,0.216-0.345,0.216-0.345c0.557,0.882,1.189,1.578,1.912,2.052c0.975,0.638,2.021,0.826,3.059,0.721
				c1.033-0.104,2.071-0.492,2.95-1.004c0.446-0.254,0.863-0.53,1.238-0.807c0.378-0.274,0.716-0.549,0.985-0.801
				c0.551-0.501,0.895-0.885,0.947-0.943c0.092-0.104,0.145-0.24,0.137-0.375c-0.008-0.133-0.066-0.25-0.168-0.315
				c-0.394-0.261-0.793-0.499-1.187-0.706c-1.887-0.988-3.56-1.26-4.957-1.193c-0.7,0.033-1.321,0.16-1.899,0.322
				c-0.57,0.161-1.076,0.371-1.506,0.594c0,0,0.116-0.197,0.289-0.492c0.168-0.297,0.411-0.684,0.623-1.088
				c0.434-0.803,0.863-1.604,0.863-1.604s0.079-0.146,0.196-0.36c0.106-0.219,0.254-0.512,0.399-0.804
				c0.293-0.586,0.584-1.171,0.584-1.171c0.646,0.807,1.356,1.421,2.131,1.803c1.047,0.516,2.111,0.581,3.138,0.359
				c1.01-0.229,1.967-0.746,2.803-1.346c1.649-1.213,2.767-2.767,2.84-2.896c0.077-0.115,0.114-0.258,0.091-0.39
				c-0.023-0.133-0.099-0.24-0.205-0.295c-0.424-0.213-0.849-0.402-1.265-0.563c-1.987-0.759-3.676-0.832-5.047-0.601
				c-1.392,0.229-2.481,0.766-3.274,1.31c0,0,0.354-0.839,0.707-1.679c0.184-0.42,0.346-0.846,0.467-1.165
				c0.121-0.318,0.205-0.532,0.205-0.532s0.059-0.152,0.146-0.38c0.085-0.229,0.213-0.532,0.315-0.841
				c0.22-0.616,0.438-1.233,0.438-1.233c0.739,0.728,1.518,1.254,2.329,1.543c1.101,0.392,2.164,0.333,3.151-0.008
				c0.987-0.336,1.867-0.963,2.629-1.653c0.757-0.691,1.353-1.459,1.787-2.063c0.427-0.608,0.662-1.061,0.701-1.129
				c0.064-0.12,0.082-0.268,0.047-0.395c-0.037-0.129-0.125-0.229-0.235-0.269c-0.445-0.165-0.89-0.306-1.318-0.416
				c-2.063-0.528-3.75-0.411-5.092-0.025c-1.342,0.392-2.375,1.044-3.101,1.677c0,0,0.257-0.875,0.515-1.748
				c0.129-0.438,0.235-0.881,0.328-1.209c0.088-0.332,0.144-0.553,0.144-0.553s0.045-0.156,0.104-0.395s0.135-0.557,0.214-0.873
				c0.074-0.317,0.148-0.637,0.206-0.875c0.06-0.236,0.091-0.398,0.091-0.398c0.823,0.639,1.646,1.074,2.489,1.268
				c1.135,0.267,2.194,0.088,3.127-0.364c0.932-0.448,1.764-1.164,2.426-1.941c1.343-1.549,2.058-3.325,2.11-3.468
				c0.051-0.128,0.054-0.273,0.003-0.4c-0.054-0.123-0.15-0.211-0.265-0.238c-0.463-0.112-0.918-0.199-1.356-0.262
				c-2.111-0.287-3.772,0.026-5.065,0.564c-0.641,0.271-1.207,0.598-1.682,0.945c-0.479,0.352-0.876,0.722-1.209,1.074
				c0,0,0.041-0.226,0.104-0.562c0.059-0.335,0.133-0.787,0.209-1.235c0.082-0.449,0.139-0.902,0.19-1.24
				c0.049-0.336,0.082-0.563,0.082-0.563s0.024-0.16,0.053-0.404c0.031-0.244,0.072-0.568,0.113-0.894
				c0.045-0.324,0.073-0.649,0.103-0.896c0.021-0.242,0.043-0.406,0.043-0.406c0.889,0.537,1.766,0.875,2.623,0.969
				c1.159,0.13,2.182-0.176,3.063-0.739c0.873-0.567,1.604-1.389,2.171-2.266c0.284-0.437,0.527-0.892,0.736-1.323
				c0.203-0.439,0.375-0.849,0.502-1.231c0.066-0.186,0.121-0.36,0.173-0.519c0.049-0.162,0.086-0.31,0.118-0.432
				c0.064-0.247,0.099-0.42,0.105-0.466C169.848,74.396,169.826,74.244,169.754,74.074z"/>
		</g>
		<g>
			<path fill="#271F19" d="M0.247,74.074c0.035-0.077,0.083-0.141,0.134-0.186c0.027-0.023,0.052-0.04,0.082-0.057
				c0.027-0.021,0.059-0.036,0.088-0.041c0.477-0.094,0.941-0.124,1.384-0.104c2.122,0.236,3.704,0.842,4.911,1.586
				c1.206,0.744,2.035,1.633,2.602,2.421c0,0-0.055-0.912-0.079-1.83c-0.009-0.458-0.013-0.919-0.011-1.267
				c0.002-0.176,0.004-0.32,0.006-0.423c0.003-0.107,0.005-0.168,0.005-0.168l0.026,0.001c-1.012-1.021-2.563-3.192-1.776-6.411
				c1.124-4.616,4.136-6.198,4.392-5.536c0.133,0.348,4.395,8.849-1.023,12.188c-0.002,0.093-0.005,0.215-0.006,0.363
				c-0.004,0.328,0,0.771,0.012,1.214c0.021,0.887,0.076,1.775,0.076,1.775c0.469-0.825,1.236-1.741,2.424-2.396
				c1.188-0.657,2.809-1.047,4.932-0.81c0.442,0.019,0.906,0.033,1.378,0.027c0.032-0.002,0.062-0.003,0.089-0.009
				c0.027,0.005,0.055,0.013,0.08,0.018c0.051,0.018,0.094,0.038,0.129,0.061c0.064,0.036,0.088,0.14,0.052,0.212
				c-0.007,0.02-0.042,0.1-0.103,0.25c-0.035,0.072-0.072,0.158-0.117,0.255c-0.043,0.104-0.094,0.22-0.152,0.343
				c-0.119,0.245-0.256,0.552-0.434,0.871c-0.17,0.327-0.375,0.678-0.607,1.039c-0.467,0.721-1.058,1.473-1.824,2.086
				c-0.758,0.612-1.697,1.087-2.857,1.218l0,0c-0.855,0.094-1.783-0.019-2.764-0.355c0,0,0.018,0.158,0.042,0.396
				c0.028,0.239,0.056,0.56,0.1,0.875c0.04,0.317,0.081,0.635,0.11,0.872c0.027,0.238,0.053,0.396,0.053,0.396
				s0.033,0.222,0.082,0.555c0.049,0.33,0.105,0.771,0.184,1.212c0.074,0.439,0.148,0.881,0.205,1.211
				c0.063,0.328,0.102,0.549,0.102,0.549c0.178-0.44,0.43-0.914,0.773-1.382c0.342-0.469,0.762-0.93,1.307-1.354
				c1.088-0.847,2.605-1.519,4.717-1.806c0.441-0.061,0.901-0.104,1.375-0.132c0.121-0.009,0.238,0.034,0.318,0.111
				c0.078,0.078,0.117,0.187,0.1,0.294c-0.02,0.119-0.262,1.578-0.995,3.172c-0.374,0.798-0.86,1.626-1.548,2.336
				c-0.691,0.706-1.555,1.286-2.693,1.551l0,0c-0.836,0.196-1.779,0.194-2.787-0.025c0,0,0.028,0.156,0.09,0.392
				c0.053,0.231,0.129,0.543,0.203,0.854c0.074,0.311,0.148,0.621,0.207,0.855c0.061,0.232,0.102,0.387,0.102,0.387
				s0.057,0.217,0.141,0.541c0.09,0.322,0.195,0.756,0.322,1.184c0.251,0.859,0.501,1.716,0.501,1.716
				c0.278-0.923,0.778-1.993,1.763-2.956c0.982-0.968,2.414-1.813,4.475-2.342c0.429-0.11,0.887-0.208,1.354-0.289
				c0.117-0.02,0.238,0.008,0.325,0.076c0.091,0.07,0.142,0.172,0.136,0.283c0,0.058-0.025,0.463-0.113,1.059
				c-0.076,0.593-0.241,1.384-0.512,2.218c-0.264,0.83-0.684,1.718-1.273,2.496c-0.594,0.776-1.396,1.454-2.496,1.847v0.002
				c-0.811,0.287-1.741,0.39-2.774,0.287c0,0,0.216,0.605,0.427,1.209c0.104,0.303,0.227,0.6,0.311,0.823
				c0.088,0.224,0.144,0.373,0.144,0.373s0.083,0.209,0.202,0.522c0.119,0.312,0.279,0.729,0.457,1.139
				c0.346,0.822,0.69,1.646,0.69,1.646c0.167-0.947,0.553-2.071,1.409-3.138c0.869-1.073,2.199-2.075,4.188-2.837
				c0.414-0.158,0.854-0.309,1.311-0.441c0.112-0.035,0.234-0.02,0.329,0.039c0.099,0.059,0.157,0.154,0.165,0.265
				c0,0.127,0.115,1.598-0.248,3.317c-0.171,0.854-0.473,1.778-0.983,2.623c-0.497,0.838-1.217,1.604-2.259,2.121l0,0
				c-0.775,0.383-1.684,0.594-2.726,0.612c0,0,0.286,0.571,0.569,1.146c0.143,0.287,0.289,0.572,0.395,0.787
				c0.115,0.213,0.191,0.353,0.191,0.353s0.422,0.786,0.848,1.571c0.207,0.395,0.445,0.771,0.611,1.063
				c0.168,0.29,0.281,0.482,0.281,0.482c0.021-0.478,0.092-1.006,0.25-1.558c0.151-0.553,0.412-1.143,0.777-1.722
				c0.73-1.166,1.932-2.313,3.816-3.301c0.393-0.207,0.814-0.406,1.248-0.594c0.109-0.047,0.234-0.047,0.336,0
				c0.102,0.043,0.174,0.133,0.194,0.237c0.013,0.062,0.091,0.454,0.133,1.054c0.019,0.303,0.044,0.647,0.054,1.025
				c0.006,0.384-0.006,0.799-0.045,1.236c-0.093,0.882-0.256,1.814-0.66,2.714c-0.404,0.896-1.029,1.741-2.006,2.381l0,0
				c-0.723,0.474-1.598,0.788-2.621,0.928c0,0,0.086,0.136,0.212,0.339c0.132,0.201,0.297,0.478,0.482,0.737
				c0.36,0.526,0.724,1.054,0.724,1.054s0.126,0.187,0.316,0.461c0.095,0.139,0.203,0.299,0.322,0.471
				c0.125,0.17,0.258,0.35,0.391,0.525c0.533,0.717,1.064,1.435,1.064,1.435c-0.064-0.958,0.046-2.142,0.621-3.375
				c0.593-1.249,1.652-2.536,3.406-3.742c0.365-0.252,0.76-0.5,1.168-0.738c0.103-0.062,0.225-0.075,0.332-0.043
				c0.105,0.035,0.186,0.114,0.219,0.218c0.021,0.131,0.496,1.51,0.529,3.273c0.037,0.866-0.027,1.827-0.322,2.768
				c-0.148,0.471-0.354,0.936-0.633,1.377c-0.275,0.438-0.624,0.854-1.068,1.23v0.001c-0.66,0.556-1.5,0.981-2.496,1.24
				c0,0,0.104,0.122,0.254,0.312c0.155,0.182,0.369,0.422,0.576,0.662c0.422,0.483,0.842,0.967,0.842,0.967s0.145,0.168,0.365,0.42
				c0.217,0.256,0.531,0.572,0.836,0.899c0.613,0.647,1.225,1.298,1.225,1.298c-0.178-0.943-0.209-2.136,0.214-3.432
				c0.21-0.645,0.546-1.327,1.024-2.021c0.48-0.693,1.104-1.396,1.898-2.103c0.334-0.294,0.692-0.589,1.07-0.874
				c0.096-0.071,0.215-0.102,0.323-0.08c0.11,0.021,0.197,0.092,0.241,0.191c0.021,0.059,0.195,0.418,0.392,0.979
				c0.197,0.562,0.411,1.335,0.538,2.204c0.145,0.852,0.189,1.813,0.01,2.784c-0.09,0.483-0.238,0.969-0.464,1.442
				c-0.219,0.467-0.515,0.922-0.911,1.35v0.003c-0.589,0.629-1.372,1.155-2.325,1.532c0,0,0.114,0.11,0.288,0.277
				c0.177,0.162,0.414,0.374,0.652,0.588c0.476,0.428,0.953,0.855,0.953,0.855s0.164,0.148,0.414,0.372
				c0.245,0.229,0.598,0.503,0.938,0.792c0.688,0.566,1.377,1.138,1.377,1.138c-0.295-0.917-0.472-2.096-0.207-3.435
				c0.129-0.662,0.377-1.383,0.77-2.129c0.391-0.746,0.926-1.52,1.631-2.316c0.291-0.333,0.615-0.669,0.953-0.998
				c0.086-0.083,0.2-0.127,0.311-0.119c0.113,0.008,0.205,0.066,0.262,0.159c0.027,0.058,0.24,0.39,0.506,0.922
				c0.26,0.529,0.561,1.274,0.799,2.113c0.248,0.83,0.41,1.782,0.352,2.768c-0.016,0.248-0.045,0.495-0.092,0.744
				c-0.043,0.245-0.104,0.491-0.184,0.737c-0.158,0.492-0.398,0.98-0.74,1.453l0,0c-0.504,0.699-1.213,1.315-2.123,1.816
				c0,0,0.033,0.023,0.088,0.065c0.059,0.041,0.138,0.098,0.235,0.168c0.196,0.138,0.46,0.321,0.72,0.507
				c0.525,0.368,1.047,0.738,1.047,0.738s0.045,0.031,0.127,0.088c0.075,0.059,0.194,0.134,0.334,0.225
				c0.281,0.184,0.656,0.428,1.027,0.672c0.375,0.241,0.749,0.485,1.028,0.668c0.287,0.174,0.479,0.287,0.479,0.287
				c-0.104-0.213-0.201-0.441-0.289-0.691c-0.086-0.254-0.158-0.523-0.217-0.809c-0.115-0.568-0.169-1.197-0.12-1.881
				c0.05-0.681,0.204-1.416,0.497-2.199c0.295-0.785,0.732-1.623,1.332-2.5c0.25-0.367,0.527-0.738,0.826-1.107
				c0.074-0.092,0.184-0.148,0.291-0.154c0.111-0.006,0.218,0.035,0.287,0.117c0.039,0.048,0.291,0.355,0.615,0.857
				c0.162,0.252,0.34,0.551,0.519,0.892c0.179,0.345,0.374,0.704,0.544,1.108c0.169,0.401,0.323,0.836,0.445,1.293
				c0.06,0.229,0.109,0.463,0.15,0.703c0.039,0.234,0.072,0.475,0.09,0.719c0.064,0.973-0.086,2.012-0.652,3.033l0,0
				c-0.418,0.756-1.046,1.446-1.887,2.053c0,0,0.558,0.312,1.119,0.621c0.279,0.158,0.558,0.313,0.774,0.42
				c0.213,0.109,0.356,0.182,0.356,0.182s0.795,0.408,1.588,0.814c0.809,0.383,1.615,0.765,1.615,0.765
				c-0.252-0.406-0.494-0.884-0.68-1.429c-0.09-0.273-0.172-0.562-0.233-0.87c-0.056-0.313-0.095-0.64-0.108-0.984
				c-0.061-1.377,0.271-3.005,1.258-4.892c0.204-0.393,0.439-0.797,0.689-1.197c0.063-0.104,0.166-0.172,0.277-0.193
				c0.109-0.018,0.217,0.012,0.297,0.088c0.04,0.043,0.33,0.326,0.709,0.797c0.385,0.459,0.873,1.092,1.305,1.863
				c0.434,0.768,0.83,1.642,1.006,2.614c0.174,0.978,0.146,2.019-0.3,3.099l0,0c-0.325,0.791-0.878,1.563-1.64,2.252
				c0,0,0.146,0.067,0.369,0.156c0.222,0.09,0.518,0.209,0.816,0.329c0.594,0.237,1.189,0.476,1.189,0.476s0.838,0.311,1.676,0.621
				c0.416,0.158,0.84,0.301,1.158,0.406c0.315,0.106,0.529,0.18,0.529,0.18c-0.295-0.375-0.59-0.821-0.838-1.342
				c-0.24-0.527-0.436-1.133-0.545-1.811c-0.219-1.357-0.076-3.008,0.693-4.996c0.158-0.414,0.343-0.84,0.551-1.268
				c0.051-0.107,0.142-0.19,0.252-0.224c0.108-0.032,0.221-0.013,0.309,0.054c0.102,0.069,1.271,1.002,2.318,2.418
				c0.129,0.181,0.258,0.366,0.381,0.563c0.121,0.191,0.242,0.391,0.355,0.6c0.223,0.414,0.416,0.858,0.558,1.33
				c0.286,0.951,0.367,1.992,0.044,3.113v0.001c-0.239,0.824-0.703,1.647-1.387,2.418c0,0,0.152,0.049,0.383,0.115
				c0.231,0.063,0.541,0.149,0.85,0.237c0.307,0.088,0.614,0.176,0.848,0.238c0.23,0.068,0.389,0.104,0.389,0.104
				s0.865,0.223,1.73,0.442c0.871,0.202,1.74,0.403,1.74,0.403c-0.332-0.343-0.672-0.76-0.973-1.253
				c-0.148-0.246-0.291-0.514-0.416-0.801c-0.125-0.291-0.232-0.604-0.323-0.936c-0.363-1.328-0.399-2.99,0.149-5.046
				c0.115-0.43,0.253-0.874,0.412-1.321c0.04-0.113,0.123-0.205,0.227-0.246c0.105-0.045,0.223-0.037,0.313,0.021
				c0.054,0.031,0.398,0.245,0.88,0.621c0.482,0.36,1.098,0.89,1.693,1.54c0.595,0.646,1.17,1.441,1.555,2.342
				c0.383,0.905,0.573,1.942,0.372,3.092l0,0c-0.151,0.848-0.521,1.703-1.12,2.547c0,0,0.158,0.03,0.395,0.073
				c0.234,0.048,0.551,0.101,0.867,0.152c0.314,0.053,0.631,0.104,0.869,0.146c0.236,0.039,0.395,0.061,0.395,0.061
				s0.221,0.031,0.553,0.081c0.33,0.051,0.772,0.114,1.215,0.169c0.443,0.056,0.887,0.115,1.221,0.148
				c0.33,0.037,0.555,0.063,0.555,0.063c-0.742-0.6-1.527-1.503-2.025-2.776c-0.507-1.284-0.717-2.933-0.389-5.036
				c0.066-0.439,0.158-0.896,0.263-1.357c0.028-0.115,0.102-0.215,0.2-0.271c0.1-0.053,0.215-0.06,0.314-0.012
				c0.109,0.055,1.449,0.703,2.75,1.863c0.323,0.285,0.648,0.611,0.947,0.97c0.301,0.354,0.58,0.745,0.816,1.173
				c0.469,0.852,0.776,1.854,0.719,3.018l0,0c-0.041,0.859-0.299,1.76-0.791,2.67c0,0,0.637,0.041,1.273,0.065
				c0.316,0.013,0.633,0.021,0.869,0.022c0.23,0.001,0.381,0.001,0.381,0.001l0.023,1.625c0,0-0.17-0.002-0.426-0.002
				c-0.25-0.005-0.58-0.015-0.91-0.025c-0.656-0.024-1.311-0.067-1.311-0.067c0.385,0.966,0.58,1.887,0.535,2.746
				c-0.059,1.168-0.531,2.125-1.244,2.9c-0.355,0.387-0.764,0.723-1.207,1.02c-0.44,0.295-0.908,0.541-1.381,0.754
				c-1.883,0.843-3.775,1.019-3.928,1.029c-0.137,0.014-0.278-0.031-0.381-0.113c-0.104-0.084-0.158-0.202-0.154-0.322
				c0.024-0.475,0.07-0.938,0.139-1.375c0.324-2.104,1.098-3.607,1.979-4.689c0.888-1.091,1.896-1.761,2.766-2.193
				c0,0-0.229-0.025-0.566-0.063c-0.341-0.033-0.795-0.096-1.245-0.154c-0.454-0.052-0.903-0.121-1.241-0.17
				c-0.34-0.052-0.564-0.084-0.564-0.084s-0.164-0.021-0.402-0.063c-0.243-0.039-0.564-0.094-0.887-0.146
				c-0.322-0.054-0.645-0.106-0.886-0.154c-0.239-0.045-0.401-0.074-0.401-0.074c0.266,1.005,0.338,1.943,0.188,2.793
				c-0.205,1.146-0.781,2.041-1.563,2.729c-0.779,0.693-1.754,1.153-2.726,1.475c-0.966,0.314-1.925,0.462-2.659,0.543
				c-0.732,0.066-1.24,0.061-1.316,0.059c-0.138-0.002-0.272-0.059-0.365-0.152c-0.093-0.096-0.135-0.217-0.115-0.336
				c0.074-0.469,0.17-0.924,0.283-1.352c0.551-2.057,1.476-3.473,2.471-4.454c0.25-0.245,0.504-0.463,0.76-0.655
				c0.254-0.199,0.509-0.373,0.764-0.527c0.508-0.307,1.002-0.53,1.459-0.69c0,0-0.889-0.204-1.775-0.411
				c-0.883-0.226-1.766-0.453-1.766-0.453s-0.16-0.035-0.396-0.104c-0.234-0.066-0.547-0.154-0.863-0.244
				c-0.314-0.088-0.63-0.179-0.864-0.242c-0.235-0.066-0.392-0.119-0.392-0.119c0.154,1.035,0.129,1.963-0.111,2.793
				c-0.322,1.121-0.997,1.957-1.842,2.55c-0.422,0.299-0.889,0.54-1.375,0.733c-0.245,0.1-0.493,0.185-0.743,0.26
				c-0.247,0.069-0.497,0.129-0.747,0.183c-1.998,0.426-3.879,0.187-4.029,0.173c-0.137-0.016-0.264-0.089-0.348-0.189
				c-0.082-0.104-0.112-0.229-0.082-0.347c0.127-0.459,0.27-0.901,0.43-1.315c0.768-1.982,1.843-3.293,2.938-4.164
				c0.55-0.438,1.106-0.762,1.64-1.008c0.541-0.254,1.059-0.426,1.525-0.541c0,0-0.214-0.073-0.539-0.184
				c-0.325-0.107-0.756-0.251-1.182-0.415c-0.854-0.315-1.707-0.631-1.707-0.631s-0.609-0.242-1.216-0.485
				c-0.302-0.123-0.604-0.246-0.831-0.334c-0.229-0.092-0.377-0.16-0.377-0.16c0.039,1.047-0.084,1.963-0.414,2.764
				c-0.443,1.079-1.205,1.838-2.112,2.332c-0.905,0.494-1.97,0.762-2.986,0.851c-1.015,0.087-1.991,0.035-2.729-0.052
				c-0.736-0.1-1.234-0.218-1.31-0.238c-0.135-0.033-0.254-0.117-0.325-0.23c-0.071-0.114-0.085-0.243-0.042-0.354
				c0.177-0.44,0.369-0.864,0.573-1.258c0.987-1.888,2.204-3.06,3.392-3.799c0.294-0.185,0.594-0.341,0.881-0.476
				c0.293-0.137,0.582-0.252,0.865-0.348c0.562-0.189,1.096-0.303,1.572-0.363c0,0-0.822-0.391-1.646-0.779
				c-0.813-0.415-1.623-0.831-1.623-0.831s-0.143-0.075-0.363-0.188c-0.221-0.108-0.504-0.266-0.791-0.427
				c-0.57-0.316-1.143-0.637-1.143-0.637c-0.074,1.035-0.308,1.945-0.725,2.699c-0.564,1.021-1.404,1.681-2.371,2.08
				c-0.24,0.1-0.492,0.184-0.745,0.252c-0.251,0.064-0.509,0.112-0.768,0.149c-0.517,0.073-1.046,0.099-1.558,0.086
				c-0.513-0.014-1.02-0.049-1.475-0.126c-0.457-0.074-0.879-0.165-1.242-0.256c-0.723-0.182-1.209-0.355-1.283-0.381
				c-0.131-0.049-0.244-0.143-0.299-0.266c-0.057-0.123-0.057-0.256,0.002-0.362c0.227-0.416,0.469-0.814,0.721-1.183
				c0.599-0.88,1.236-1.568,1.882-2.115c0.647-0.551,1.303-0.959,1.94-1.258c0.635-0.302,1.252-0.492,1.829-0.608
				c0.29-0.06,0.569-0.099,0.835-0.124c0.27-0.028,0.528-0.047,0.773-0.051c0,0-0.196-0.117-0.488-0.295
				c-0.289-0.188-0.67-0.436-1.054-0.686c-0.382-0.247-0.763-0.497-1.05-0.684c-0.143-0.092-0.262-0.17-0.344-0.229
				c-0.08-0.059-0.127-0.09-0.127-0.09s-0.535-0.378-1.068-0.755c-0.268-0.188-0.533-0.377-0.734-0.52
				c-0.102-0.07-0.186-0.129-0.24-0.172c-0.059-0.043-0.094-0.066-0.094-0.066c-0.195,1.02-0.533,1.89-1.039,2.588
				c-0.342,0.474-0.74,0.85-1.182,1.143c-0.222,0.146-0.451,0.273-0.689,0.381c-0.238,0.104-0.48,0.187-0.733,0.254
				c-0.997,0.269-2.091,0.258-3.119,0.114c-1.015-0.151-1.944-0.459-2.65-0.721c-0.7-0.263-1.165-0.494-1.228-0.536
				c-0.125-0.066-0.218-0.181-0.26-0.309c-0.042-0.129-0.026-0.26,0.045-0.357c0.275-0.387,0.564-0.752,0.857-1.084
				c0.707-0.799,1.424-1.406,2.131-1.868c0.705-0.463,1.398-0.778,2.07-1.003c1.342-0.441,2.557-0.473,3.51-0.355
				c0,0-0.703-0.58-1.405-1.164c-0.349-0.295-0.708-0.575-0.96-0.807c-0.254-0.229-0.425-0.382-0.425-0.382
				s-0.486-0.438-0.972-0.875c-0.245-0.219-0.486-0.438-0.67-0.601c-0.174-0.172-0.292-0.287-0.292-0.287
				c-0.332,0.996-0.769,1.816-1.356,2.447c-0.398,0.428-0.84,0.752-1.316,0.988c-0.467,0.23-0.967,0.375-1.48,0.445
				c-1.025,0.143-2.113-0.002-3.115-0.268c-0.984-0.28-1.871-0.691-2.535-1.037c-0.66-0.346-1.095-0.631-1.152-0.68
				c-0.113-0.082-0.194-0.203-0.217-0.338c-0.027-0.132,0.004-0.26,0.086-0.349c0.321-0.349,0.652-0.677,0.986-0.972
				c0.797-0.707,1.582-1.221,2.342-1.594c0.756-0.373,1.482-0.603,2.177-0.746c1.386-0.275,2.593-0.153,3.524,0.078
				c0,0-0.625-0.664-1.25-1.328c-0.309-0.332-0.633-0.656-0.854-0.918c-0.225-0.257-0.375-0.43-0.375-0.43s-0.43-0.492-0.859-0.984
				c-0.215-0.248-0.43-0.494-0.588-0.681c-0.156-0.19-0.258-0.317-0.258-0.317c-0.447,0.945-0.986,1.709-1.645,2.264
				c-0.447,0.377-0.928,0.646-1.424,0.82c-0.494,0.176-1.006,0.259-1.526,0.269c-1.036,0.019-2.097-0.253-3.058-0.638
				c-1.879-0.803-3.354-2.043-3.449-2.157c-0.104-0.093-0.17-0.226-0.18-0.358c-0.01-0.136,0.039-0.259,0.129-0.336
				c0.361-0.309,0.729-0.593,1.095-0.845c1.755-1.21,3.376-1.673,4.764-1.771c1.411-0.106,2.597,0.155,3.497,0.496
				c0,0-0.546-0.73-1.088-1.464c-0.133-0.183-0.272-0.368-0.398-0.538c-0.121-0.176-0.232-0.342-0.328-0.481
				c-0.196-0.281-0.324-0.47-0.324-0.47s-0.372-0.539-0.739-1.078c-0.192-0.268-0.36-0.547-0.491-0.754
				c-0.133-0.207-0.221-0.345-0.221-0.345c-0.554,0.882-1.188,1.578-1.908,2.052c-0.977,0.638-2.023,0.826-3.059,0.721
				c-1.033-0.104-2.073-0.492-2.954-1.004c-0.442-0.254-0.858-0.53-1.235-0.807c-0.379-0.274-0.717-0.549-0.984-0.801
				c-0.553-0.501-0.895-0.885-0.948-0.943c-0.091-0.104-0.142-0.24-0.136-0.375c0.006-0.133,0.066-0.25,0.164-0.315
				c0.396-0.261,0.795-0.499,1.188-0.706c1.889-0.988,3.561-1.26,4.957-1.193c0.703,0.033,1.322,0.16,1.9,0.322
				c0.572,0.161,1.077,0.371,1.508,0.594c0,0-0.117-0.197-0.289-0.492c-0.168-0.297-0.414-0.684-0.625-1.088
				c-0.433-0.803-0.866-1.604-0.866-1.604s-0.075-0.146-0.192-0.36c-0.109-0.219-0.259-0.512-0.402-0.804
				c-0.291-0.586-0.582-1.171-0.582-1.171c-0.648,0.807-1.359,1.421-2.133,1.803c-1.045,0.516-2.11,0.581-3.135,0.359
				c-1.01-0.229-1.969-0.746-2.805-1.346c-1.648-1.213-2.764-2.767-2.84-2.896c-0.079-0.115-0.111-0.258-0.088-0.39
				c0.023-0.133,0.096-0.24,0.203-0.295c0.424-0.213,0.85-0.402,1.264-0.563c1.988-0.759,3.675-0.832,5.049-0.601
				c1.391,0.229,2.484,0.766,3.275,1.31c0,0-0.354-0.839-0.709-1.679c-0.182-0.42-0.344-0.846-0.465-1.165
				c-0.122-0.318-0.206-0.532-0.206-0.532s-0.058-0.152-0.147-0.38c-0.084-0.229-0.211-0.532-0.316-0.841
				c-0.217-0.616-0.437-1.233-0.437-1.233c-0.739,0.728-1.516,1.254-2.329,1.543c-1.098,0.392-2.162,0.333-3.15-0.008
				C7.19,99.577,6.314,98.95,5.552,98.26c-0.756-0.691-1.352-1.459-1.787-2.063c-0.426-0.608-0.664-1.061-0.704-1.129
				c-0.063-0.12-0.079-0.268-0.044-0.395c0.037-0.129,0.125-0.229,0.236-0.269c0.445-0.165,0.889-0.306,1.318-0.416
				c2.063-0.528,3.748-0.411,5.092-0.025c1.342,0.392,2.375,1.044,3.097,1.677c0,0-0.253-0.875-0.511-1.748
				c-0.131-0.438-0.239-0.881-0.326-1.209c-0.09-0.332-0.149-0.553-0.149-0.553s-0.04-0.156-0.103-0.395
				c-0.059-0.238-0.137-0.557-0.212-0.873c-0.075-0.317-0.149-0.637-0.208-0.875c-0.059-0.236-0.093-0.398-0.093-0.398
				c-0.821,0.639-1.648,1.074-2.487,1.268c-1.135,0.267-2.195,0.088-3.128-0.364c-0.934-0.448-1.763-1.164-2.423-1.941
				c-1.347-1.549-2.057-3.325-2.113-3.468c-0.051-0.128-0.051-0.273,0-0.4c0.051-0.123,0.146-0.211,0.266-0.238
				c0.459-0.112,0.916-0.199,1.354-0.262c2.112-0.287,3.774,0.026,5.063,0.564c0.646,0.271,1.21,0.598,1.686,0.945
				c0.478,0.352,0.874,0.722,1.21,1.074c0,0-0.043-0.226-0.105-0.562c-0.057-0.335-0.133-0.787-0.209-1.235
				c-0.081-0.449-0.139-0.902-0.189-1.24c-0.051-0.336-0.082-0.563-0.082-0.563s-0.025-0.16-0.056-0.404
				c-0.03-0.244-0.069-0.568-0.11-0.894c-0.043-0.324-0.077-0.649-0.1-0.896c-0.029-0.242-0.047-0.406-0.047-0.406
				c-0.887,0.537-1.764,0.875-2.623,0.969c-1.158,0.13-2.18-0.176-3.063-0.739c-0.874-0.567-1.606-1.389-2.175-2.266
				c-0.284-0.437-0.526-0.892-0.734-1.323c-0.204-0.439-0.376-0.849-0.501-1.231c-0.068-0.186-0.123-0.36-0.174-0.519
				c-0.045-0.162-0.086-0.31-0.117-0.432c-0.066-0.247-0.1-0.42-0.107-0.466C0.151,74.396,0.176,74.244,0.247,74.074z"/>
		</g>
	</g>
	<g>
		<circle fill="#3C9588" cx="85" cy="73.263" r="71.824"/>
	</g>
	<g>
		<circle fill="#FFFFFF" cx="85" cy="73.263" r="44.504"/>
	</g>
	<g>
		<path fill="#FFFFFF" d="M38.563,42.77l-2.479,4.335l3.657,2.092l2.364-4.133l-1.465-0.989l1.116-1.951l3.5,2.001l-5.794,10.129
			l-1.538-0.88l0.516-1.514l-9.188-5.255l-1.043,1.212l-1.547-0.886l0.779-1.362l5.003-8.748l3.509,2.006l-1.127,1.97l-1.595-0.761
			l-2.344,4.097l3.218,1.841l2.479-4.334L38.563,42.77z"/>
		<path fill="#FFFFFF" d="M40.128,28.042c1.278-1.271,2.738-1.91,4.378-1.917c1.641-0.007,3.096,0.629,4.367,1.907l1.721,1.731
			c1.276,1.283,1.903,2.742,1.882,4.378c-0.021,1.635-0.672,3.088-1.95,4.359l-4.705,4.678l-1.25-1.258l0.899-1.322l-7.462-7.506
			l-1.328,0.891l-1.257-1.264l1.113-1.107L40.128,28.042z M40.241,31.144l7.191,7.233L48.819,37c0.751-0.747,1.088-1.587,1.01-2.519
			c-0.078-0.931-0.524-1.806-1.339-2.625l-1.735-1.745c-0.805-0.81-1.672-1.256-2.603-1.34c-0.932-0.084-1.772,0.248-2.524,0.995
			L40.241,31.144z"/>
		<path fill="#FFFFFF" d="M53.708,17.746l0.844,1.57l-1.248,1.016l3.644,6.78c0.461,0.856,1.035,1.374,1.725,1.551
			c0.689,0.178,1.437,0.051,2.239-0.381c0.814-0.438,1.341-0.992,1.578-1.664c0.236-0.672,0.123-1.438-0.34-2.301l-3.645-6.781
			l-1.526,0.476l-0.844-1.57l5.38-2.891l0.844,1.57l-1.248,1.016l3.645,6.78c0.782,1.457,0.906,2.84,0.371,4.146
			c-0.535,1.308-1.583,2.38-3.141,3.218c-1.553,0.834-3.019,1.112-4.398,0.834c-1.38-0.277-2.461-1.146-3.244-2.603l-3.645-6.781
			l-1.526,0.476l-0.844-1.57l1.383-0.743l2.605-1.399L53.708,17.746z"/>
		<path fill="#FFFFFF" d="M78.609,14.574l-2.15,0.454l-0.703-1.86c-0.345-0.224-0.75-0.373-1.218-0.446
			c-0.468-0.074-0.996-0.049-1.584,0.075c-1.255,0.265-2.125,0.925-2.609,1.979c-0.485,1.055-0.572,2.315-0.263,3.782l0.106,0.506
			c0.311,1.467,0.898,2.588,1.767,3.364c0.868,0.775,1.916,1.034,3.146,0.774c0.567-0.12,1.07-0.313,1.508-0.577
			s0.756-0.566,0.953-0.905l-0.108-1.985l2.15-0.454l0.603,2.854c-0.439,0.796-1.067,1.489-1.885,2.08
			c-0.817,0.59-1.784,1.003-2.901,1.238c-1.936,0.409-3.663,0.073-5.182-1.007c-1.519-1.08-2.5-2.671-2.943-4.772l-0.103-0.485
			c-0.442-2.094-0.191-3.945,0.753-5.552c0.944-1.607,2.391-2.617,4.34-3.028c1.116-0.236,2.167-0.246,3.151-0.029
			c0.984,0.217,1.841,0.597,2.57,1.14L78.609,14.574z"/>
		<path fill="#FFFFFF" d="M81.403,22.179l1.061-0.081l5.329-12.497l3.023,0.201l3.594,13.091l1.041,0.222l-0.117,1.769L90.32,24.55
			l0.119-1.769l1.031-0.114l-0.513-2.064l-4.771-0.317l-0.78,1.979l1.008,0.25l-0.117,1.769l-5.013-0.334L81.403,22.179z
			 M87.029,18.159l3.375,0.225l-1.313-5.295l-0.061-0.004L87.029,18.159z"/>
		<path fill="#FFFFFF" d="M111.438,14.915l-1.246,3.728l-2.152-0.72l0.408-1.604l-2.574-0.859l-3.293,9.856l1.402,0.788
			l-0.563,1.682l-5.803-1.938l0.563-1.682l1.596,0.213l3.293-9.856l-2.566-0.857l-0.637,1.527l-2.143-0.716l1.243-3.728
			L111.438,14.915z"/>
		<path fill="#FFFFFF" d="M114.173,18.545l0.916-1.529l5.238,3.141l-0.916,1.529l-1.513-0.552l-5.44,9.078l1.199,1.073l-0.91,1.521
			l-5.24-3.141l0.912-1.521l1.513,0.552l5.44-9.078L114.173,18.545z"/>
		<path fill="#FFFFFF" d="M128.646,37.201c-1.492,1.564-3.172,2.431-5.039,2.599c-1.869,0.169-3.524-0.436-4.973-1.815
			c-1.441-1.374-2.119-2.995-2.033-4.862c0.088-1.867,0.877-3.582,2.367-5.146l0.154-0.161c1.48-1.555,3.154-2.423,5.016-2.605
			c1.863-0.184,3.516,0.412,4.959,1.787c1.445,1.379,2.129,3.009,2.047,4.891c-0.082,1.881-0.862,3.599-2.346,5.153L128.646,37.201z
			 M126.682,34.991c1.053-1.104,1.678-2.221,1.877-3.348c0.196-1.127-0.154-2.119-1.054-2.977c-0.899-0.857-1.896-1.154-2.991-0.892
			c-1.095,0.263-2.173,0.951-3.234,2.065l-0.168,0.176c-1.072,1.124-1.711,2.242-1.918,3.355c-0.209,1.113,0.135,2.096,1.029,2.948
			c0.903,0.862,1.911,1.167,3.02,0.913c1.109-0.253,2.201-0.942,3.271-2.066L126.682,34.991z"/>
		<path fill="#FFFFFF" d="M144.268,48.651l-1.554,0.876l-1.041-1.228l-11.028,6.22l-1.447-2.567l5.721-10.063l-0.039-0.048
			l-6.828,3.852l0.512,1.525l-1.545,0.87l-3-5.319l1.543-0.871l1.037,1.219l9.219-5.2l-0.506-1.517l1.553-0.876l0.771,1.368
			l1.451,2.576l-5.719,10.063l0.039,0.048l6.818-3.847l-0.513-1.525l1.554-0.876l2.225,3.944L144.268,48.651z"/>
	</g>
	<g>
		<path fill="#FFFFFF" d="M34.964,104.172c-0.923,0.477-1.832,0.732-2.728,0.77c-0.895,0.037-1.697-0.141-2.409-0.53l-0.388,2.678
			l-0.772-0.284l0.414-2.914c-0.21-0.183-0.401-0.386-0.574-0.608c-0.173-0.224-0.326-0.466-0.46-0.726
			c-0.618-1.195-0.673-2.397-0.166-3.606c0.507-1.208,1.469-2.179,2.887-2.909l0.123-0.063c1.417-0.731,2.766-0.955,4.045-0.672
			s2.229,1.022,2.846,2.219c0.626,1.214,0.688,2.433,0.186,3.654c-0.503,1.223-1.463,2.198-2.88,2.93L34.964,104.172z
			 M34.698,103.32c1.227-0.633,2.064-1.443,2.515-2.434c0.451-0.99,0.412-1.994-0.113-3.012c-0.517-1.001-1.305-1.598-2.364-1.789
			s-2.202,0.029-3.428,0.662l-0.137,0.07c-1.235,0.638-2.081,1.443-2.538,2.421c-0.456,0.977-0.426,1.965,0.091,2.966
			c0.53,1.027,1.325,1.643,2.387,1.843c1.062,0.201,2.212-0.019,3.452-0.657L34.698,103.32z"/>
		<path fill="#FFFFFF" d="M43.009,106.021l-0.499,0.418l-0.838-0.854l-4.968,4.149c-0.696,0.582-1.063,1.236-1.099,1.967
			c-0.036,0.729,0.223,1.425,0.776,2.087c0.563,0.674,1.209,1.063,1.94,1.172c0.731,0.106,1.447-0.132,2.147-0.717l4.968-4.15
			l-0.691-0.976l0.5-0.418l2.087,2.499l-0.5,0.417l-0.837-0.854l-4.969,4.149c-0.891,0.744-1.799,1.041-2.726,0.891
			c-0.927-0.149-1.756-0.663-2.487-1.54c-0.719-0.859-1.065-1.757-1.039-2.688c0.026-0.932,0.483-1.766,1.37-2.508l4.969-4.149
			l-0.691-0.978l0.499-0.416l0.765,0.914l0.559,0.668L43.009,106.021z"/>
		<path fill="#FFFFFF" d="M42.18,120.063l0.653,0.436l9.101-5.52l0.651,0.508l-3.164,10.148l0.593,0.536l-0.396,0.509l-2.07-1.615
			l0.396-0.508l0.777,0.514l0.774-2.42l-3.772-2.942l-2.164,1.337l0.688,0.629l-0.396,0.508l-2.065-1.611L42.18,120.063z
			 M46.434,119.27l3.317,2.588l1.831-5.715l-0.034-0.026L46.434,119.27z"/>
		<path fill="#FFFFFF" d="M53.214,128.813l0.287-0.576l1.109,0.445l4.079-8.209l-1.025-0.615l0.29-0.582l1.067,0.529l0.786,0.391
			l1.068,0.531l-0.29,0.582l-1.11-0.444l-4.079,8.209l3.964,1.969l0.726-1.313l0.694,0.346l-0.996,2.005L53.214,128.813z"/>
		<path fill="#FFFFFF" d="M66.833,124.029l0.2-0.619l3.104,1.005l-0.201,0.62l-1.163-0.277l-2.824,8.721l1.105,0.457l-0.198,0.612
			l-3.104-1.005l0.199-0.611l1.163,0.275l2.824-8.721L66.833,124.029z"/>
		<path fill="#FFFFFF" d="M70.799,135.027l1.192,0.098l1.463-9.049l-1.162-0.284l0.104-0.644l7.885,1.275l-0.373,2.311l-0.766-0.123
			l0.189-1.586l-5.019-0.811l-0.664,4.108l4.391,0.71l-0.12,0.744l-4.391-0.711l-0.679,4.195l1.162,0.284l-0.103,0.636l-3.214-0.52
			L70.799,135.027z"/>
		<path fill="#FFFFFF" d="M82.964,127.109l0.011-0.65l3.261,0.053l-0.012,0.651l-1.192,0.075l-0.148,9.164l1.191,0.115l-0.013,0.644
			l-3.261-0.054l0.01-0.644l1.194-0.075l0.148-9.164L82.964,127.109z"/>
		<path fill="#FFFFFF" d="M97.313,128.63l-0.674,0.099l-0.357-1.58c-0.328-0.293-0.732-0.508-1.211-0.646
			c-0.479-0.141-1.014-0.166-1.603-0.08c-1.178,0.174-2.051,0.739-2.618,1.697c-0.57,0.958-0.754,2.115-0.556,3.472l0.021,0.151
			c0.199,1.355,0.705,2.414,1.521,3.175c0.813,0.76,1.781,1.06,2.899,0.894c0.595-0.086,1.117-0.27,1.572-0.547
			c0.453-0.279,0.795-0.604,1.021-0.972l-0.111-1.618l0.672-0.099l0.271,1.853c-0.262,0.502-0.684,0.951-1.27,1.348
			c-0.584,0.396-1.269,0.651-2.05,0.768c-1.353,0.198-2.528-0.141-3.534-1.016c-1.007-0.875-1.625-2.094-1.854-3.657l-0.021-0.138
			c-0.229-1.568,0.008-2.916,0.719-4.043c0.709-1.127,1.757-1.793,3.142-1.996c0.781-0.113,1.504-0.063,2.164,0.152
			s1.188,0.527,1.582,0.934L97.313,128.63z"/>
		<path fill="#FFFFFF" d="M102.529,134.242l0.712-0.33l0.041-10.643l0.772-0.291l7.006,7.994l0.769-0.226l0.228,0.603l-2.459,0.924
			l-0.228-0.603l0.844-0.396l-1.659-1.924l-4.479,1.684l0.01,2.543l0.896-0.258l0.228,0.603l-2.451,0.921L102.529,134.242z
			 M104.073,130.2l3.938-1.479l-3.919-4.545l-0.041,0.016L104.073,130.2z"/>
		<path fill="#FFFFFF" d="M116.169,116.616l1.164,1.92l-0.662,0.401l-0.834-1.248l-2.526,1.533l4.754,7.838l1.067-0.537l0.334,0.55
			l-2.789,1.692l-0.334-0.552l0.972-0.698l-4.754-7.838l-2.527,1.532l0.729,1.313l-0.67,0.406l-1.164-1.921L116.169,116.616z"/>
		<path fill="#FFFFFF" d="M118.357,115.602l-0.418-0.5l2.5-2.097l0.418,0.498l-0.852,0.84l5.891,7.021l0.976-0.694l0.414,0.493
			l-2.5,2.098l-0.414-0.493l0.854-0.84l-5.894-7.021L118.357,115.602z"/>
		<path fill="#FFFFFF" d="M132.493,107.932c1.213,1.041,1.924,2.213,2.129,3.512c0.205,1.302-0.138,2.47-1.024,3.507
			c-0.875,1.021-1.97,1.524-3.277,1.51c-1.312-0.015-2.572-0.541-3.783-1.579l-0.105-0.091c-1.211-1.037-1.926-2.202-2.143-3.495
			c-0.219-1.292,0.109-2.449,0.984-3.471c0.889-1.037,1.994-1.553,3.315-1.547c1.32,0.006,2.588,0.527,3.8,1.564L132.493,107.932z
			 M131.805,108.498c-1.048-0.896-2.113-1.369-3.199-1.414c-1.086-0.044-2.002,0.369-2.748,1.239
			c-0.734,0.854-0.99,1.81-0.769,2.862c0.222,1.054,0.854,2.028,1.902,2.928l0.116,0.101c1.056,0.904,2.121,1.384,3.197,1.438
			c1.076,0.056,1.98-0.344,2.715-1.198c0.752-0.878,1.021-1.847,0.81-2.905s-0.851-2.043-1.908-2.949L131.805,108.498z"/>
		<path fill="#FFFFFF" d="M134.503,93.521l0.576,0.305l-0.474,1.1l8.761,4.622l-0.406,0.771l-10.924,1.076l-0.015,0.043l7.439,3.926
			l0.641-1.012l0.57,0.301l-1.523,2.887l-0.567-0.301l0.474-1.1l-8.107-4.277l-0.641,1.011l-0.576-0.304l0.557-1.055l0.41-0.777
			l10.91-1.082l0.014-0.043l-7.42-3.916l-0.641,1.011l-0.576-0.304l0.963-1.824L134.503,93.521z"/>
	</g>
	<g>
		<g>
			<path fill="#3A2F23" d="M110.107,79.859c0-5.41-11.241-9.798-25.108-9.798c-13.863,0-25.104,4.388-25.104,9.798v17.229l0,0l0,0
				c0,5.41,11.241,9.799,25.104,9.799c13.867,0,25.108-4.389,25.108-9.799l0,0l0,0V79.859z"/>
		</g>
		<g>
			<path fill="#271F19" d="M141.016,67.656l-55.637-30.23c-0.236-0.129-0.52-0.129-0.758,0l-55.637,30.23
				c-0.254,0.138-0.414,0.404-0.414,0.696s0.16,0.558,0.414,0.697l55.637,30.229c0.119,0.065,0.247,0.1,0.378,0.1
				c0.132,0,0.263-0.033,0.38-0.1l55.637-30.229c0.256-0.14,0.416-0.405,0.416-0.697S141.271,67.793,141.016,67.656z"/>
		</g>
		<g>
			<path fill="#3A2F23" d="M115.846,95.958V82.51L84.999,66.929v1.423l29.303,14.996v12.61c0,0-1.874,0.991-1.653,4.188
				c0.221,3.195,2.425,4.52,2.425,4.52s2.204-1.323,2.424-4.52C117.717,96.949,115.846,95.958,115.846,95.958z"/>
		</g>
		<g>
			<path fill="#3A2F23" d="M87.426,67.421c0,0.704-1.084,1.274-2.427,1.274c-1.339,0-2.425-0.57-2.425-1.274
				c0-0.703,1.086-1.274,2.425-1.274C86.342,66.147,87.426,66.718,87.426,67.421z"/>
		</g>
	</g>
</g>
</svg>
