<?xml version="1.0" encoding="utf-8"?>
<!-- Generator: Adobe Illustrator 16.0.0, SVG Export Plug-In . SVG Version: 6.00 Build 0)  -->
<!DOCTYPE svg PUBLIC "-//W3C//DTD SVG 1.1//EN" "http://www.w3.org/Graphics/SVG/1.1/DTD/svg11.dtd">
<svg version="1.1" id="Layer_1" xmlns="http://www.w3.org/2000/svg" xmlns:xlink="http://www.w3.org/1999/xlink" x="0px" y="0px"
	 width="500px" height="325px" viewBox="0 0 500 325" enable-background="new 0 0 500 325" xml:space="preserve">
<g>
	<path opacity="0.3" fill="#FFFFFF" d="M68.461,210.291h107.314c-8.31,4.568-13.949,13.4-13.949,23.552
		c0,8.547,4.009,16.145,10.239,21.067H96.557c-16.887,0-30.571,13.688-30.571,30.57c0,16.882,13.685,30.568,30.571,30.568h119.802
		c16.884,0,30.569-13.687,30.569-30.568c0-10.218-5.027-19.233-12.72-24.785h198.21c14.828,0,26.852-12.026,26.852-26.853
		c0-14.834-12.023-26.854-26.852-26.854H312.223c12.172-5.635,20.633-17.927,20.633-32.225c0-9.244-3.561-17.641-9.349-23.959
		h58.517c16.652,0,30.152-13.504,30.152-30.159c0-16.651-13.5-30.153-30.152-30.153h-139.87c2.989-4.264,4.774-9.438,4.774-15.039
		c0-14.513-11.763-26.272-26.273-26.272h-48.25c-14.51,0-26.272,11.76-26.272,26.272c0,14.51,11.763,26.272,26.272,26.272h42.884
		c-4.179,5.171-6.698,11.752-6.698,18.92c0,7.024,2.422,13.471,6.451,18.594H68.461c-19.619,0-35.525,15.907-35.525,35.524
		C32.936,194.387,48.842,210.291,68.461,210.291z"/>
	<path fill="#989690" d="M411.681,52.775c-25.55,0.001-46.257,20.709-46.257,46.256c0,16.16,8.308,30.371,20.87,38.637l0.024,9.816
		l0,0l0.028,10.775v13.119c0,0.477,0.192,0.943,0.53,1.28c0.337,0.337,0.803,0.528,1.279,0.528h8.598v0.283
		c0,4.371,1.887,8.288,4.879,11.018h-57.729v-11.423c0-1.16-0.94-2.101-2.102-2.101h-31.041v-35.71c0-0.036-0.01-0.07-0.011-0.104
		c7.253-1.019,12.836-7.23,12.837-14.766v-0.281h8.653c0.477,0,0.942-0.193,1.278-0.53c0.338-0.337,0.53-0.803,0.53-1.28V105.17
		V94.394V84.58c12.556-8.266,20.868-22.476,20.868-38.633c-0.002-25.549-20.713-46.256-46.258-46.258
		c-25.551,0.002-46.256,20.709-46.256,46.258c0,16.159,8.307,30.371,20.869,38.635l0.023,9.816c0,0.001,0,0.001,0,0.001
		l0.029,10.775v13.118c0,0.478,0.193,0.943,0.53,1.28s0.802,0.53,1.28,0.53h8.596v0.281c0,7.536,5.585,13.749,12.838,14.766
		c-0.002,0.035-0.01,0.068-0.01,0.104v37.811c0,0.553,0.224,1.095,0.615,1.485c0.391,0.392,0.932,0.615,1.484,0.615h31.043v46.77
		h-18.596c2.414-3.506,3.836-7.583,3.834-11.943c0.002-6.896-3.504-13.074-8.947-17.421c-5.447-4.36-12.86-6.994-21.006-6.997
		h-56.69c-8.147,0.003-15.56,2.637-21.008,6.998c-5.438,4.348-8.944,10.526-8.942,17.42c-0.002,2.01,0.338,3.951,0.901,5.809h-8.528
		c-10.682,0.001-19.662,7.172-22.445,16.957H163.02v-36.352h21.939c0.553,0,1.094-0.225,1.484-0.616
		c0.392-0.391,0.616-0.933,0.616-1.485v-34.567c7.137-1.119,12.6-7.276,12.601-14.729v-0.282h8.653c0.477,0,0.942-0.193,1.28-0.529
		c0.337-0.338,0.529-0.805,0.529-1.28v-13.125v-10.774v-9.814c12.555-8.265,20.867-22.475,20.867-38.633
		c0-25.55-20.713-46.256-46.258-46.258c-25.55,0.002-46.256,20.709-46.256,46.258c0,16.158,8.307,30.371,20.869,38.635l0.023,9.816
		c0,0,0,0,0,0.002l0.029,10.775v13.118c0,0.476,0.193,0.942,0.53,1.28c0.337,0.336,0.804,0.529,1.28,0.529h8.596v0.282
		c0,7.61,5.695,13.874,13.054,14.798v32.398h-21.939c-0.553,0-1.095,0.224-1.484,0.615c-0.392,0.391-0.616,0.933-0.616,1.484v14.471
		H99.986c2.992-2.73,4.882-6.647,4.882-11.019v-0.282h8.652c0.478,0,0.943-0.193,1.28-0.529c0.337-0.337,0.529-0.803,0.529-1.28
		v-13.124v-10.775v-9.813c12.555-8.266,20.867-22.476,20.867-38.634c0-25.548-20.713-46.256-46.258-46.257
		c-25.549,0.001-46.256,20.709-46.256,46.257c0,16.16,8.307,30.371,20.869,38.636l0.023,9.816c0,0.001,0,0.001,0,0.001l0.031,10.775
		v13.118c0,0.478,0.191,0.943,0.528,1.28c0.337,0.336,0.804,0.529,1.28,0.529h8.596v0.282c0.002,7.857,6.068,14.277,13.771,14.87
		c0.331,0.22,0.729,0.35,1.157,0.35h68.879v21.882c0,0.552,0.225,1.094,0.616,1.485c0.39,0.391,0.932,0.615,1.484,0.615h16.559
		c-0.067,0.723-0.111,1.455-0.111,2.195c0,2.425,0.405,4.747,1.095,6.941h-2.399c-15.058,0-27.259,12.202-27.261,27.259
		c0,3.78,0.788,7.374,2.182,10.639c-4.162,4.374-6.759,10.28-6.758,16.803c0,13.498,10.941,24.438,24.439,24.44h188.754
		c13.496-0.002,24.438-10.942,24.438-24.44c-0.003-11.562-8.028-21.202-18.813-23.747c-0.313-4.699-1.86-9.067-4.33-12.768
		c6.527-4.026,10.893-11.22,10.895-19.456c-0.002-12.642-10.246-22.888-22.889-22.89h-2.814v-33.246h67.691
		c0.426,0,0.818-0.128,1.148-0.344c7.748-0.549,13.863-6.988,13.864-14.875v-0.283h8.653c0.478,0,0.943-0.191,1.279-0.528
		c0.338-0.337,0.53-0.804,0.53-1.28v-13.124v-10.775v-9.813c12.556-8.266,20.866-22.477,20.866-38.635
		C457.938,73.482,437.225,52.776,411.681,52.775z"/>
	<g opacity="0.6">
		<g>
			<g>
				<path fill="#FFFFFF" d="M50.169,239.44c-6.153,10.516-5.968,13.038,1.667,22.532c-10.514-6.152-13.038-5.967-22.532,1.666
					c6.155-10.513,5.968-13.037-1.667-22.532C38.152,247.262,40.674,247.075,50.169,239.44z"/>
				<path fill="#FFFFFF" d="M50.169,239.44c-6.153,10.516-5.968,13.038,1.667,22.532c-10.514-6.152-13.038-5.967-22.532,1.666
					c6.155-10.513,5.968-13.037-1.667-22.532C38.152,247.262,40.674,247.075,50.169,239.44z"/>
			</g>
			<g>
				<path fill="#FFFFFF" d="M88.445,286.379c2.147-7.896,1.584-9.498-5.029-14.316c7.895,2.146,9.5,1.582,14.317-5.031
					c-2.147,7.896-1.583,9.5,5.03,14.319C94.865,279.203,93.264,279.766,88.445,286.379z"/>
				<path fill="#FFFFFF" d="M88.445,286.379c2.147-7.896,1.584-9.498-5.029-14.316c7.895,2.146,9.5,1.582,14.317-5.031
					c-2.147,7.896-1.583,9.5,5.03,14.319C94.865,279.203,93.264,279.766,88.445,286.379z"/>
			</g>
			<g>
				<path fill="#FFFFFF" d="M43.309,190.539c2.149-7.898,1.586-9.5-5.028-14.318c7.896,2.147,9.498,1.583,14.317-5.03
					c-2.146,7.897-1.582,9.499,5.031,14.318C49.73,183.361,48.127,183.926,43.309,190.539z"/>
				<path fill="#FFFFFF" d="M43.309,190.539c2.149-7.898,1.586-9.5-5.028-14.318c7.896,2.147,9.498,1.583,14.317-5.03
					c-2.146,7.897-1.582,9.499,5.031,14.318C49.73,183.361,48.127,183.926,43.309,190.539z"/>
			</g>
			<g>
				<path fill="#FFFFFF" d="M65.115,41.746c0.066-8.184-0.888-9.591-8.512-12.563c8.184,0.063,9.59-0.89,12.565-8.515
					c-0.063,8.185,0.89,9.59,8.513,12.566C69.498,33.168,68.09,34.122,65.115,41.746z"/>
				<path fill="#FFFFFF" d="M65.115,41.746c0.066-8.184-0.888-9.591-8.512-12.563c8.184,0.063,9.59-0.89,12.565-8.515
					c-0.063,8.185,0.89,9.59,8.513,12.566C69.498,33.168,68.09,34.122,65.115,41.746z"/>
			</g>
			<g>
				<path fill="#FFFFFF" d="M37.992,121.176c-11.792,3.069-13.445,4.981-14.775,17.093c-3.07-11.79-4.984-13.443-17.096-14.774
					c11.791-3.069,13.446-4.982,14.778-17.094C23.967,118.192,25.88,119.845,37.992,121.176z"/>
				<path fill="#FFFFFF" d="M37.992,121.176c-11.792,3.069-13.445,4.981-14.775,17.093c-3.07-11.79-4.984-13.443-17.096-14.774
					c11.791-3.069,13.446-4.982,14.778-17.094C23.967,118.192,25.88,119.845,37.992,121.176z"/>
			</g>
		</g>
		<g>
			<g>
				<path fill="#FFFFFF" d="M256.145,45.138c-11.047,5.143-12.328,7.323-11.455,19.474c-5.145-11.043-7.325-12.325-19.478-11.451
					c11.046-5.145,12.329-7.324,11.456-19.478C241.811,44.729,243.992,46.009,256.145,45.138z"/>
				<path fill="#FFFFFF" d="M256.145,45.138c-11.047,5.143-12.328,7.323-11.455,19.474c-5.145-11.043-7.325-12.325-19.478-11.451
					c11.046-5.145,12.329-7.324,11.456-19.478C241.811,44.729,243.992,46.009,256.145,45.138z"/>
			</g>
			<g>
				<path fill="#FFFFFF" d="M253.611,113.184c6.698-4.704,7.289-6.296,5.279-14.228c4.703,6.697,6.295,7.286,14.23,5.278
					c-6.699,4.703-7.289,6.296-5.281,14.229C263.138,111.766,261.545,111.174,253.611,113.184z"/>
				<path fill="#FFFFFF" d="M253.611,113.184c6.698-4.704,7.289-6.296,5.279-14.228c4.703,6.697,6.295,7.286,14.23,5.278
					c-6.699,4.703-7.289,6.296-5.281,14.229C263.138,111.766,261.545,111.174,253.611,113.184z"/>
			</g>
			<g>
				<path fill="#FFFFFF" d="M432.661,69.598c6.697-4.703,7.288-6.297,5.278-14.227c4.705,6.696,6.297,7.286,14.23,5.276
					c-6.697,4.704-7.288,6.296-5.281,14.229C442.187,68.178,440.594,67.588,432.661,69.598z"/>
				<path fill="#FFFFFF" d="M432.661,69.598c6.697-4.703,7.288-6.297,5.278-14.227c4.705,6.696,6.297,7.286,14.23,5.276
					c-6.697,4.704-7.288,6.296-5.281,14.229C442.187,68.178,440.594,67.588,432.661,69.598z"/>
			</g>
			<g>
				<path fill="#FFFFFF" d="M474.369,238.34c6.699-4.703,7.289-6.297,5.278-14.227c4.704,6.696,6.296,7.286,14.231,5.276
					c-6.699,4.704-7.29,6.296-5.282,14.229C483.896,236.92,482.303,236.33,474.369,238.34z"/>
				<path fill="#FFFFFF" d="M474.369,238.34c6.699-4.703,7.289-6.297,5.278-14.227c4.704,6.696,6.296,7.286,14.231,5.276
					c-6.699,4.704-7.29,6.296-5.282,14.229C483.896,236.92,482.303,236.33,474.369,238.34z"/>
			</g>
			<g>
				<path fill="#FFFFFF" d="M393.188,41.062c-11.51-3.998-13.948-3.328-21.781,6.003c3.997-11.508,3.324-13.949-6.006-21.783
					c11.508,4,13.948,3.327,21.784-6.003C383.184,30.788,383.855,33.225,393.188,41.062z"/>
				<path fill="#FFFFFF" d="M393.188,41.062c-11.51-3.998-13.948-3.328-21.781,6.003c3.997-11.508,3.324-13.949-6.006-21.783
					c11.508,4,13.948,3.327,21.784-6.003C383.184,30.788,383.855,33.225,393.188,41.062z"/>
			</g>
			<g>
				<path fill="#FFFFFF" d="M458.17,162.493c-12.182,0.18-14.244,1.646-18.413,13.094c-0.181-12.182-1.647-14.243-13.096-18.413
					c12.183-0.18,14.245-1.646,18.415-13.094C445.256,156.262,446.722,158.323,458.17,162.493z"/>
				<path fill="#FFFFFF" d="M458.17,162.493c-12.182,0.18-14.244,1.646-18.413,13.094c-0.181-12.182-1.647-14.243-13.096-18.413
					c12.183-0.18,14.245-1.646,18.415-13.094C445.256,156.262,446.722,158.323,458.17,162.493z"/>
			</g>
			<g>
				<path fill="#FFFFFF" d="M474.084,289.391c-11.352,4.423-12.773,6.518-12.68,18.699c-4.426-11.353-6.52-12.771-18.703-12.68
					c11.353-4.425,12.773-6.518,12.684-18.7C459.807,288.063,461.9,289.48,474.084,289.391z"/>
				<path fill="#FFFFFF" d="M474.084,289.391c-11.352,4.423-12.773,6.518-12.68,18.699c-4.426-11.353-6.52-12.771-18.703-12.68
					c11.353-4.425,12.773-6.518,12.684-18.7C459.807,288.063,461.9,289.48,474.084,289.391z"/>
			</g>
		</g>
	</g>
	<g>
		<g>
			<path fill="#F8AFAD" d="M352.904,280.918c-1.014-0.164-1.762-1.044-1.764-2.071c-0.009-4.909-1.635-9.414-4.359-13.076h-15.148
				c-1.16,0-2.101-0.941-2.101-2.101c0-1.16,0.94-2.101,2.101-2.101h15.689c6.113-3.086,10.306-9.371,10.305-16.671
				c-0.002-5.166-2.089-9.826-5.473-13.215c-3.389-3.385-8.049-5.473-13.216-5.473h-28.307c-0.546,0-1.11,0.033-1.691,0.087
				c-0.022,0.001-0.043-0.005-0.065-0.005c-0.041,0.004-0.082,0.014-0.123,0.014H297.77c-1.16,0-2.102-0.941-2.102-2.101
				c0-1.16,0.941-2.101,2.102-2.101h10.074c3.246-3.423,5.113-7.568,5.116-12.039c-0.001-5.433-2.731-10.412-7.37-14.143
				c-4.633-3.715-11.146-6.077-18.381-6.074H230.52c-7.238-0.003-13.75,2.359-18.381,6.074c-4.64,3.73-7.368,8.709-7.37,14.143
				c0.001,2.015,0.41,3.951,1.132,5.809h15.502c1.159,0,2.1,0.94,2.1,2.1c0,1.16-0.94,2.102-2.1,2.102H204.5h-11.559
				c-5.299,0-10.074,2.141-13.545,5.608c-3.469,3.472-5.607,8.245-5.607,13.544c0,2.457,0.496,4.779,1.344,6.94h22.133
				c1.159,0,2.1,0.94,2.1,2.101s-0.94,2.101-2.1,2.101h-23.541h-5.443c-6.374,0.002-12.126,2.577-16.306,6.753
				c-4.177,4.18-6.752,9.932-6.753,16.306c0,3.188,0.66,6.209,1.838,8.972h16.701c1.161,0,2.102,0.94,2.102,2.101
				c0,1.159-0.94,2.101-2.102,2.101h-17.168c-3.661,3.67-5.946,8.684-5.947,14.269c0,5.595,2.262,10.642,5.928,14.312
				c3.67,3.666,8.716,5.927,14.311,5.928h188.754c5.594-0.001,10.641-2.262,14.311-5.928c3.664-3.67,5.926-8.717,5.927-14.312
				C369.879,290.805,362.526,282.483,352.904,280.918z"/>
			<path fill="#424143" d="M355.264,277.123c-0.313-4.699-1.861-9.067-4.33-12.768c6.527-4.026,10.893-11.22,10.895-19.457
				c-0.002-12.643-10.246-22.889-22.89-22.889h-25.61c2.412-3.509,3.835-7.583,3.833-11.943c0.002-6.896-3.505-13.074-8.946-17.42
				c-5.447-4.361-12.859-6.995-21.006-6.998H230.52c-8.147,0.003-15.56,2.637-21.008,6.998c-5.441,4.348-8.946,10.524-8.944,17.42
				c0,2.011,0.339,3.951,0.903,5.809h-8.529c-12.902,0-23.354,10.451-23.354,23.354c-0.002,2.425,0.404,4.749,1.094,6.94h-2.4
				c-15.057,0.002-27.259,12.203-27.26,27.26c-0.002,3.78,0.787,7.374,2.183,10.641c-4.163,4.372-6.761,10.278-6.759,16.801
				c0.001,13.498,10.941,24.439,24.439,24.44h188.754c13.496-0.001,24.438-10.942,24.438-24.44
				C374.074,289.306,366.049,279.667,355.264,277.123z M363.949,315.182c-3.67,3.666-8.717,5.927-14.311,5.928H160.885
				c-5.595-0.001-10.641-2.262-14.311-5.928c-3.666-3.67-5.928-8.717-5.928-14.312c0.001-5.585,2.286-10.599,5.947-14.269h17.168
				c1.161,0,2.102-0.941,2.102-2.101c0-1.16-0.94-2.101-2.102-2.101h-16.701c-1.178-2.763-1.838-5.783-1.838-8.972
				c0.001-6.374,2.576-12.126,6.753-16.306c4.18-4.176,9.932-6.751,16.306-6.753h5.443h23.541c1.159,0,2.1-0.94,2.1-2.101
				s-0.94-2.101-2.1-2.101h-22.133c-0.848-2.161-1.344-4.483-1.344-6.94c0-5.299,2.139-10.072,5.607-13.544
				c3.471-3.468,8.246-5.608,13.545-5.608H204.5h16.902c1.159,0,2.1-0.941,2.1-2.102c0-1.159-0.94-2.1-2.1-2.1H205.9
				c-0.722-1.857-1.131-3.794-1.132-5.809c0.002-5.434,2.73-10.412,7.37-14.143c4.631-3.715,11.143-6.077,18.381-6.074h56.689
				c7.234-0.003,13.748,2.359,18.381,6.074c4.639,3.73,7.369,8.71,7.37,14.143c-0.003,4.471-1.87,8.616-5.116,12.039H297.77
				c-1.16,0-2.102,0.94-2.102,2.101c0,1.159,0.941,2.101,2.102,2.101h10.982c0.041,0,0.082-0.01,0.123-0.014
				c0.022,0,0.043,0.006,0.065,0.005c0.581-0.054,1.146-0.087,1.691-0.087h28.307c5.167,0,9.827,2.088,13.216,5.473
				c3.384,3.389,5.471,8.049,5.473,13.215c0.001,7.3-4.191,13.585-10.305,16.671h-15.689c-1.16,0-2.101,0.94-2.101,2.101
				c0,1.159,0.94,2.101,2.101,2.101h15.148c2.725,3.662,4.351,8.167,4.359,13.076c0.002,1.027,0.75,1.907,1.764,2.071
				c9.622,1.565,16.975,9.887,16.972,19.952C369.875,306.465,367.613,311.512,363.949,315.182z"/>
		</g>
		<path fill="#F48E9D" d="M334.024,297.773H316.52v-24.74c0-1.159-0.941-2.101-2.101-2.101c-1.161,0-2.101,0.941-2.101,2.101v24.74
			h-21.706c-1.161,0-2.101,0.941-2.101,2.102c0,1.159,0.939,2.1,2.101,2.1h21.706v8.273c0,1.16,0.939,2.101,2.101,2.101
			c1.159,0,2.101-0.94,2.101-2.101v-8.273h17.505c1.159,0,2.101-0.94,2.101-2.1C336.125,298.715,335.184,297.773,334.024,297.773z"
			/>
		<path fill="#F48E9D" d="M224.326,300.342h-31.041v-7.936H204.5c1.16,0,2.1-0.94,2.1-2.101c0-1.159-0.939-2.101-2.1-2.101h-11.215
			v-15.172c0-1.159-0.941-2.101-2.102-2.101c-1.161,0-2.1,0.941-2.1,2.101v15.172h-14.647c-1.16,0-2.101,0.941-2.101,2.101
			c0,1.16,0.94,2.101,2.101,2.101h14.647v10.035c0,0.553,0.224,1.095,0.613,1.485c0.393,0.392,0.933,0.616,1.486,0.616h33.143
			c1.16,0,2.1-0.941,2.1-2.102C226.426,301.282,225.486,300.342,224.326,300.342z"/>
	</g>
	<g>
		<g>
			<g>
				<polygon fill="#AEBDC2" points="279.161,103.434 322.652,103.434 322.652,96.277 279.141,96.277 				"/>
				<polygon fill="#C2CDCF" points="279.114,85.499 279.132,92.659 322.652,92.659 322.652,85.499 				"/>
				<path fill="#FEE591" d="M331.029,15.87c-7.723-7.718-18.37-12.486-30.149-12.487c-11.781,0.001-22.429,4.77-30.149,12.487
					c-7.719,7.722-12.486,18.37-12.488,30.149c0,15.06,7.814,28.271,19.607,35.861h21.08v-6.942h-6.334
					c-0.999,0-1.809-0.809-1.809-1.809c0-0.999,0.81-1.81,1.809-1.81h6.334V52.096l-15.756-15.758c-0.707-0.707-0.707-1.854,0-2.561
					c0.706-0.705,1.854-0.705,2.559,0l15.007,15.008l15.345-15.346c0.707-0.706,1.854-0.706,2.56,0s0.706,1.853,0,2.559
					l-16.095,16.098V71.32h6.504c0.999,0,1.809,0.811,1.809,1.81c0,1-0.81,1.809-1.809,1.809h-6.504v6.942h21.363
					c11.789-7.59,19.607-20.802,19.607-35.861C343.518,34.24,338.749,23.592,331.029,15.87z"/>
				<path fill="#424143" d="M347.139,46.02c-0.002-25.547-20.713-46.254-46.259-46.256c-25.55,0.002-46.255,20.709-46.256,46.256
					c0,16.16,8.308,30.371,20.87,38.637l0.023,9.816l0,0l0,0l0.029,10.776v13.118c0,0.477,0.193,0.943,0.531,1.281
					c0.335,0.336,0.802,0.529,1.277,0.529h8.598v0.281c0,8.248,6.682,14.928,14.927,14.928s14.929-6.68,14.929-14.928v-0.281h8.654
					c0.476,0,0.942-0.193,1.277-0.529c0.338-0.338,0.531-0.805,0.531-1.281v-13.124V94.469v-9.814
					C338.827,76.389,347.139,62.178,347.139,46.02z M322.652,116.559H314h-26.238h-8.596v-9.506h43.486V116.559z M312.189,120.459
					c0,3.131-1.263,5.946-3.313,7.998c-2.053,2.049-4.868,3.31-7.997,3.312c-3.129-0.002-5.944-1.263-7.995-3.312
					c-2.051-2.052-3.313-4.867-3.314-7.998v-0.281h22.619V120.459z M322.652,103.434h-43.491l-0.021-7.156h43.512V103.434z
					 M322.652,92.659h-43.521l-0.018-7.16h43.538V92.659z M323.912,81.881h-21.363v-6.942h6.504c0.999,0,1.809-0.809,1.809-1.809
					c0-0.999-0.81-1.81-1.809-1.81h-6.504V52.096l16.095-16.098c0.706-0.706,0.706-1.853,0-2.559s-1.853-0.706-2.56,0
					l-15.345,15.346l-15.007-15.008c-0.705-0.705-1.853-0.705-2.559,0c-0.707,0.707-0.707,1.854,0,2.561l15.756,15.758V71.32h-6.334
					c-0.999,0-1.809,0.811-1.809,1.81c0,1,0.81,1.809,1.809,1.809h6.334v6.942h-21.08c-11.793-7.59-19.607-20.802-19.607-35.861
					c0.002-11.779,4.77-22.428,12.488-30.149c7.721-7.718,18.368-12.486,30.149-12.487c11.779,0.001,22.427,4.77,30.149,12.487
					c7.72,7.722,12.488,18.37,12.49,30.149C343.52,61.079,335.701,74.291,323.912,81.881z"/>
				<polygon fill="#94A7AD" points="279.166,116.559 287.762,116.559 314,116.559 322.652,116.559 322.652,107.053 279.166,107.053 
									"/>
				<path fill="#6C6D6D" d="M289.57,120.459c0.002,3.131,1.264,5.946,3.314,7.998c2.051,2.049,4.866,3.31,7.995,3.312
					c3.129-0.002,5.944-1.263,7.997-3.312c2.05-2.052,3.313-4.867,3.313-7.998v-0.281H289.57V120.459z"/>
			</g>
			<path fill="#F89521" d="M318.938,26.328h10.707c1,0,1.81-0.811,1.81-1.811s-0.81-1.809-1.81-1.809h-10.707
				c-1.001,0-1.81,0.809-1.81,1.809S317.938,26.328,318.938,26.328"/>
			<path fill="#F89521" d="M298.127,12.152h-8.443c-1,0-1.81,0.81-1.81,1.81c0,0.999,0.81,1.81,1.81,1.81h8.443
				c1,0,1.809-0.811,1.809-1.81C299.936,12.962,299.127,12.152,298.127,12.152"/>
			<path fill="#F89521" d="M280.031,60.162H268.27c-0.999,0-1.809,0.811-1.809,1.811c0,0.999,0.81,1.809,1.809,1.809h11.762
				c1,0,1.809-0.81,1.809-1.809C281.84,60.973,281.031,60.162,280.031,60.162"/>
			<path fill="#F89521" d="M315.018,61.185h6.033c1,0,1.81-0.811,1.81-1.81c0-1-0.81-1.809-1.81-1.809h-6.033
				c-1,0-1.81,0.809-1.81,1.809C313.208,60.374,314.018,61.185,315.018,61.185"/>
			<path fill="#F89521" d="M277.326,39.352h-9.057c-0.999,0-1.809,0.81-1.809,1.81c0,1.001,0.81,1.81,1.809,1.81h9.057
				c1,0,1.811-0.809,1.811-1.81C279.137,40.161,278.326,39.352,277.326,39.352"/>
			<path fill="#F89521" d="M326.779,44.441h5.73c1,0,1.811-0.809,1.811-1.809s-0.811-1.81-1.811-1.81h-5.73
				c-0.998,0-1.809,0.81-1.809,1.81S325.781,44.441,326.779,44.441"/>
		</g>
		<g>
			<g>
				<polygon fill="#AEBDC2" points="155.233,127.191 198.725,127.191 198.725,120.035 155.213,120.035 				"/>
				<polygon fill="#C2CDCF" points="155.186,109.258 155.204,116.416 198.725,116.416 198.725,109.258 				"/>
				<path fill="#FEE591" d="M207.101,39.629c-7.722-7.719-18.371-12.488-30.148-12.489c-11.781,0.001-22.429,4.771-30.15,12.489
					c-7.719,7.721-12.485,18.369-12.487,30.148c0,15.059,7.814,28.271,19.607,35.861h21.079v-6.941h-6.333
					c-0.999,0-1.809-0.811-1.809-1.81c0-1.001,0.81-1.81,1.809-1.81h6.333V75.854l-15.755-15.759c-0.707-0.706-0.707-1.853,0-2.559
					c0.706-0.707,1.852-0.707,2.559,0l15.006,15.008l15.346-15.347c0.707-0.707,1.853-0.707,2.559,0
					c0.707,0.706,0.707,1.852,0,2.559l-16.094,16.098v19.225h6.504c0.999,0,1.809,0.809,1.809,1.81c0,0.999-0.81,1.81-1.809,1.81
					h-6.504v6.941h21.363c11.788-7.591,19.607-20.803,19.607-35.861C219.59,57.998,214.821,47.35,207.101,39.629z"/>
				<path fill="#424143" d="M223.21,69.777c-0.001-25.547-20.712-46.255-46.258-46.257c-25.55,0.002-46.256,20.71-46.257,46.257
					c0,16.159,8.309,30.371,20.869,38.636l0.025,9.816l0,0c0,0.002,0,0.002,0,0.002l0.029,10.774v13.12
					c0,0.475,0.192,0.941,0.529,1.279c0.337,0.337,0.804,0.529,1.279,0.529h8.598v0.282c0,8.248,6.682,14.928,14.927,14.928
					s14.928-6.68,14.929-14.928v-0.282h8.652c0.478,0,0.942-0.192,1.279-0.529c0.338-0.338,0.531-0.805,0.531-1.279v-13.125v-10.774
					v-9.814C214.898,100.146,223.21,85.936,223.21,69.777z M198.725,140.316h-8.654h-26.236h-8.598v-9.507h43.488V140.316z
					 M188.262,144.217c-0.002,3.131-1.262,5.945-3.313,7.997c-2.052,2.051-4.868,3.311-7.997,3.313
					c-3.129-0.002-5.944-1.262-7.997-3.313c-2.049-2.052-3.311-4.866-3.313-7.997v-0.282h22.619V144.217z M198.725,127.191h-43.491
					l-0.021-7.156h43.512V127.191z M198.725,116.416h-43.521l-0.019-7.158h43.539V116.416z M199.984,105.639h-21.363v-6.941h6.504
					c0.999,0,1.809-0.811,1.809-1.81c0-1.001-0.81-1.81-1.809-1.81h-6.504V75.854l16.094-16.098c0.707-0.707,0.707-1.853,0-2.559
					c-0.706-0.707-1.852-0.707-2.559,0l-15.346,15.347l-15.006-15.008c-0.707-0.707-1.853-0.707-2.559,0
					c-0.707,0.706-0.707,1.853,0,2.559l15.755,15.759v19.225h-6.333c-0.999,0-1.809,0.809-1.809,1.81c0,0.999,0.81,1.81,1.809,1.81
					h6.333v6.941h-21.079c-11.793-7.591-19.607-20.803-19.607-35.861c0.002-11.779,4.769-22.428,12.487-30.148
					c7.722-7.719,18.369-12.488,30.15-12.489c11.777,0.001,22.427,4.771,30.148,12.489c7.721,7.721,12.489,18.369,12.491,30.148
					C219.592,84.836,211.772,98.048,199.984,105.639z"/>
				<polygon fill="#94A7AD" points="155.236,140.316 163.834,140.316 190.07,140.316 198.725,140.316 198.725,130.81 
					155.236,130.81 				"/>
				<path fill="#6C6D6D" d="M165.643,144.217c0.002,3.131,1.264,5.945,3.313,7.997c2.053,2.051,4.868,3.311,7.997,3.313
					c3.129-0.002,5.945-1.262,7.997-3.313c2.051-2.052,3.311-4.866,3.313-7.997v-0.282h-22.619V144.217z"/>
			</g>
			<path fill="#F89521" d="M195.01,50.086h10.707c1,0,1.81-0.811,1.81-1.811s-0.81-1.809-1.81-1.809H195.01
				c-1,0-1.809,0.809-1.809,1.809S194.01,50.086,195.01,50.086"/>
			<path fill="#F89521" d="M174.199,35.91h-8.443c-1,0-1.811,0.81-1.811,1.81c0,0.999,0.811,1.809,1.811,1.809h8.443
				c0.999,0,1.809-0.81,1.809-1.809C176.008,36.72,175.198,35.91,174.199,35.91"/>
			<path fill="#F89521" d="M156.104,83.92h-11.762c-1,0-1.81,0.81-1.81,1.81c0,0.999,0.81,1.81,1.81,1.81h11.762
				c0.999,0,1.809-0.811,1.809-1.81C157.912,84.729,157.103,83.92,156.104,83.92"/>
			<path fill="#F89521" d="M191.09,84.941h6.033c0.999,0,1.809-0.81,1.809-1.809c0-1.001-0.81-1.811-1.809-1.811h-6.033
				c-1,0-1.81,0.81-1.81,1.811C189.28,84.132,190.09,84.941,191.09,84.941"/>
			<path fill="#F89521" d="M153.398,63.11h-9.057c-1,0-1.81,0.81-1.81,1.809s0.81,1.809,1.81,1.809h9.057c1,0,1.81-0.81,1.81-1.809
				S154.398,63.11,153.398,63.11"/>
			<path fill="#F89521" d="M202.852,68.2h5.73c1,0,1.809-0.81,1.809-1.81s-0.809-1.81-1.809-1.81h-5.73
				c-0.998,0-1.809,0.81-1.809,1.81S201.854,68.2,202.852,68.2"/>
		</g>
		<g>
			<g>
				<polygon fill="#AEBDC2" points="382.241,156.035 425.732,156.035 425.732,148.879 382.221,148.879 				"/>
				<polygon fill="#C2CDCF" points="382.193,138.101 382.211,145.26 425.732,145.26 425.732,138.101 				"/>
				<path fill="#FEE591" d="M434.109,68.472c-7.723-7.718-18.371-12.486-30.148-12.488c-11.781,0.002-22.429,4.771-30.15,12.488
					c-7.719,7.722-12.486,18.369-12.488,30.149c0,15.059,7.814,28.271,19.607,35.861h21.08v-6.942h-6.334
					c-0.998,0-1.809-0.81-1.809-1.809c0-1,0.811-1.81,1.809-1.81h6.334v-19.226l-15.756-15.757c-0.707-0.708-0.707-1.854,0-2.561
					c0.707-0.705,1.853-0.705,2.559,0l15.006,15.008l15.346-15.347c0.707-0.706,1.853-0.706,2.561,0c0.706,0.707,0.706,1.853,0,2.56
					l-16.096,16.097v19.226h6.504c1,0,1.809,0.81,1.809,1.81c0,0.999-0.809,1.809-1.809,1.809h-6.504v6.942h21.363
					c11.789-7.591,19.607-20.803,19.607-35.861C446.599,86.841,441.829,76.193,434.109,68.472z"/>
				<path fill="#424143" d="M450.218,98.621c-0.001-25.547-20.712-46.255-46.257-46.256c-25.551,0.001-46.256,20.709-46.258,46.256
					c0,16.16,8.309,30.371,20.871,38.635l0.023,9.818l0,0l0,0l0.029,10.775v13.119c0,0.477,0.193,0.941,0.53,1.28
					c0.337,0.336,0.804,0.529,1.278,0.529h8.598v0.281c0,8.248,6.682,14.929,14.928,14.929c8.245,0,14.927-6.681,14.928-14.929
					v-0.281h8.653c0.477,0,0.943-0.193,1.278-0.529c0.338-0.339,0.531-0.804,0.531-1.28v-13.125v-10.774v-9.813
					C441.906,128.99,450.218,114.779,450.218,98.621z M425.732,169.16h-8.652h-26.238h-8.596v-9.507h43.486V169.16z M415.27,173.06
					c-0.002,3.131-1.262,5.947-3.312,7.998c-2.054,2.05-4.868,3.311-7.997,3.312c-3.13-0.001-5.945-1.262-7.997-3.312
					c-2.049-2.051-3.311-4.867-3.313-7.998v-0.281h22.618V173.06z M425.732,156.035h-43.491l-0.021-7.156h43.512V156.035z
					 M425.732,145.26h-43.521l-0.018-7.159h43.539V145.26z M426.992,134.482h-21.363v-6.942h6.504c1,0,1.809-0.81,1.809-1.809
					c0-1-0.809-1.81-1.809-1.81h-6.504v-19.226L421.725,88.6c0.706-0.707,0.706-1.853,0-2.56c-0.708-0.706-1.854-0.706-2.561,0
					l-15.346,15.347l-15.006-15.008c-0.706-0.705-1.852-0.705-2.559,0c-0.707,0.707-0.707,1.853,0,2.561l15.756,15.757v19.226
					h-6.334c-0.998,0-1.809,0.81-1.809,1.81c0,0.999,0.811,1.809,1.809,1.809h6.334v6.942h-21.08
					c-11.793-7.591-19.607-20.803-19.607-35.861c0.002-11.78,4.77-22.428,12.488-30.149c7.722-7.718,18.369-12.486,30.15-12.488
					c11.777,0.002,22.426,4.771,30.148,12.488c7.72,7.722,12.489,18.369,12.49,30.149C446.6,113.68,438.781,126.892,426.992,134.482
					z"/>
				<polygon fill="#94A7AD" points="382.246,169.16 390.842,169.16 417.08,169.16 425.732,169.16 425.732,159.653 382.246,159.653 
									"/>
				<path fill="#6C6D6D" d="M392.651,173.06c0.002,3.131,1.264,5.947,3.313,7.998c2.052,2.05,4.867,3.311,7.997,3.312
					c3.129-0.001,5.943-1.262,7.997-3.312c2.05-2.051,3.31-4.867,3.312-7.998v-0.281h-22.618V173.06z"/>
			</g>
			<path fill="#F89521" d="M422.018,78.929h10.707c1.002,0,1.811-0.81,1.811-1.81s-0.809-1.81-1.811-1.81h-10.707
				c-0.999,0-1.809,0.81-1.809,1.81S421.019,78.929,422.018,78.929"/>
			<path fill="#F89521" d="M401.207,64.754h-8.442c-1.001,0-1.81,0.809-1.81,1.809s0.809,1.811,1.81,1.811h8.442
				c0.999,0,1.81-0.811,1.81-1.811S402.206,64.754,401.207,64.754"/>
			<path fill="#F89521" d="M383.111,112.764H371.35c-1,0-1.809,0.809-1.809,1.809s0.809,1.811,1.809,1.811h11.762
				c1,0,1.81-0.811,1.81-1.811S384.111,112.764,383.111,112.764"/>
			<path fill="#F89521" d="M418.098,113.785h6.033c1,0,1.809-0.81,1.809-1.809c0-1-0.809-1.811-1.809-1.811h-6.033
				c-1,0-1.809,0.811-1.809,1.811C416.289,112.976,417.098,113.785,418.098,113.785"/>
			<path fill="#F89521" d="M380.407,91.953h-9.058c-1,0-1.809,0.81-1.809,1.809c0,1,0.809,1.811,1.809,1.811h9.058
				c0.999,0,1.809-0.811,1.809-1.811C382.216,92.763,381.406,91.953,380.407,91.953"/>
			<path fill="#F89521" d="M429.86,97.043h5.729c1,0,1.81-0.81,1.81-1.81c0-0.999-0.81-1.809-1.81-1.809h-5.729
				c-0.999,0-1.81,0.81-1.81,1.809C428.051,96.233,428.861,97.043,429.86,97.043"/>
		</g>
		<g>
			<g>
				<polygon fill="#AEBDC2" points="57.472,180.806 100.965,180.806 100.965,173.649 57.453,173.649 				"/>
				<polygon fill="#C2CDCF" points="57.426,162.871 57.443,170.031 100.965,170.031 100.965,162.871 				"/>
				<path fill="#FEE591" d="M109.342,93.243c-7.723-7.72-18.371-12.487-30.15-12.488c-11.781,0.001-22.428,4.769-30.149,12.488
					c-7.718,7.721-12.487,18.369-12.489,30.148c0,15.06,7.814,28.271,19.609,35.861h21.08v-6.942h-6.334
					c-1,0-1.809-0.809-1.809-1.809s0.809-1.811,1.809-1.811h6.334v-19.224l-15.757-15.759c-0.706-0.706-0.706-1.852,0-2.56
					c0.706-0.706,1.853-0.706,2.56,0l15.006,15.008l15.346-15.347c0.705-0.705,1.853-0.705,2.559,0c0.707,0.707,0.707,1.854,0,2.56
					l-16.096,16.098v19.224h6.505c1,0,1.81,0.811,1.81,1.811s-0.81,1.809-1.81,1.809h-6.505v6.942h21.363
					c11.79-7.591,19.609-20.802,19.609-35.861C121.83,111.612,117.06,100.964,109.342,93.243z"/>
				<path fill="#424143" d="M125.449,123.392c-0.001-25.547-20.713-46.255-46.258-46.257c-25.55,0.002-46.256,20.71-46.256,46.257
					c0,16.159,8.308,30.371,20.869,38.636l0.023,9.816c0,0,0,0,0,0.001l0,0l0.031,10.776v13.118c0,0.477,0.191,0.942,0.529,1.281
					c0.336,0.335,0.803,0.528,1.279,0.528h8.596v0.282c0.002,8.248,6.684,14.928,14.928,14.928c8.246,0,14.928-6.68,14.929-14.928
					v-0.282h8.653c0.477,0,0.942-0.193,1.279-0.528c0.337-0.339,0.529-0.805,0.529-1.281v-13.124V171.84v-9.813
					C117.139,153.761,125.449,139.551,125.449,123.392z M100.965,193.931h-8.654H66.074h-8.597v-9.506h43.487V193.931z
					 M90.502,197.831c-0.002,3.13-1.264,5.946-3.313,7.997c-2.053,2.05-4.867,3.311-7.998,3.313
					c-3.129-0.002-5.944-1.263-7.996-3.313c-2.05-2.051-3.311-4.867-3.312-7.997v-0.282h22.618V197.831z M100.965,180.806H57.472
					l-0.019-7.156h43.512V180.806z M100.965,170.031H57.443l-0.018-7.16h43.539V170.031z M102.223,159.253H80.859v-6.942h6.505
					c1,0,1.81-0.809,1.81-1.809s-0.81-1.811-1.81-1.811h-6.505v-19.224l16.096-16.098c0.707-0.706,0.707-1.853,0-2.56
					c-0.706-0.705-1.854-0.705-2.559,0l-15.346,15.347l-15.006-15.008c-0.707-0.706-1.854-0.706-2.56,0
					c-0.706,0.708-0.706,1.854,0,2.56l15.757,15.759v19.224h-6.334c-1,0-1.809,0.811-1.809,1.811s0.809,1.809,1.809,1.809h6.334
					v6.942h-21.08c-11.795-7.591-19.609-20.802-19.609-35.861c0.002-11.779,4.771-22.428,12.489-30.148
					c7.722-7.72,18.368-12.487,30.149-12.488c11.779,0.001,22.428,4.769,30.15,12.488c7.718,7.721,12.488,18.369,12.49,30.148
					C121.832,138.451,114.013,151.662,102.223,159.253z"/>
				<polygon fill="#94A7AD" points="57.478,193.931 66.074,193.931 92.311,193.931 100.965,193.931 100.965,184.425 57.478,184.425 
									"/>
				<path fill="#6C6D6D" d="M67.884,197.831c0.001,3.13,1.262,5.946,3.312,7.997c2.052,2.05,4.867,3.311,7.996,3.313
					c3.131-0.002,5.945-1.263,7.998-3.313c2.049-2.051,3.311-4.867,3.313-7.997v-0.282H67.884V197.831z"/>
			</g>
			<path fill="#F89521" d="M97.25,103.699h10.707c1,0,1.809-0.811,1.809-1.81s-0.809-1.809-1.809-1.809H97.25
				c-1,0-1.81,0.81-1.81,1.809S96.25,103.699,97.25,103.699"/>
			<path fill="#F89521" d="M76.439,89.524h-8.445c-0.998,0-1.809,0.81-1.809,1.81c0,0.999,0.811,1.809,1.809,1.809h8.445
				c0.999,0,1.809-0.81,1.809-1.809C78.248,90.334,77.438,89.524,76.439,89.524"/>
			<path fill="#F89521" d="M58.344,137.534H46.58c-0.999,0-1.809,0.81-1.809,1.81s0.81,1.81,1.809,1.81h11.764
				c0.999,0,1.809-0.81,1.809-1.81S59.343,137.534,58.344,137.534"/>
			<path fill="#F89521" d="M93.328,138.557h6.034c1.001,0,1.81-0.811,1.81-1.811c0-0.999-0.809-1.809-1.81-1.809h-6.034
				c-1,0-1.809,0.81-1.809,1.809C91.52,137.746,92.328,138.557,93.328,138.557"/>
			<path fill="#F89521" d="M55.639,116.724H46.58c-0.999,0-1.809,0.81-1.809,1.81s0.81,1.81,1.809,1.81h9.059
				c1,0,1.81-0.81,1.81-1.81S56.639,116.724,55.639,116.724"/>
			<path fill="#F89521" d="M105.093,121.813h5.729c0.998,0,1.809-0.809,1.809-1.809s-0.811-1.81-1.809-1.81h-5.729
				c-1.001,0-1.81,0.81-1.81,1.81S104.092,121.813,105.093,121.813"/>
		</g>
	</g>
	<g>
		<g>
			<polygon fill="#6E6F72" points="275.82,310.637 242.055,310.637 242.055,320.79 275.873,320.79 			"/>
			<path fill="#FDDD6C" d="M290.426,213.256c-8.016-8.01-19.063-12.958-31.291-12.96c-12.227,0.002-23.275,4.95-31.289,12.96
				c-8.011,8.014-12.961,19.063-12.961,31.288c-0.002,17.91,10.643,33.314,25.94,40.286c0.749,0.342,1.229,1.089,1.229,1.912v19.693
				h14.979V264.18h-9.039c-5.4-0.002-9.867-3.935-10.728-9.091c-2.999-0.849-5.208-3.571-5.21-6.846
				c0.002-3.95,3.203-7.146,7.149-7.147c3.944,0.002,7.147,3.196,7.149,7.147c-0.002,3.127-2.02,5.751-4.813,6.723
				c0.303,1.168,0.891,2.22,1.723,3.054c1.215,1.215,2.875,1.957,4.729,1.959h22.281c1.854-0.002,3.513-0.744,4.73-1.959
				c0.831-0.834,1.418-1.886,1.721-3.054c-2.793-0.97-4.811-3.596-4.811-6.723c0-3.95,3.201-7.146,7.146-7.147
				c3.949,0,7.148,3.197,7.15,7.147c-0.002,3.272-2.211,5.997-5.209,6.846c-0.859,5.156-5.328,9.089-10.729,9.091h-9.041v42.256
				h14.564l-0.104-19.45c-0.004-0.837,0.488-1.597,1.254-1.934c15.564-6.856,26.439-22.404,26.436-40.508
				C303.385,232.318,298.437,221.27,290.426,213.256z"/>
			<path fill="#424143" d="M307.586,244.544c0-26.76-21.691-48.447-48.451-48.449c-26.758,0.002-48.45,21.689-48.451,48.449
				c0.002,19.119,11.094,35.614,27.17,43.497v20.495v14.354c0,0.554,0.224,1.096,0.615,1.485c0.391,0.392,0.932,0.615,1.484,0.615
				h38.031c0.563,0,1.094-0.222,1.49-0.619c0.396-0.397,0.613-0.932,0.611-1.492l-0.075-14.354l-0.107-20.238
				C296.258,280.51,307.584,263.865,307.586,244.544z M242.055,310.637h33.766l0.053,10.153h-33.818V310.637z M276.949,285.052
				c-0.766,0.337-1.258,1.097-1.254,1.934l0.104,19.45h-14.564V264.18h9.041c5.4-0.002,9.869-3.935,10.729-9.091
				c2.998-0.849,5.207-3.573,5.209-6.846c-0.002-3.95-3.201-7.147-7.15-7.147c-3.945,0.002-7.146,3.197-7.146,7.147
				c0,3.127,2.018,5.753,4.811,6.723c-0.303,1.168-0.89,2.22-1.721,3.054c-1.218,1.215-2.876,1.957-4.73,1.959h-22.281
				c-1.854-0.002-3.514-0.744-4.729-1.959c-0.832-0.834-1.42-1.886-1.723-3.054c2.793-0.972,4.811-3.596,4.813-6.723
				c-0.002-3.951-3.205-7.146-7.149-7.147c-3.946,0.002-7.147,3.197-7.149,7.147c0.002,3.274,2.211,5.997,5.21,6.846
				c0.86,5.156,5.327,9.089,10.728,9.091h9.039v42.256h-14.979v-19.693c0-0.823-0.48-1.57-1.229-1.912
				c-15.298-6.972-25.942-22.376-25.94-40.286c0-12.226,4.95-23.274,12.961-31.288c8.014-8.01,19.063-12.958,31.289-12.96
				c12.228,0.002,23.275,4.95,31.291,12.96c8.011,8.014,12.959,19.063,12.959,31.288
				C303.389,262.647,292.514,278.195,276.949,285.052z M279.063,251.189c-1.625-0.002-2.943-1.318-2.945-2.946
				c0.002-1.628,1.32-2.942,2.945-2.946c1.631,0.004,2.945,1.318,2.949,2.946C282.008,249.871,280.693,251.188,279.063,251.189z
				 M236.258,248.243c0.002-1.626,1.32-2.942,2.948-2.946c1.626,0.004,2.946,1.32,2.948,2.946c-0.002,1.626-1.322,2.944-2.948,2.946
				C237.578,251.188,236.26,249.869,236.258,248.243z"/>
			<path fill="#FAE1AC" d="M242.154,248.243c-0.002-1.626-1.322-2.942-2.948-2.946c-1.628,0.004-2.946,1.32-2.948,2.946
				c0.002,1.626,1.32,2.944,2.948,2.946C240.832,251.188,242.152,249.869,242.154,248.243z"/>
			<path fill="#FAE1AC" d="M282.012,248.243c-0.004-1.628-1.318-2.942-2.949-2.946c-1.625,0.004-2.943,1.318-2.945,2.946
				c0.002,1.628,1.32,2.944,2.945,2.946C280.693,251.188,282.008,249.871,282.012,248.243z"/>
		</g>
		<path fill="#F4A347" d="M230.395,230.555h7.234c1.161,0,2.102-0.94,2.102-2.101c0-1.159-0.94-2.101-2.102-2.101h-7.234
			c-1.161,0-2.1,0.941-2.1,2.101C228.295,229.614,229.233,230.555,230.395,230.555"/>
		<path fill="#F4A347" d="M250,217.485h22.64c1.161,0,2.101-0.94,2.101-2.101s-0.939-2.101-2.101-2.101H250
			c-1.16,0-2.1,0.94-2.1,2.101S248.84,217.485,250,217.485"/>
		<path fill="#F4A347" d="M254.936,235.456h8.402c1.159,0,2.1-0.94,2.1-2.101c0-1.159-0.94-2.101-2.1-2.101h-8.402
			c-1.162,0-2.102,0.941-2.102,2.101C252.834,234.516,253.773,235.456,254.936,235.456"/>
		<path fill="#F4A347" d="M284.111,235.456h11.635c1.16,0,2.101-0.94,2.101-2.101c0-1.159-0.94-2.101-2.101-2.101h-11.635
			c-1.16,0-2.1,0.941-2.1,2.101C282.012,234.516,282.951,235.456,284.111,235.456"/>
	</g>
	<path fill="#424143" d="M213.785,232.83H155.24v-36.351h21.939c0.553,0,1.095-0.224,1.484-0.615
		c0.393-0.392,0.617-0.933,0.617-1.485v-36.178c0-1.16-0.941-2.101-2.102-2.101c-1.161,0-2.1,0.94-2.1,2.101v34.077h-21.939
		c-0.555,0-1.095,0.225-1.486,0.615c-0.391,0.392-0.615,0.932-0.615,1.485v14.47h-68.88c-1.159,0-2.101,0.941-2.101,2.101
		c0,0.183,0.031,0.355,0.074,0.524l-1.321,0.438l-0.263,0.848l3.61,0.291h68.88v21.882c0,0.552,0.225,1.094,0.615,1.484
		c0.392,0.392,0.932,0.615,1.486,0.615h60.645c1.16,0,2.102-0.94,2.102-2.1C215.887,233.771,214.945,232.83,213.785,232.83z"/>
	<path fill="#424143" d="M405.91,186.588c-0.041-1.124-0.96-2.025-2.094-2.025h-67.691v-11.424c0-1.16-0.941-2.101-2.101-2.101
		h-31.042v-35.71c0-1.16-0.941-2.101-2.101-2.101c-1.161,0-2.101,0.94-2.101,2.101v37.811c0,0.553,0.225,1.094,0.614,1.485
		c0.392,0.392,0.932,0.615,1.486,0.615h31.042v68.386h-26.438c-1.16,0-2.102,0.941-2.102,2.101c0,1.16,0.941,2.101,2.102,2.101
		h28.538c0.552,0,1.093-0.224,1.484-0.615c0.392-0.391,0.616-0.933,0.616-1.485v-56.962h67.691c0.036,0,0.072-0.009,0.107-0.011
		c0.698-0.036,2.446-0.21,3.202-1.101C407.723,186.949,406.732,186.687,405.91,186.588z"/>
</g>
</svg>
