<?xml version="1.0" encoding="utf-8"?>
<!-- Generator: Adobe Illustrator 16.0.0, SVG Export Plug-In . SVG Version: 6.00 Build 0)  -->
<!DOCTYPE svg PUBLIC "-//W3C//DTD SVG 1.1//EN" "http://www.w3.org/Graphics/SVG/1.1/DTD/svg11.dtd">
<svg version="1.1" id="Layer_1" xmlns="http://www.w3.org/2000/svg" xmlns:xlink="http://www.w3.org/1999/xlink" x="0px" y="0px"
	 width="400px" height="325px" viewBox="0 0 400 325" enable-background="new 0 0 400 325" xml:space="preserve">
<g>
	<path fill="#4A495D" d="M397.273,157.742c-0.002-0.013-0.008-0.026-0.012-0.038c-0.032-0.132-0.082-0.257-0.144-0.377
		c-0.018-0.035-0.038-0.069-0.056-0.103c-0.077-0.129-0.166-0.251-0.275-0.356l-37.835-36.103c-0.143-0.139-0.31-0.235-0.487-0.315
		c-0.053-0.023-0.109-0.035-0.165-0.055c-0.136-0.042-0.269-0.069-0.409-0.078c-0.037-0.003-0.068-0.021-0.106-0.021h-87.155
		c-0.936,0-1.693,0.759-1.693,1.693v10.015h-14.438c11.084-11.761,17.721-27.553,17.721-44.566c0-28.337-17.92-52.957-44.73-61.713
		c0.06-0.548,0.094-1.096,0.094-1.635c0-8.734-7.106-15.842-15.841-15.842h-8.935c-8.734,0-15.837,7.107-15.837,15.842
		c0,0.543,0.033,1.089,0.09,1.635c-26.809,8.756-44.73,33.375-44.73,61.713c0,8.667,1.732,17.013,4.885,24.676
		c-0.172-0.059-0.353-0.098-0.545-0.098H59.513c-0.036,0-0.071,0.019-0.109,0.021c-0.139,0.01-0.271,0.035-0.404,0.078
		c-0.058,0.018-0.113,0.031-0.169,0.056c-0.174,0.077-0.343,0.175-0.486,0.313l-37.832,36.103c-0.111,0.106-0.199,0.228-0.275,0.355
		c-0.021,0.034-0.04,0.068-0.059,0.104c-0.061,0.12-0.11,0.244-0.143,0.376c-0.004,0.013-0.008,0.025-0.01,0.038
		c-0.025,0.115-0.039,0.232-0.039,0.352V275.57c0,0.935,0.76,1.694,1.693,1.694h105.961v45.59c0,0.906,0.733,1.641,1.64,1.641
		h189.946c0.906,0,1.641-0.734,1.641-1.641v-37.311h74.75c0.936,0,1.693-0.759,1.693-1.694V158.093
		C397.311,157.976,397.299,157.857,397.273,157.742z"/>
	<g opacity="0.1">
		<g>
			<path fill="#FFFFFF" d="M315.189,17.424h-50.174c-0.749,0-1.359-0.608-1.359-1.361c0-0.752,0.61-1.36,1.359-1.36h50.174
				c0.752,0,1.36,0.608,1.36,1.36C316.55,16.815,315.941,17.424,315.189,17.424z"/>
		</g>
		<g>
			<path fill="#FFFFFF" d="M315.189,36.163h-21.628c-0.752,0-1.36-0.609-1.36-1.36c0-0.752,0.608-1.36,1.36-1.36h21.628
				c0.752,0,1.36,0.608,1.36,1.36C316.55,35.554,315.941,36.163,315.189,36.163z"/>
		</g>
		<g>
			<path fill="#FFFFFF" d="M283.758,36.163h-12.254c-0.752,0-1.361-0.609-1.361-1.36c0-0.752,0.609-1.36,1.361-1.36h12.254
				c0.752,0,1.363,0.608,1.363,1.36C285.121,35.554,284.51,36.163,283.758,36.163z"/>
		</g>
		<g>
			<path fill="#FFFFFF" d="M314.035,122.666h-39.791c-0.752,0-1.362-0.607-1.362-1.36c0-0.752,0.61-1.361,1.362-1.361h39.791
				c0.752,0,1.36,0.609,1.36,1.361C315.396,122.059,314.787,122.666,314.035,122.666z"/>
		</g>
		<g>
			<path fill="#FFFFFF" d="M263.574,122.666h-9.516c-0.752,0-1.361-0.607-1.361-1.36c0-0.752,0.609-1.361,1.361-1.361h9.516
				c0.752,0,1.36,0.609,1.36,1.361C264.935,122.059,264.326,122.666,263.574,122.666z"/>
		</g>
		<g>
			<path fill="#FFFFFF" d="M307.115,134.2h-77.854c-0.752,0-1.361-0.608-1.361-1.361c0-0.752,0.609-1.36,1.361-1.36h77.854
				c0.752,0,1.36,0.608,1.36,1.36C308.476,133.592,307.867,134.2,307.115,134.2z"/>
		</g>
		<g>
			<path fill="#FFFFFF" d="M314.035,94.337h-53.777c-0.752,0-1.36-0.608-1.36-1.361c0-0.751,0.608-1.36,1.36-1.36h53.777
				c0.752,0,1.36,0.609,1.36,1.36C315.396,93.729,314.787,94.337,314.035,94.337z"/>
		</g>
		<g>
			<path fill="#FFFFFF" d="M253.123,94.337h-26.168c-0.752,0-1.361-0.608-1.361-1.361c0-0.751,0.609-1.36,1.361-1.36h26.168
				c0.751,0,1.361,0.609,1.361,1.36C254.484,93.729,253.874,94.337,253.123,94.337z"/>
		</g>
		<g>
			<path fill="#FFFFFF" d="M314.035,108.61h-17.877c-0.752,0-1.361-0.609-1.361-1.36c0-0.753,0.609-1.362,1.361-1.362h17.877
				c0.752,0,1.36,0.609,1.36,1.362C315.396,108.001,314.787,108.61,314.035,108.61z"/>
		</g>
		<g>
			<path fill="#FFFFFF" d="M289.021,108.61h-8.433c-0.754,0-1.362-0.609-1.362-1.36c0-0.753,0.608-1.362,1.362-1.362h8.433
				c0.752,0,1.361,0.609,1.361,1.362C290.383,108.001,289.773,108.61,289.021,108.61z"/>
		</g>
		<g>
			<path fill="#FFFFFF" d="M273.234,108.61h-46.279c-0.752,0-1.361-0.609-1.361-1.36c0-0.753,0.609-1.362,1.361-1.362h46.279
				c0.752,0,1.363,0.609,1.363,1.362C274.598,108.001,273.986,108.61,273.234,108.61z"/>
		</g>
		<g>
			<path fill="#FFFFFF" d="M315.189,81.434h-39.36c-0.75,0-1.36-0.609-1.36-1.362V45.759c0-0.751,0.61-1.36,1.36-1.36h39.36
				c0.752,0,1.36,0.609,1.36,1.36v34.313C316.55,80.824,315.941,81.434,315.189,81.434z M277.191,78.712h36.635V47.12h-36.635
				V78.712z"/>
		</g>
		<g>
			<path fill="#FFFFFF" d="M266.964,50.292h-35.828c-0.751,0-1.362-0.607-1.362-1.36c0-0.752,0.611-1.36,1.362-1.36h35.828
				c0.751,0,1.36,0.608,1.36,1.36C268.324,49.685,267.715,50.292,266.964,50.292z"/>
		</g>
		<g>
			<path fill="#FFFFFF" d="M267.18,64.276h-14.057c-0.752,0-1.361-0.609-1.361-1.361c0-0.751,0.609-1.36,1.361-1.36h14.057
				c0.752,0,1.361,0.609,1.361,1.36C268.541,63.667,267.932,64.276,267.18,64.276z"/>
		</g>
		<g>
			<path fill="#FFFFFF" d="M247.283,64.276h-5.768c-0.751,0-1.361-0.609-1.361-1.361c0-0.751,0.61-1.36,1.361-1.36h5.768
				c0.752,0,1.361,0.609,1.361,1.36C248.645,63.667,248.035,64.276,247.283,64.276z"/>
		</g>
		<g>
			<path fill="#FFFFFF" d="M266.748,77.975h-38.926c-0.752,0-1.363-0.608-1.363-1.362c0-0.752,0.611-1.361,1.363-1.361h38.926
				c0.749,0,1.359,0.609,1.359,1.361C268.107,77.366,267.497,77.975,266.748,77.975z"/>
		</g>
	</g>
	<g opacity="0.1">
		<g>
			<path fill="#FFFFFF" d="M107.282,23.046H57.11c-0.752,0-1.361-0.609-1.361-1.361s0.609-1.361,1.361-1.361h50.172
				c0.752,0,1.361,0.609,1.361,1.361S108.034,23.046,107.282,23.046z"/>
		</g>
		<g>
			<path fill="#FFFFFF" d="M78.735,41.784H57.11c-0.752,0-1.361-0.608-1.361-1.361c0-0.752,0.609-1.36,1.361-1.36h21.625
				c0.752,0,1.363,0.608,1.363,1.36C80.098,41.176,79.487,41.784,78.735,41.784z"/>
		</g>
		<g>
			<path fill="#FFFFFF" d="M100.795,41.784H88.541c-0.752,0-1.362-0.608-1.362-1.361c0-0.752,0.61-1.36,1.362-1.36h12.255
				c0.75,0,1.36,0.608,1.36,1.36C102.156,41.176,101.545,41.784,100.795,41.784z"/>
		</g>
		<g>
			<path fill="#FFFFFF" d="M98.054,128.288h-39.79c-0.752,0-1.361-0.608-1.361-1.361s0.609-1.361,1.361-1.361h39.79
				c0.751,0,1.362,0.608,1.362,1.361S98.805,128.288,98.054,128.288z"/>
		</g>
		<g>
			<path fill="#FFFFFF" d="M118.241,128.288h-9.517c-0.751,0-1.36-0.608-1.36-1.361s0.609-1.361,1.36-1.361h9.517
				c0.751,0,1.359,0.608,1.359,1.361S118.992,128.288,118.241,128.288z"/>
		</g>
		<g>
			<path fill="#FFFFFF" d="M143.038,139.821H65.183c-0.751,0-1.36-0.609-1.36-1.36c0-0.752,0.609-1.36,1.36-1.36h77.854
				c0.751,0,1.359,0.608,1.359,1.36C144.397,139.212,143.789,139.821,143.038,139.821z"/>
		</g>
		<g>
			<path fill="#FFFFFF" d="M112.04,99.958H58.264c-0.752,0-1.361-0.608-1.361-1.36c0-0.753,0.609-1.361,1.361-1.361h53.775
				c0.752,0,1.363,0.608,1.363,1.361C113.403,99.35,112.792,99.958,112.04,99.958z"/>
		</g>
		<g>
			<path fill="#FFFFFF" d="M145.343,99.958h-26.167c-0.752,0-1.363-0.608-1.363-1.36c0-0.753,0.611-1.361,1.363-1.361h26.167
				c0.752,0,1.36,0.608,1.36,1.361C146.704,99.35,146.095,99.958,145.343,99.958z"/>
		</g>
		<g>
			<path fill="#FFFFFF" d="M76.141,114.231H58.264c-0.752,0-1.361-0.609-1.361-1.361s0.609-1.36,1.361-1.36h17.877
				c0.752,0,1.362,0.608,1.362,1.36S76.893,114.231,76.141,114.231z"/>
		</g>
		<g>
			<path fill="#FFFFFF" d="M91.711,114.231h-8.435c-0.752,0-1.36-0.609-1.36-1.361s0.608-1.36,1.36-1.36h8.435
				c0.75,0,1.361,0.608,1.361,1.36S92.461,114.231,91.711,114.231z"/>
		</g>
		<g>
			<path fill="#FFFFFF" d="M145.343,114.231h-46.28c-0.751,0-1.359-0.609-1.359-1.361s0.608-1.36,1.359-1.36h46.28
				c0.752,0,1.36,0.608,1.36,1.36S146.095,114.231,145.343,114.231z"/>
		</g>
		<g>
			<path fill="#FFFFFF" d="M96.467,87.056H57.11c-0.752,0-1.361-0.608-1.361-1.361V51.381c0-0.752,0.609-1.36,1.361-1.36h39.357
				c0.752,0,1.363,0.608,1.363,1.36v34.313C97.831,86.447,97.219,87.056,96.467,87.056z M58.471,84.334h36.636V52.741H58.471V84.334
				z"/>
		</g>
		<g>
			<path fill="#FFFFFF" d="M141.163,55.913h-35.826c-0.752,0-1.362-0.608-1.362-1.36c0-0.753,0.61-1.361,1.362-1.361h35.826
				c0.752,0,1.361,0.608,1.361,1.361C142.524,55.305,141.915,55.913,141.163,55.913z"/>
		</g>
		<g>
			<path fill="#FFFFFF" d="M119.176,69.897h-14.058c-0.751,0-1.36-0.608-1.36-1.361c0-0.752,0.609-1.36,1.36-1.36h14.058
				c0.752,0,1.36,0.608,1.36,1.36C120.537,69.289,119.928,69.897,119.176,69.897z"/>
		</g>
		<g>
			<path fill="#FFFFFF" d="M130.782,69.897h-5.768c-0.751,0-1.361-0.608-1.361-1.361c0-0.752,0.61-1.36,1.361-1.36h5.768
				c0.752,0,1.361,0.608,1.361,1.36C132.143,69.289,131.534,69.897,130.782,69.897z"/>
		</g>
		<g>
			<path fill="#FFFFFF" d="M144.479,83.595h-38.928c-0.752,0-1.361-0.608-1.361-1.361c0-0.752,0.609-1.361,1.361-1.361h38.928
				c0.75,0,1.36,0.609,1.36,1.361C145.839,82.986,145.229,83.595,144.479,83.595z"/>
		</g>
	</g>
	<g>
		<g>
			<g>
				<path fill="#F2F2F2" d="M211.166,42.676h-14.628c-0.877,0-1.586-0.71-1.586-1.585c0-0.876,0.709-1.586,1.586-1.586h14.628
					c0.877,0,1.587,0.71,1.587,1.586C212.753,41.966,212.043,42.676,211.166,42.676z"/>
			</g>
			<g>
				<path fill="#F2F2F2" d="M185.809,42.993h-33.6c-0.877,0-1.586-0.711-1.586-1.586c0-0.876,0.709-1.586,1.586-1.586h33.6
					c0.874,0,1.586,0.71,1.586,1.586C187.395,42.282,186.683,42.993,185.809,42.993z"/>
			</g>
		</g>
		<g>
			<path fill="#F2F2F2" d="M341.797,76.376h-46.371c-0.877,0-1.587-0.71-1.587-1.587c0-0.874,0.71-1.585,1.587-1.585h46.371
				c0.877,0,1.586,0.711,1.586,1.585C343.383,75.666,342.674,76.376,341.797,76.376z"/>
		</g>
		<g>
			<path fill="#F2F2F2" d="M370.221,58.347h-38.475c-0.875,0-1.588-0.711-1.588-1.585c0-0.877,0.713-1.587,1.588-1.587h38.475
				c0.877,0,1.587,0.71,1.587,1.587C371.808,57.636,371.098,58.347,370.221,58.347z"/>
		</g>
		<g>
			<path fill="#F2F2F2" d="M80.518,76.376H49.819c-0.877,0-1.586-0.71-1.586-1.587c0-0.874,0.709-1.585,1.586-1.585h30.699
				c0.877,0,1.586,0.711,1.586,1.585C82.104,75.666,81.395,76.376,80.518,76.376z"/>
		</g>
		<g>
			<path fill="#F2F2F2" d="M53.494,64.744H18.061c-0.877,0-1.587-0.71-1.587-1.586s0.71-1.585,1.587-1.585h35.433
				c0.877,0,1.587,0.709,1.587,1.585S54.371,64.744,53.494,64.744z"/>
		</g>
		<g>
			<path fill="#F2F2F2" d="M357.697,76.376h-6.714c-0.876,0-1.587-0.71-1.587-1.587c0-0.874,0.711-1.585,1.587-1.585h6.714
				c0.874,0,1.584,0.711,1.584,1.585C359.281,75.666,358.571,76.376,357.697,76.376z"/>
		</g>
	</g>
	<g>
		<g>
			<g>
				<path fill="#F2F2F2" d="M191.743,324.669h-14.627c-0.877,0-1.587-0.711-1.587-1.587s0.71-1.585,1.587-1.585h14.627
					c0.877,0,1.586,0.709,1.586,1.585S192.62,324.669,191.743,324.669z"/>
			</g>
			<g>
				<path fill="#F2F2F2" d="M236.072,324.353h-33.6c-0.876,0-1.585-0.71-1.585-1.586c0-0.875,0.709-1.586,1.585-1.586h33.6
					c0.877,0,1.586,0.711,1.586,1.586C237.658,323.643,236.949,324.353,236.072,324.353z"/>
			</g>
		</g>
		<g>
			<path fill="#F2F2F2" d="M92.854,290.97H46.483c-0.877,0-1.586-0.71-1.586-1.586c0-0.875,0.709-1.585,1.586-1.585h46.371
				c0.877,0,1.586,0.71,1.586,1.585C94.44,290.26,93.731,290.97,92.854,290.97z"/>
		</g>
		<g>
			<path fill="#F2F2F2" d="M56.534,308.999H18.059c-0.875,0-1.585-0.71-1.585-1.586c0-0.875,0.71-1.586,1.585-1.586h38.475
				c0.877,0,1.587,0.711,1.587,1.586C58.121,308.289,57.411,308.999,56.534,308.999z"/>
		</g>
		<g>
			<path fill="#F2F2F2" d="M338.461,290.97h-30.699c-0.877,0-1.586-0.71-1.586-1.586c0-0.875,0.709-1.585,1.586-1.585h30.699
				c0.877,0,1.586,0.71,1.586,1.585C340.047,290.26,339.338,290.97,338.461,290.97z"/>
		</g>
		<g>
			<path fill="#F2F2F2" d="M370.221,302.601h-35.436c-0.874,0-1.586-0.711-1.586-1.586c0-0.876,0.712-1.586,1.586-1.586h35.436
				c0.875,0,1.587,0.71,1.587,1.586C371.808,301.89,371.096,302.601,370.221,302.601z"/>
		</g>
		<g>
			<path fill="#F2F2F2" d="M37.296,290.97h-6.712c-0.876,0-1.586-0.71-1.586-1.586c0-0.875,0.71-1.585,1.586-1.585h6.712
				c0.876,0,1.587,0.71,1.587,1.585C38.883,290.26,38.172,290.97,37.296,290.97z"/>
		</g>
	</g>
	<g opacity="0.7">
		<g>
			<g>
				<g>
					<g>
						<path fill="#FFFFFF" d="M331.256,31.693h-2.193c-0.402,0-0.73-0.328-0.73-0.73c0-0.403,0.328-0.731,0.73-0.731h2.193
							c0.404,0,0.731,0.328,0.731,0.731C331.987,31.365,331.66,31.693,331.256,31.693z"/>
					</g>
					<g>
						<path fill="#FFFFFF" d="M324.744,31.693h-4.317c-0.402,0-0.729-0.328-0.729-0.73c0-0.403,0.327-0.731,0.729-0.731h4.317
							c0.404,0,0.732,0.328,0.732,0.731C325.477,31.365,325.148,31.693,324.744,31.693z M316.109,31.693h-4.318
							c-0.404,0-0.73-0.328-0.73-0.73c0-0.403,0.326-0.731,0.73-0.731h4.318c0.402,0,0.732,0.328,0.732,0.731
							C316.842,31.365,316.512,31.693,316.109,31.693z M307.475,31.693h-4.32c-0.402,0-0.729-0.328-0.729-0.73
							c0-0.403,0.327-0.731,0.729-0.731h4.32c0.402,0,0.729,0.328,0.729,0.731C308.204,31.365,307.877,31.693,307.475,31.693z
							 M298.837,31.693h-4.317c-0.402,0-0.73-0.328-0.73-0.73c0-0.403,0.328-0.731,0.73-0.731h4.317
							c0.405,0,0.731,0.328,0.731,0.731C299.568,31.365,299.242,31.693,298.837,31.693z M290.201,31.693h-4.316
							c-0.405,0-0.732-0.328-0.732-0.73c0-0.403,0.327-0.731,0.732-0.731h4.316c0.403,0,0.732,0.328,0.732,0.731
							C290.934,31.365,290.604,31.693,290.201,31.693z M281.564,31.693h-4.317c-0.403,0-0.731-0.328-0.731-0.73
							c0-0.403,0.328-0.731,0.731-0.731h4.317c0.404,0,0.732,0.328,0.732,0.731C282.297,31.365,281.969,31.693,281.564,31.693z
							 M272.93,31.693h-4.318c-0.404,0-0.731-0.328-0.731-0.73c0-0.403,0.327-0.731,0.731-0.731h4.318
							c0.404,0,0.731,0.328,0.731,0.731C273.661,31.365,273.334,31.693,272.93,31.693z M264.294,31.693h-4.319
							c-0.402,0-0.73-0.328-0.73-0.73c0-0.403,0.328-0.731,0.73-0.731h4.319c0.403,0,0.729,0.328,0.729,0.731
							C265.023,31.365,264.697,31.693,264.294,31.693z M255.657,31.693h-4.317c-0.402,0-0.73-0.328-0.73-0.73
							c0-0.403,0.328-0.731,0.73-0.731h4.317c0.404,0,0.731,0.328,0.731,0.731C256.389,31.365,256.062,31.693,255.657,31.693z
							 M247.021,31.693h-4.317c-0.404,0-0.731-0.328-0.731-0.73c0-0.403,0.327-0.731,0.731-0.731h4.317
							c0.402,0,0.732,0.328,0.732,0.731C247.754,31.365,247.424,31.693,247.021,31.693z M238.387,31.693h-4.32
							c-0.402,0-0.729-0.328-0.729-0.73c0-0.403,0.326-0.731,0.729-0.731h4.32c0.402,0,0.729,0.328,0.729,0.731
							C239.116,31.365,238.789,31.693,238.387,31.693z M229.75,31.693h-4.318c-0.404,0-0.731-0.328-0.731-0.73
							c0-0.403,0.327-0.731,0.731-0.731h4.318c0.404,0,0.731,0.328,0.731,0.731C230.481,31.365,230.154,31.693,229.75,31.693z
							 M221.114,31.693h-4.317c-0.404,0-0.732-0.328-0.732-0.73c0-0.403,0.328-0.731,0.732-0.731h4.317
							c0.402,0,0.729,0.328,0.729,0.731C221.844,31.365,221.517,31.693,221.114,31.693z M212.477,31.693h-4.316
							c-0.403,0-0.732-0.328-0.732-0.73c0-0.403,0.329-0.731,0.732-0.731h4.316c0.405,0,0.732,0.328,0.732,0.731
							C213.209,31.365,212.882,31.693,212.477,31.693z M203.842,31.693h-4.317c-0.405,0-0.731-0.328-0.731-0.73
							c0-0.403,0.326-0.731,0.731-0.731h4.317c0.402,0,0.73,0.328,0.73,0.731C204.572,31.365,204.244,31.693,203.842,31.693z
							 M195.208,31.693h-4.32c-0.402,0-0.729-0.328-0.729-0.73c0-0.403,0.327-0.731,0.729-0.731h4.32
							c0.402,0,0.729,0.328,0.729,0.731C195.937,31.365,195.61,31.693,195.208,31.693z M186.57,31.693h-4.317
							c-0.404,0-0.732-0.328-0.732-0.73c0-0.403,0.328-0.731,0.732-0.731h4.317c0.405,0,0.731,0.328,0.731,0.731
							C187.301,31.365,186.975,31.693,186.57,31.693z M177.934,31.693h-4.316c-0.405,0-0.732-0.328-0.732-0.73
							c0-0.403,0.327-0.731,0.732-0.731h4.316c0.403,0,0.73,0.328,0.73,0.731C178.665,31.365,178.337,31.693,177.934,31.693z
							 M169.297,31.693h-4.317c-0.405,0-0.731-0.328-0.731-0.73c0-0.403,0.326-0.731,0.731-0.731h4.317
							c0.404,0,0.732,0.328,0.732,0.731C170.03,31.365,169.702,31.693,169.297,31.693z M160.663,31.693h-4.318
							c-0.404,0-0.731-0.328-0.731-0.73c0-0.403,0.327-0.731,0.731-0.731h4.318c0.404,0,0.731,0.328,0.731,0.731
							C161.394,31.365,161.067,31.693,160.663,31.693z M152.026,31.693h-4.318c-0.402,0-0.73-0.328-0.73-0.73
							c0-0.403,0.328-0.731,0.73-0.731h4.318c0.404,0,0.73,0.328,0.73,0.731C152.756,31.365,152.43,31.693,152.026,31.693z
							 M143.39,31.693h-4.317c-0.402,0-0.732-0.328-0.732-0.73c0-0.403,0.33-0.731,0.732-0.731h4.317
							c0.404,0,0.731,0.328,0.731,0.731C144.122,31.365,143.794,31.693,143.39,31.693z M134.754,31.693h-4.319
							c-0.402,0-0.729-0.328-0.729-0.73c0-0.403,0.327-0.731,0.729-0.731h4.319c0.402,0,0.73,0.328,0.73,0.731
							C135.485,31.365,135.157,31.693,134.754,31.693z M126.118,31.693h-4.318c-0.402,0-0.729-0.328-0.729-0.73
							c0-0.403,0.326-0.731,0.729-0.731h4.318c0.404,0,0.732,0.328,0.732,0.731C126.85,31.365,126.522,31.693,126.118,31.693z
							 M117.483,31.693h-4.318c-0.404,0-0.731-0.328-0.731-0.73c0-0.403,0.327-0.731,0.731-0.731h4.318
							c0.402,0,0.731,0.328,0.731,0.731C118.214,31.365,117.885,31.693,117.483,31.693z M108.845,31.693h-4.315
							c-0.404,0-0.732-0.328-0.732-0.73c0-0.403,0.328-0.731,0.732-0.731h4.315c0.405,0,0.731,0.328,0.731,0.731
							C109.577,31.365,109.25,31.693,108.845,31.693z M100.209,31.693h-4.316c-0.405,0-0.732-0.328-0.732-0.73
							c0-0.403,0.327-0.731,0.732-0.731h4.316c0.405,0,0.732,0.328,0.732,0.731C100.942,31.365,100.615,31.693,100.209,31.693z
							 M91.575,31.693h-4.317c-0.405,0-0.731-0.328-0.731-0.73c0-0.403,0.326-0.731,0.731-0.731h4.317
							c0.402,0,0.73,0.328,0.73,0.731C92.305,31.365,91.977,31.693,91.575,31.693z M82.938,31.693H78.62
							c-0.402,0-0.729-0.328-0.729-0.73c0-0.403,0.327-0.731,0.729-0.731h4.318c0.404,0,0.731,0.328,0.731,0.731
							C83.669,31.365,83.342,31.693,82.938,31.693z M74.302,31.693h-4.317c-0.404,0-0.732-0.328-0.732-0.73
							c0-0.403,0.328-0.731,0.732-0.731h4.317c0.403,0,0.731,0.328,0.731,0.731C75.034,31.365,74.706,31.693,74.302,31.693z
							 M65.667,31.693h-4.318c-0.403,0-0.73-0.328-0.73-0.73c0-0.403,0.327-0.731,0.73-0.731h4.318c0.403,0,0.73,0.328,0.73,0.731
							C66.397,31.365,66.07,31.693,65.667,31.693z"/>
					</g>
					<g>
						<path fill="#FFFFFF" d="M57.03,31.693h-2.191c-0.404,0-0.731-0.328-0.731-0.73c0-0.403,0.327-0.731,0.731-0.731h2.191
							c0.404,0,0.732,0.328,0.732,0.731C57.762,31.365,57.434,31.693,57.03,31.693z"/>
					</g>
				</g>
			</g>
		</g>
		<g>
			<g>
				<g>
					<g>
						<path fill="#FFFFFF" d="M331.256,86.474h-2.193c-0.402,0-0.73-0.327-0.73-0.73c0-0.404,0.328-0.73,0.73-0.73h2.193
							c0.404,0,0.731,0.326,0.731,0.73C331.987,86.146,331.66,86.474,331.256,86.474z"/>
					</g>
					<g>
						<path fill="#FFFFFF" d="M324.744,86.474h-4.317c-0.402,0-0.729-0.327-0.729-0.73c0-0.404,0.327-0.73,0.729-0.73h4.317
							c0.404,0,0.732,0.326,0.732,0.73C325.477,86.146,325.148,86.474,324.744,86.474z M316.109,86.474h-4.318
							c-0.404,0-0.73-0.327-0.73-0.73c0-0.404,0.326-0.73,0.73-0.73h4.318c0.402,0,0.732,0.326,0.732,0.73
							C316.842,86.146,316.512,86.474,316.109,86.474z M307.475,86.474h-4.32c-0.402,0-0.729-0.327-0.729-0.73
							c0-0.404,0.327-0.73,0.729-0.73h4.32c0.402,0,0.729,0.326,0.729,0.73C308.204,86.146,307.877,86.474,307.475,86.474z
							 M298.837,86.474h-4.317c-0.402,0-0.73-0.327-0.73-0.73c0-0.404,0.328-0.73,0.73-0.73h4.317c0.405,0,0.731,0.326,0.731,0.73
							C299.568,86.146,299.242,86.474,298.837,86.474z M290.201,86.474h-4.316c-0.405,0-0.732-0.327-0.732-0.73
							c0-0.404,0.327-0.73,0.732-0.73h4.316c0.403,0,0.732,0.326,0.732,0.73C290.934,86.146,290.604,86.474,290.201,86.474z
							 M281.564,86.474h-4.317c-0.403,0-0.731-0.327-0.731-0.73c0-0.404,0.328-0.73,0.731-0.73h4.317
							c0.404,0,0.732,0.326,0.732,0.73C282.297,86.146,281.969,86.474,281.564,86.474z M272.93,86.474h-4.318
							c-0.404,0-0.731-0.327-0.731-0.73c0-0.404,0.327-0.73,0.731-0.73h4.318c0.404,0,0.731,0.326,0.731,0.73
							C273.661,86.146,273.334,86.474,272.93,86.474z M264.294,86.474h-4.319c-0.402,0-0.73-0.327-0.73-0.73
							c0-0.404,0.328-0.73,0.73-0.73h4.319c0.403,0,0.729,0.326,0.729,0.73C265.023,86.146,264.697,86.474,264.294,86.474z
							 M255.657,86.474h-4.317c-0.402,0-0.73-0.327-0.73-0.73c0-0.404,0.328-0.73,0.73-0.73h4.317c0.404,0,0.731,0.326,0.731,0.73
							C256.389,86.146,256.062,86.474,255.657,86.474z M247.021,86.474h-4.317c-0.404,0-0.731-0.327-0.731-0.73
							c0-0.404,0.327-0.73,0.731-0.73h4.317c0.402,0,0.732,0.326,0.732,0.73C247.754,86.146,247.424,86.474,247.021,86.474z
							 M238.387,86.474h-4.32c-0.402,0-0.729-0.327-0.729-0.73c0-0.404,0.326-0.73,0.729-0.73h4.32c0.402,0,0.729,0.326,0.729,0.73
							C239.116,86.146,238.789,86.474,238.387,86.474z M229.75,86.474h-4.318c-0.404,0-0.731-0.327-0.731-0.73
							c0-0.404,0.327-0.73,0.731-0.73h4.318c0.404,0,0.731,0.326,0.731,0.73C230.481,86.146,230.154,86.474,229.75,86.474z
							 M221.114,86.474h-4.317c-0.404,0-0.732-0.327-0.732-0.73c0-0.404,0.328-0.73,0.732-0.73h4.317
							c0.402,0,0.729,0.326,0.729,0.73C221.844,86.146,221.517,86.474,221.114,86.474z M212.477,86.474h-4.316
							c-0.403,0-0.732-0.327-0.732-0.73c0-0.404,0.329-0.73,0.732-0.73h4.316c0.405,0,0.732,0.326,0.732,0.73
							C213.209,86.146,212.882,86.474,212.477,86.474z M203.842,86.474h-4.317c-0.405,0-0.731-0.327-0.731-0.73
							c0-0.404,0.326-0.73,0.731-0.73h4.317c0.402,0,0.73,0.326,0.73,0.73C204.572,86.146,204.244,86.474,203.842,86.474z
							 M195.208,86.474h-4.32c-0.402,0-0.729-0.327-0.729-0.73c0-0.404,0.327-0.73,0.729-0.73h4.32c0.402,0,0.729,0.326,0.729,0.73
							C195.937,86.146,195.61,86.474,195.208,86.474z M186.57,86.474h-4.317c-0.404,0-0.732-0.327-0.732-0.73
							c0-0.404,0.328-0.73,0.732-0.73h4.317c0.405,0,0.731,0.326,0.731,0.73C187.301,86.146,186.975,86.474,186.57,86.474z
							 M177.934,86.474h-4.316c-0.405,0-0.732-0.327-0.732-0.73c0-0.404,0.327-0.73,0.732-0.73h4.316c0.403,0,0.73,0.326,0.73,0.73
							C178.665,86.146,178.337,86.474,177.934,86.474z M169.297,86.474h-4.317c-0.405,0-0.731-0.327-0.731-0.73
							c0-0.404,0.326-0.73,0.731-0.73h4.317c0.404,0,0.732,0.326,0.732,0.73C170.03,86.146,169.702,86.474,169.297,86.474z
							 M160.663,86.474h-4.318c-0.404,0-0.731-0.327-0.731-0.73c0-0.404,0.327-0.73,0.731-0.73h4.318
							c0.404,0,0.731,0.326,0.731,0.73C161.394,86.146,161.067,86.474,160.663,86.474z M152.026,86.474h-4.318
							c-0.402,0-0.73-0.327-0.73-0.73c0-0.404,0.328-0.73,0.73-0.73h4.318c0.404,0,0.73,0.326,0.73,0.73
							C152.756,86.146,152.43,86.474,152.026,86.474z M143.39,86.474h-4.317c-0.402,0-0.732-0.327-0.732-0.73
							c0-0.404,0.33-0.73,0.732-0.73h4.317c0.404,0,0.731,0.326,0.731,0.73C144.122,86.146,143.794,86.474,143.39,86.474z
							 M134.754,86.474h-4.319c-0.402,0-0.729-0.327-0.729-0.73c0-0.404,0.327-0.73,0.729-0.73h4.319c0.402,0,0.73,0.326,0.73,0.73
							C135.485,86.146,135.157,86.474,134.754,86.474z M126.118,86.474h-4.318c-0.402,0-0.729-0.327-0.729-0.73
							c0-0.404,0.326-0.73,0.729-0.73h4.318c0.404,0,0.732,0.326,0.732,0.73C126.85,86.146,126.522,86.474,126.118,86.474z
							 M117.483,86.474h-4.318c-0.404,0-0.731-0.327-0.731-0.73c0-0.404,0.327-0.73,0.731-0.73h4.318
							c0.402,0,0.731,0.326,0.731,0.73C118.214,86.146,117.885,86.474,117.483,86.474z M108.845,86.474h-4.315
							c-0.404,0-0.732-0.327-0.732-0.73c0-0.404,0.328-0.73,0.732-0.73h4.315c0.405,0,0.731,0.326,0.731,0.73
							C109.577,86.146,109.25,86.474,108.845,86.474z M100.209,86.474h-4.316c-0.405,0-0.732-0.327-0.732-0.73
							c0-0.404,0.327-0.73,0.732-0.73h4.316c0.405,0,0.732,0.326,0.732,0.73C100.942,86.146,100.615,86.474,100.209,86.474z
							 M91.575,86.474h-4.317c-0.405,0-0.731-0.327-0.731-0.73c0-0.404,0.326-0.73,0.731-0.73h4.317c0.402,0,0.73,0.326,0.73,0.73
							C92.305,86.146,91.977,86.474,91.575,86.474z M82.938,86.474H78.62c-0.402,0-0.729-0.327-0.729-0.73
							c0-0.404,0.327-0.73,0.729-0.73h4.318c0.404,0,0.731,0.326,0.731,0.73C83.669,86.146,83.342,86.474,82.938,86.474z
							 M74.302,86.474h-4.317c-0.404,0-0.732-0.327-0.732-0.73c0-0.404,0.328-0.73,0.732-0.73h4.317c0.403,0,0.731,0.326,0.731,0.73
							C75.034,86.146,74.706,86.474,74.302,86.474z M65.667,86.474h-4.318c-0.403,0-0.73-0.327-0.73-0.73
							c0-0.404,0.327-0.73,0.73-0.73h4.318c0.403,0,0.73,0.326,0.73,0.73C66.397,86.146,66.07,86.474,65.667,86.474z"/>
					</g>
					<g>
						<path fill="#FFFFFF" d="M57.03,86.474h-2.191c-0.404,0-0.731-0.327-0.731-0.73c0-0.404,0.327-0.73,0.731-0.73h2.191
							c0.404,0,0.732,0.326,0.732,0.73C57.762,86.146,57.434,86.474,57.03,86.474z"/>
					</g>
				</g>
			</g>
		</g>
		<g>
			<g>
				<g>
					<g>
						<path fill="#FFFFFF" d="M331.256,140.908h-2.193c-0.402,0-0.73-0.326-0.73-0.731c0-0.403,0.328-0.73,0.73-0.73h2.193
							c0.404,0,0.731,0.327,0.731,0.73C331.987,140.582,331.66,140.908,331.256,140.908z"/>
					</g>
					<g>
						<path fill="#FFFFFF" d="M324.744,140.908h-4.317c-0.402,0-0.729-0.326-0.729-0.731c0-0.403,0.327-0.73,0.729-0.73h4.317
							c0.404,0,0.732,0.327,0.732,0.73C325.477,140.582,325.148,140.908,324.744,140.908z M316.109,140.908h-4.318
							c-0.404,0-0.73-0.326-0.73-0.731c0-0.403,0.326-0.73,0.73-0.73h4.318c0.402,0,0.732,0.327,0.732,0.73
							C316.842,140.582,316.512,140.908,316.109,140.908z M307.475,140.908h-4.32c-0.402,0-0.729-0.326-0.729-0.731
							c0-0.403,0.327-0.73,0.729-0.73h4.32c0.402,0,0.729,0.327,0.729,0.73C308.204,140.582,307.877,140.908,307.475,140.908z
							 M298.837,140.908h-4.317c-0.402,0-0.73-0.326-0.73-0.731c0-0.403,0.328-0.73,0.73-0.73h4.317c0.405,0,0.731,0.327,0.731,0.73
							C299.568,140.582,299.242,140.908,298.837,140.908z M290.201,140.908h-4.316c-0.405,0-0.732-0.326-0.732-0.731
							c0-0.403,0.327-0.73,0.732-0.73h4.316c0.403,0,0.732,0.327,0.732,0.73C290.934,140.582,290.604,140.908,290.201,140.908z
							 M281.564,140.908h-4.317c-0.403,0-0.731-0.326-0.731-0.731c0-0.403,0.328-0.73,0.731-0.73h4.317
							c0.404,0,0.732,0.327,0.732,0.73C282.297,140.582,281.969,140.908,281.564,140.908z M272.93,140.908h-4.318
							c-0.404,0-0.731-0.326-0.731-0.731c0-0.403,0.327-0.73,0.731-0.73h4.318c0.404,0,0.731,0.327,0.731,0.73
							C273.661,140.582,273.334,140.908,272.93,140.908z M264.294,140.908h-4.319c-0.402,0-0.73-0.326-0.73-0.731
							c0-0.403,0.328-0.73,0.73-0.73h4.319c0.403,0,0.729,0.327,0.729,0.73C265.023,140.582,264.697,140.908,264.294,140.908z
							 M255.657,140.908h-4.317c-0.402,0-0.73-0.326-0.73-0.731c0-0.403,0.328-0.73,0.73-0.73h4.317c0.404,0,0.731,0.327,0.731,0.73
							C256.389,140.582,256.062,140.908,255.657,140.908z M247.021,140.908h-4.317c-0.404,0-0.731-0.326-0.731-0.731
							c0-0.403,0.327-0.73,0.731-0.73h4.317c0.402,0,0.732,0.327,0.732,0.73C247.754,140.582,247.424,140.908,247.021,140.908z
							 M238.387,140.908h-4.32c-0.402,0-0.729-0.326-0.729-0.731c0-0.403,0.326-0.73,0.729-0.73h4.32
							c0.402,0,0.729,0.327,0.729,0.73C239.116,140.582,238.789,140.908,238.387,140.908z M229.75,140.908h-4.318
							c-0.404,0-0.731-0.326-0.731-0.731c0-0.403,0.327-0.73,0.731-0.73h4.318c0.404,0,0.731,0.327,0.731,0.73
							C230.481,140.582,230.154,140.908,229.75,140.908z M221.114,140.908h-4.317c-0.404,0-0.732-0.326-0.732-0.731
							c0-0.403,0.328-0.73,0.732-0.73h4.317c0.402,0,0.729,0.327,0.729,0.73C221.844,140.582,221.517,140.908,221.114,140.908z
							 M212.477,140.908h-4.316c-0.403,0-0.732-0.326-0.732-0.731c0-0.403,0.329-0.73,0.732-0.73h4.316
							c0.405,0,0.732,0.327,0.732,0.73C213.209,140.582,212.882,140.908,212.477,140.908z M203.842,140.908h-4.317
							c-0.405,0-0.731-0.326-0.731-0.731c0-0.403,0.326-0.73,0.731-0.73h4.317c0.402,0,0.73,0.327,0.73,0.73
							C204.572,140.582,204.244,140.908,203.842,140.908z M195.208,140.908h-4.32c-0.402,0-0.729-0.326-0.729-0.731
							c0-0.403,0.327-0.73,0.729-0.73h4.32c0.402,0,0.729,0.327,0.729,0.73C195.937,140.582,195.61,140.908,195.208,140.908z
							 M186.57,140.908h-4.317c-0.404,0-0.732-0.326-0.732-0.731c0-0.403,0.328-0.73,0.732-0.73h4.317
							c0.405,0,0.731,0.327,0.731,0.73C187.301,140.582,186.975,140.908,186.57,140.908z M177.934,140.908h-4.316
							c-0.405,0-0.732-0.326-0.732-0.731c0-0.403,0.327-0.73,0.732-0.73h4.316c0.403,0,0.73,0.327,0.73,0.73
							C178.665,140.582,178.337,140.908,177.934,140.908z M169.297,140.908h-4.317c-0.405,0-0.731-0.326-0.731-0.731
							c0-0.403,0.326-0.73,0.731-0.73h4.317c0.404,0,0.732,0.327,0.732,0.73C170.03,140.582,169.702,140.908,169.297,140.908z
							 M160.663,140.908h-4.318c-0.404,0-0.731-0.326-0.731-0.731c0-0.403,0.327-0.73,0.731-0.73h4.318
							c0.404,0,0.731,0.327,0.731,0.73C161.394,140.582,161.067,140.908,160.663,140.908z M152.026,140.908h-4.318
							c-0.402,0-0.73-0.326-0.73-0.731c0-0.403,0.328-0.73,0.73-0.73h4.318c0.404,0,0.73,0.327,0.73,0.73
							C152.756,140.582,152.43,140.908,152.026,140.908z M143.39,140.908h-4.317c-0.402,0-0.732-0.326-0.732-0.731
							c0-0.403,0.33-0.73,0.732-0.73h4.317c0.404,0,0.731,0.327,0.731,0.73C144.122,140.582,143.794,140.908,143.39,140.908z
							 M134.754,140.908h-4.319c-0.402,0-0.729-0.326-0.729-0.731c0-0.403,0.327-0.73,0.729-0.73h4.319
							c0.402,0,0.73,0.327,0.73,0.73C135.485,140.582,135.157,140.908,134.754,140.908z M126.118,140.908h-4.318
							c-0.402,0-0.729-0.326-0.729-0.731c0-0.403,0.326-0.73,0.729-0.73h4.318c0.404,0,0.732,0.327,0.732,0.73
							C126.85,140.582,126.522,140.908,126.118,140.908z M117.483,140.908h-4.318c-0.404,0-0.731-0.326-0.731-0.731
							c0-0.403,0.327-0.73,0.731-0.73h4.318c0.402,0,0.731,0.327,0.731,0.73C118.214,140.582,117.885,140.908,117.483,140.908z
							 M108.845,140.908h-4.315c-0.404,0-0.732-0.326-0.732-0.731c0-0.403,0.328-0.73,0.732-0.73h4.315
							c0.405,0,0.731,0.327,0.731,0.73C109.577,140.582,109.25,140.908,108.845,140.908z M100.209,140.908h-4.316
							c-0.405,0-0.732-0.326-0.732-0.731c0-0.403,0.327-0.73,0.732-0.73h4.316c0.405,0,0.732,0.327,0.732,0.73
							C100.942,140.582,100.615,140.908,100.209,140.908z M91.575,140.908h-4.317c-0.405,0-0.731-0.326-0.731-0.731
							c0-0.403,0.326-0.73,0.731-0.73h4.317c0.402,0,0.73,0.327,0.73,0.73C92.305,140.582,91.977,140.908,91.575,140.908z
							 M82.938,140.908H78.62c-0.402,0-0.729-0.326-0.729-0.731c0-0.403,0.327-0.73,0.729-0.73h4.318
							c0.404,0,0.731,0.327,0.731,0.73C83.669,140.582,83.342,140.908,82.938,140.908z M74.302,140.908h-4.317
							c-0.404,0-0.732-0.326-0.732-0.731c0-0.403,0.328-0.73,0.732-0.73h4.317c0.403,0,0.731,0.327,0.731,0.73
							C75.034,140.582,74.706,140.908,74.302,140.908z M65.667,140.908h-4.318c-0.403,0-0.73-0.326-0.73-0.731
							c0-0.403,0.327-0.73,0.73-0.73h4.318c0.403,0,0.73,0.327,0.73,0.73C66.397,140.582,66.07,140.908,65.667,140.908z"/>
					</g>
					<g>
						<path fill="#FFFFFF" d="M57.03,140.908h-2.191c-0.404,0-0.731-0.326-0.731-0.731c0-0.403,0.327-0.73,0.731-0.73h2.191
							c0.404,0,0.732,0.327,0.732,0.73C57.762,140.582,57.434,140.908,57.03,140.908z"/>
					</g>
				</g>
			</g>
		</g>
		<g>
			<g>
				<g>
					<g>
						<path fill="#FFFFFF" d="M331.256,199.771h-2.193c-0.402,0-0.73-0.328-0.73-0.73c0-0.404,0.328-0.73,0.73-0.73h2.193
							c0.404,0,0.731,0.326,0.731,0.73C331.987,199.442,331.66,199.771,331.256,199.771z"/>
					</g>
					<g>
						<path fill="#FFFFFF" d="M324.744,199.771h-4.317c-0.402,0-0.729-0.328-0.729-0.73c0-0.404,0.327-0.73,0.729-0.73h4.317
							c0.404,0,0.732,0.326,0.732,0.73C325.477,199.442,325.148,199.771,324.744,199.771z M316.109,199.771h-4.318
							c-0.404,0-0.73-0.328-0.73-0.73c0-0.404,0.326-0.73,0.73-0.73h4.318c0.402,0,0.732,0.326,0.732,0.73
							C316.842,199.442,316.512,199.771,316.109,199.771z M307.475,199.771h-4.32c-0.402,0-0.729-0.328-0.729-0.73
							c0-0.404,0.327-0.73,0.729-0.73h4.32c0.402,0,0.729,0.326,0.729,0.73C308.204,199.442,307.877,199.771,307.475,199.771z
							 M298.837,199.771h-4.317c-0.402,0-0.73-0.328-0.73-0.73c0-0.404,0.328-0.73,0.73-0.73h4.317c0.405,0,0.731,0.326,0.731,0.73
							C299.568,199.442,299.242,199.771,298.837,199.771z M290.201,199.771h-4.316c-0.405,0-0.732-0.328-0.732-0.73
							c0-0.404,0.327-0.73,0.732-0.73h4.316c0.403,0,0.732,0.326,0.732,0.73C290.934,199.442,290.604,199.771,290.201,199.771z
							 M281.564,199.771h-4.317c-0.403,0-0.731-0.328-0.731-0.73c0-0.404,0.328-0.73,0.731-0.73h4.317
							c0.404,0,0.732,0.326,0.732,0.73C282.297,199.442,281.969,199.771,281.564,199.771z M272.93,199.771h-4.318
							c-0.404,0-0.731-0.328-0.731-0.73c0-0.404,0.327-0.73,0.731-0.73h4.318c0.404,0,0.731,0.326,0.731,0.73
							C273.661,199.442,273.334,199.771,272.93,199.771z M264.294,199.771h-4.319c-0.402,0-0.73-0.328-0.73-0.73
							c0-0.404,0.328-0.73,0.73-0.73h4.319c0.403,0,0.729,0.326,0.729,0.73C265.023,199.442,264.697,199.771,264.294,199.771z
							 M255.657,199.771h-4.317c-0.402,0-0.73-0.328-0.73-0.73c0-0.404,0.328-0.73,0.73-0.73h4.317c0.404,0,0.731,0.326,0.731,0.73
							C256.389,199.442,256.062,199.771,255.657,199.771z M247.021,199.771h-4.317c-0.404,0-0.731-0.328-0.731-0.73
							c0-0.404,0.327-0.73,0.731-0.73h4.317c0.402,0,0.732,0.326,0.732,0.73C247.754,199.442,247.424,199.771,247.021,199.771z
							 M238.387,199.771h-4.32c-0.402,0-0.729-0.328-0.729-0.73c0-0.404,0.326-0.73,0.729-0.73h4.32c0.402,0,0.729,0.326,0.729,0.73
							C239.116,199.442,238.789,199.771,238.387,199.771z M229.75,199.771h-4.318c-0.404,0-0.731-0.328-0.731-0.73
							c0-0.404,0.327-0.73,0.731-0.73h4.318c0.404,0,0.731,0.326,0.731,0.73C230.481,199.442,230.154,199.771,229.75,199.771z
							 M221.114,199.771h-4.317c-0.404,0-0.732-0.328-0.732-0.73c0-0.404,0.328-0.73,0.732-0.73h4.317
							c0.402,0,0.729,0.326,0.729,0.73C221.844,199.442,221.517,199.771,221.114,199.771z M212.477,199.771h-4.316
							c-0.403,0-0.732-0.328-0.732-0.73c0-0.404,0.329-0.73,0.732-0.73h4.316c0.405,0,0.732,0.326,0.732,0.73
							C213.209,199.442,212.882,199.771,212.477,199.771z M203.842,199.771h-4.317c-0.405,0-0.731-0.328-0.731-0.73
							c0-0.404,0.326-0.73,0.731-0.73h4.317c0.402,0,0.73,0.326,0.73,0.73C204.572,199.442,204.244,199.771,203.842,199.771z
							 M195.208,199.771h-4.32c-0.402,0-0.729-0.328-0.729-0.73c0-0.404,0.327-0.73,0.729-0.73h4.32c0.402,0,0.729,0.326,0.729,0.73
							C195.937,199.442,195.61,199.771,195.208,199.771z M186.57,199.771h-4.317c-0.404,0-0.732-0.328-0.732-0.73
							c0-0.404,0.328-0.73,0.732-0.73h4.317c0.405,0,0.731,0.326,0.731,0.73C187.301,199.442,186.975,199.771,186.57,199.771z
							 M177.934,199.771h-4.316c-0.405,0-0.732-0.328-0.732-0.73c0-0.404,0.327-0.73,0.732-0.73h4.316c0.403,0,0.73,0.326,0.73,0.73
							C178.665,199.442,178.337,199.771,177.934,199.771z M169.297,199.771h-4.317c-0.405,0-0.731-0.328-0.731-0.73
							c0-0.404,0.326-0.73,0.731-0.73h4.317c0.404,0,0.732,0.326,0.732,0.73C170.03,199.442,169.702,199.771,169.297,199.771z
							 M160.663,199.771h-4.318c-0.404,0-0.731-0.328-0.731-0.73c0-0.404,0.327-0.73,0.731-0.73h4.318
							c0.404,0,0.731,0.326,0.731,0.73C161.394,199.442,161.067,199.771,160.663,199.771z M152.026,199.771h-4.318
							c-0.402,0-0.73-0.328-0.73-0.73c0-0.404,0.328-0.73,0.73-0.73h4.318c0.404,0,0.73,0.326,0.73,0.73
							C152.756,199.442,152.43,199.771,152.026,199.771z M143.39,199.771h-4.317c-0.402,0-0.732-0.328-0.732-0.73
							c0-0.404,0.33-0.73,0.732-0.73h4.317c0.404,0,0.731,0.326,0.731,0.73C144.122,199.442,143.794,199.771,143.39,199.771z
							 M134.754,199.771h-4.319c-0.402,0-0.729-0.328-0.729-0.73c0-0.404,0.327-0.73,0.729-0.73h4.319c0.402,0,0.73,0.326,0.73,0.73
							C135.485,199.442,135.157,199.771,134.754,199.771z M126.118,199.771h-4.318c-0.402,0-0.729-0.328-0.729-0.73
							c0-0.404,0.326-0.73,0.729-0.73h4.318c0.404,0,0.732,0.326,0.732,0.73C126.85,199.442,126.522,199.771,126.118,199.771z
							 M117.483,199.771h-4.318c-0.404,0-0.731-0.328-0.731-0.73c0-0.404,0.327-0.73,0.731-0.73h4.318
							c0.402,0,0.731,0.326,0.731,0.73C118.214,199.442,117.885,199.771,117.483,199.771z M108.845,199.771h-4.315
							c-0.404,0-0.732-0.328-0.732-0.73c0-0.404,0.328-0.73,0.732-0.73h4.315c0.405,0,0.731,0.326,0.731,0.73
							C109.577,199.442,109.25,199.771,108.845,199.771z M100.209,199.771h-4.316c-0.405,0-0.732-0.328-0.732-0.73
							c0-0.404,0.327-0.73,0.732-0.73h4.316c0.405,0,0.732,0.326,0.732,0.73C100.942,199.442,100.615,199.771,100.209,199.771z
							 M91.575,199.771h-4.317c-0.405,0-0.731-0.328-0.731-0.73c0-0.404,0.326-0.73,0.731-0.73h4.317c0.402,0,0.73,0.326,0.73,0.73
							C92.305,199.442,91.977,199.771,91.575,199.771z M82.938,199.771H78.62c-0.402,0-0.729-0.328-0.729-0.73
							c0-0.404,0.327-0.73,0.729-0.73h4.318c0.404,0,0.731,0.326,0.731,0.73C83.669,199.442,83.342,199.771,82.938,199.771z
							 M74.302,199.771h-4.317c-0.404,0-0.732-0.328-0.732-0.73c0-0.404,0.328-0.73,0.732-0.73h4.317
							c0.403,0,0.731,0.326,0.731,0.73C75.034,199.442,74.706,199.771,74.302,199.771z M65.667,199.771h-4.318
							c-0.403,0-0.73-0.328-0.73-0.73c0-0.404,0.327-0.73,0.73-0.73h4.318c0.403,0,0.73,0.326,0.73,0.73
							C66.397,199.442,66.07,199.771,65.667,199.771z"/>
					</g>
					<g>
						<path fill="#FFFFFF" d="M57.03,199.771h-2.191c-0.404,0-0.731-0.328-0.731-0.73c0-0.404,0.327-0.73,0.731-0.73h2.191
							c0.404,0,0.732,0.326,0.732,0.73C57.762,199.442,57.434,199.771,57.03,199.771z"/>
					</g>
				</g>
			</g>
		</g>
	</g>
	<g>
		<g>
			<g>
				<polygon fill="#FFFFFF" points="340.488,114.073 253.332,114.073 253.332,275.934 378.32,275.934 378.32,150.177 				"/>
				<path fill="#424143" d="M378.32,277.628H253.332c-0.936,0-1.693-0.76-1.693-1.694v-161.86c0-0.936,0.758-1.693,1.693-1.693
					h87.156c0.436,0,0.854,0.167,1.168,0.469l37.832,36.103c0.336,0.32,0.526,0.763,0.526,1.226v125.757
					C380.015,276.868,379.257,277.628,378.32,277.628z M255.026,274.239h121.601V150.901l-36.817-35.134h-84.783V274.239z"/>
			</g>
			<g>
				<polygon fill="#D2D3D4" points="340.488,150.177 378.32,150.177 340.488,114.073 				"/>
				<path fill="#424143" d="M378.32,151.872h-37.832c-0.937,0-1.694-0.76-1.694-1.695v-36.104c0-0.678,0.405-1.29,1.027-1.557
					c0.625-0.266,1.347-0.137,1.835,0.332l37.832,36.103c0.502,0.478,0.663,1.212,0.405,1.855
					C379.636,151.449,379.014,151.872,378.32,151.872z M342.182,148.483h31.91l-31.91-30.451V148.483z"/>
			</g>
		</g>
		<g>
			<path fill="#9AA1A8" d="M322.275,127.508H264.74c-0.936,0-1.693-0.759-1.693-1.693c0-0.936,0.758-1.694,1.693-1.694h57.535
				c0.936,0,1.693,0.759,1.693,1.694C323.969,126.749,323.211,127.508,322.275,127.508z"/>
		</g>
		<g>
			<path fill="#9AA1A8" d="M289.539,148.999H264.74c-0.936,0-1.693-0.759-1.693-1.694c0-0.935,0.758-1.694,1.693-1.694h24.799
				c0.937,0,1.693,0.76,1.693,1.694C291.232,148.24,290.476,148.999,289.539,148.999z"/>
		</g>
		<g>
			<path fill="#9AA1A8" d="M314.836,148.999h-14.053c-0.937,0-1.694-0.759-1.694-1.694c0-0.935,0.758-1.694,1.694-1.694h14.053
				c0.936,0,1.693,0.76,1.693,1.694C316.529,148.24,315.771,148.999,314.836,148.999z"/>
		</g>
		<g>
			<path fill="#9AA1A8" d="M311.694,248.197h-45.631c-0.937,0-1.694-0.759-1.694-1.694s0.758-1.693,1.694-1.693h45.631
				c0.937,0,1.696,0.758,1.696,1.693S312.631,248.197,311.694,248.197z"/>
		</g>
		<g>
			<path fill="#9AA1A8" d="M334.842,248.197H323.93c-0.937,0-1.693-0.759-1.693-1.694s0.757-1.693,1.693-1.693h10.912
				c0.936,0,1.693,0.758,1.693,1.693S335.777,248.197,334.842,248.197z"/>
		</g>
		<g>
			<path fill="#9AA1A8" d="M363.277,261.423H274c-0.936,0-1.695-0.759-1.695-1.693c0-0.936,0.76-1.694,1.695-1.694h89.277
				c0.937,0,1.693,0.759,1.693,1.694C364.971,260.664,364.214,261.423,363.277,261.423z"/>
		</g>
		<g>
			<path fill="#9AA1A8" d="M327.729,215.708h-7.935c-0.937,0-1.694-0.758-1.694-1.693s0.758-1.693,1.694-1.693h7.935
				c0.937,0,1.696,0.758,1.696,1.693S328.666,215.708,327.729,215.708z"/>
		</g>
		<g>
			<path fill="#9AA1A8" d="M365.924,215.708h-30.008c-0.936,0-1.695-0.758-1.695-1.693s0.76-1.693,1.695-1.693h30.008
				c0.936,0,1.693,0.758,1.693,1.693S366.859,215.708,365.924,215.708z"/>
		</g>
		<g>
			<path fill="#9AA1A8" d="M286.564,232.077h-20.501c-0.937,0-1.694-0.76-1.694-1.693c0-0.937,0.758-1.695,1.694-1.695h20.501
				c0.936,0,1.693,0.759,1.693,1.695C288.258,231.317,287.5,232.077,286.564,232.077z"/>
		</g>
		<g>
			<path fill="#9AA1A8" d="M304.418,232.077h-9.67c-0.937,0-1.696-0.76-1.696-1.693c0-0.937,0.76-1.695,1.696-1.695h9.67
				c0.936,0,1.695,0.759,1.695,1.695C306.113,231.317,305.354,232.077,304.418,232.077z"/>
		</g>
		<g>
			<path fill="#9AA1A8" d="M365.924,232.077h-53.073c-0.937,0-1.693-0.76-1.693-1.693c0-0.937,0.757-1.695,1.693-1.695h53.073
				c0.936,0,1.693,0.759,1.693,1.695C367.617,231.317,366.859,232.077,365.924,232.077z"/>
		</g>
		<g>
			<rect x="264.74" y="159.869" fill="#9AA1A8" width="45.136" height="57.263"/>
			<path fill="#424143" d="M309.876,218.825H264.74c-0.936,0-1.693-0.759-1.693-1.693v-57.263c0-0.935,0.758-1.694,1.693-1.694
				h45.136c0.937,0,1.694,0.76,1.694,1.694v57.263C311.57,218.066,310.813,218.825,309.876,218.825z M266.434,215.438h41.748
				v-53.874h-41.748V215.438z"/>
		</g>
		<g>
			<path fill="#9AA1A8" d="M361.128,165.201h-41.086c-0.935,0-1.693-0.758-1.693-1.694c0-0.935,0.759-1.693,1.693-1.693h41.086
				c0.937,0,1.693,0.759,1.693,1.693C362.821,164.443,362.064,165.201,361.128,165.201z"/>
		</g>
		<g>
			<path fill="#9AA1A8" d="M335.916,181.238h-16.121c-0.937,0-1.694-0.759-1.694-1.695c0-0.935,0.758-1.693,1.694-1.693h16.121
				c0.935,0,1.691,0.759,1.691,1.693C337.607,180.479,336.851,181.238,335.916,181.238z"/>
		</g>
		<g>
			<path fill="#9AA1A8" d="M349.225,181.238h-6.615c-0.936,0-1.693-0.759-1.693-1.695c0-0.935,0.758-1.693,1.693-1.693h6.615
				c0.936,0,1.693,0.759,1.693,1.693C350.918,180.479,350.16,181.238,349.225,181.238z"/>
		</g>
		<g>
			<path fill="#9AA1A8" d="M364.93,196.945h-44.64c-0.935,0-1.694-0.759-1.694-1.693c0-0.937,0.76-1.694,1.694-1.694h44.64
				c0.936,0,1.693,0.758,1.693,1.694C366.623,196.187,365.865,196.945,364.93,196.945z"/>
		</g>
	</g>
	<g>
		<g>
			<g>
				<path fill="#F0F0F1" d="M74.702,138.897V264.2c37.491,0,140.542,0,189.945,0V138.897
					C211.559,138.897,106.881,138.897,74.702,138.897z"/>
				<path fill="#424143" d="M264.646,265.841H74.702c-0.906,0-1.641-0.734-1.641-1.641V138.897c0-0.907,0.734-1.642,1.641-1.642
					h189.945c0.907,0,1.641,0.734,1.641,1.642V264.2C266.287,265.106,265.554,265.841,264.646,265.841z M76.341,262.559h186.664
					V140.538H76.341V262.559z"/>
			</g>
			<g>
				<path fill="#9FA5AC" d="M264.646,128.276c0-1.406-1.142-2.549-2.55-2.549H77.25c-1.408,0-2.548,1.143-2.548,2.549v10.621
					c32.18,0,136.857,0,189.945,0V128.276z"/>
				<path fill="#424143" d="M264.646,140.538H74.702c-0.906,0-1.641-0.734-1.641-1.641v-10.621c0-2.31,1.878-4.189,4.188-4.189
					h184.847c2.311,0,4.19,1.88,4.19,4.189v10.621C266.287,139.804,265.554,140.538,264.646,140.538z M76.341,137.256h186.664
					v-8.979c0-0.5-0.406-0.907-0.908-0.907H77.25c-0.501,0-0.908,0.407-0.908,0.907V137.256z"/>
			</g>
		</g>
		<g>
			<path fill="#9AA1A8" d="M161.63,243.009H85.593c-0.906,0-1.64-0.733-1.64-1.641c0-0.906,0.733-1.641,1.64-1.641h76.037
				c0.906,0,1.64,0.734,1.64,1.641C163.27,242.275,162.537,243.009,161.63,243.009z"/>
		</g>
		<g>
			<path fill="#9AA1A8" d="M200.202,243.009h-18.184c-0.906,0-1.641-0.733-1.641-1.641c0-0.906,0.734-1.641,1.641-1.641h18.184
				c0.906,0,1.641,0.734,1.641,1.641C201.843,242.275,201.107,243.009,200.202,243.009z"/>
		</g>
		<g>
			<path fill="#9AA1A8" d="M247.585,251.504H98.818c-0.906,0-1.64-0.734-1.64-1.641s0.733-1.642,1.64-1.642h148.767
				c0.906,0,1.64,0.735,1.64,1.642S248.491,251.504,247.585,251.504z"/>
		</g>
		<g>
			<path fill="#9AA1A8" d="M188.353,220.869H85.593c-0.906,0-1.64-0.735-1.64-1.642s0.733-1.641,1.64-1.641h102.76
				c0.906,0,1.64,0.734,1.64,1.641S189.259,220.869,188.353,220.869z"/>
		</g>
		<g>
			<path fill="#9AA1A8" d="M251.99,220.869h-50.001c-0.906,0-1.639-0.735-1.639-1.642s0.733-1.641,1.639-1.641h50.001
				c0.906,0,1.642,0.734,1.642,1.641S252.896,220.869,251.99,220.869z"/>
		</g>
		<g>
			<path fill="#9AA1A8" d="M119.755,232.656H85.593c-0.906,0-1.64-0.735-1.64-1.641c0-0.907,0.733-1.642,1.64-1.642h34.162
				c0.906,0,1.638,0.734,1.638,1.642C121.393,231.921,120.662,232.656,119.755,232.656z"/>
		</g>
		<g>
			<path fill="#9AA1A8" d="M149.508,232.656h-16.116c-0.906,0-1.642-0.735-1.642-1.641c0-0.907,0.735-1.642,1.642-1.642h16.116
				c0.906,0,1.641,0.734,1.641,1.642C151.149,231.921,150.415,232.656,149.508,232.656z"/>
		</g>
		<g>
			<path fill="#9AA1A8" d="M251.99,232.656h-88.432c-0.907,0-1.642-0.735-1.642-1.641c0-0.907,0.734-1.642,1.642-1.642h88.432
				c0.906,0,1.642,0.734,1.642,1.642C253.632,231.921,252.896,232.656,251.99,232.656z"/>
		</g>
		<g>
			<rect x="85.593" y="151.788" fill="#CD6D77" width="81.532" height="51.926"/>
			<path fill="#424143" d="M167.125,205.355H85.593c-0.906,0-1.64-0.734-1.64-1.642v-51.926c0-0.906,0.733-1.641,1.64-1.641h81.532
				c0.906,0,1.641,0.734,1.641,1.641v51.926C168.766,204.621,168.032,205.355,167.125,205.355z M87.233,202.073h78.253v-48.645
				H87.233V202.073z"/>
		</g>
		<g>
			<rect x="175.301" y="151.788" fill="#61516B" width="76.689" height="19.072"/>
			<path fill="#424143" d="M251.99,172.502h-76.689c-0.906,0-1.641-0.735-1.641-1.642v-19.072c0-0.906,0.734-1.641,1.641-1.641
				h76.689c0.906,0,1.642,0.734,1.642,1.641v19.072C253.632,171.767,252.896,172.502,251.99,172.502z M176.941,169.22h73.409
				v-15.791h-73.409V169.22z"/>
		</g>
		<g>
			<path fill="#9AA1A8" d="M201.476,183.971h-24.899c-0.906,0-1.641-0.734-1.641-1.642c0-0.906,0.734-1.641,1.641-1.641h24.899
				c0.907,0,1.64,0.734,1.64,1.641C203.115,183.236,202.383,183.971,201.476,183.971z"/>
		</g>
		<g>
			<path fill="#9AA1A8" d="M217.67,183.971h-10.514c-0.904,0-1.639-0.734-1.639-1.642c0-0.906,0.734-1.641,1.639-1.641h10.514
				c0.906,0,1.64,0.734,1.64,1.641C219.31,183.236,218.576,183.971,217.67,183.971z"/>
		</g>
		<g>
			<path fill="#9AA1A8" d="M225.953,199.579h-49.376c-0.906,0-1.641-0.734-1.641-1.641c0-0.908,0.734-1.642,1.641-1.642h49.376
				c0.906,0,1.641,0.733,1.641,1.642C227.594,198.845,226.859,199.579,225.953,199.579z"/>
		</g>
		<g>
			<path fill="#9AA1A8" d="M246.022,199.579h-10.831c-0.906,0-1.641-0.734-1.641-1.641c0-0.908,0.734-1.642,1.641-1.642h10.831
				c0.906,0,1.64,0.733,1.64,1.642C247.662,198.845,246.929,199.579,246.022,199.579z"/>
		</g>
	</g>
	<g>
		<g>
			<g>
				<polygon fill="#FFFFFF" points="42.217,105.793 129.372,105.793 129.372,267.653 4.383,267.653 4.383,141.896 				"/>
				<path fill="#424143" d="M129.372,269.347H4.383c-0.936,0-1.693-0.758-1.693-1.693V141.896c0-0.463,0.19-0.905,0.523-1.225
					l37.836-36.104c0.314-0.302,0.733-0.468,1.168-0.468h87.154c0.937,0,1.694,0.758,1.694,1.692v161.86
					C131.066,268.589,130.308,269.347,129.372,269.347z M6.078,265.959h121.599V107.487H42.895L6.078,142.622V265.959z"/>
			</g>
			<g>
				<polygon fill="#D2D3D4" points="42.217,141.896 4.383,141.896 42.217,105.793 				"/>
				<path fill="#424143" d="M42.217,143.591H4.383c-0.691,0-1.314-0.422-1.572-1.064s-0.098-1.377,0.402-1.854l37.836-36.104
					c0.489-0.468,1.211-0.598,1.834-0.332c0.623,0.267,1.027,0.88,1.027,1.557v36.104C43.911,142.832,43.153,143.591,42.217,143.591
					z M8.612,140.203h31.912v-30.451L8.612,140.203z"/>
			</g>
		</g>
		<g>
			<path fill="#9AA1A8" d="M117.964,119.229H60.429c-0.937,0-1.693-0.759-1.693-1.693c0-0.937,0.757-1.694,1.693-1.694h57.535
				c0.937,0,1.694,0.758,1.694,1.694C119.659,118.47,118.901,119.229,117.964,119.229z"/>
		</g>
		<g>
			<path fill="#9AA1A8" d="M117.964,140.719H93.166c-0.937,0-1.694-0.759-1.694-1.694c0-0.935,0.758-1.693,1.694-1.693h24.799
				c0.937,0,1.694,0.759,1.694,1.693C119.659,139.96,118.901,140.719,117.964,140.719z"/>
		</g>
		<g>
			<path fill="#9AA1A8" d="M81.922,140.719H67.869c-0.937,0-1.694-0.759-1.694-1.694c0-0.935,0.758-1.693,1.694-1.693h14.054
				c0.934,0,1.693,0.759,1.693,1.693C83.616,139.96,82.856,140.719,81.922,140.719z"/>
		</g>
		<g>
			<path fill="#9AA1A8" d="M116.639,239.917H71.01c-0.936,0-1.693-0.758-1.693-1.694c0-0.936,0.758-1.694,1.693-1.694h45.629
				c0.937,0,1.695,0.759,1.695,1.694C118.334,239.159,117.576,239.917,116.639,239.917z"/>
		</g>
		<g>
			<path fill="#9AA1A8" d="M58.776,239.917H47.864c-0.935,0-1.694-0.758-1.694-1.694c0-0.936,0.76-1.694,1.694-1.694h10.912
				c0.936,0,1.693,0.759,1.693,1.694C60.469,239.159,59.711,239.917,58.776,239.917z"/>
		</g>
		<g>
			<path fill="#9AA1A8" d="M108.705,253.143H19.427c-0.937,0-1.694-0.759-1.694-1.692c0-0.937,0.758-1.695,1.694-1.695h89.277
				c0.937,0,1.693,0.759,1.693,1.695C110.398,252.384,109.641,253.143,108.705,253.143z"/>
		</g>
		<g>
			<path fill="#9AA1A8" d="M116.639,223.797H96.14c-0.937,0-1.693-0.759-1.693-1.693c0-0.937,0.757-1.694,1.693-1.694h20.499
				c0.937,0,1.695,0.758,1.695,1.694C118.334,223.038,117.576,223.797,116.639,223.797z"/>
		</g>
		<g>
			<path fill="#9AA1A8" d="M87.958,223.797h-9.671c-0.937,0-1.693-0.759-1.693-1.693c0-0.937,0.757-1.694,1.693-1.694h9.671
				c0.936,0,1.695,0.758,1.695,1.694C89.653,223.038,88.893,223.797,87.958,223.797z"/>
		</g>
		<g>
			<path fill="#9AA1A8" d="M69.854,223.797H16.782c-0.935,0-1.693-0.759-1.693-1.693c0-0.937,0.759-1.694,1.693-1.694h53.072
				c0.936,0,1.693,0.758,1.693,1.694C71.547,223.038,70.79,223.797,69.854,223.797z"/>
		</g>
		<g>
			<rect x="72.829" y="154.978" fill="#CD6D77" width="45.136" height="19.674"/>
			<path fill="#424143" d="M117.964,176.063H72.829c-0.779,0-1.41-0.633-1.41-1.412v-19.674c0-0.779,0.631-1.412,1.41-1.412h45.136
				c0.779,0,1.41,0.633,1.41,1.412v19.674C119.375,175.431,118.744,176.063,117.964,176.063z M74.241,173.239h42.312v-16.851H74.241
				V173.239z"/>
		</g>
		<g>
			<rect x="72.829" y="183.521" fill="#9AA1A8" width="45.136" height="19.675"/>
			<path fill="#424143" d="M117.964,204.608H72.829c-0.779,0-1.41-0.633-1.41-1.412v-19.675c0-0.78,0.631-1.411,1.41-1.411h45.136
				c0.779,0,1.41,0.631,1.41,1.411v19.675C119.375,203.976,118.744,204.608,117.964,204.608z M74.241,201.784h42.312v-16.851H74.241
				V201.784z"/>
		</g>
		<g>
			<g>
				<path fill="#7D6E84" d="M17.194,168.037c3.861-6.644,11.039-11.123,19.277-11.123v23.433L17.194,168.037z"/>
				<path fill="#424143" d="M36.471,181.758c-0.264,0-0.529-0.073-0.76-0.222l-19.277-12.308c-0.639-0.408-0.841-1.245-0.46-1.899
					c4.238-7.295,12.093-11.826,20.497-11.826c0.781,0,1.412,0.631,1.412,1.411v23.433c0,0.517-0.281,0.99-0.734,1.238
					C36.938,181.701,36.706,181.758,36.471,181.758z M19.131,167.6l15.928,10.172v-19.397
					C28.645,158.815,22.733,162.238,19.131,167.6z"/>
			</g>
			<g>
				<path fill="#60506A" d="M36.471,180.347v-23.433c12.318,0,22.305,9.985,22.305,22.303c0,12.318-9.986,22.304-22.305,22.304
					c-12.316,0-22.304-9.985-22.304-22.304c0-4.077,1.112-7.89,3.026-11.18L36.471,180.347z"/>
				<path fill="#424143" d="M36.471,202.933c-13.076,0-23.714-10.639-23.714-23.716c0-4.157,1.11-8.269,3.217-11.888
					c0.192-0.333,0.514-0.573,0.887-0.663c0.374-0.091,0.77-0.024,1.093,0.183l17.105,10.923v-20.857
					c0-0.78,0.633-1.411,1.412-1.411c13.076,0,23.717,10.639,23.717,23.714C60.188,192.294,49.547,202.933,36.471,202.933z
					 M17.717,170.048c-1.402,2.856-2.138,5.999-2.138,9.169c0,11.521,9.371,20.892,20.892,20.892
					c11.521,0,20.893-9.371,20.893-20.892c0-11.044-8.615-20.116-19.48-20.844v21.974c0,0.517-0.281,0.99-0.734,1.238
					c-0.449,0.248-1.001,0.23-1.438-0.049L17.717,170.048z"/>
			</g>
		</g>
	</g>
	<g>
		<g>
			<g>
				<g>
					<path fill="#6C6D6D" d="M208.42,18.908c0.172-0.884,0.27-1.797,0.27-2.734c0-7.866-6.379-14.245-14.244-14.245h-8.936
						c-7.867,0-14.241,6.379-14.241,14.245c0,0.938,0.095,1.853,0.268,2.734c5.837-1.773,12.026-2.734,18.442-2.734
						S202.584,17.135,208.42,18.908z"/>
					<path fill="#424143" d="M208.42,20.506c-0.155,0-0.313-0.023-0.465-0.07c-11.645-3.54-24.304-3.54-35.955,0
						c-0.432,0.131-0.898,0.074-1.287-0.159c-0.387-0.231-0.656-0.618-0.744-1.062c-0.197-1.011-0.299-2.036-0.299-3.042
						c0-8.735,7.105-15.842,15.84-15.842h8.936c8.734,0,15.839,7.106,15.839,15.842c0,1.001-0.101,2.025-0.299,3.041
						c-0.088,0.443-0.357,0.83-0.744,1.063C208.99,20.428,208.707,20.506,208.42,20.506z M185.51,3.525
						c-6.973,0-12.646,5.673-12.646,12.647c0,0.229,0.008,0.457,0.02,0.688c11.129-3.033,23.062-3.033,34.189,0
						c0.014-0.23,0.02-0.461,0.02-0.688c0-6.975-5.674-12.647-12.646-12.647H185.51z"/>
				</g>
				<g>
					<path fill="#9AA1A8" d="M208.42,18.908c-5.836-1.773-12.025-2.734-18.441-2.734s-12.605,0.961-18.442,2.734
						c-25.991,7.899-44.907,32.045-44.907,60.614c0,29.383,20.008,54.083,47.137,61.246c5.176,1.367,10.608,2.103,16.213,2.103
						c5.605,0,11.035-0.735,16.21-2.103c27.132-7.163,47.137-31.863,47.137-61.246C253.326,50.953,234.408,26.808,208.42,18.908z"/>
					<path fill="#424143" d="M189.979,144.468c-5.612,0-11.203-0.725-16.619-2.154c-28.455-7.513-48.325-33.333-48.325-62.791
						c0-28.8,18.5-53.771,46.038-62.141c12.25-3.725,25.563-3.725,37.81,0l0,0c27.539,8.369,46.041,33.343,46.041,62.141
						c0,29.458-19.873,55.278-48.327,62.791C201.182,143.743,195.59,144.468,189.979,144.468z M189.979,17.769
						c-6.104,0-12.153,0.896-17.979,2.667c-26.184,7.958-43.775,31.703-43.775,59.087c0,28.009,18.896,52.56,45.949,59.703
						c10.301,2.72,21.309,2.722,31.609,0c27.053-7.144,45.947-31.694,45.947-59.703c0-27.384-17.592-51.129-43.775-59.087
						C202.131,18.665,196.083,17.769,189.979,17.769z"/>
				</g>
			</g>
			<g>
				<circle fill="#60506A" cx="189.978" cy="79.097" r="44.357"/>
				<path fill="#424143" d="M189.979,125.051c-25.34,0-45.955-20.614-45.955-45.954c0-25.339,20.615-45.954,45.955-45.954
					c25.337,0,45.953,20.615,45.953,45.954C235.932,104.437,215.316,125.051,189.979,125.051z M189.979,36.337
					c-23.579,0-42.762,19.181-42.762,42.76c0,23.578,19.183,42.761,42.762,42.761c23.578,0,42.759-19.183,42.759-42.761
					C232.738,55.518,213.557,36.337,189.979,36.337z"/>
			</g>
			<g>
				<g>
					<path fill="#C1C4C9" d="M206.189,140.769c-5.176,1.367-10.605,2.103-16.21,2.103c-5.604,0-11.037-0.735-16.213-2.103v98.311
						h32.423V140.769z"/>
					<path fill="#424143" d="M206.189,240.677h-32.423c-0.881,0-1.595-0.715-1.595-1.598v-98.311c0-0.494,0.228-0.963,0.62-1.264
						c0.393-0.302,0.904-0.403,1.383-0.279c10.301,2.72,21.309,2.722,31.609,0c0.479-0.127,0.988-0.023,1.381,0.279
						c0.393,0.301,0.623,0.77,0.623,1.264v98.311C207.787,239.962,207.072,240.677,206.189,240.677z M175.362,237.483h29.232
						v-94.675c-9.574,2.204-19.658,2.204-29.232,0V237.483z"/>
				</g>
			</g>
			<g>
				<g>
					<path fill="#6C6D6D" d="M218.685,222c0,9.938-8.056,17.991-17.99,17.991h-21.993c-9.934,0-17.992-8.053-17.992-17.991v-44.48
						c0-9.938,8.059-17.992,17.992-17.992h21.993c9.934,0,17.99,8.055,17.99,17.992V222z"/>
					<path fill="#424143" d="M200.695,241.589h-21.993c-10.801,0-19.588-8.787-19.588-19.589v-44.48
						c0-10.802,8.787-19.59,19.588-19.59h21.993c10.8,0,19.588,8.788,19.588,19.59V222
						C220.283,232.802,211.495,241.589,200.695,241.589z M178.702,161.124c-9.039,0-16.395,7.354-16.395,16.396V222
						c0,9.04,7.355,16.394,16.395,16.394h21.993c9.04,0,16.393-7.354,16.393-16.394v-44.48c0-9.041-7.354-16.396-16.393-16.396
						H178.702z"/>
				</g>
				<g>
					<path fill="#424143" d="M209.002,182.115h-39.171c-0.882,0-1.596-0.715-1.596-1.597s0.714-1.596,1.596-1.596h39.171
						c0.883,0,1.597,0.714,1.597,1.596S209.885,182.115,209.002,182.115z"/>
				</g>
				<g>
					<path fill="#424143" d="M209.002,201.358h-39.171c-0.882,0-1.596-0.716-1.596-1.598c0-0.883,0.714-1.597,1.596-1.597h39.171
						c0.883,0,1.597,0.714,1.597,1.597C210.599,200.643,209.885,201.358,209.002,201.358z"/>
				</g>
				<g>
					<path fill="#424143" d="M209.284,221.35h-39.171c-0.881,0-1.597-0.714-1.597-1.597s0.716-1.598,1.597-1.598h39.171
						c0.882,0,1.597,0.715,1.597,1.598S210.166,221.35,209.284,221.35z"/>
				</g>
			</g>
		</g>
		<g>
			<g>
				<path fill="#7B6D82" d="M201.989,62.886h-36.105c-0.882,0-1.597-0.715-1.597-1.597s0.715-1.597,1.597-1.597h36.105
					c0.881,0,1.597,0.715,1.597,1.597S202.87,62.886,201.989,62.886z"/>
			</g>
			<g>
				<path fill="#7B6D82" d="M220.756,78.696h-34.947c-0.883,0-1.598-0.715-1.598-1.597s0.715-1.597,1.598-1.597h34.947
					c0.882,0,1.596,0.715,1.596,1.597S221.638,78.696,220.756,78.696z"/>
			</g>
			<g>
				<path fill="#7B6D82" d="M179.49,78.696h-4.188c-0.883,0-1.597-0.715-1.597-1.597s0.714-1.597,1.597-1.597h4.188
					c0.882,0,1.597,0.715,1.597,1.597S180.372,78.696,179.49,78.696z"/>
			</g>
			<g>
				<path fill="#7B6D82" d="M201.989,98.702h-36.105c-0.882,0-1.597-0.715-1.597-1.597c0-0.883,0.715-1.597,1.597-1.597h36.105
					c0.881,0,1.597,0.714,1.597,1.597C203.586,97.987,202.87,98.702,201.989,98.702z"/>
			</g>
		</g>
	</g>
	<g>
		<g>
			<g>
				<path fill="#F0F0F1" d="M111.985,189.634v125.303c37.492,0,140.542,0,189.946,0V189.634
					C248.842,189.634,144.166,189.634,111.985,189.634z"/>
				<path fill="#424143" d="M301.931,316.578H111.985c-0.906,0-1.641-0.735-1.641-1.642V189.634c0-0.907,0.734-1.641,1.641-1.641
					h189.946c0.907,0,1.64,0.733,1.64,1.641v125.303C303.57,315.843,302.838,316.578,301.931,316.578z M113.627,313.296h186.664
					V191.274H113.627V313.296z"/>
			</g>
			<g>
				<path fill="#9FA5AC" d="M301.931,179.014c0-1.407-1.142-2.55-2.548-2.55H114.534c-1.408,0-2.549,1.143-2.549,2.55v10.62
					c32.181,0,136.857,0,189.946,0V179.014z"/>
				<path fill="#424143" d="M301.931,191.274H111.985c-0.906,0-1.641-0.734-1.641-1.641v-10.62c0-2.311,1.881-4.189,4.189-4.189
					h184.849c2.311,0,4.188,1.879,4.188,4.189v10.62C303.57,190.54,302.838,191.274,301.931,191.274z M113.627,187.993h186.664
					v-8.979c0-0.501-0.408-0.907-0.908-0.907H114.534c-0.5,0-0.906,0.406-0.906,0.907V187.993z"/>
			</g>
		</g>
		<g>
			<rect x="123.772" y="203.04" fill="#9AA1A8" width="47.398" height="37.92"/>
			<path fill="#424143" d="M171.17,242.601h-47.398c-0.906,0-1.641-0.734-1.641-1.641v-37.92c0-0.906,0.734-1.641,1.641-1.641
				h47.398c0.906,0,1.642,0.734,1.642,1.641v37.92C172.812,241.866,172.077,242.601,171.17,242.601z M125.414,239.319h44.118
				v-34.637h-44.118V239.319z"/>
		</g>
		<g>
			<rect x="183.932" y="203.04" fill="#61516B" width="47.398" height="37.92"/>
			<path fill="#424143" d="M231.33,242.601h-47.398c-0.906,0-1.641-0.734-1.641-1.641v-37.92c0-0.906,0.734-1.641,1.641-1.641
				h47.398c0.906,0,1.641,0.734,1.641,1.641v37.92C232.971,241.866,232.236,242.601,231.33,242.601z M185.573,239.319h44.117
				v-34.637h-44.117V239.319z"/>
		</g>
		<g>
			<rect x="242.998" y="203.04" fill="#CD6D77" width="47.398" height="37.92"/>
			<path fill="#424143" d="M290.396,242.601h-47.398c-0.904,0-1.641-0.734-1.641-1.641v-37.92c0-0.906,0.736-1.641,1.641-1.641
				h47.398c0.906,0,1.64,0.734,1.64,1.641v37.92C292.036,241.866,291.303,242.601,290.396,242.601z M244.638,239.319h44.118v-34.637
				h-44.118V239.319z"/>
		</g>
		<g>
			<g>
				<path fill="#9AA1A8" d="M153.304,252.537h-29.532c-0.754,0-1.367-0.612-1.367-1.368s0.613-1.367,1.367-1.367h29.532
					c0.756,0,1.368,0.611,1.368,1.367S154.06,252.537,153.304,252.537z"/>
			</g>
			<g>
				<path fill="#9AA1A8" d="M171.17,252.537h-10.574c-0.755,0-1.365-0.612-1.365-1.368s0.61-1.367,1.365-1.367h10.574
					c0.755,0,1.367,0.611,1.367,1.367S171.925,252.537,171.17,252.537z"/>
			</g>
			<g>
				<path fill="#9AA1A8" d="M169.347,268.214h-45.575c-0.754,0-1.367-0.612-1.367-1.367s0.613-1.368,1.367-1.368h45.575
					c0.755,0,1.366,0.613,1.366,1.368S170.102,268.214,169.347,268.214z"/>
			</g>
			<g>
				<path fill="#9AA1A8" d="M132.887,283.893h-9.115c-0.754,0-1.367-0.61-1.367-1.366s0.613-1.369,1.367-1.369h9.115
					c0.755,0,1.367,0.613,1.367,1.369S133.642,283.893,132.887,283.893z"/>
			</g>
			<g>
				<path fill="#9AA1A8" d="M169.347,283.893h-28.804c-0.755,0-1.366-0.61-1.366-1.366s0.611-1.369,1.366-1.369h28.804
					c0.755,0,1.366,0.613,1.366,1.369S170.102,283.893,169.347,283.893z"/>
			</g>
			<g>
				<path fill="#9AA1A8" d="M144.19,299.571h-20.418c-0.754,0-1.367-0.613-1.367-1.368s0.613-1.368,1.367-1.368h20.418
					c0.755,0,1.367,0.613,1.367,1.368S144.945,299.571,144.19,299.571z"/>
			</g>
			<g>
				<path fill="#9AA1A8" d="M163.514,299.571h-11.668c-0.756,0-1.368-0.613-1.368-1.368s0.612-1.368,1.368-1.368h11.668
					c0.756,0,1.367,0.613,1.367,1.368S164.27,299.571,163.514,299.571z"/>
			</g>
		</g>
		<g>
			<g>
				<path fill="#9AA1A8" d="M213.465,253.651h-29.533c-0.756,0-1.366-0.611-1.366-1.367s0.61-1.367,1.366-1.367h29.533
					c0.756,0,1.368,0.611,1.368,1.367S214.221,253.651,213.465,253.651z"/>
			</g>
			<g>
				<path fill="#9AA1A8" d="M231.33,253.651h-10.574c-0.754,0-1.367-0.611-1.367-1.367s0.613-1.367,1.367-1.367h10.574
					c0.754,0,1.369,0.611,1.369,1.367S232.084,253.651,231.33,253.651z"/>
			</g>
			<g>
				<path fill="#9AA1A8" d="M229.508,269.329h-45.576c-0.756,0-1.366-0.611-1.366-1.367s0.61-1.367,1.366-1.367h45.576
					c0.754,0,1.366,0.611,1.366,1.367S230.262,269.329,229.508,269.329z"/>
			</g>
			<g>
				<path fill="#9AA1A8" d="M193.047,285.008h-9.115c-0.756,0-1.366-0.611-1.366-1.367s0.61-1.367,1.366-1.367h9.115
					c0.756,0,1.366,0.611,1.366,1.367S193.803,285.008,193.047,285.008z"/>
			</g>
			<g>
				<path fill="#9AA1A8" d="M229.508,285.008h-28.805c-0.753,0-1.366-0.611-1.366-1.367s0.613-1.367,1.366-1.367h28.805
					c0.754,0,1.366,0.611,1.366,1.367S230.262,285.008,229.508,285.008z"/>
			</g>
			<g>
				<path fill="#9AA1A8" d="M204.35,300.687h-20.417c-0.756,0-1.366-0.612-1.366-1.368s0.61-1.367,1.366-1.367h20.417
					c0.754,0,1.366,0.611,1.366,1.367S205.104,300.687,204.35,300.687z"/>
			</g>
			<g>
				<path fill="#9AA1A8" d="M223.673,300.687h-11.668c-0.753,0-1.366-0.612-1.366-1.368s0.613-1.367,1.366-1.367h11.668
					c0.755,0,1.368,0.611,1.368,1.367S224.428,300.687,223.673,300.687z"/>
			</g>
		</g>
		<g>
			<g>
				<path fill="#9AA1A8" d="M272.531,253.651h-29.533c-0.756,0-1.367-0.611-1.367-1.367s0.611-1.367,1.367-1.367h29.533
					c0.753,0,1.365,0.611,1.365,1.367S273.284,253.651,272.531,253.651z"/>
			</g>
			<g>
				<path fill="#9AA1A8" d="M290.396,253.651h-10.575c-0.754,0-1.366-0.611-1.366-1.367s0.612-1.367,1.366-1.367h10.575
					c0.756,0,1.368,0.611,1.368,1.367S291.152,253.651,290.396,253.651z"/>
			</g>
			<g>
				<path fill="#9AA1A8" d="M288.573,269.329h-45.575c-0.756,0-1.367-0.611-1.367-1.367s0.611-1.367,1.367-1.367h45.575
					c0.754,0,1.366,0.611,1.366,1.367S289.327,269.329,288.573,269.329z"/>
			</g>
			<g>
				<path fill="#9AA1A8" d="M252.113,285.008h-9.115c-0.756,0-1.367-0.611-1.367-1.367s0.611-1.367,1.367-1.367h9.115
					c0.754,0,1.366,0.611,1.366,1.367S252.867,285.008,252.113,285.008z"/>
			</g>
			<g>
				<path fill="#9AA1A8" d="M288.573,285.008h-28.805c-0.754,0-1.366-0.611-1.366-1.367s0.612-1.367,1.366-1.367h28.805
					c0.754,0,1.366,0.611,1.366,1.367S289.327,285.008,288.573,285.008z"/>
			</g>
			<g>
				<path fill="#9AA1A8" d="M263.416,300.687h-20.418c-0.756,0-1.367-0.612-1.367-1.368s0.611-1.367,1.367-1.367h20.418
					c0.754,0,1.366,0.611,1.366,1.367S264.17,300.687,263.416,300.687z"/>
			</g>
			<g>
				<path fill="#9AA1A8" d="M282.738,300.687H271.07c-0.753,0-1.365-0.612-1.365-1.368s0.612-1.367,1.365-1.367h11.668
					c0.756,0,1.369,0.611,1.369,1.367S283.494,300.687,282.738,300.687z"/>
			</g>
		</g>
	</g>
</g>
</svg>
