<?xml version="1.0" encoding="utf-8"?>
<!-- Generator: Adobe Illustrator 16.0.0, SVG Export Plug-In . SVG Version: 6.00 Build 0)  -->
<!DOCTYPE svg PUBLIC "-//W3C//DTD SVG 1.1//EN" "http://www.w3.org/Graphics/SVG/1.1/DTD/svg11.dtd">
<svg version="1.1" id="Layer_1" xmlns="http://www.w3.org/2000/svg" xmlns:xlink="http://www.w3.org/1999/xlink" x="0px" y="0px"
	 width="500px" height="325px" viewBox="0 0 500 325" enable-background="new 0 0 500 325" xml:space="preserve">
<g>
	<g>
		<rect x="92.856" y="304.744" fill="#FFD248" width="310.995" height="15.804"/>
	</g>
	<g>
		<rect x="221.265" y="255.173" fill="#D2D3D4" width="60.345" height="38.794"/>
	</g>
	<g>
		<g>
			<path fill="#E7E7E7" d="M131.464,214.226v35.201c0,2.38,2.649,5.028,5.029,5.028h228.452c2.378,0,3.591-2.648,3.591-5.028
				v-35.201H131.464z"/>
		</g>
	</g>
	<g>
		<path fill="#231F20" d="M364.227,256.906H135.775c-3.729,0-6.763-3.033-6.763-6.762V87.787c0-3.729,3.034-6.762,6.763-6.762
			h228.451c3.728,0,6.761,3.033,6.761,6.762v162.358C370.987,253.873,367.954,256.906,364.227,256.906z M135.775,85.927
			c-1.026,0-1.861,0.834-1.861,1.86v162.358c0,1.025,0.835,1.859,1.861,1.859h228.451c1.024,0,1.858-0.834,1.858-1.859V87.787
			c0-1.025-0.834-1.86-1.858-1.86H135.775z"/>
	</g>
	<g>
		<rect x="145.113" y="95.688" fill="#33C1D8" width="209.773" height="119.255"/>
	</g>
	<g>
		<rect x="140.804" y="211.774" fill="#231F20" width="218.393" height="4.902"/>
	</g>
	<g>
		<path fill="#231F20" d="M293.822,307.195h-86.208c-1.354,0-2.451-1.098-2.451-2.451v-10.058c0-1.354,1.098-2.451,2.451-2.451
			h86.208c1.354,0,2.451,1.098,2.451,2.451v10.058C296.273,306.098,295.176,307.195,293.822,307.195z M210.065,302.293h81.306
			v-5.155h-81.306V302.293z"/>
	</g>
	<g>
		<g>
			<path fill="#F6F6F6" d="M336.927,301.87c0,1.587,1.286,2.874,2.874,2.874h40.23c1.587,0,2.873-1.287,2.873-2.874v-11.494h-45.978
				V301.87z"/>
		</g>
		<g>
			<path fill="#F6F6F6" d="M382.904,234.34c0-1.587-1.286-2.873-2.873-2.873h-40.23c-1.588,0-2.874,1.286-2.874,2.873v11.495h45.978
				V234.34z"/>
		</g>
		<g>
			<rect x="336.927" y="245.835" fill="#F26823" width="45.978" height="44.541"/>
		</g>
	</g>
	<g>
		<path fill="#231F20" d="M380.031,307.195h-40.23c-2.937,0-5.325-2.389-5.325-5.325v-67.53c0-2.936,2.389-5.324,5.325-5.324h40.23
			c2.936,0,5.324,2.389,5.324,5.324v67.53C385.355,304.807,382.967,307.195,380.031,307.195z M339.801,233.918
			c-0.233,0-0.423,0.189-0.423,0.422v67.53c0,0.233,0.189,0.423,0.423,0.423h40.23c0.232,0,0.422-0.189,0.422-0.423v-67.53
			c0-0.232-0.189-0.422-0.422-0.422H339.801z"/>
	</g>
	<g>
		<rect x="343.393" y="244.819" fill="#231F20" width="33.046" height="4.902"/>
	</g>
	<g>
		<rect x="343.393" y="287.925" fill="#231F20" width="33.046" height="4.902"/>
	</g>
	<g>
		<g>
			<g>
				<circle fill="#F2F2F2" cx="136.539" cy="82.804" r="44.587"/>
			</g>
			<g>
				<g>
					<g>
						<g>
							<path fill="#F26823" d="M159.532,112.013V89.222c0-7.359-5.128-12.147-12.489-12.147h-22.214
								c-7.36,0-13.906,4.789-13.906,12.147v22.791"/>
						</g>
						<g>
							<rect x="132.396" y="98.34" fill="#231F20" width="4.902" height="5.317"/>
						</g>
						<g>
							<rect x="132.396" y="107.455" fill="#231F20" width="4.902" height="4.558"/>
						</g>
					</g>
					<g>
						<rect x="119.484" y="96.061" fill="#231F20" width="4.902" height="15.952"/>
					</g>
					<g>
						<rect x="146.068" y="96.061" fill="#231F20" width="4.902" height="15.952"/>
					</g>
				</g>
				<g>
					<g id="XMLID_19_">
						<g>
							<g>
								<path fill="#FFFFFF" d="M146.621,62.112c0,4.907-3.979,8.886-8.888,8.886h-5.014c-4.906,0-8.886-3.979-8.886-8.886v-6.533
									c0-4.908,3.979-8.888,8.886-8.888h5.014c4.908,0,8.888,3.979,8.888,8.888V62.112z"/>
							</g>
						</g>
						<g>
							<g>
								<path fill="#231F20" d="M138.112,73.068h-5.012c-6.251,0-11.337-5.086-11.337-11.337V55.2
									c0-6.251,5.086-11.337,11.337-11.337h5.012c6.252,0,11.339,5.086,11.339,11.337v6.531
									C149.451,67.982,144.364,73.068,138.112,73.068z M133.101,48.765c-3.548,0-6.435,2.887-6.435,6.435v6.531
									c0,3.548,2.886,6.435,6.435,6.435h5.012c3.549,0,6.437-2.887,6.437-6.435V55.2c0-3.548-2.887-6.435-6.437-6.435H133.101z"/>
							</g>
						</g>
					</g>
				</g>
			</g>
		</g>
		<g>
			<g>
				<polygon fill="#FFFFFF" points="140.223,79.885 129.886,79.885 135.054,93.666 				"/>
			</g>
		</g>
	</g>
	<g>
		
			<rect x="306.604" y="109.388" transform="matrix(0.5163 0.8564 -0.8564 0.5163 263.4151 -200.3213)" fill="#231F20" width="4.902" height="47.315"/>
	</g>
	<g>
		<g>
			<g>
				<circle fill="#F2F2F2" cx="354.933" cy="88.551" r="44.587"/>
			</g>
			<g>
				<g>
					<g>
						<g>
							<path fill="#FFD248" d="M377.926,117.759V94.971c0-7.359-5.129-12.149-12.489-12.149h-22.214
								c-7.361,0-13.906,4.79-13.906,12.149v22.789"/>
						</g>
						<g>
							<rect x="350.789" y="104.087" fill="#231F20" width="4.902" height="5.317"/>
						</g>
						<g>
							<rect x="350.789" y="113.203" fill="#231F20" width="4.902" height="4.556"/>
						</g>
					</g>
					<g>
						<rect x="337.878" y="101.81" fill="#231F20" width="4.902" height="15.95"/>
					</g>
					<g>
						<rect x="364.462" y="101.81" fill="#231F20" width="4.902" height="15.95"/>
					</g>
				</g>
				<g>
					<g id="XMLID_17_">
						<g>
							<g>
								<path fill="#FFFFFF" d="M365.015,67.859c0,4.907-3.979,8.886-8.888,8.886h-5.013c-4.907,0-8.886-3.979-8.886-8.886v-6.533
									c0-4.908,3.979-8.888,8.886-8.888h5.013c4.908,0,8.888,3.979,8.888,8.888V67.859z"/>
							</g>
						</g>
						<g>
							<g>
								<path fill="#231F20" d="M356.506,78.816h-5.012c-6.252,0-11.338-5.086-11.338-11.337v-6.532
									c0-6.252,5.086-11.339,11.338-11.339h5.012c6.252,0,11.338,5.087,11.338,11.339v6.532
									C367.844,73.73,362.758,78.816,356.506,78.816z M351.494,54.511c-3.549,0-6.436,2.887-6.436,6.437v6.532
									c0,3.548,2.887,6.435,6.436,6.435h5.012c3.549,0,6.436-2.886,6.436-6.435v-6.532c0-3.549-2.887-6.437-6.436-6.437H351.494z"
									/>
							</g>
						</g>
					</g>
				</g>
			</g>
		</g>
		<g>
			<g>
				<polygon fill="#FFFFFF" points="358.616,85.631 348.279,85.631 353.446,99.412 				"/>
			</g>
		</g>
	</g>
	<g>
		<g>
			<g>
				<circle fill="#FFFFFF" cx="250.046" cy="154.644" r="44.587"/>
			</g>
			<g>
				<g>
					<g>
						<g>
							<path fill="#A8AAAD" d="M273.04,183.853v-22.789c0-7.359-5.13-12.149-12.489-12.149h-22.215
								c-7.36,0-13.906,4.79-13.906,12.149v22.789"/>
						</g>
						<g>
							<rect x="245.903" y="170.182" fill="#231F20" width="4.902" height="5.315"/>
						</g>
						<g>
							<rect x="245.903" y="179.296" fill="#231F20" width="4.902" height="4.557"/>
						</g>
					</g>
					<g>
						<rect x="232.992" y="167.902" fill="#231F20" width="4.902" height="15.95"/>
					</g>
					<g>
						<rect x="259.575" y="167.902" fill="#231F20" width="4.902" height="15.95"/>
					</g>
				</g>
				<g>
					<g id="XMLID_18_">
						<g>
							<g>
								<path fill="#FFFFFF" d="M260.128,133.952c0,4.907-3.979,8.886-8.887,8.886h-5.014c-4.906,0-8.886-3.979-8.886-8.886v-6.533
									c0-4.907,3.979-8.888,8.886-8.888h5.014c4.907,0,8.887,3.981,8.887,8.888V133.952z"/>
							</g>
						</g>
						<g>
							<g>
								<path fill="#231F20" d="M251.619,144.909h-5.012c-6.251,0-11.337-5.086-11.337-11.337v-6.532
									c0-6.252,5.086-11.339,11.337-11.339h5.012c6.252,0,11.339,5.087,11.339,11.339v6.532
									C262.958,139.823,257.871,144.909,251.619,144.909z M246.607,120.604c-3.548,0-6.435,2.887-6.435,6.437v6.532
									c0,3.548,2.886,6.435,6.435,6.435h5.012c3.549,0,6.437-2.886,6.437-6.435v-6.532c0-3.549-2.888-6.437-6.437-6.437H246.607z"
									/>
							</g>
						</g>
					</g>
				</g>
			</g>
		</g>
		<g>
			<g>
				<polygon fill="#FFFFFF" points="253.729,151.724 243.394,151.724 248.561,165.505 				"/>
			</g>
		</g>
	</g>
	<g>
		
			<rect x="166.719" y="121.764" transform="matrix(0.8486 0.529 -0.529 0.8486 94.4496 -81.5972)" fill="#231F20" width="46.131" height="4.902"/>
	</g>
	<g>
		<g>
			<g>
				<polygon fill="#F26823" points="198.275,31.033 198.275,88.504 211.207,88.504 211.207,100.959 227.511,88.504 295.978,88.504 
					295.915,31.033 				"/>
			</g>
		</g>
		<g>
			<g>
				<rect x="262.932" y="43.668" fill="#231F20" width="20.115" height="4.902"/>
			</g>
			<g>
				<rect x="212.644" y="43.668" fill="#231F20" width="45.978" height="4.902"/>
			</g>
			<g>
				<rect x="274.426" y="56.599" fill="#231F20" width="8.621" height="4.902"/>
			</g>
			<g>
				<rect x="212.644" y="56.599" fill="#231F20" width="57.472" height="4.902"/>
			</g>
			<g>
				<rect x="254.31" y="69.53" fill="#231F20" width="28.737" height="4.902"/>
			</g>
			<g>
				<rect x="229.885" y="69.53" fill="#231F20" width="20.115" height="4.902"/>
			</g>
		</g>
	</g>
	<g>
		<g>
			<g>
				<polygon fill="#FFD248" points="176.724,222.127 176.724,168.966 165.229,168.966 165.229,157.47 149.951,168.966 
					86.205,168.966 86.265,222.127 				"/>
			</g>
		</g>
		<g>
			<g>
				<rect x="97.699" y="206.026" fill="#231F20" width="18.679" height="4.902"/>
			</g>
			<g>
				<rect x="120.688" y="206.026" fill="#231F20" width="43.104" height="4.902"/>
			</g>
			<g>
				<rect x="97.699" y="193.095" fill="#231F20" width="8.621" height="4.902"/>
			</g>
			<g>
				<rect x="110.631" y="193.095" fill="#231F20" width="53.161" height="4.902"/>
			</g>
			<g>
				<rect x="97.699" y="181.601" fill="#231F20" width="27.299" height="4.902"/>
			</g>
			<g>
				<rect x="129.309" y="181.601" fill="#231F20" width="18.68" height="4.902"/>
			</g>
		</g>
	</g>
	<g>
		<g>
			<g>
				<polygon fill="#A8AAAD" points="334.771,153.161 334.771,196.265 344.829,196.265 344.829,206.325 356.887,196.265 
					409.544,196.265 409.495,153.161 				"/>
			</g>
		</g>
		<g>
			<g>
				<rect x="385.06" y="161.485" fill="#231F20" width="14.368" height="4.902"/>
			</g>
			<g>
				<rect x="344.829" y="161.485" fill="#231F20" width="35.92" height="4.902"/>
			</g>
			<g>
				<rect x="392.244" y="172.98" fill="#231F20" width="7.184" height="4.902"/>
			</g>
			<g>
				<rect x="344.829" y="172.98" fill="#231F20" width="44.541" height="4.902"/>
			</g>
			<g>
				<rect x="377.875" y="181.601" fill="#231F20" width="21.553" height="4.902"/>
			</g>
			<g>
				<rect x="359.196" y="181.601" fill="#231F20" width="14.368" height="4.902"/>
			</g>
		</g>
	</g>
	<g>
		<circle fill="#FFFFFF" cx="359.196" cy="267.746" r="9.698"/>
	</g>
	<g>
		<rect x="86.205" y="302.293" fill="#231F20" width="323.28" height="4.902"/>
	</g>
	<g id="XMLID_20_">
		<g>
			<g>
				<rect x="114.223" y="247.271" fill="#FFFFFF" width="57.472" height="57.474"/>
			</g>
		</g>
		<g>
			<g>
				<path fill="#231F20" d="M171.694,307.195h-57.472c-1.354,0-2.451-1.098-2.451-2.451v-57.474c0-1.354,1.098-2.451,2.451-2.451
					h57.472c1.354,0,2.451,1.098,2.451,2.451v57.474C174.146,306.098,173.048,307.195,171.694,307.195z M116.674,302.293h52.569
					v-52.571h-52.569V302.293z"/>
			</g>
		</g>
	</g>
	<g>
		<rect x="133.62" y="259.188" fill="#231F20" width="37.355" height="4.902"/>
	</g>
	<g>
		<path fill="#231F20" d="M114.223,281.091c-18.809,0-22.307-10.152-22.446-10.585c-0.079-0.243-0.119-0.498-0.119-0.754v-22.481
			c0-1.354,1.098-2.451,2.451-2.451h19.396v4.902H96.56v19.544c0.649,1.318,4.2,6.923,17.663,6.923V281.091z"/>
	</g>
	<g>
		<path fill="#231F20" d="M326.369,36.145c-6.938,0-12.581-5.645-12.581-12.583s5.644-12.583,12.581-12.583
			s12.582,5.645,12.582,12.583S333.307,36.145,326.369,36.145z M326.369,15.882c-4.234,0-7.679,3.445-7.679,7.68
			s3.444,7.68,7.679,7.68s7.68-3.445,7.68-7.68S330.604,15.882,326.369,15.882z"/>
	</g>
	<g>
		<path fill="#231F20" d="M162.574,31.834c-6.938,0-12.582-5.645-12.582-12.583c0-6.937,5.645-12.581,12.582-12.581
			s12.582,5.644,12.582,12.581C175.156,26.189,169.512,31.834,162.574,31.834z M162.574,11.573c-4.235,0-7.68,3.444-7.68,7.678
			c0,4.235,3.445,7.68,7.68,7.68s7.68-3.445,7.68-7.68C170.254,15.018,166.809,11.573,162.574,11.573z"/>
	</g>
	<g>
		<path fill="#231F20" d="M76.367,51.949c-6.938,0-12.583-5.645-12.583-12.583c0-6.937,5.645-12.581,12.583-12.581
			c6.937,0,12.581,5.644,12.581,12.581C88.948,46.304,83.304,51.949,76.367,51.949z M76.367,31.688
			c-4.235,0-7.681,3.444-7.681,7.678c0,4.235,3.445,7.68,7.681,7.68c4.234,0,7.679-3.445,7.679-7.68
			C84.046,35.132,80.602,31.688,76.367,31.688z"/>
	</g>
	<g>
		<path fill="#231F20" d="M73.492,129.537c-6.937,0-12.581-5.645-12.581-12.583c0-6.937,5.644-12.581,12.581-12.581
			c6.938,0,12.582,5.644,12.582,12.581C86.074,123.892,80.43,129.537,73.492,129.537z M73.492,109.276
			c-4.234,0-7.679,3.444-7.679,7.678c0,4.235,3.444,7.68,7.679,7.68c4.235,0,7.68-3.445,7.68-7.68
			C81.172,112.72,77.727,109.276,73.492,109.276z"/>
	</g>
	<g>
		<path fill="#231F20" d="M414.014,56.26c-6.938,0-12.581-5.645-12.581-12.583c0-6.937,5.644-12.581,12.581-12.581
			c6.938,0,12.583,5.644,12.583,12.581C426.597,50.615,420.952,56.26,414.014,56.26z M414.014,35.999
			c-4.234,0-7.679,3.444-7.679,7.678c0,4.235,3.444,7.68,7.679,7.68c4.235,0,7.681-3.445,7.681-7.68
			C421.694,39.443,418.249,35.999,414.014,35.999z"/>
	</g>
	<g>
		<path fill="#231F20" d="M424.071,133.847c-6.937,0-12.58-5.645-12.58-12.583c0-6.938,5.644-12.582,12.58-12.582
			c6.938,0,12.583,5.645,12.583,12.582C436.654,128.203,431.01,133.847,424.071,133.847z M424.071,113.585
			c-4.233,0-7.678,3.445-7.678,7.68s3.444,7.68,7.678,7.68c4.235,0,7.681-3.445,7.681-7.68S428.307,113.585,424.071,113.585z"/>
	</g>
	<g>
		
			<rect x="396.187" y="46.485" transform="matrix(0.5958 0.8032 -0.8032 0.5958 206.3234 -297.4362)" fill="#231F20" width="4.901" height="19.521"/>
	</g>
	<g>
		
			<rect x="394.74" y="108.662" transform="matrix(0.9172 0.3984 -0.3984 0.9172 77.8612 -152.4407)" fill="#231F20" width="21.924" height="4.902"/>
	</g>
	<g>
		
			<rect x="327.492" y="36.955" transform="matrix(0.5409 0.8411 -0.8411 0.5409 187.3164 -264.363)" fill="#231F20" width="16.662" height="4.902"/>
	</g>
	<g>
		
			<rect x="151.977" y="27.289" transform="matrix(0.9099 0.4148 -0.4148 0.9099 28.1646 -60.9626)" fill="#231F20" width="4.902" height="14.138"/>
	</g>
	<g>
		
			<rect x="81.404" y="50.127" transform="matrix(0.8023 0.5969 -0.5969 0.8023 49.4262 -44.0829)" fill="#231F20" width="19.723" height="4.902"/>
	</g>
	<g>
		
			<rect x="87.657" y="99.994" transform="matrix(0.4098 0.9122 -0.9122 0.4098 152.1729 -18.145)" fill="#231F20" width="4.902" height="17.05"/>
	</g>
	<g>
		<path fill="#FFD248" d="M80.219,39.174c0,2.25-1.823,4.072-4.072,4.072c-2.247,0-4.07-1.822-4.07-4.072
			c0-2.246,1.823-4.07,4.07-4.07C78.396,35.104,80.219,36.928,80.219,39.174z"/>
	</g>
	<g>
		<circle fill="#F26823" cx="162.356" cy="19.059" r="4.07"/>
	</g>
	<g>
		<circle fill="#33C1D8" cx="73.274" cy="116.762" r="4.071"/>
	</g>
	<g>
		<circle fill="#33C1D8" cx="326.151" cy="23.37" r="4.07"/>
	</g>
	<g>
		<circle fill="#F26823" cx="413.796" cy="43.485" r="4.07"/>
	</g>
	<g>
		<circle fill="#FFD248" cx="423.854" cy="121.072" r="4.07"/>
	</g>
	<g>
		<g>
			<rect x="400.864" y="206.026" fill="#231F20" width="7.184" height="4.902"/>
		</g>
		<g>
			<rect x="412.358" y="206.026" fill="#231F20" width="15.805" height="4.902"/>
		</g>
		<g>
			<rect x="400.864" y="216.083" fill="#231F20" width="7.184" height="4.902"/>
		</g>
		<g>
			<rect x="412.358" y="216.083" fill="#231F20" width="10.058" height="4.902"/>
		</g>
	</g>
	<g>
		<g>
			<rect x="102.01" y="7.748" fill="#231F20" width="7.185" height="4.902"/>
		</g>
		<g>
			<rect x="113.505" y="7.748" fill="#231F20" width="15.804" height="4.902"/>
		</g>
		<g>
			<rect x="102.01" y="17.805" fill="#231F20" width="7.185" height="4.902"/>
		</g>
		<g>
			<rect x="113.505" y="17.805" fill="#231F20" width="10.058" height="4.902"/>
		</g>
	</g>
	<g>
		<g>
			<rect x="97.699" y="148.555" fill="#231F20" width="7.184" height="4.902"/>
		</g>
		<g>
			<rect x="77.584" y="148.555" fill="#231F20" width="15.806" height="4.902"/>
		</g>
		<g>
			<rect x="97.699" y="138.498" fill="#231F20" width="7.184" height="4.902"/>
		</g>
		<g>
			<rect x="83.331" y="138.498" fill="#231F20" width="10.059" height="4.902"/>
		</g>
	</g>
	<g>
		<g>
			<rect x="383.622" y="22.116" fill="#231F20" width="7.185" height="4.902"/>
		</g>
		<g>
			<rect x="363.508" y="22.116" fill="#231F20" width="15.805" height="4.902"/>
		</g>
		<g>
			<rect x="383.622" y="12.059" fill="#231F20" width="7.185" height="4.902"/>
		</g>
		<g>
			<rect x="369.255" y="12.059" fill="#231F20" width="10.058" height="4.902"/>
		</g>
	</g>
	<g>
		<g>
			<rect x="231.322" y="2.001" fill="#231F20" width="5.746" height="4.902"/>
		</g>
		<g>
			<rect x="242.817" y="2.001" fill="#231F20" width="5.746" height="4.902"/>
		</g>
		<g>
			<rect x="254.31" y="2.001" fill="#231F20" width="5.749" height="4.902"/>
		</g>
	</g>
	<g>
		<g>
			<rect x="426.727" y="83.898" fill="#231F20" width="5.747" height="4.902"/>
		</g>
		<g>
			<rect x="438.222" y="83.898" fill="#231F20" width="5.746" height="4.902"/>
		</g>
		<g>
			<rect x="449.716" y="83.898" fill="#231F20" width="5.747" height="4.902"/>
		</g>
	</g>
	<g>
		<g>
			<rect x="41.664" y="81.024" fill="#231F20" width="5.747" height="4.902"/>
		</g>
		<g>
			<rect x="53.159" y="81.024" fill="#231F20" width="5.746" height="4.902"/>
		</g>
		<g>
			<rect x="64.653" y="81.024" fill="#231F20" width="5.747" height="4.902"/>
		</g>
	</g>
	<g>
		<g>
			<rect x="64.653" y="216.083" fill="#231F20" width="5.747" height="4.902"/>
		</g>
		<g>
			<rect x="76.146" y="216.083" fill="#231F20" width="5.749" height="4.902"/>
		</g>
		<g>
			<rect x="87.642" y="216.083" fill="#231F20" width="5.748" height="4.902"/>
		</g>
	</g>
	<g>
		<g>
			<rect x="429.6" y="172.98" fill="#231F20" width="5.748" height="4.902"/>
		</g>
		<g>
			<rect x="441.095" y="172.98" fill="#231F20" width="5.747" height="4.902"/>
		</g>
		<g>
			<rect x="452.589" y="172.98" fill="#231F20" width="5.747" height="4.902"/>
		</g>
	</g>
</g>
</svg>
