<?xml version="1.0" encoding="utf-8"?>
<!-- Generator: Adobe Illustrator 16.0.0, SVG Export Plug-In . SVG Version: 6.00 Build 0)  -->
<!DOCTYPE svg PUBLIC "-//W3C//DTD SVG 1.1//EN" "http://www.w3.org/Graphics/SVG/1.1/DTD/svg11.dtd">
<svg version="1.1" id="Layer_1" xmlns="http://www.w3.org/2000/svg" xmlns:xlink="http://www.w3.org/1999/xlink" x="0px" y="0px"
	 width="650px" height="335px" viewBox="0 0 650 335" enable-background="new 0 0 650 335" xml:space="preserve">
<g>
	<path fill="#879099" d="M266.412,111.434h-33.891V90.521c0-1.213-0.98-2.194-2.195-2.194H122.799c-1.214,0-2.195,0.981-2.195,2.194
		v56.631l-10.202,9.059H90.375c-1.212,0-2.196,0.983-2.196,2.196c0,1.212,0.984,2.195,2.196,2.195h15.206
		c-1.83,2.055-2.832,4.648-2.832,7.416v84.967c0,2.998,1.166,5.813,3.283,7.926c0.002,0.002,0.002,0.004,0.004,0.006
		c0.002,0,0.002,0,0.002,0.002h0.002c0.001,0.002,0.001,0.002,0.003,0.004c2.113,2.113,4.929,3.275,7.925,3.275h124.814
		c3.006,0,5.829-1.174,7.951-3.307h0.002v-0.002c0.002,0,0.002,0,0.002,0h0.002c2.104-2.115,3.264-4.924,3.264-7.904v-84.967
		c0-3.107-1.262-6.004-3.551-8.159c-0.006-0.005-0.013-0.005-0.018-0.011c-0.011-0.01-0.019-0.023-0.027-0.03l-13.887-12.328
		v-31.663h33.891c1.214,0,2.196-0.983,2.196-2.196C268.608,112.418,267.625,111.434,266.412,111.434z"/>
	<path fill="#879099" d="M646.426,245.564V132.891c1.387,0,2.51-1.124,2.51-2.51c0-1.387-1.123-2.511-2.51-2.511h-19.619
		c-1.385,0-2.51,1.124-2.51,2.511v12.112l-144.158-25.715c-0.002,0-0.002,0-0.002,0l-21.91-3.904v-10.431
		c0-10.397-8.455-18.856-18.85-18.856h-29.699c-10.398,0-18.857,8.459-18.857,18.856v19.583h-85.151
		c-3.442,0-6.742,1.317-9.286,3.706c0,0,0,0.002-0.001,0.002l0,0c-2.771,2.606-4.297,6.113-4.297,9.875v107.242
		c0,3.629,1.413,7.041,3.977,9.607c0.002,0.002,0.006,0.004,0.007,0.004c2.565,2.563,5.975,3.975,9.601,3.975h85.151v18.324
		c0,10.395,8.459,18.854,18.857,18.854h29.699c10.395,0,18.85-8.459,18.85-18.854v-9.449l21.881-3.623l87.326-14.463v46.807
		c0,1.385,1.123,2.51,2.51,2.51h31.873c1.385,0,2.51-1.125,2.51-2.51v-52.916l19.971-3.309v10.268c0,1.387,1.125,2.51,2.51,2.51
		h19.619c1.387,0,2.51-1.123,2.51-2.51S647.813,245.564,646.426,245.564z"/>
	<g opacity="0.7">
		<g>
			<path fill="#FCF8F1" d="M99.839,56.339c-0.401,0-0.803-0.152-1.107-0.46c-1.064-1.063-1.648-2.476-1.648-3.979V13.648
				c0-1.563,0.631-3.019,1.779-4.096c0.588-0.549,1.492-0.567,2.099-0.042l23.605,20.374c0.329,0.283,0.525,0.694,0.542,1.129
				c0.016,0.436-0.15,0.859-0.459,1.167l-23.701,23.699C100.642,56.187,100.242,56.339,99.839,56.339z M100.289,13.073
				c-0.045,0.184-0.069,0.379-0.069,0.575V51.9c0,0.087,0.005,0.173,0.015,0.261l21.004-21.006L100.289,13.073z"/>
		</g>
		<g>
			<g>
				<path fill="#FCF8F1" d="M155.276,49.743c-0.405,0-0.81-0.156-1.116-0.467l-17.035-17.244c-0.307-0.309-0.469-0.729-0.451-1.165
					c0.016-0.435,0.213-0.841,0.542-1.124l17.035-14.705c0.655-0.564,1.647-0.493,2.212,0.162c0.566,0.658,0.494,1.647-0.161,2.214
					l-15.767,13.607l15.856,16.05c0.608,0.617,0.604,1.61-0.015,2.22C156.072,49.592,155.673,49.743,155.276,49.743z"/>
			</g>
			<g>
				<path fill="#FCF8F1" d="M177.787,57.53h-75.074c-1.503,0-2.916-0.586-3.98-1.65c-0.295-0.293-0.462-0.691-0.462-1.109
					c0-0.415,0.167-0.813,0.462-1.108l23.7-23.7c0.581-0.58,1.512-0.613,2.135-0.077l6.242,5.387l6.406-5.528
					c0.625-0.542,1.56-0.503,2.142,0.085l17.034,17.243c0.608,0.617,0.604,1.61-0.015,2.22c-0.615,0.608-1.608,0.602-2.217-0.015
					l-16.006-16.201l-6.321,5.456c-0.591,0.509-1.46,0.509-2.05,0l-6.164-5.321l-21.168,21.17c0.087,0.01,0.174,0.014,0.262,0.014
					h75.074c0.867,0,1.567,0.701,1.567,1.568S178.654,57.53,177.787,57.53z"/>
			</g>
			<g>
				<path fill="#FCF8F1" d="M130.809,38.913c-0.366,0-0.733-0.127-1.026-0.382L98.912,11.884c-0.336-0.292-0.533-0.71-0.543-1.154
					c-0.01-0.442,0.17-0.871,0.492-1.176c1.053-0.991,2.42-1.537,3.852-1.537h84.298c0.865,0,1.567,0.701,1.567,1.568
					c0,0.866-0.702,1.569-1.567,1.569h-84.143l27.941,24.116l23.441-20.233c0.655-0.564,1.647-0.493,2.212,0.162
					c0.566,0.658,0.494,1.647-0.161,2.214l-24.469,21.117C131.539,38.786,131.171,38.913,130.809,38.913z"/>
			</g>
			<g>
				<path fill="#FCF8F1" d="M138.241,32.497c-0.44,0-0.878-0.184-1.188-0.543c-0.256-0.296-0.381-0.662-0.381-1.024
					c0-0.44,0.186-0.877,0.544-1.187l17.035-14.705c0.655-0.564,1.647-0.493,2.212,0.162c0.258,0.297,0.381,0.661,0.381,1.025
					c0,0.439-0.184,0.878-0.542,1.188l-17.035,14.703C138.968,32.373,138.603,32.497,138.241,32.497z"/>
			</g>
			<g>
				<path fill="#FCF8F1" d="M130.809,38.913c-0.44,0-0.878-0.186-1.188-0.545c-0.256-0.296-0.381-0.66-0.381-1.023
					c0-0.44,0.186-0.879,0.543-1.188l7.433-6.413c0.656-0.566,1.646-0.495,2.212,0.161c0.256,0.298,0.381,0.661,0.381,1.025
					c0,0.439-0.186,0.878-0.542,1.188l-7.434,6.414C131.537,38.787,131.171,38.913,130.809,38.913z"/>
			</g>
		</g>
		<g>
			<path fill="#FCF8F1" d="M180.155,21.184h-19.296c-0.865,0-1.568-0.701-1.568-1.568c0-0.866,0.703-1.567,1.568-1.567h19.296
				c0.866,0,1.568,0.701,1.568,1.567C181.723,20.483,181.021,21.184,180.155,21.184z"/>
		</g>
		<g>
			<path fill="#FCF8F1" d="M196.988,30.631h-32.066c-0.867,0-1.57-0.701-1.57-1.566c0-0.867,0.703-1.57,1.57-1.57h32.066
				c0.865,0,1.567,0.703,1.567,1.57C198.555,29.93,197.853,30.631,196.988,30.631z"/>
		</g>
		<g>
			<path fill="#FCF8F1" d="M175.076,39.061H157.48c-0.869,0-1.569-0.703-1.569-1.568c0-0.866,0.7-1.568,1.569-1.568h17.596
				c0.868,0,1.568,0.702,1.568,1.568C176.644,38.358,175.944,39.061,175.076,39.061z"/>
		</g>
		<g>
			<path fill="#FCF8F1" d="M189.295,48.942h-23.019c-0.867,0-1.568-0.701-1.568-1.569c0-0.866,0.701-1.567,1.568-1.567h23.019
				c0.865,0,1.567,0.701,1.567,1.567C190.863,48.241,190.161,48.942,189.295,48.942z"/>
		</g>
	</g>
	<g opacity="0.7">
		<g>
			<path fill="#FCF8F1" d="M77.152,333.686c-0.4,0-0.803-0.152-1.109-0.459c-1.063-1.063-1.648-2.477-1.648-3.98v-38.252
				c0-1.563,0.634-3.018,1.781-4.096c0.586-0.549,1.49-0.566,2.098-0.043l23.604,20.373c0.329,0.287,0.526,0.695,0.542,1.131
				c0.018,0.438-0.15,0.859-0.459,1.166l-23.7,23.701C77.955,333.533,77.554,333.686,77.152,333.686z M77.599,290.418
				c-0.043,0.188-0.068,0.379-0.068,0.576v38.252c0,0.086,0.006,0.174,0.014,0.26l21.006-21.004L77.599,290.418z"/>
		</g>
		<g>
			<g>
				<path fill="#FCF8F1" d="M132.585,327.088c-0.403,0-0.808-0.154-1.115-0.467l-17.033-17.244c-0.306-0.309-0.469-0.73-0.453-1.164
					c0.019-0.434,0.215-0.842,0.543-1.125l17.035-14.705c0.656-0.564,1.646-0.492,2.212,0.164c0.567,0.656,0.493,1.646-0.162,2.213
					l-15.765,13.607l15.855,16.051c0.607,0.617,0.604,1.609-0.014,2.217C133.383,326.938,132.986,327.088,132.585,327.088z"/>
			</g>
			<g>
				<path fill="#FCF8F1" d="M155.099,334.877H80.025c-1.504,0-2.918-0.586-3.982-1.65c-0.294-0.295-0.459-0.693-0.459-1.107
					c0-0.418,0.165-0.816,0.459-1.109l23.701-23.701c0.582-0.58,1.514-0.615,2.134-0.08l6.241,5.389l6.408-5.529
					c0.627-0.541,1.561-0.504,2.141,0.086l17.035,17.244c0.607,0.617,0.604,1.609-0.014,2.217c-0.615,0.609-1.607,0.604-2.219-0.014
					l-16.002-16.199l-6.324,5.455c-0.588,0.51-1.46,0.51-2.051,0l-6.162-5.318l-21.17,21.166c0.088,0.01,0.174,0.016,0.264,0.016
					h75.074c0.865,0,1.566,0.699,1.566,1.566S155.964,334.877,155.099,334.877z"/>
			</g>
			<g>
				<path fill="#FCF8F1" d="M108.119,316.258c-0.363,0-0.729-0.127-1.025-0.381l-30.87-26.646c-0.335-0.291-0.533-0.709-0.543-1.154
					c-0.011-0.443,0.171-0.869,0.494-1.176c1.051-0.99,2.419-1.537,3.851-1.537h84.295c0.867,0,1.569,0.703,1.569,1.568
					s-0.702,1.568-1.569,1.568H80.179l27.939,24.117l23.443-20.234c0.656-0.564,1.646-0.492,2.212,0.164
					c0.567,0.656,0.493,1.646-0.162,2.213l-24.468,21.117C108.85,316.131,108.485,316.258,108.119,316.258z"/>
			</g>
			<g>
				<path fill="#FCF8F1" d="M115.552,309.844c-0.439,0-0.878-0.186-1.188-0.543c-0.257-0.297-0.381-0.662-0.381-1.025
					c0-0.439,0.185-0.879,0.543-1.188l17.035-14.705c0.656-0.564,1.646-0.492,2.212,0.164c0.257,0.297,0.382,0.662,0.382,1.023
					c0,0.441-0.186,0.877-0.544,1.189l-17.034,14.703C116.28,309.717,115.916,309.844,115.552,309.844z"/>
			</g>
			<g>
				<path fill="#FCF8F1" d="M108.121,316.258c-0.439,0-0.878-0.184-1.188-0.543c-0.256-0.297-0.382-0.66-0.382-1.025
					c0-0.439,0.185-0.877,0.543-1.188l7.434-6.414c0.656-0.564,1.646-0.492,2.213,0.164c0.256,0.295,0.381,0.66,0.381,1.023
					c0,0.439-0.186,0.877-0.543,1.188l-7.434,6.414C108.848,316.133,108.484,316.258,108.121,316.258z"/>
			</g>
		</g>
		<g>
			<path fill="#FCF8F1" d="M157.466,298.531h-19.293c-0.869,0-1.57-0.703-1.57-1.568c0-0.867,0.701-1.568,1.57-1.568h19.293
				c0.867,0,1.568,0.701,1.568,1.568C159.035,297.828,158.333,298.531,157.466,298.531z"/>
		</g>
		<g>
			<path fill="#FCF8F1" d="M174.298,307.98h-32.064c-0.867,0-1.57-0.703-1.57-1.572c0-0.865,0.703-1.566,1.57-1.566h32.064
				c0.865,0,1.568,0.701,1.568,1.566C175.867,307.277,175.164,307.98,174.298,307.98z"/>
		</g>
		<g>
			<path fill="#FCF8F1" d="M152.389,316.408h-17.599c-0.865,0-1.568-0.703-1.568-1.568c0-0.869,0.703-1.57,1.568-1.57h17.599
				c0.866,0,1.566,0.701,1.566,1.57C153.956,315.705,153.255,316.408,152.389,316.408z"/>
		</g>
		<g>
			<path fill="#FCF8F1" d="M166.605,326.289h-23.016c-0.867,0-1.568-0.703-1.568-1.568c0-0.867,0.701-1.57,1.568-1.57h23.016
				c0.867,0,1.57,0.703,1.57,1.57C168.175,325.586,167.472,326.289,166.605,326.289z"/>
		</g>
	</g>
	<g opacity="0.7">
		<g>
			<path fill="#FCF8F1" d="M324.888,84.276c-0.402,0-0.803-0.152-1.108-0.459c-1.063-1.063-1.647-2.477-1.647-3.98V41.584
				c0-1.563,0.631-3.018,1.779-4.096c0.586-0.551,1.493-0.566,2.1-0.043l23.604,20.375c0.33,0.285,0.525,0.693,0.541,1.129
				c0.018,0.436-0.148,0.859-0.457,1.166L326,83.817C325.692,84.124,325.291,84.276,324.888,84.276z M325.335,41.008
				c-0.043,0.186-0.067,0.379-0.067,0.576v38.252c0,0.088,0.005,0.174,0.015,0.26l21.004-21.004L325.335,41.008z"/>
		</g>
		<g>
			<g>
				<path fill="#FCF8F1" d="M380.324,77.678c-0.406,0-0.809-0.156-1.117-0.466l-17.035-17.245c-0.305-0.309-0.467-0.73-0.449-1.165
					c0.016-0.433,0.213-0.841,0.543-1.126l17.033-14.702c0.658-0.567,1.646-0.494,2.215,0.162c0.564,0.656,0.492,1.647-0.164,2.213
					l-15.766,13.608l15.857,16.05c0.607,0.617,0.602,1.609-0.014,2.219C381.121,77.528,380.721,77.678,380.324,77.678z"/>
			</g>
			<g>
				<path fill="#FCF8F1" d="M402.834,85.467h-75.072c-1.504,0-2.918-0.587-3.982-1.65c-0.295-0.293-0.46-0.693-0.46-1.108
					c0-0.417,0.165-0.815,0.46-1.11l23.701-23.699c0.582-0.583,1.512-0.615,2.135-0.078l6.242,5.387l6.408-5.531
					c0.625-0.537,1.561-0.501,2.141,0.086l17.035,17.245c0.607,0.617,0.602,1.609-0.014,2.219c-0.617,0.61-1.609,0.604-2.221-0.014
					l-16.004-16.2l-6.322,5.456c-0.588,0.508-1.461,0.508-2.049,0l-6.164-5.32l-21.17,21.168c0.088,0.009,0.174,0.013,0.264,0.013
					h75.072c0.869,0,1.57,0.703,1.57,1.568C404.404,84.763,403.703,85.467,402.834,85.467z"/>
			</g>
			<g>
				<path fill="#FCF8F1" d="M355.857,66.849c-0.365,0-0.73-0.127-1.025-0.381L323.96,39.82c-0.336-0.29-0.533-0.71-0.543-1.153
					c-0.011-0.444,0.17-0.871,0.492-1.175c1.053-0.993,2.422-1.538,3.852-1.538h84.297c0.865,0,1.568,0.702,1.568,1.568
					s-0.703,1.568-1.568,1.568h-84.141l27.939,24.117l23.441-20.233c0.654-0.567,1.646-0.494,2.215,0.162
					c0.564,0.656,0.492,1.647-0.164,2.213l-24.469,21.119C356.588,66.722,356.223,66.849,355.857,66.849z"/>
			</g>
			<g>
				<path fill="#FCF8F1" d="M363.291,60.434c-0.441,0-0.879-0.186-1.189-0.543c-0.254-0.297-0.381-0.662-0.381-1.025
					c0-0.441,0.184-0.877,0.545-1.189l17.033-14.702c0.658-0.567,1.646-0.494,2.215,0.162c0.254,0.297,0.379,0.661,0.379,1.025
					c0,0.438-0.184,0.877-0.543,1.188l-17.037,14.704C364.018,60.307,363.652,60.434,363.291,60.434z"/>
			</g>
			<g>
				<path fill="#FCF8F1" d="M355.857,66.849c-0.441,0-0.877-0.186-1.189-0.545c-0.254-0.295-0.379-0.661-0.379-1.024
					c0-0.44,0.184-0.877,0.543-1.188l7.434-6.416c0.654-0.566,1.645-0.49,2.213,0.163c0.254,0.298,0.379,0.663,0.379,1.026
					c0,0.441-0.184,0.877-0.545,1.188l-7.432,6.415C356.584,66.723,356.221,66.849,355.857,66.849z"/>
			</g>
		</g>
		<g>
			<path fill="#FCF8F1" d="M405.203,49.122H385.91c-0.867,0-1.568-0.703-1.568-1.567c0-0.868,0.701-1.571,1.568-1.571h19.293
				c0.867,0,1.57,0.703,1.57,1.571C406.773,48.418,406.07,49.122,405.203,49.122z"/>
		</g>
		<g>
			<path fill="#FCF8F1" d="M422.035,58.569h-32.064c-0.865,0-1.568-0.702-1.568-1.569c0-0.866,0.703-1.567,1.568-1.567h32.064
				c0.867,0,1.568,0.701,1.568,1.567C423.604,57.867,422.902,58.569,422.035,58.569z"/>
		</g>
		<g>
			<path fill="#FCF8F1" d="M400.125,66.997h-17.596c-0.867,0-1.57-0.701-1.57-1.566c0-0.867,0.703-1.57,1.57-1.57h17.596
				c0.867,0,1.57,0.703,1.57,1.57C401.695,66.295,400.992,66.997,400.125,66.997z"/>
		</g>
		<g>
			<path fill="#FCF8F1" d="M414.344,76.878h-23.018c-0.865,0-1.568-0.702-1.568-1.568s0.703-1.567,1.568-1.567h23.018
				c0.867,0,1.568,0.701,1.568,1.567S415.211,76.878,414.344,76.878z"/>
		</g>
	</g>
	<g opacity="0.7">
		<g>
			<path fill="#FCF8F1" d="M15.96,205.438c-0.402,0-0.803-0.154-1.109-0.459c-1.063-1.063-1.648-2.477-1.648-3.982v-38.251
				c0-1.563,0.633-3.017,1.781-4.094c0.586-0.548,1.488-0.568,2.099-0.045l23.604,20.375c0.328,0.285,0.524,0.695,0.541,1.131
				c0.018,0.438-0.148,0.859-0.459,1.166L17.07,204.979C16.763,205.283,16.361,205.438,15.96,205.438z M16.408,162.17
				c-0.045,0.186-0.067,0.378-0.067,0.574v38.251c0,0.088,0.005,0.176,0.013,0.262l21.004-21.004L16.408,162.17z"/>
		</g>
		<g>
			<g>
				<path fill="#FCF8F1" d="M71.397,198.842c-0.405,0-0.81-0.158-1.117-0.469l-17.034-17.244c-0.307-0.309-0.469-0.73-0.453-1.166
					c0.018-0.434,0.215-0.84,0.544-1.123l17.035-14.704c0.655-0.565,1.646-0.493,2.212,0.162s0.492,1.646-0.162,2.213
					l-15.766,13.606l15.855,16.053c0.609,0.617,0.604,1.609-0.014,2.217C72.192,198.689,71.794,198.842,71.397,198.842z"/>
			</g>
			<g>
				<path fill="#FCF8F1" d="M93.908,206.627H18.833c-1.504,0-2.918-0.586-3.98-1.648c-0.295-0.295-0.462-0.693-0.462-1.109
					s0.167-0.814,0.46-1.109l23.7-23.699c0.583-0.582,1.514-0.615,2.136-0.08l6.241,5.389l6.408-5.529
					c0.623-0.541,1.56-0.502,2.14,0.084l17.035,17.246c0.609,0.617,0.604,1.609-0.014,2.217c-0.615,0.609-1.608,0.604-2.218-0.014
					l-16.005-16.199l-6.323,5.455c-0.587,0.508-1.46,0.508-2.049,0l-6.163-5.32l-21.168,21.168c0.086,0.01,0.173,0.014,0.262,0.014
					h75.074c0.865,0,1.567,0.703,1.567,1.568C95.475,205.926,94.773,206.627,93.908,206.627z"/>
			</g>
			<g>
				<path fill="#FCF8F1" d="M46.928,188.01c-0.366,0-0.731-0.127-1.025-0.381l-30.872-26.648c-0.334-0.29-0.531-0.708-0.541-1.152
					s0.168-0.871,0.492-1.176c1.053-0.992,2.42-1.538,3.852-1.538h84.296c0.867,0,1.567,0.703,1.567,1.569
					c0,0.865-0.7,1.568-1.567,1.568H18.988l27.94,24.117l23.443-20.233c0.655-0.565,1.646-0.493,2.212,0.162
					s0.492,1.646-0.162,2.213l-24.47,21.118C47.658,187.883,47.292,188.01,46.928,188.01z"/>
			</g>
			<g>
				<path fill="#FCF8F1" d="M54.36,181.596c-0.438,0-0.876-0.186-1.187-0.543c-0.256-0.297-0.381-0.662-0.381-1.025
					c0-0.441,0.186-0.879,0.544-1.188l17.035-14.704c0.655-0.565,1.646-0.493,2.212,0.162c0.256,0.297,0.381,0.662,0.381,1.023
					c0,0.441-0.186,0.878-0.543,1.189l-17.036,14.704C55.089,181.469,54.724,181.596,54.36,181.596z"/>
			</g>
			<g>
				<path fill="#FCF8F1" d="M46.928,188.01c-0.44,0-0.878-0.184-1.188-0.543c-0.256-0.297-0.379-0.662-0.379-1.025
					c0-0.439,0.184-0.877,0.542-1.188l7.434-6.414c0.655-0.566,1.646-0.492,2.212,0.162c0.256,0.295,0.38,0.662,0.38,1.025
					c0,0.439-0.185,0.877-0.543,1.188l-7.434,6.414C47.658,187.885,47.291,188.01,46.928,188.01z"/>
			</g>
		</g>
		<g>
			<path fill="#FCF8F1" d="M96.276,170.283H76.98c-0.866,0-1.57-0.703-1.57-1.57c0-0.865,0.704-1.568,1.57-1.568h19.296
				c0.864,0,1.568,0.703,1.568,1.568C97.844,169.58,97.14,170.283,96.276,170.283z"/>
		</g>
		<g>
			<path fill="#FCF8F1" d="M113.107,179.73H81.041c-0.865,0-1.568-0.701-1.568-1.568s0.703-1.568,1.568-1.568h32.066
				c0.867,0,1.567,0.701,1.567,1.568S113.974,179.73,113.107,179.73z"/>
		</g>
		<g>
			<path fill="#FCF8F1" d="M91.197,188.158H73.599c-0.867,0-1.567-0.701-1.567-1.568c0-0.865,0.7-1.568,1.567-1.568h17.598
				c0.866,0,1.568,0.703,1.568,1.568C92.765,187.457,92.063,188.158,91.197,188.158z"/>
		</g>
		<g>
			<path fill="#FCF8F1" d="M105.415,198.039H82.398c-0.867,0-1.568-0.701-1.568-1.568c0-0.865,0.701-1.568,1.568-1.568h23.017
				c0.867,0,1.567,0.703,1.567,1.568C106.982,197.338,106.282,198.039,105.415,198.039z"/>
		</g>
	</g>
	<g opacity="0.7">
		<g>
			<path fill="#FCF8F1" d="M233.959,287.068c-0.4,0-0.801-0.152-1.108-0.459c-1.063-1.063-1.648-2.477-1.648-3.98v-38.252
				c0-1.563,0.633-3.018,1.781-4.094c0.586-0.553,1.492-0.57,2.098-0.045l23.604,20.375c0.332,0.285,0.527,0.693,0.543,1.129
				c0.016,0.438-0.149,0.859-0.458,1.168l-23.7,23.699C234.761,286.916,234.363,287.068,233.959,287.068z M234.408,243.801
				c-0.045,0.186-0.066,0.379-0.066,0.576v38.252c0,0.088,0.004,0.176,0.013,0.262l21.005-21.006L234.408,243.801z"/>
		</g>
		<g>
			<g>
				<path fill="#FCF8F1" d="M289.396,280.471c-0.404,0-0.809-0.154-1.117-0.465l-17.035-17.246c-0.305-0.309-0.468-0.73-0.451-1.164
					c0.018-0.434,0.214-0.842,0.543-1.125l17.037-14.703c0.654-0.568,1.645-0.494,2.21,0.162c0.567,0.656,0.494,1.646-0.163,2.213
					l-15.764,13.607l15.855,16.053c0.609,0.613,0.602,1.607-0.013,2.217C290.192,280.32,289.794,280.471,289.396,280.471z"/>
			</g>
			<g>
				<path fill="#FCF8F1" d="M311.906,288.258h-75.074c-1.502,0-2.916-0.584-3.98-1.646c-0.294-0.295-0.459-0.695-0.459-1.109
					c0-0.416,0.165-0.816,0.459-1.111l23.701-23.699c0.58-0.582,1.512-0.613,2.133-0.078l6.244,5.389l6.406-5.531
					c0.627-0.539,1.562-0.502,2.141,0.086l17.035,17.246c0.609,0.613,0.602,1.607-0.013,2.217c-0.618,0.607-1.608,0.604-2.22-0.014
					l-16.004-16.203l-6.322,5.457c-0.588,0.51-1.461,0.51-2.049,0l-6.165-5.318l-21.167,21.166c0.086,0.012,0.174,0.016,0.26,0.016
					h75.074c0.866,0,1.57,0.701,1.57,1.568C313.476,287.557,312.772,288.258,311.906,288.258z"/>
			</g>
			<g>
				<path fill="#FCF8F1" d="M264.929,269.641c-0.365,0-0.731-0.125-1.025-0.381l-30.871-26.646
					c-0.337-0.289-0.535-0.709-0.543-1.152c-0.012-0.445,0.17-0.873,0.491-1.178c1.054-0.99,2.421-1.537,3.851-1.537h84.297
					c0.867,0,1.569,0.701,1.569,1.57c0,0.865-0.702,1.566-1.569,1.566h-84.14l27.94,24.119l23.443-20.234
					c0.652-0.568,1.645-0.494,2.21,0.162c0.567,0.656,0.494,1.646-0.163,2.213l-24.467,21.117
					C265.659,269.516,265.292,269.641,264.929,269.641z"/>
			</g>
			<g>
				<path fill="#FCF8F1" d="M272.363,263.227c-0.442,0-0.881-0.184-1.19-0.543c-0.256-0.297-0.38-0.66-0.38-1.025
					c0-0.439,0.184-0.877,0.543-1.188l17.037-14.703c0.654-0.568,1.645-0.494,2.21,0.162c0.256,0.297,0.383,0.662,0.383,1.025
					c0,0.439-0.186,0.877-0.546,1.188l-17.035,14.703C273.087,263.102,272.723,263.227,272.363,263.227z"/>
			</g>
			<g>
				<path fill="#FCF8F1" d="M264.929,269.641c-0.44,0-0.879-0.182-1.188-0.543c-0.256-0.297-0.382-0.662-0.382-1.025
					c0-0.439,0.185-0.877,0.545-1.188l7.432-6.414c0.656-0.566,1.648-0.492,2.212,0.162c0.257,0.297,0.382,0.662,0.382,1.025
					c0,0.439-0.185,0.879-0.545,1.188l-7.432,6.414C265.656,269.516,265.292,269.641,264.929,269.641z"/>
			</g>
		</g>
		<g>
			<path fill="#FCF8F1" d="M314.275,251.914H294.98c-0.867,0-1.569-0.701-1.569-1.568s0.702-1.568,1.569-1.568h19.295
				c0.866,0,1.568,0.701,1.568,1.568S315.141,251.914,314.275,251.914z"/>
		</g>
		<g>
			<path fill="#FCF8F1" d="M331.107,261.363h-32.067c-0.865,0-1.569-0.703-1.569-1.568c0-0.867,0.704-1.57,1.569-1.57h32.067
				c0.867,0,1.568,0.703,1.568,1.57C332.676,260.66,331.975,261.363,331.107,261.363z"/>
		</g>
		<g>
			<path fill="#FCF8F1" d="M309.197,269.791h-17.598c-0.866,0-1.568-0.703-1.568-1.568c0-0.867,0.702-1.568,1.568-1.568h17.598
				c0.865,0,1.568,0.701,1.568,1.568C310.765,269.088,310.062,269.791,309.197,269.791z"/>
		</g>
		<g>
			<path fill="#FCF8F1" d="M323.414,279.67h-23.015c-0.867,0-1.569-0.701-1.569-1.566c0-0.867,0.702-1.568,1.569-1.568h23.015
				c0.867,0,1.569,0.701,1.569,1.568C324.983,278.969,324.281,279.67,323.414,279.67z"/>
		</g>
	</g>
	<g>
		<g>
			<path fill="#FBCC66" d="M464.713,123.381c0-3.272-1.396-6.202-3.605-8.277l-65.723,56.728l66.012,66.818
				c2.049-2.057,3.316-4.891,3.316-8.029V123.381z"/>
			<path fill="#52425F" d="M461.396,240.846c0,0-0.002,0-0.004,0c-0.586,0-1.146-0.234-1.559-0.65l-66.01-66.82
				c-0.428-0.432-0.654-1.023-0.633-1.631c0.025-0.607,0.299-1.178,0.76-1.574l65.723-56.728c0.85-0.736,2.119-0.709,2.938,0.062
				c2.771,2.606,4.299,6.115,4.299,9.878v107.24c0,3.615-1.406,7.018-3.957,9.58C462.539,240.613,461.98,240.846,461.396,240.846z
				 M398.6,171.961l62.615,63.381c0.85-1.41,1.303-3.031,1.303-4.721v-107.24c0-1.881-0.568-3.67-1.627-5.189L398.6,171.961z"/>
		</g>
		<g>
			<path fill="#FBCC66" d="M288,115.104c-2.207,2.075-3.605,5.005-3.605,8.277v107.24c0,3.148,1.277,5.996,3.336,8.057
				l66.452-66.449L288,115.104z"/>
			<path fill="#52425F" d="M287.73,240.873L287.73,240.873c-0.582,0-1.14-0.232-1.553-0.645c-2.566-2.566-3.979-5.979-3.979-9.607
				v-107.24c0-3.763,1.525-7.271,4.296-9.877c0.821-0.771,2.09-0.798,2.94-0.063l66.18,57.123c0.463,0.4,0.738,0.973,0.76,1.582
				c0.023,0.609-0.211,1.201-0.643,1.633l-66.448,66.449C288.871,240.641,288.314,240.873,287.73,240.873z M288.217,118.192
				c-1.06,1.521-1.627,3.309-1.627,5.189v107.24c0,1.705,0.462,3.342,1.327,4.764l63.04-63.039L288.217,118.192z"/>
		</g>
		<g>
			<path fill="#FBCC66" d="M374.555,189.814l-20.373-17.586l-66.452,66.449c2.063,2.059,4.908,3.334,8.055,3.334h157.542
				c3.154,0,6.008-1.285,8.07-3.361l-66.012-66.818L374.555,189.814z"/>
			<path fill="#52425F" d="M453.326,244.207H295.785c-3.63,0-7.043-1.414-9.606-3.977c-0.413-0.412-0.645-0.971-0.645-1.553
				s0.231-1.143,0.645-1.553l66.451-66.451c0.813-0.813,2.115-0.861,2.986-0.109l18.939,16.35l19.396-16.744
				c0.873-0.756,2.186-0.703,2.998,0.119l66.01,66.818c0.846,0.857,0.844,2.238-0.006,3.094
				C460.383,242.785,456.965,244.207,453.326,244.207z M291.022,238.49c1.422,0.863,3.056,1.324,4.763,1.324h157.542
				c1.719,0,3.367-0.471,4.799-1.35l-62.857-63.629l-19.277,16.643c-0.824,0.711-2.047,0.711-2.871,0l-18.828-16.256L291.022,238.49
				z"/>
		</g>
		<g>
			<path fill="#FFDB6B" d="M374.555,189.814l86.553-74.71c-2.037-1.916-4.762-3.112-7.781-3.112H295.785
				c-3.018,0-5.745,1.196-7.785,3.112L374.555,189.814z"/>
			<path fill="#52425F" d="M374.555,192.012c-0.51,0-1.023-0.178-1.436-0.533l-86.555-74.713c-0.47-0.406-0.747-0.993-0.76-1.615
				c-0.012-0.622,0.238-1.221,0.69-1.647c2.546-2.389,5.843-3.707,9.29-3.707h157.542c3.443,0,6.742,1.318,9.285,3.708
				c0.453,0.426,0.705,1.024,0.691,1.646s-0.289,1.21-0.762,1.615l-86.551,74.713C375.578,191.834,375.066,192.012,374.555,192.012z
				 M291.531,115.251l83.024,71.663l83.021-71.665c-1.305-0.692-2.758-1.062-4.25-1.062H295.785
				C294.291,114.188,292.838,114.557,291.531,115.251z"/>
		</g>
	</g>
	<g>
		<g>
			<path fill="#60506A" d="M429.488,278.875c9.025,0,16.342-7.318,16.342-16.344V90.213c0-9.029-7.316-16.347-16.342-16.347h-29.699
				c-9.027,0-16.346,7.317-16.346,16.347v172.318c0,9.025,7.318,16.344,16.346,16.344H429.488z"/>
			<path fill="#52425F" d="M429.488,281.385h-29.699c-10.396,0-18.855-8.457-18.855-18.854V90.213
				c0-10.397,8.459-18.856,18.855-18.856h29.699c10.396,0,18.852,8.459,18.852,18.856v172.318
				C448.34,272.928,439.885,281.385,429.488,281.385z M399.789,76.377c-7.629,0-13.836,6.206-13.836,13.836v172.318
				c0,7.629,6.207,13.834,13.836,13.834h29.699c7.627,0,13.834-6.205,13.834-13.834V90.213c0-7.63-6.207-13.836-13.834-13.836
				H399.789z"/>
		</g>
		<g>
			<g>
				<polygon fill="#FFD755" points="445.83,102.747 445.83,250.953 469.809,246.982 469.809,107.019 				"/>
				<path fill="#52425F" d="M445.83,253.465c-0.59,0-1.166-0.209-1.623-0.598c-0.561-0.477-0.885-1.176-0.885-1.914V102.747
					c0-0.742,0.326-1.448,0.896-1.924c0.57-0.477,1.33-0.678,2.053-0.549l23.979,4.275c1.197,0.213,2.068,1.254,2.068,2.47v139.963
					c0,1.229-0.889,2.277-2.098,2.477l-23.979,3.971C446.104,253.453,445.967,253.465,445.83,253.465z M448.34,105.743v142.251
					l18.959-3.139V109.123L448.34,105.743z"/>
			</g>
			<g>
				<polygon fill="#626B7B" points="469.809,246.982 616.918,222.619 616.918,133.259 469.809,107.019 				"/>
				<path fill="#52425F" d="M469.809,249.494c-0.59,0-1.166-0.211-1.623-0.598c-0.561-0.477-0.887-1.176-0.887-1.914V107.019
					c0-0.741,0.33-1.446,0.9-1.924s1.32-0.677,2.053-0.546l147.109,26.239c1.197,0.214,2.068,1.256,2.068,2.471v89.36
					c0,1.227-0.889,2.273-2.1,2.475l-147.109,24.365C470.084,249.482,469.945,249.494,469.809,249.494z M472.318,110.017v134.006
					L614.41,220.49v-85.128L472.318,110.017z"/>
			</g>
		</g>
		<g>
			<g>
				<path fill="#FFD755" d="M351.023,176.369c0,17.908,14.512,32.424,32.42,32.424v-64.841
					C365.535,143.952,351.023,158.465,351.023,176.369z"/>
				<path fill="#52425F" d="M383.443,211.303c-19.26,0-34.93-15.672-34.93-34.934c0-19.259,15.67-34.927,34.93-34.927
					c1.387,0,2.51,1.123,2.51,2.51v64.841C385.953,210.178,384.83,211.303,383.443,211.303z M380.934,146.565
					c-15.322,1.279-27.4,14.158-27.4,29.804c0,15.648,12.078,28.529,27.4,29.809V146.565z"/>
			</g>
		</g>
		<g>
			<polyline fill="#855C72" points="636.539,235.846 616.918,235.846 616.918,118.15 636.539,118.15 			"/>
			<path fill="#52425F" d="M636.539,238.355h-19.621c-1.383,0-2.508-1.123-2.508-2.51V118.15c0-1.385,1.125-2.508,2.508-2.508
				h19.621c1.387,0,2.51,1.123,2.51,2.508c0,1.388-1.123,2.511-2.51,2.511H619.43v112.673h17.109c1.387,0,2.51,1.127,2.51,2.512
				C639.049,237.232,637.926,238.355,636.539,238.355z"/>
		</g>
		<g>
			<g>
				<polygon fill="#60506A" points="560.057,232.037 560.057,281.803 591.93,281.803 591.93,226.758 				"/>
				<path fill="#52425F" d="M591.93,284.313h-31.873c-1.387,0-2.51-1.123-2.51-2.51v-49.766c0-1.229,0.887-2.275,2.1-2.477
					l31.871-5.277c0.732-0.121,1.473,0.084,2.035,0.561c0.561,0.479,0.885,1.178,0.885,1.914v55.045
					C594.438,283.189,593.314,284.313,591.93,284.313z M562.566,279.293h26.852v-49.574l-26.852,4.447V279.293z"/>
			</g>
		</g>
	</g>
	<g>
		<g>
			<g>
				<polygon fill="#F3F4F4" points="166.191,209.715 182.701,195.471 220.142,163.148 220.142,137.542 220.142,79.587 
					112.617,79.587 112.617,137.206 112.617,163.474 150.049,195.783 				"/>
				<path fill="#52425F" d="M166.191,211.91c-0.513,0-1.022-0.176-1.436-0.533l-53.574-46.241c-0.484-0.417-0.762-1.024-0.762-1.662
					V79.587c0-1.212,0.984-2.196,2.197-2.196h107.525c1.213,0,2.197,0.984,2.197,2.196v83.561c0,0.639-0.28,1.245-0.762,1.662
					l-53.952,46.569C167.214,211.734,166.703,211.91,166.191,211.91z M114.812,162.469l51.379,44.345l51.755-44.671v-80.36H114.812
					V162.469z"/>
			</g>
			<g>
				<path fill="#60506A" d="M234.763,150.525l-52.063,44.946l52.295,52.938c1.623-1.631,2.627-3.879,2.627-6.359v-84.964
					C237.623,154.488,236.513,152.169,234.763,150.525z"/>
				<path fill="#52425F" d="M234.996,250.602c-0.002,0-0.004,0-0.006,0c-0.585,0-1.145-0.234-1.556-0.65l-52.296-52.936
					c-0.428-0.434-0.656-1.025-0.633-1.633c0.025-0.607,0.299-1.178,0.76-1.574l52.063-44.946c0.85-0.736,2.12-0.708,2.94,0.063
					c2.289,2.153,3.55,5.052,3.55,8.159v84.964c0,2.984-1.161,5.793-3.267,7.908C236.14,250.371,235.58,250.602,234.996,250.602z
					 M185.914,195.598l48.832,49.43c0.445-0.916,0.682-1.93,0.682-2.979v-84.964c0-1.224-0.325-2.394-0.934-3.424L185.914,195.598z"
					/>
			</g>
			<g>
				<path fill="#60506A" d="M97.617,150.525c-1.748,1.645-2.854,3.963-2.854,6.56v84.964c0,2.49,1.006,4.75,2.645,6.381
					l52.642-52.646L97.617,150.525z"/>
				<path fill="#52425F" d="M97.408,250.625c-0.562,0-1.123-0.213-1.551-0.641c-2.121-2.113-3.289-4.932-3.289-7.936v-84.964
					c0-3.109,1.258-6.008,3.543-8.157c0.818-0.772,2.088-0.799,2.939-0.064l52.434,45.258c0.463,0.398,0.736,0.971,0.761,1.58
					c0.022,0.611-0.21,1.203-0.642,1.633L98.959,249.98C98.531,250.41,97.968,250.625,97.408,250.625z M97.888,153.662
					c-0.605,1.029-0.929,2.199-0.929,3.423v84.964c0,1.068,0.241,2.096,0.7,3.021l49.166-49.168L97.888,153.662z"/>
			</g>
			<g>
				<path fill="#60506A" d="M166.191,209.715l-16.142-13.932L97.408,248.43c1.629,1.631,3.883,2.641,6.375,2.641H228.6
					c2.501,0,4.759-1.018,6.396-2.662l-52.295-52.938L166.191,209.715z"/>
				<path fill="#52425F" d="M228.6,253.266H103.783c-2.998,0-5.814-1.168-7.93-3.285c-0.857-0.857-0.855-2.246,0-3.105
					l52.643-52.645c0.814-0.814,2.117-0.863,2.988-0.109l14.707,12.693l15.074-13.006c0.875-0.756,2.182-0.705,2.998,0.119
					l52.296,52.936c0.847,0.857,0.843,2.236-0.005,3.092C234.431,252.09,231.606,253.266,228.6,253.266z M100.767,248.176
					c0.926,0.455,1.951,0.697,3.016,0.697H228.6c1.079,0,2.119-0.25,3.059-0.721l-49.079-49.678l-14.954,12.902
					c-0.825,0.713-2.046,0.713-2.87,0l-14.596-12.598L100.767,248.176z"/>
			</g>
			<g>
				<polygon fill="#855C72" points="112.617,137.206 97.617,150.525 112.617,163.474 				"/>
				<path fill="#52425F" d="M112.617,165.67c-0.516,0-1.028-0.184-1.436-0.534l-15-12.948c-0.479-0.414-0.758-1.015-0.762-1.647
					c-0.003-0.634,0.266-1.237,0.739-1.657l14.999-13.321c0.646-0.573,1.57-0.716,2.359-0.36c0.788,0.355,1.295,1.138,1.295,2.004
					v26.269c0,0.859-0.5,1.638-1.281,1.996C113.238,165.604,112.925,165.67,112.617,165.67z M100.951,150.502l9.469,8.176v-16.586
					L100.951,150.502z"/>
			</g>
			<g>
				<polygon fill="#855C72" points="234.763,150.525 220.142,137.542 220.142,163.148 				"/>
				<path fill="#52425F" d="M220.142,165.344c-0.31,0-0.621-0.065-0.914-0.199c-0.779-0.359-1.282-1.138-1.282-1.997v-25.605
					c0-0.863,0.507-1.649,1.296-2.002c0.787-0.354,1.711-0.216,2.358,0.36l14.622,12.982c0.474,0.42,0.744,1.023,0.738,1.657
					c-0.006,0.633-0.283,1.233-0.762,1.647l-14.621,12.622C221.171,165.162,220.66,165.344,220.142,165.344z M222.339,142.43v15.92
					l9.091-7.848L222.339,142.43z"/>
			</g>
		</g>
		<g>
			<path fill="#FFD755" d="M124.652,129.988c0,2.493,2.021,4.512,4.516,4.512h34.766c2.491,0,4.512-2.019,4.512-4.512V98.186
				c0-2.489-2.021-4.512-4.512-4.512h-34.766c-2.494,0-4.516,2.022-4.516,4.512V129.988z"/>
			<path fill="#52425F" d="M163.933,136.696h-34.766c-3.701,0-6.711-3.008-6.711-6.708V98.186c0-3.698,3.01-6.707,6.711-6.707
				h34.766c3.698,0,6.707,3.009,6.707,6.707v31.802C170.64,133.688,167.631,136.696,163.933,136.696z M129.167,95.87
				c-1.278,0-2.318,1.04-2.318,2.316v31.802c0,1.278,1.04,2.316,2.318,2.316h34.766c1.275,0,2.315-1.038,2.315-2.316V98.186
				c0-1.276-1.04-2.316-2.315-2.316H129.167z"/>
		</g>
		<g>
			<path fill="#52425F" d="M207.919,149.668H80.193c-1.213,0-2.196-0.983-2.196-2.195c0-1.213,0.983-2.197,2.196-2.197h127.727
				c1.213,0,2.196,0.984,2.196,2.197C210.116,148.685,209.132,149.668,207.919,149.668z"/>
		</g>
		<g>
			<path fill="#52425F" d="M192.841,167.527h-49.774c-1.214,0-2.195-0.983-2.195-2.195c0-1.214,0.981-2.196,2.195-2.196h49.774
				c1.213,0,2.195,0.982,2.195,2.196C195.037,166.543,194.054,167.527,192.841,167.527z"/>
		</g>
		<g>
			<path fill="#52425F" d="M256.228,104.894h-75.941c-1.213,0-2.196-0.984-2.196-2.196c0-1.213,0.983-2.195,2.196-2.195h75.941
				c1.215,0,2.196,0.982,2.196,2.195C258.424,103.91,257.443,104.894,256.228,104.894z"/>
		</g>
		<g>
			<path fill="#52425F" d="M210.163,124.656h-29.876c-1.213,0-2.196-0.983-2.196-2.196c0-1.212,0.983-2.196,2.196-2.196h29.876
				c1.212,0,2.196,0.984,2.196,2.196C212.359,123.672,211.375,124.656,210.163,124.656z"/>
		</g>
	</g>
	<g>
		<path fill="#FCF8F1" d="M55.974,77.678H6.205c-0.867,0-1.57-0.701-1.57-1.568c0-0.865,0.703-1.567,1.57-1.567h49.77
			c0.866,0,1.568,0.702,1.568,1.567C57.542,76.977,56.84,77.678,55.974,77.678z"/>
	</g>
	<g>
		<path fill="#FCF8F1" d="M77.512,77.678h-12.53c-0.865,0-1.568-0.701-1.568-1.568c0-0.865,0.703-1.567,1.568-1.567h12.53
			c0.865,0,1.569,0.702,1.569,1.567C79.082,76.977,78.377,77.678,77.512,77.678z"/>
	</g>
	<g>
		<path fill="#FCF8F1" d="M281.92,321.537h-20.829c-0.867,0-1.57-0.701-1.57-1.568s0.703-1.568,1.57-1.568h20.829
			c0.867,0,1.569,0.701,1.569,1.568S282.788,321.537,281.92,321.537z"/>
	</g>
	<g>
		<path fill="#FCF8F1" d="M303.196,321.537h-12.529c-0.866,0-1.568-0.701-1.568-1.568s0.702-1.568,1.568-1.568h12.529
			c0.866,0,1.568,0.701,1.568,1.568S304.062,321.537,303.196,321.537z"/>
	</g>
	<g>
		<path fill="#FCF8F1" d="M272.321,3.261H251.49c-0.866,0-1.568-0.702-1.568-1.569s0.702-1.568,1.568-1.568h20.831
			c0.864,0,1.568,0.701,1.568,1.568S273.185,3.261,272.321,3.261z"/>
	</g>
	<g>
		<path fill="#FCF8F1" d="M335.965,3.261h-54.9c-0.866,0-1.569-0.702-1.569-1.569s0.703-1.568,1.569-1.568h54.9
			c0.865,0,1.568,0.701,1.568,1.568S336.83,3.261,335.965,3.261z"/>
	</g>
	<g>
		<path fill="#FCF8F1" d="M54.556,273.555h-6.293c-0.865,0-1.567-0.701-1.567-1.568s0.702-1.568,1.567-1.568h6.293
			c0.867,0,1.569,0.701,1.569,1.568S55.423,273.555,54.556,273.555z"/>
	</g>
	<g>
		<path fill="#FCF8F1" d="M118.2,273.156H63.301c-0.866,0-1.568-0.703-1.568-1.57s0.702-1.568,1.568-1.568H118.2
			c0.868,0,1.569,0.701,1.569,1.568S119.068,273.156,118.2,273.156z"/>
	</g>
	<g>
		<path fill="#FCF8F1" d="M256.228,66.997h-15.361c-0.865,0-1.568-0.701-1.568-1.566c0-0.867,0.703-1.57,1.568-1.57h15.361
			c0.867,0,1.569,0.703,1.569,1.57C257.797,66.295,257.095,66.997,256.228,66.997z"/>
	</g>
	<g>
		<path fill="#FCF8F1" d="M284.394,77.678h-28.166c-0.865,0-1.568-0.701-1.568-1.568c0-0.865,0.703-1.567,1.568-1.567h28.166
			c0.867,0,1.568,0.702,1.568,1.567C285.962,76.977,285.261,77.678,284.394,77.678z"/>
	</g>
	<g>
		<path fill="#FCF8F1" d="M10.201,224.838H2.634c-0.867,0-1.57-0.703-1.57-1.568c0-0.867,0.703-1.568,1.57-1.568h7.566
			c0.867,0,1.568,0.701,1.568,1.568C11.769,224.135,11.068,224.838,10.201,224.838z"/>
	</g>
	<g>
		<path fill="#FCF8F1" d="M43.486,237.414H6.205c-0.867,0-1.57-0.701-1.57-1.568s0.703-1.568,1.57-1.568h37.281
			c0.864,0,1.566,0.701,1.566,1.568S44.35,237.414,43.486,237.414z"/>
	</g>
</g>
</svg>
