<?xml version="1.0" encoding="utf-8"?>
<!-- Generator: Adobe Illustrator 16.0.0, SVG Export Plug-In . SVG Version: 6.00 Build 0)  -->
<!DOCTYPE svg PUBLIC "-//W3C//DTD SVG 1.1//EN" "http://www.w3.org/Graphics/SVG/1.1/DTD/svg11.dtd">
<svg version="1.1" id="Layer_1" xmlns="http://www.w3.org/2000/svg" xmlns:xlink="http://www.w3.org/1999/xlink" x="0px" y="0px"
	 width="46px" height="46px" viewBox="77 0 46 46" enable-background="new 77 0 46 46" xml:space="preserve">
<g>
	<g>
		<circle fill="#EF4137" cx="100" cy="22.944" r="22.694"/>
	</g>
	<g>
		<polygon fill="#FFFFFF" points="92.618,36.066 94.16,37.422 93.121,34.383 93.294,32.746 95.971,33.706 98.364,34.305 
			95.026,39.012 97.971,36.666 99.971,38.9 100.269,39.563 100.71,38.665 102.584,36.539 104.394,38.57 104.708,39.609 
			104.82,38.352 104.236,35.5 105.354,33.77 109.054,32.557 107.873,36.398 108.976,35.596 108.976,37.105 105.213,42.035 
			103.843,42.035 102.127,41.217 100.306,41.805 98.982,41.258 99.13,40.188 100.242,40.796 101.271,40.313 102.929,40.313 
			104.293,41.025 103.664,40.02 101.712,39.391 100.369,40.104 99.004,39.182 97.178,39.369 96.863,38.781 96.107,39.62 
			96.149,40.209 95.016,41.3 93.356,39.494 		"/>
	</g>
	<g>
		<polygon fill="#FFFFFF" points="100.223,33.239 100.747,34.078 100.788,36.409 101.502,35.632 102.069,36.305 100.326,38.066 
			98.417,36.557 98.919,36.052 99.78,36.518 99.824,33.977 		"/>
	</g>
	<g>
		<polygon fill="#FFFFFF" points="96.05,42.113 97.373,40.854 97.891,41.546 96.664,42.854 		"/>
	</g>
	<g>
		<polygon fill="#FFFFFF" points="97.686,43.563 99.151,41.814 102.488,43.262 101.938,44.286 100.537,43.342 99.875,44.507 
			98.552,44.521 		"/>
	</g>
	<g>
		<g>
			<polygon fill="#EF4137" points="91.714,44.659 92.716,43.743 93.442,44.547 92.423,45.613 			"/>
		</g>
		<g>
			<g>
				<path fill="#FFFFFF" d="M92.71,43.868l0.611,0.678l-0.891,0.931l-0.6-0.807L92.71,43.868 M92.722,43.618l-1.127,1.028
					l0.819,1.104l1.147-1.201L92.722,43.618L92.722,43.618z"/>
			</g>
		</g>
	</g>
	<g>
		<polygon fill="#FFFFFF" points="97.041,39.673 92.722,43.618 93.562,44.549 97.953,39.956 		"/>
	</g>
	<g>
		<path fill="#FFFFFF" d="M82.925,20.791c0,0-0.125,6.382,7.852,9.068c7.976,2.687,23.678,1.301,26.699-8.606l-1.258,1.091
			c0,0-1.133-1.175-6.004-0.881c0,0-2.394,2.855-10.243,3.232c-7.852,0.378-11.295-4.24-11.295-4.24S86.116,19.783,82.925,20.791z"
			/>
	</g>
	<g>
		<path fill="#FFFFFF" d="M89.643,16.299c0,0,2.016,3.022,10.201,3.085c8.45,0.065,11.083-3.338,11.083-3.338l0.085-4.576
			c0,0,0.124-4.996-5.543-5.122c-1.553,0.126-5.585,0.629-3.988,1.47l-5.332-1.302c0,0-6.507-0.755-6.507,4.787
			C89.643,14.956,89.643,16.299,89.643,16.299z"/>
	</g>
	<g>
		<path fill="#FFFFFF" d="M94.45,19.385c0,0,1.488,0.735,4.743,0.714c0,0-1.028,0.251-1.448,0.356c0,0,0.629,0.252,1.848,0.294
			c0,0-1.785,0.503-2.435,0.44c0,0,1.302,0.756,2.603,0.966c0,0-1.238,0.167-2.456-0.042c0,0,0.587,0.819,1.533,0.819
			c0,0-0.335,0.334-1.47,0.23c0,0,0.84,0.566,1.597,0.587c0,0-3.254,0.295-5.374-0.735c0,0,0.817,0,1.343-0.083
			c0,0-1.008-0.294-1.092-0.505c0,0,1.133,0.314,1.868,0c0,0-1.722-0.042-2.182-0.692c0,0,2.099,0.126,2.141-0.252
			c0,0-1.722,0-2.141-0.461c0,0,1.342,0,1.973-0.294c0,0-1.659-0.231-2.079-0.777c0,0,1.197,0.294,2.016,0.21
			C95.437,20.162,94.428,19.636,94.45,19.385z"/>
	</g>
</g>
</svg>
