<?xml version="1.0" encoding="utf-8"?>
<!-- Generator: Adobe Illustrator 16.0.0, SVG Export Plug-In . SVG Version: 6.00 Build 0)  -->
<!DOCTYPE svg PUBLIC "-//W3C//DTD SVG 1.1//EN" "http://www.w3.org/Graphics/SVG/1.1/DTD/svg11.dtd">
<svg version="1.1" id="Layer_1" xmlns="http://www.w3.org/2000/svg" xmlns:xlink="http://www.w3.org/1999/xlink" x="0px" y="0px"
	 width="359.333px" height="332px" viewBox="0 0 359.333 332" enable-background="new 0 0 359.333 332" xml:space="preserve">
<g>
	<g>
		<polygon fill="#FFFFFF" points="109.236,320.355 117.584,312.731 123.629,319.426 115.141,328.3 		"/>
		<g>
			<path fill="#E5525C" d="M117.535,313.742l5.121,5.67l-7.446,7.785l-5.017-6.75L117.535,313.742 M117.632,311.721l-9.353,8.542
				l6.793,9.14l9.53-9.964L117.632,311.721L117.632,311.721z"/>
		</g>
	</g>
	<g>
		<polygon fill="#E5525C" points="116.768,249.092 129.566,260.322 120.948,235.122 122.383,221.541 144.583,229.506 
			164.431,234.468 136.749,273.511 161.167,254.052 177.751,272.598 180.234,278.083 183.887,270.639 199.429,253.01 
			214.445,269.857 217.057,278.476 217.971,268.028 213.139,244.391 222.413,230.027 253.1,219.971 243.302,251.836 
			252.445,245.175 252.445,257.712 221.235,298.584 209.873,298.584 195.643,291.797 180.54,296.671 169.571,292.143 
			170.786,283.264 180.015,288.313 188.545,284.308 202.299,284.308 213.617,290.227 208.393,281.872 192.2,276.648 
			181.059,282.567 169.739,274.911 154.593,276.476 151.98,271.597 145.712,278.564 146.063,283.437 136.662,292.492 
			122.906,277.52 		"/>
		<polygon fill="#E5525C" points="179.84,225.635 184.195,232.598 184.542,251.924 190.463,245.481 195.164,251.05 180.709,265.677 
			164.87,253.142 169.047,248.964 176.183,252.815 176.532,231.749 		"/>
		<polygon fill="#E5525C" points="145.236,299.236 156.205,288.791 160.515,294.537 150.328,305.376 		"/>
		<polygon fill="#E5525C" points="158.815,311.253 170.961,296.758 198.644,308.771 194.075,317.259 182.454,309.423 
			176.968,319.086 165.998,319.217 		"/>
		<polygon fill="#E5525C" points="153.46,279 117.632,311.721 124.603,319.439 161.035,281.348 		"/>
		<path fill="#E5525C" d="M36.372,122.383c0,0-1.042,52.933,65.117,75.218c66.161,22.284,196.398,10.795,221.472-71.387
			l-10.446,9.054c0,0-9.401-9.749-49.801-7.312c0,0-19.846,23.679-84.963,26.812C112.634,157.904,84.08,119.6,84.08,119.6
			S62.838,114.027,36.372,122.383z"/>
		<path fill="#E5525C" d="M92.09,85.125c0,0,16.712,25.072,84.617,25.595c70.094,0.539,91.93-27.684,91.93-27.684l0.699-37.957
			c0,0,1.045-41.439-45.966-42.483c-12.887,1.044-46.318,5.223-33.084,12.19L146.063,3.988c0,0-53.974-6.269-53.974,39.698
			C92.09,73.981,92.09,85.125,92.09,85.125z"/>
		<path fill="#E5525C" d="M131.96,110.72c0,0,12.362,6.094,39.348,5.921c0,0-8.532,2.089-12.013,2.958c0,0,5.222,2.089,15.323,2.436
			c0,0-14.801,4.179-20.195,3.655c0,0,10.793,6.269,21.587,8.01c0,0-10.273,1.395-20.373-0.345c0,0,4.877,6.79,12.712,6.79
			c0,0-2.789,2.783-12.19,1.915c0,0,6.968,4.7,13.234,4.875c0,0-26.988,2.435-44.572-6.096c0,0,6.789,0.002,11.143-0.695
			c0,0-8.357-2.438-9.054-4.18c0,0,9.404,2.613,15.498,0c0,0-14.281-0.349-18.111-5.744c0,0,17.412,1.044,17.761-2.089
			c0,0-14.278,0-17.761-3.833c0,0,11.146,0,16.367-2.436c0,0-13.754-1.917-17.237-6.443c0,0,9.926,2.439,16.717,1.744
			C140.145,117.164,131.785,112.808,131.96,110.72z"/>
	</g>
</g>
</svg>
