<?xml version="1.0" encoding="utf-8"?>
<!-- Generator: Adobe Illustrator 16.0.0, SVG Export Plug-In . SVG Version: 6.00 Build 0)  -->
<!DOCTYPE svg PUBLIC "-//W3C//DTD SVG 1.1//EN" "http://www.w3.org/Graphics/SVG/1.1/DTD/svg11.dtd">
<svg version="1.1" id="Layer_1" xmlns="http://www.w3.org/2000/svg" xmlns:xlink="http://www.w3.org/1999/xlink" x="0px" y="0px"
	 width="200px" height="46px" viewBox="0 0 200 46" enable-background="new 0 0 200 46" xml:space="preserve">
<g>
	<g>
		<g>
			<circle fill="#EF4137" cx="22.694" cy="22.944" r="22.694"/>
		</g>
		<g>
			<polygon fill="#FFFFFF" points="15.312,36.066 16.854,37.422 15.815,34.383 15.988,32.746 18.665,33.706 21.058,34.305 
				17.72,39.012 20.665,36.666 22.665,38.901 22.963,39.563 23.404,38.665 25.278,36.539 27.088,38.571 27.402,39.61 27.514,38.351 
				26.93,35.5 28.048,33.769 31.748,32.557 30.567,36.398 31.67,35.596 31.67,37.106 27.907,42.035 26.537,42.035 24.821,41.217 
				23,41.804 21.677,41.258 21.824,40.188 22.936,40.796 23.965,40.313 25.623,40.313 26.987,41.026 26.358,40.019 24.406,39.39 
				23.063,40.104 21.698,39.181 19.872,39.369 19.557,38.781 18.802,39.62 18.844,40.209 17.71,41.3 16.051,39.494 			"/>
		</g>
		<g>
			<polygon fill="#FFFFFF" points="22.917,33.239 23.441,34.078 23.482,36.409 24.196,35.632 24.763,36.304 23.02,38.066 
				21.111,36.556 21.613,36.052 22.474,36.518 22.518,33.977 			"/>
		</g>
		<g>
			<polygon fill="#FFFFFF" points="18.744,42.113 20.067,40.854 20.585,41.546 19.358,42.854 			"/>
		</g>
		<g>
			<polygon fill="#FFFFFF" points="20.38,43.563 21.845,41.814 25.182,43.262 24.632,44.286 23.231,43.342 22.569,44.507 
				21.246,44.522 			"/>
		</g>
		<g>
			<g>
				<polygon fill="#EF4137" points="14.408,44.659 15.41,43.743 16.136,44.547 15.117,45.613 				"/>
			</g>
			<g>
				<g>
					<path fill="#FFFFFF" d="M15.404,43.868l0.611,0.678l-0.89,0.931l-0.6-0.807L15.404,43.868 M15.416,43.618l-1.127,1.029
						l0.819,1.103l1.148-1.201L15.416,43.618L15.416,43.618z"/>
				</g>
			</g>
		</g>
		<g>
			<polygon fill="#FFFFFF" points="19.735,39.673 15.416,43.618 16.256,44.549 20.647,39.956 			"/>
		</g>
		<g>
			<path fill="#FFFFFF" d="M5.619,20.791c0,0-0.125,6.382,7.851,9.069c7.976,2.686,23.678,1.3,26.7-8.607l-1.258,1.091
				c0,0-1.133-1.175-6.004-0.881c0,0-2.394,2.855-10.243,3.232c-7.852,0.378-11.295-4.24-11.295-4.24S8.81,19.783,5.619,20.791z"/>
		</g>
		<g>
			<path fill="#FFFFFF" d="M12.337,16.299c0,0,2.015,3.022,10.201,3.085c8.45,0.065,11.083-3.338,11.083-3.338l0.085-4.576
				c0,0,0.124-4.996-5.543-5.122c-1.553,0.126-5.585,0.629-3.988,1.47l-5.332-1.302c0,0-6.507-0.755-6.507,4.787
				C12.337,14.956,12.337,16.299,12.337,16.299z"/>
		</g>
		<g>
			<path fill="#FFFFFF" d="M17.144,19.385c0,0,1.489,0.735,4.743,0.714c0,0-1.028,0.251-1.448,0.356c0,0,0.629,0.252,1.848,0.294
				c0,0-1.785,0.503-2.435,0.44c0,0,1.302,0.756,2.603,0.966c0,0-1.238,0.167-2.456-0.042c0,0,0.587,0.819,1.533,0.819
				c0,0-0.335,0.334-1.47,0.23c0,0,0.84,0.566,1.597,0.587c0,0-3.254,0.295-5.374-0.735c0,0,0.817,0,1.343-0.083
				c0,0-1.008-0.294-1.092-0.505c0,0,1.133,0.314,1.868,0c0,0-1.722-0.042-2.182-0.692c0,0,2.099,0.126,2.141-0.252
				c0,0-1.722,0-2.141-0.461c0,0,1.342,0,1.973-0.294c0,0-1.659-0.231-2.079-0.777c0,0,1.197,0.294,2.016,0.21
				C18.131,20.162,17.122,19.636,17.144,19.385z"/>
		</g>
	</g>
	<g>
		<path fill="#EF4137" d="M55.954,26.528c0.532,0,0.798,0.217,0.798,0.65c0,0.325-0.246,0.571-0.739,0.738
			c-0.847,0.306-1.271,0.853-1.271,1.641c0,0.63,0.246,1.122,0.739,1.477c0.423,0.296,0.96,0.443,1.61,0.443
			c1.3,0,2.438-0.379,3.413-1.138c0.61-0.482,0.916-1.093,0.916-1.832c0-0.452-0.089-0.861-0.266-1.226
			c-0.187-0.374-0.473-0.848-0.857-1.419c-0.591-0.886-1.088-1.693-1.492-2.423c-0.453-0.807-0.68-1.601-0.68-2.378
			c0-1.842,0.911-3.565,2.733-5.171c0.965-0.837,2.029-1.517,3.191-2.039c0.965-0.423,1.896-0.635,2.792-0.635
			c0.581,0,1.074,0.153,1.478,0.458c0.493,0.364,0.739,0.862,0.739,1.492c0,0.985-0.532,2.049-1.596,3.191
			c-1.004,1.073-2.177,1.95-3.516,2.629c-0.67,0.335-1.177,0.502-1.522,0.502c-0.227,0-0.428-0.093-0.605-0.281
			c-0.118-0.128-0.177-0.271-0.177-0.428c0-0.364,0.325-0.66,0.975-0.887c1.191-0.423,2.246-1.019,3.162-1.788
			c1.182-0.985,1.773-1.847,1.773-2.585c0-0.286-0.118-0.517-0.354-0.694c-0.188-0.138-0.409-0.207-0.665-0.207
			c-0.68,0-1.532,0.261-2.556,0.783c-1.379,0.699-2.462,1.601-3.25,2.704c-0.69,0.956-1.034,1.886-1.034,2.792
			c0,0.66,0.182,1.339,0.546,2.039c0.305,0.561,0.694,1.196,1.167,1.905c0.453,0.68,0.837,1.311,1.153,1.892
			c0.364,0.689,0.546,1.335,0.546,1.936c0,1.162-0.665,2.191-1.995,3.088c-1.133,0.748-2.413,1.123-3.841,1.123
			c-1.409,0-2.512-0.39-3.31-1.168c-0.601-0.591-0.901-1.271-0.901-2.038c0-0.857,0.286-1.576,0.857-2.157
			c0.344-0.354,0.753-0.621,1.226-0.798C55.466,26.593,55.737,26.528,55.954,26.528z"/>
		<path fill="#EF4137" d="M70.167,22.717c-0.64,0.995-1.231,2.107-1.772,3.339c-0.778,1.753-1.167,3.063-1.167,3.93
			c0,0.247,0.052,0.434,0.155,0.562s0.258,0.192,0.465,0.192c0.492,0,1.088-0.463,1.788-1.389c0.443-0.571,0.837-1.143,1.182-1.714
			c0.187-0.325,0.389-0.487,0.605-0.487c0.128,0,0.237,0.044,0.325,0.133c0.079,0.088,0.118,0.177,0.118,0.266
			c0,0.364-0.478,1.177-1.433,2.438c-1.143,1.518-2.187,2.275-3.132,2.275c-0.502,0-0.921-0.231-1.256-0.694
			c-0.207-0.295-0.31-0.714-0.31-1.256c0-1.191,0.345-2.58,1.034-4.166c0.167-0.395,0.63-1.345,1.389-2.852
			c-0.266,0.069-0.468,0.104-0.605,0.104c-0.207,0-0.389-0.049-0.547-0.148c-0.217-0.138-0.325-0.31-0.325-0.517
			c0-0.246,0.143-0.443,0.428-0.591c0.079-0.04,0.443-0.104,1.093-0.192c0.236-0.039,0.581-0.133,1.034-0.281
			c0.345-0.621,0.906-1.462,1.685-2.526c0.433-0.591,0.733-0.975,0.901-1.152c0.237-0.246,0.443-0.369,0.621-0.369
			c0.128,0,0.256,0.069,0.384,0.207c0.118,0.128,0.177,0.256,0.177,0.384c0,0.256-0.276,0.763-0.827,1.522
			c-0.365,0.492-0.635,0.891-0.813,1.196c1.094-0.295,1.876-0.443,2.349-0.443c0.542,0,0.813,0.227,0.813,0.68
			c0,0.227-0.094,0.394-0.281,0.502c-0.099,0.059-0.354,0.109-0.769,0.148c-0.167-0.01-0.911,0.177-2.231,0.562
			C70.881,22.485,70.521,22.599,70.167,22.717z"/>
		<path fill="#EF4137" d="M76.49,29.794c-0.325,0.571-0.646,1.054-0.96,1.447c-0.621,0.769-1.236,1.152-1.847,1.152
			c-0.532,0-0.946-0.251-1.241-0.753c-0.187-0.325-0.281-0.709-0.281-1.152c0-1.094,0.345-2.3,1.034-3.62
			c0.769-1.468,1.694-2.595,2.778-3.383c0.709-0.512,1.394-0.768,2.054-0.768c0.414,0,0.758,0.128,1.034,0.384
			c0.236,0.227,0.354,0.483,0.354,0.769c0,0.217-0.084,0.517-0.251,0.901c0.147,0.207,0.222,0.389,0.222,0.547
			c0,0.206-0.138,0.546-0.414,1.019c-0.286,0.483-0.571,1.123-0.857,1.921c-0.305,0.848-0.458,1.527-0.458,2.039
			c0,0.414,0.123,0.754,0.37,1.02c0.069,0.069,0.271,0.183,0.605,0.34c0.246,0.118,0.37,0.325,0.37,0.62
			c0,0.188-0.069,0.34-0.207,0.458c-0.147,0.129-0.32,0.192-0.517,0.192c-0.532,0-0.99-0.236-1.374-0.709
			c-0.315-0.385-0.473-0.867-0.473-1.448C76.431,30.572,76.451,30.247,76.49,29.794z M78.337,24.933
			c-0.118-0.217-0.246-0.377-0.384-0.48c-0.138-0.103-0.286-0.155-0.443-0.155c-0.749,0-1.562,0.656-2.438,1.966
			c-0.965,1.447-1.448,2.674-1.448,3.679c0,0.246,0.046,0.434,0.14,0.562s0.234,0.192,0.421,0.192c0.473,0,1.024-0.503,1.655-1.508
			c0.354-0.551,0.792-1.363,1.315-2.438c0.344-0.699,0.596-1.162,0.753-1.389C77.987,25.243,78.13,25.101,78.337,24.933z"/>
		<path fill="#EF4137" d="M82.666,27.37c0.965-1.034,2.078-2.043,3.339-3.028c0.453-0.354,0.936-0.685,1.448-0.99
			c0.256-0.148,0.418-0.222,0.487-0.222c0.148,0,0.295,0.108,0.443,0.325c0.088,0.118,0.133,0.227,0.133,0.325
			c0,0.177-0.187,0.419-0.562,0.724c-1.004,0.798-1.507,1.399-1.507,1.803c0,0.227,0.128,0.34,0.384,0.34
			c0.423,0,1.152-0.35,2.187-1.049c0.177-0.118,0.325-0.178,0.443-0.178c0.079,0,0.157,0.04,0.236,0.118
			c0.088,0.089,0.133,0.183,0.133,0.281c0,0.296-0.414,0.749-1.241,1.359c-0.867,0.649-1.689,0.975-2.468,0.975
			c-0.315,0-0.605-0.083-0.872-0.251c-0.227-0.138-0.34-0.384-0.34-0.738c0-0.246,0.104-0.527,0.311-0.843
			c-0.778,0.552-1.694,1.498-2.748,2.837c-0.611,0.827-1.217,1.847-1.817,3.059c-0.227,0.453-0.507,0.68-0.842,0.68
			c-0.364,0-0.546-0.173-0.546-0.518c0-0.335,0.286-1.23,0.857-2.688c0.847-2.167,1.733-3.847,2.659-5.038
			c0.571-0.739,1.049-1.108,1.433-1.108c0.128,0,0.246,0.04,0.354,0.118c0.128,0.099,0.192,0.222,0.192,0.369
			c0,0.148-0.099,0.354-0.296,0.621c-0.039,0.049-0.3,0.379-0.783,0.989C83.242,26.224,82.902,26.8,82.666,27.37z"/>
		<path fill="#EF4137" d="M94.633,22.717c-0.64,0.995-1.231,2.107-1.772,3.339c-0.778,1.753-1.167,3.063-1.167,3.93
			c0,0.247,0.052,0.434,0.155,0.562s0.258,0.192,0.465,0.192c0.492,0,1.088-0.463,1.788-1.389c0.443-0.571,0.837-1.143,1.182-1.714
			c0.187-0.325,0.389-0.487,0.605-0.487c0.128,0,0.237,0.044,0.325,0.133c0.079,0.088,0.118,0.177,0.118,0.266
			c0,0.364-0.478,1.177-1.433,2.438c-1.143,1.518-2.187,2.275-3.132,2.275c-0.502,0-0.921-0.231-1.256-0.694
			c-0.207-0.295-0.31-0.714-0.31-1.256c0-1.191,0.345-2.58,1.034-4.166c0.167-0.395,0.63-1.345,1.389-2.852
			c-0.266,0.069-0.468,0.104-0.605,0.104c-0.207,0-0.389-0.049-0.547-0.148c-0.217-0.138-0.325-0.31-0.325-0.517
			c0-0.246,0.143-0.443,0.428-0.591c0.079-0.04,0.443-0.104,1.093-0.192c0.236-0.039,0.581-0.133,1.034-0.281
			c0.345-0.621,0.906-1.462,1.685-2.526c0.433-0.591,0.733-0.975,0.901-1.152c0.237-0.246,0.443-0.369,0.621-0.369
			c0.128,0,0.256,0.069,0.384,0.207c0.118,0.128,0.177,0.256,0.177,0.384c0,0.256-0.276,0.763-0.827,1.522
			c-0.365,0.492-0.635,0.891-0.813,1.196c1.094-0.295,1.876-0.443,2.349-0.443c0.542,0,0.813,0.227,0.813,0.68
			c0,0.227-0.094,0.394-0.281,0.502c-0.099,0.059-0.354,0.109-0.769,0.148c-0.167-0.01-0.911,0.177-2.231,0.562
			C95.347,22.485,94.988,22.599,94.633,22.717z"/>
		<path fill="#EF4137" d="M100.735,29.971c-0.424,0.591-0.798,1.063-1.123,1.419c-0.571,0.63-1.138,0.945-1.699,0.945
			c-0.482,0-0.857-0.217-1.123-0.65c-0.187-0.305-0.281-0.67-0.281-1.093c0-1.271,0.542-2.729,1.625-4.374
			c0.502-0.768,1-1.354,1.492-1.758c0.384-0.325,0.699-0.487,0.945-0.487c0.138,0,0.266,0.059,0.384,0.178
			c0.099,0.107,0.148,0.217,0.148,0.324c0,0.188-0.183,0.493-0.547,0.916c-0.817,0.976-1.438,1.872-1.862,2.689
			c-0.492,0.955-0.738,1.704-0.738,2.245c0,0.139,0.032,0.244,0.096,0.318c0.064,0.073,0.155,0.11,0.273,0.11
			c0.502,0,1.202-0.719,2.098-2.157c0.463-0.748,0.861-1.575,1.196-2.481c0.178-0.493,0.409-0.932,0.694-1.315
			c0.276-0.345,0.547-0.517,0.813-0.517c0.148,0,0.281,0.063,0.399,0.191c0.128,0.139,0.192,0.291,0.192,0.458
			c0,0.354-0.34,1.152-1.02,2.394c-0.464,0.857-0.694,1.571-0.694,2.143c0,0.61,0.162,1.133,0.487,1.565
			c0.089,0.119,0.359,0.306,0.813,0.562c0.217,0.129,0.325,0.335,0.325,0.621c0,0.177-0.076,0.33-0.229,0.458
			c-0.152,0.128-0.337,0.191-0.554,0.191c-0.492,0-0.94-0.196-1.345-0.591c-0.364-0.354-0.596-0.866-0.694-1.536
			C100.789,30.65,100.765,30.395,100.735,29.971z"/>
		<path fill="#EF4137" d="M108.729,24.386c0.403-0.256,0.704-0.433,0.901-0.531c0.403-0.197,0.798-0.296,1.182-0.296
			c0.434,0,0.758,0.126,0.975,0.377s0.325,0.628,0.325,1.13c0,0.689-0.241,1.518-0.724,2.482c-0.749,1.527-1.655,2.729-2.719,3.605
			c-0.896,0.738-1.738,1.107-2.526,1.107c-0.434,0-0.861-0.167-1.285-0.502c-1.35,2.728-2.556,5.511-3.62,8.348
			c-0.227,0.68-0.492,1.02-0.798,1.02c-0.147,0-0.295-0.099-0.443-0.296c-0.107-0.138-0.162-0.291-0.162-0.458
			c0-0.532,0.65-2.261,1.95-5.186c2.01-4.512,3.915-8.259,5.718-11.244c0.374-0.63,0.625-1.064,0.754-1.3
			c0.344-0.64,0.679-0.96,1.004-0.96c0.335,0,0.503,0.202,0.503,0.605c0,0.227-0.118,0.532-0.354,0.916
			C109.122,23.697,108.896,24.091,108.729,24.386z M105.404,30.518c0.216,0.227,0.487,0.34,0.813,0.34
			c0.916,0,1.93-0.813,3.043-2.438c0.414-0.601,0.744-1.217,0.99-1.847c0.197-0.503,0.296-0.882,0.296-1.138
			c0-0.178-0.042-0.311-0.126-0.399s-0.214-0.133-0.392-0.133c-0.463,0-1.029,0.32-1.699,0.96c-0.641,0.621-1.256,1.492-1.847,2.615
			C105.94,29.513,105.581,30.192,105.404,30.518z"/>
		<path fill="#EF4137" d="M120.563,27.622c0.315-0.463,1.044-1.576,2.187-3.339c0.976-1.507,2.531-3.679,4.669-6.516
			c1.241-1.645,2.364-3.023,3.369-4.137c0.601-0.67,1.132-1.005,1.596-1.005c0.266,0,0.487,0.094,0.664,0.281
			c0.158,0.148,0.236,0.335,0.236,0.562c0,0.335-0.201,0.862-0.605,1.581c-0.079,0.147-0.482,0.862-1.211,2.142
			c-1.301,2.305-2.183,3.95-2.645,4.935c-1.271,2.699-2.202,4.999-2.793,6.9c-0.345,1.133-0.517,1.965-0.517,2.497
			c0,0.118,0.01,0.241,0.029,0.369c0.049,0.384,0.073,0.61,0.073,0.68c0,0.286-0.108,0.552-0.324,0.798
			c-0.188,0.227-0.399,0.34-0.636,0.34c-0.275,0-0.502-0.163-0.68-0.487c-0.147-0.246-0.222-0.592-0.222-1.034
			c0-2.788,2.324-8.264,6.974-16.43c-2.433,2.601-5.127,6.324-8.081,11.17c-0.65,1.054-1.188,1.768-1.611,2.142
			c-0.413,0.365-0.808,0.547-1.182,0.547s-0.65-0.162-0.827-0.487c-0.118-0.217-0.178-0.468-0.178-0.754
			c0-2.462,1.463-6.338,4.389-11.627c-0.995,1.015-1.95,2.192-2.866,3.531c-1.665,2.473-3.152,5.008-4.462,7.609
			c-0.621,1.251-1.374,2.921-2.261,5.009c-0.443,1.063-0.955,1.596-1.536,1.596c-0.148,0-0.271-0.064-0.37-0.192
			c-0.078-0.089-0.118-0.197-0.118-0.325c0-0.188,0.183-0.699,0.547-1.536c0.778-1.842,1.374-3.167,1.788-3.975
			c2.117-4.127,4.624-8.008,7.52-11.642c1.212-1.517,2.049-2.502,2.512-2.955c0.482-0.463,0.882-0.694,1.197-0.694
			c0.196,0,0.389,0.088,0.576,0.266c0.227,0.207,0.34,0.443,0.34,0.709c0,0.295-0.207,0.783-0.621,1.463
			c-1.182,1.93-2.271,4.097-3.265,6.5C121.36,24.277,120.809,26.115,120.563,27.622z"/>
		<path fill="#EF4137" d="M133.978,29.794c-0.324,0.571-0.645,1.054-0.96,1.447c-0.62,0.769-1.236,1.152-1.847,1.152
			c-0.532,0-0.945-0.251-1.241-0.753c-0.187-0.325-0.28-0.709-0.28-1.152c0-1.094,0.345-2.3,1.034-3.62
			c0.768-1.468,1.693-2.595,2.777-3.383c0.709-0.512,1.394-0.768,2.054-0.768c0.413,0,0.758,0.128,1.034,0.384
			c0.236,0.227,0.354,0.483,0.354,0.769c0,0.217-0.084,0.517-0.251,0.901c0.147,0.207,0.222,0.389,0.222,0.547
			c0,0.206-0.139,0.546-0.414,1.019c-0.286,0.483-0.571,1.123-0.856,1.921c-0.306,0.848-0.458,1.527-0.458,2.039
			c0,0.414,0.123,0.754,0.369,1.02c0.068,0.069,0.271,0.183,0.605,0.34c0.246,0.118,0.369,0.325,0.369,0.62
			c0,0.188-0.068,0.34-0.206,0.458c-0.148,0.129-0.32,0.192-0.518,0.192c-0.532,0-0.99-0.236-1.374-0.709
			c-0.315-0.385-0.473-0.867-0.473-1.448C133.919,30.572,133.938,30.247,133.978,29.794z M135.825,24.933
			c-0.118-0.217-0.247-0.377-0.385-0.48c-0.138-0.103-0.285-0.155-0.443-0.155c-0.748,0-1.561,0.656-2.438,1.966
			c-0.966,1.447-1.448,2.674-1.448,3.679c0,0.246,0.047,0.434,0.141,0.562s0.234,0.192,0.421,0.192c0.473,0,1.024-0.503,1.655-1.508
			c0.354-0.551,0.793-1.363,1.314-2.438c0.345-0.699,0.596-1.162,0.754-1.389C135.475,25.243,135.618,25.101,135.825,24.933z"/>
		<path fill="#EF4137" d="M139.902,25.258c1.507-3.25,2.979-5.895,4.417-7.934c0.976-1.378,1.783-2.383,2.424-3.014
			c0.442-0.443,0.822-0.665,1.137-0.665c0.119,0,0.222,0.04,0.311,0.118c0.138,0.099,0.207,0.231,0.207,0.399
			c0,0.217-0.173,0.527-0.518,0.931c-2.177,2.482-4.146,5.457-5.909,8.924c1.575-0.601,2.674-0.901,3.295-0.901
			c0.452,0,0.827,0.113,1.122,0.34c0.306,0.236,0.458,0.507,0.458,0.812c0,0.158-0.054,0.301-0.162,0.429
			c-0.147,0.188-0.34,0.281-0.576,0.281c-0.168,0-0.497-0.139-0.99-0.414c-0.138-0.068-0.315-0.104-0.531-0.104
			c-0.985,0-2.167,0.448-3.546,1.345c0.591,0.275,1.009,0.641,1.256,1.093c0.334,0.641,0.502,1.429,0.502,2.364
			c0,2.413-0.719,4.959-2.157,7.639c-0.62,1.143-1.221,2.009-1.802,2.6c-0.621,0.641-1.256,0.961-1.906,0.961
			c-0.492,0-0.892-0.236-1.197-0.709c-0.246-0.395-0.369-0.932-0.369-1.61c0-1.458,0.552-3.649,1.655-6.575
			c0.138-0.354,0.531-1.266,1.182-2.733c0.167-0.364,0.33-0.753,0.487-1.167c-0.079,0.02-0.152,0.029-0.222,0.029
			c-0.266,0-0.398-0.147-0.398-0.443C138.07,26.73,138.681,26.065,139.902,25.258z M140.404,27.193
			c-0.552,1.044-1.28,2.729-2.187,5.053c-0.936,2.374-1.403,4.216-1.403,5.525c0,0.256,0.064,0.482,0.192,0.68
			c0.138,0.197,0.3,0.296,0.487,0.296c0.61,0,1.413-1.024,2.408-3.073c1.123-2.285,1.685-4.378,1.685-6.279
			c0-0.738-0.144-1.295-0.429-1.669C141.05,27.577,140.798,27.4,140.404,27.193z"/>
		<path fill="#EF4137" d="M149.063,23.381c0.168,0,0.306,0.064,0.414,0.192c0.079,0.108,0.118,0.217,0.118,0.325
			c0,0.178-0.143,0.473-0.429,0.887c-1.024,1.586-1.753,2.891-2.187,3.915c-0.463,1.054-0.871,2.138-1.227,3.25
			c-0.157,0.493-0.403,0.739-0.738,0.739c-0.197,0-0.354-0.079-0.473-0.236c-0.108-0.128-0.163-0.266-0.163-0.414
			c0-0.295,0.315-1.28,0.946-2.955c0.492-1.319,1.29-2.777,2.394-4.373c0.354-0.521,0.62-0.872,0.798-1.049
			C148.693,23.475,148.876,23.381,149.063,23.381z M151.87,17.9c0.443,0,0.665,0.227,0.665,0.679c0,0.414-0.217,0.872-0.65,1.374
			c-0.414,0.483-0.813,0.724-1.196,0.724c-0.188,0-0.34-0.069-0.458-0.207c-0.119-0.128-0.178-0.285-0.178-0.473
			c0-0.473,0.261-0.975,0.783-1.507C151.22,18.097,151.564,17.9,151.87,17.9z"/>
		<path fill="#EF4137" d="M153.523,29.794c-0.324,0.571-0.645,1.054-0.96,1.447c-0.62,0.769-1.236,1.152-1.847,1.152
			c-0.532,0-0.945-0.251-1.241-0.753c-0.187-0.325-0.28-0.709-0.28-1.152c0-1.094,0.345-2.3,1.034-3.62
			c0.768-1.468,1.693-2.595,2.777-3.383c0.709-0.512,1.394-0.768,2.054-0.768c0.413,0,0.758,0.128,1.034,0.384
			c0.236,0.227,0.354,0.483,0.354,0.769c0,0.217-0.084,0.517-0.251,0.901c0.147,0.207,0.222,0.389,0.222,0.547
			c0,0.206-0.139,0.546-0.414,1.019c-0.286,0.483-0.571,1.123-0.856,1.921c-0.306,0.848-0.458,1.527-0.458,2.039
			c0,0.414,0.123,0.754,0.369,1.02c0.068,0.069,0.271,0.183,0.605,0.34c0.246,0.118,0.369,0.325,0.369,0.62
			c0,0.188-0.068,0.34-0.206,0.458c-0.148,0.129-0.32,0.192-0.518,0.192c-0.532,0-0.99-0.236-1.374-0.709
			c-0.315-0.385-0.473-0.867-0.473-1.448C153.465,30.572,153.484,30.247,153.523,29.794z M155.371,24.933
			c-0.118-0.217-0.247-0.377-0.385-0.48c-0.138-0.103-0.285-0.155-0.443-0.155c-0.748,0-1.561,0.656-2.438,1.966
			c-0.966,1.447-1.448,2.674-1.448,3.679c0,0.246,0.047,0.434,0.141,0.562s0.234,0.192,0.421,0.192c0.473,0,1.024-0.503,1.655-1.508
			c0.354-0.551,0.793-1.363,1.314-2.438c0.345-0.699,0.596-1.162,0.754-1.389C155.021,25.243,155.164,25.101,155.371,24.933z"/>
		<path fill="#EF4137" d="M158.4,31.153c0.216,0,0.398,0.098,0.546,0.295c0.099,0.128,0.148,0.291,0.148,0.487
			c0,0.464-0.128,0.951-0.385,1.463c-0.266,0.542-0.615,0.813-1.049,0.813c-0.453,0-0.68-0.256-0.68-0.768
			c0-0.513,0.158-1.035,0.473-1.566C157.74,31.395,158.055,31.153,158.4,31.153z"/>
		<path fill="#EF4137" d="M168.608,23.071c0.778,0,1.167,0.409,1.167,1.226c0,0.72-0.28,1.443-0.842,2.173
			c-0.434,0.552-0.813,0.827-1.138,0.827c-0.275,0-0.413-0.157-0.413-0.473c0-0.168,0.039-0.301,0.118-0.399
			c0.029-0.039,0.147-0.152,0.354-0.34c0.177-0.167,0.359-0.418,0.546-0.753c0.128-0.227,0.192-0.409,0.192-0.547
			c0-0.157-0.089-0.236-0.266-0.236c-0.207,0-0.522,0.162-0.945,0.487c-0.67,0.522-1.34,1.34-2.01,2.453
			c-0.689,1.162-1.034,2.078-1.034,2.748c0,0.216,0.063,0.408,0.192,0.576c0.187,0.256,0.438,0.384,0.753,0.384
			c0.621,0,1.354-0.384,2.201-1.152c0.72-0.66,1.325-1.32,1.817-1.979c0.256-0.364,0.478-0.547,0.665-0.547
			c0.108,0,0.207,0.049,0.296,0.147c0.078,0.099,0.118,0.197,0.118,0.296c0,0.364-0.468,1.073-1.404,2.127
			c-1.487,1.655-2.836,2.482-4.048,2.482c-0.729,0-1.285-0.261-1.669-0.783c-0.276-0.384-0.414-0.837-0.414-1.359
			c0-1.024,0.424-2.211,1.271-3.561c0.817-1.29,1.763-2.329,2.837-3.117C167.584,23.298,168.136,23.071,168.608,23.071z"/>
		<path fill="#EF4137" d="M173.958,27.326c-0.296,0.769-0.518,1.389-0.665,1.861s-0.222,0.804-0.222,0.99
			c0,0.246,0.118,0.369,0.354,0.369c0.354,0,0.813-0.335,1.374-1.005c0.266-0.324,0.66-0.91,1.182-1.758
			c0.207-0.335,0.424-0.502,0.65-0.502c0.256,0,0.384,0.123,0.384,0.369c0,0.424-0.487,1.28-1.462,2.57
			c-1.015,1.35-1.956,2.024-2.822,2.024c-0.374,0-0.68-0.157-0.916-0.473c-0.167-0.227-0.251-0.502-0.251-0.827
			c0-0.552,0.167-1.315,0.502-2.29c0.335-0.976,0.832-2.162,1.492-3.561c1.694-3.556,3.423-6.486,5.186-8.791
			c1.409-1.852,2.576-2.778,3.502-2.778c0.296,0,0.537,0.113,0.724,0.34c0.197,0.227,0.296,0.488,0.296,0.783
			c0,1.379-1.231,3.674-3.693,6.885c-1.104,1.428-2.423,2.857-3.96,4.285C175.208,26.193,174.657,26.696,173.958,27.326z
			 M175.007,24.978c2.049-1.753,3.881-3.97,5.496-6.649c0.837-1.389,1.256-2.31,1.256-2.763c0-0.217-0.094-0.325-0.281-0.325
			c-0.541,0-1.526,1.079-2.954,3.236C177.341,20.25,176.169,22.417,175.007,24.978z"/>
		<path fill="#EF4137" d="M182.157,29.971c-0.424,0.591-0.798,1.063-1.123,1.419c-0.571,0.63-1.138,0.945-1.699,0.945
			c-0.482,0-0.857-0.217-1.123-0.65c-0.187-0.305-0.28-0.67-0.28-1.093c0-1.271,0.541-2.729,1.625-4.374
			c0.502-0.768,0.999-1.354,1.492-1.758c0.384-0.325,0.699-0.487,0.945-0.487c0.138,0,0.266,0.059,0.384,0.178
			c0.099,0.107,0.148,0.217,0.148,0.324c0,0.188-0.183,0.493-0.547,0.916c-0.817,0.976-1.438,1.872-1.861,2.689
			c-0.493,0.955-0.739,1.704-0.739,2.245c0,0.139,0.032,0.244,0.097,0.318c0.063,0.073,0.154,0.11,0.272,0.11
			c0.503,0,1.202-0.719,2.099-2.157c0.463-0.748,0.861-1.575,1.196-2.481c0.178-0.493,0.409-0.932,0.694-1.315
			c0.276-0.345,0.547-0.517,0.813-0.517c0.148,0,0.281,0.063,0.399,0.191c0.128,0.139,0.192,0.291,0.192,0.458
			c0,0.354-0.34,1.152-1.02,2.394c-0.464,0.857-0.694,1.571-0.694,2.143c0,0.61,0.162,1.133,0.487,1.565
			c0.089,0.119,0.359,0.306,0.813,0.562c0.217,0.129,0.325,0.335,0.325,0.621c0,0.177-0.076,0.33-0.229,0.458
			c-0.152,0.128-0.337,0.191-0.554,0.191c-0.492,0-0.94-0.196-1.345-0.591c-0.364-0.354-0.596-0.866-0.694-1.536
			C182.211,30.65,182.187,30.395,182.157,29.971z"/>
		<path fill="#EF4137" d="M190.136,24.475c0.837-0.709,1.59-1.063,2.26-1.063c0.414,0,0.754,0.172,1.02,0.517
			c0.246,0.305,0.369,0.66,0.369,1.064c0,0.768-0.251,1.699-0.753,2.792c-0.562,1.212-1.374,2.34-2.438,3.384
			c-0.877,0.866-1.714,1.3-2.512,1.3c-0.296,0-0.564-0.054-0.806-0.162s-0.456-0.271-0.643-0.488
			c-0.079,0.139-0.128,0.227-0.147,0.267c-0.168,0.364-0.283,0.586-0.348,0.664c-0.063,0.079-0.165,0.118-0.303,0.118
			c-0.178,0-0.345-0.103-0.502-0.31c-0.108-0.138-0.163-0.286-0.163-0.443c0-0.275,0.566-1.67,1.699-4.182
			c1.586-3.506,3.423-6.993,5.511-10.46c0.847-1.418,1.364-2.25,1.552-2.497c0.207-0.295,0.398-0.443,0.576-0.443
			c0.216,0,0.408,0.108,0.576,0.325c0.108,0.138,0.162,0.301,0.162,0.488c0,0.207-0.094,0.468-0.28,0.783
			c-0.04,0.069-0.35,0.576-0.931,1.521C192.253,20.407,190.953,22.682,190.136,24.475z M187.646,30.872
			c0.153,0.099,0.313,0.147,0.48,0.147c0.856,0,1.763-0.743,2.719-2.23c0.443-0.67,0.793-1.335,1.049-1.995
			c0.227-0.591,0.34-1.028,0.34-1.314c0-0.197-0.045-0.342-0.133-0.436c-0.089-0.094-0.227-0.141-0.414-0.141
			c-0.453,0-1,0.311-1.64,0.931c-0.641,0.611-1.271,1.492-1.892,2.645c-0.295,0.552-0.552,1.069-0.768,1.552l-0.192,0.398
			C187.343,30.626,187.493,30.773,187.646,30.872z"/>
	</g>
</g>
</svg>
