<?xml version="1.0" encoding="utf-8"?>
<!-- Generator: Adobe Illustrator 16.0.0, SVG Export Plug-In . SVG Version: 6.00 Build 0)  -->
<!DOCTYPE svg PUBLIC "-//W3C//DTD SVG 1.1//EN" "http://www.w3.org/Graphics/SVG/1.1/DTD/svg11.dtd">
<svg version="1.1" id="Layer_1" xmlns="http://www.w3.org/2000/svg" xmlns:xlink="http://www.w3.org/1999/xlink" x="0px" y="0px"
	 width="262px" height="297px" viewBox="0 0 262 297" enable-background="new 0 0 262 297" xml:space="preserve">
<ellipse opacity="0.1" fill="#231F20" cx="144.57" cy="284.25" rx="117.164" ry="12.578"/>
<linearGradient id="XMLID_2_" gradientUnits="userSpaceOnUse" x1="-39.4946" y1="65.3306" x2="89.5047" y2="65.3306">
	<stop  offset="0" style="stop-color:#961C43"/>
	<stop  offset="0.4" style="stop-color:#FF6797"/>
	<stop  offset="0.8" style="stop-color:#800D32"/>
	<stop  offset="0.83" style="stop-color:#851136"/>
	<stop  offset="0.8676" style="stop-color:#951C43"/>
	<stop  offset="0.9092" style="stop-color:#AE2E57"/>
	<stop  offset="0.9537" style="stop-color:#D24773"/>
	<stop  offset="1" style="stop-color:#FF6797"/>
</linearGradient>
<polygon id="XMLID_124_" fill-rule="evenodd" clip-rule="evenodd" fill="url(#XMLID_2_)" points="70.87,37.398 0.547,45.905 
	25.073,65.637 0.265,93.263 67.639,84.084 "/>
<rect id="XMLID_94_" x="152.238" y="2.086" fill-rule="evenodd" clip-rule="evenodd" fill="#808184" width="2.309" height="164.021"/>
<rect id="XMLID_93_" x="153.393" y="2.086" fill-rule="evenodd" clip-rule="evenodd" fill="#58595B" width="1.154" height="164.021"/>
<linearGradient id="XMLID_3_" gradientUnits="userSpaceOnUse" x1="27.9434" y1="34.0195" x2="-43.5559" y2="-5.1884">
	<stop  offset="0" style="stop-color:#961C43"/>
	<stop  offset="0.4" style="stop-color:#FF6797"/>
	<stop  offset="0.8" style="stop-color:#800D32"/>
	<stop  offset="0.83" style="stop-color:#851136"/>
	<stop  offset="0.8676" style="stop-color:#951C43"/>
	<stop  offset="0.9092" style="stop-color:#AE2E57"/>
	<stop  offset="0.9537" style="stop-color:#D24773"/>
	<stop  offset="1" style="stop-color:#FF6797"/>
</linearGradient>
<polygon id="XMLID_92_" fill-rule="evenodd" clip-rule="evenodd" fill="url(#XMLID_3_)" points="71.491,28.429 43.284,20.78 
	39.41,69.777 67.639,84.084 "/>
<linearGradient id="XMLID_4_" gradientUnits="userSpaceOnUse" x1="39.4097" y1="36.1201" x2="152.8008" y2="36.1201">
	<stop  offset="0" style="stop-color:#961C43"/>
	<stop  offset="0.4" style="stop-color:#FF6797"/>
	<stop  offset="0.8" style="stop-color:#800D32"/>
	<stop  offset="0.83" style="stop-color:#851136"/>
	<stop  offset="0.8676" style="stop-color:#951C43"/>
	<stop  offset="0.9092" style="stop-color:#AE2E57"/>
	<stop  offset="0.9537" style="stop-color:#D24773"/>
	<stop  offset="1" style="stop-color:#FF6797"/>
</linearGradient>
<polygon id="XMLID_91_" fill-rule="evenodd" clip-rule="evenodd" fill="url(#XMLID_4_)" points="152.238,2.87 152.801,55.542 
	39.41,69.371 43.284,20.374 "/>
<g id="XMLID_155_">
	<path fill="#F1F2F2" d="M62.213,52.274c-1.606,0.205-2.777-0.158-3.513-1.091c-0.668-0.845-1.002-2.04-1.007-3.587
		c0-0.16,0.002-0.328,0.011-0.506l2.372-0.952c-0.008,0.192-0.011,0.378-0.01,0.555c0.008,0.384,0.028,0.729,0.061,1.037
		c0.048,0.459,0.151,0.894,0.31,1.302c0.159,0.408,0.406,0.709,0.738,0.903c0.334,0.193,0.75,0.259,1.253,0.194
		c0.71-0.091,1.269-0.364,1.677-0.82c0.409-0.457,0.651-1.084,0.725-1.879c0.016-0.162,0.023-0.315,0.022-0.46
		c0-0.176-0.013-0.35-0.035-0.523c-0.048-0.307-0.112-0.569-0.194-0.787c-0.081-0.219-0.214-0.447-0.396-0.689
		c-0.183-0.24-0.347-0.438-0.493-0.592c-0.148-0.153-0.357-0.357-0.628-0.611l-2.938-2.631c-0.581-0.535-0.987-1.124-1.221-1.768
		c-0.164-0.451-0.246-0.982-0.247-1.592c-0.001-0.265,0.014-0.543,0.042-0.835c0.144-1.453,0.656-2.636,1.538-3.551
		c0.882-0.913,2.019-1.468,3.408-1.661c0.03-0.004,0.058-0.008,0.08-0.01c1.483-0.182,2.562,0.094,3.234,0.824
		c0.651,0.719,0.979,1.907,0.982,3.566c0.001,0.072,0.001,0.148,0.001,0.229l-2.256,0.913c0.007-0.186,0.011-0.366,0.01-0.542
		c-0.001-0.346-0.018-0.652-0.049-0.92c-0.048-0.41-0.146-0.791-0.293-1.141s-0.379-0.593-0.696-0.729
		c-0.271-0.117-0.599-0.151-0.984-0.103c-0.07,0.009-0.144,0.022-0.221,0.041c-1.475,0.276-2.279,1.12-2.414,2.531
		c-0.016,0.154-0.023,0.3-0.022,0.437c0.001,0.393,0.06,0.73,0.177,1.012c0.154,0.38,0.438,0.766,0.849,1.153l2.961,2.616
		c0.775,0.694,1.363,1.465,1.767,2.312c0.319,0.664,0.479,1.426,0.481,2.283c0,0.225-0.011,0.457-0.032,0.701
		c-0.143,1.477-0.679,2.698-1.607,3.662C64.728,51.53,63.58,52.1,62.213,52.274z"/>
	<path fill="#F1F2F2" d="M73.853,50.788c-1.02,0.13-1.856,0.073-2.51-0.167c-0.652-0.241-1.128-0.644-1.421-1.207
		c-0.304-0.555-0.495-1.244-0.574-2.066c-0.031-0.316-0.048-0.647-0.049-0.992c-0.002-0.561,0.039-1.163,0.122-1.808l1.318-13.514
		l2.456-0.313l-1.319,13.635c-0.067,0.513-0.101,0.994-0.1,1.443c0.001,0.119,0.004,0.239,0.013,0.358
		c0.024,0.55,0.099,1.023,0.224,1.42c0.124,0.397,0.358,0.692,0.703,0.885s0.795,0.253,1.351,0.182
		c0.439-0.056,0.828-0.186,1.162-0.389c0.337-0.203,0.609-0.446,0.822-0.73c0.211-0.282,0.392-0.641,0.541-1.072
		c0.15-0.433,0.263-0.858,0.338-1.282c0.077-0.423,0.141-0.917,0.193-1.484l1.33-13.637l2.468-0.315l-1.319,13.515
		c-0.083,0.877-0.199,1.652-0.354,2.33c-0.152,0.677-0.371,1.328-0.654,1.953c-0.284,0.625-0.633,1.15-1.045,1.576
		c-0.411,0.425-0.929,0.786-1.549,1.081C75.379,50.484,74.664,50.685,73.853,50.788z"/>
	<path fill="#F1F2F2" d="M86.57,49.164c-0.795,0.102-1.483,0.079-2.063-0.068c-0.58-0.146-1.038-0.394-1.375-0.743
		s-0.6-0.787-0.792-1.313c-0.189-0.524-0.294-1.114-0.311-1.77c0-0.128,0-0.26-0.001-0.396c-0.001-0.537,0.02-1.108,0.064-1.716
		l0.711-7.232c0.104-1.072,0.274-2.007,0.508-2.807c0.233-0.799,0.566-1.529,1.002-2.189c0.435-0.661,1.007-1.19,1.716-1.59
		c0.709-0.398,1.559-0.662,2.548-0.788c0.88-0.112,1.62-0.079,2.224,0.101s1.064,0.504,1.382,0.972
		c0.317,0.469,0.528,1.04,0.63,1.717c0.055,0.346,0.083,0.728,0.084,1.144c0.001,0.385-0.021,0.805-0.065,1.259l-0.158,1.571
		l-2.456,0.313l0.136-1.388c0.03-0.3,0.053-0.546,0.068-0.736c0.015-0.189,0.026-0.41,0.037-0.659
		c0.012-0.251,0.009-0.453-0.007-0.607s-0.04-0.324-0.076-0.513c-0.035-0.188-0.086-0.334-0.152-0.438
		c-0.065-0.104-0.15-0.209-0.256-0.316c-0.104-0.106-0.23-0.183-0.376-0.229c-0.147-0.044-0.321-0.075-0.521-0.09
		c-0.201-0.014-0.426-0.005-0.673,0.027c-0.447,0.057-0.836,0.174-1.163,0.353c-0.328,0.177-0.592,0.388-0.791,0.629
		c-0.202,0.243-0.37,0.563-0.508,0.961c-0.139,0.398-0.24,0.787-0.304,1.163c-0.065,0.378-0.128,0.854-0.188,1.431l-0.776,8.047
		c-0.054,0.504-0.08,0.952-0.078,1.344c0.002,0.802,0.111,1.389,0.33,1.763c0.309,0.553,0.936,0.77,1.877,0.648
		c0.363-0.046,0.681-0.126,0.95-0.241c0.27-0.114,0.499-0.275,0.688-0.484c0.188-0.208,0.345-0.42,0.467-0.637
		c0.123-0.216,0.227-0.502,0.311-0.857c0.084-0.354,0.149-0.682,0.194-0.98c0.045-0.298,0.091-0.683,0.136-1.153l0.135-1.472
		l2.456-0.313l-0.146,1.473c-0.09,0.965-0.246,1.819-0.468,2.561c-0.223,0.742-0.54,1.42-0.951,2.033s-0.95,1.107-1.618,1.481
		C88.282,48.801,87.489,49.047,86.57,49.164z"/>
	<path fill="#F1F2F2" d="M98.73,47.611c-0.795,0.102-1.483,0.078-2.063-0.068c-0.58-0.146-1.038-0.394-1.376-0.743
		c-0.336-0.351-0.6-0.787-0.791-1.313c-0.189-0.525-0.295-1.114-0.311-1.77c0-0.128,0-0.26-0.001-0.396
		c-0.001-0.537,0.019-1.108,0.064-1.716l0.711-7.232c0.104-1.072,0.274-2.007,0.508-2.807c0.233-0.799,0.566-1.529,1.002-2.189
		c0.435-0.661,1.007-1.19,1.716-1.59s1.559-0.662,2.548-0.788c0.879-0.112,1.62-0.079,2.224,0.101
		c0.604,0.179,1.063,0.503,1.382,0.972c0.317,0.468,0.527,1.04,0.63,1.717c0.055,0.346,0.083,0.728,0.084,1.144
		c0.001,0.385-0.021,0.805-0.066,1.259l-0.157,1.571l-2.456,0.313l0.136-1.388c0.03-0.3,0.053-0.546,0.068-0.736
		c0.014-0.189,0.026-0.41,0.037-0.66c0.012-0.25,0.009-0.452-0.007-0.606c-0.017-0.154-0.04-0.325-0.076-0.513
		c-0.035-0.188-0.086-0.334-0.152-0.438c-0.065-0.104-0.151-0.21-0.256-0.316c-0.104-0.107-0.23-0.183-0.377-0.229
		c-0.146-0.045-0.32-0.075-0.521-0.09c-0.202-0.014-0.426-0.005-0.673,0.026c-0.447,0.058-0.836,0.175-1.163,0.353
		c-0.328,0.178-0.592,0.389-0.791,0.63c-0.202,0.243-0.37,0.563-0.508,0.961c-0.139,0.398-0.24,0.786-0.305,1.163
		s-0.128,0.854-0.188,1.431l-0.776,8.046c-0.054,0.504-0.08,0.953-0.078,1.345c0.002,0.802,0.11,1.389,0.33,1.763
		c0.309,0.553,0.936,0.77,1.877,0.648c0.363-0.046,0.68-0.127,0.95-0.241c0.27-0.114,0.499-0.275,0.688-0.484
		c0.188-0.208,0.345-0.42,0.467-0.637c0.123-0.216,0.228-0.502,0.312-0.857c0.084-0.354,0.149-0.682,0.194-0.98
		c0.045-0.298,0.09-0.683,0.136-1.153l0.135-1.472l2.455-0.313l-0.146,1.473c-0.091,0.965-0.246,1.819-0.468,2.561
		c-0.223,0.742-0.54,1.42-0.951,2.033s-0.95,1.107-1.618,1.48C100.442,47.248,99.649,47.493,98.73,47.611z"/>
	<path fill="#F1F2F2" d="M106.141,46.447l1.962-20.185l7.39-0.944l-0.191,2.021l-4.794,0.612l-0.667,6.758l3.903-0.498l-0.18,1.958
		l-3.902,0.499l-0.733,7.487l4.864-0.621l-0.204,1.962L106.141,46.447z"/>
	<path fill="#F1F2F2" d="M120.237,44.864c-1.606,0.205-2.777-0.158-3.513-1.091c-0.667-0.845-1.002-2.04-1.007-3.587
		c0-0.16,0.002-0.328,0.011-0.506l2.373-0.952c-0.008,0.192-0.011,0.378-0.01,0.555c0.008,0.384,0.027,0.729,0.06,1.037
		c0.048,0.459,0.151,0.894,0.311,1.302c0.158,0.408,0.405,0.709,0.738,0.903c0.333,0.193,0.749,0.259,1.252,0.194
		c0.71-0.091,1.27-0.364,1.677-0.82c0.409-0.457,0.651-1.084,0.725-1.879c0.016-0.162,0.023-0.315,0.022-0.46
		c0-0.176-0.013-0.35-0.035-0.523c-0.047-0.307-0.112-0.569-0.194-0.787c-0.081-0.219-0.213-0.447-0.396-0.689
		c-0.182-0.24-0.347-0.438-0.493-0.592c-0.148-0.153-0.357-0.357-0.628-0.611l-2.938-2.631c-0.58-0.535-0.987-1.124-1.221-1.768
		c-0.164-0.451-0.246-0.982-0.247-1.592c-0.001-0.265,0.014-0.543,0.042-0.835c0.144-1.453,0.656-2.636,1.539-3.551
		c0.881-0.913,2.018-1.468,3.407-1.661c0.03-0.004,0.058-0.008,0.081-0.01c1.482-0.182,2.561,0.094,3.234,0.824
		c0.65,0.719,0.979,1.907,0.982,3.566c0.001,0.072,0.001,0.148,0.001,0.229l-2.257,0.913c0.007-0.186,0.011-0.366,0.01-0.542
		c-0.001-0.346-0.018-0.652-0.048-0.92c-0.049-0.41-0.146-0.791-0.294-1.141s-0.379-0.593-0.696-0.729
		c-0.271-0.117-0.599-0.151-0.984-0.103c-0.069,0.009-0.144,0.022-0.221,0.041c-1.475,0.276-2.279,1.12-2.414,2.531
		c-0.016,0.154-0.023,0.3-0.022,0.437c0.001,0.393,0.06,0.73,0.177,1.012c0.154,0.38,0.438,0.766,0.849,1.153l2.961,2.616
		c0.775,0.694,1.363,1.465,1.768,2.312c0.318,0.664,0.479,1.426,0.481,2.283c0,0.225-0.011,0.457-0.033,0.701
		c-0.143,1.477-0.678,2.698-1.607,3.662C122.751,44.12,121.604,44.689,120.237,44.864z"/>
	<path fill="#F1F2F2" d="M131.425,43.436c-1.606,0.205-2.777-0.158-3.513-1.091c-0.667-0.845-1.002-2.04-1.007-3.587
		c0-0.16,0.002-0.328,0.011-0.506l2.372-0.952c-0.007,0.192-0.01,0.378-0.009,0.554c0.008,0.385,0.027,0.729,0.06,1.038
		c0.048,0.459,0.151,0.894,0.311,1.302c0.158,0.408,0.405,0.709,0.737,0.903c0.334,0.193,0.75,0.259,1.253,0.194
		c0.709-0.091,1.268-0.364,1.676-0.82c0.41-0.457,0.652-1.084,0.725-1.879c0.016-0.162,0.023-0.315,0.023-0.46
		c0-0.176-0.014-0.35-0.035-0.524c-0.049-0.306-0.113-0.568-0.195-0.786c-0.08-0.219-0.213-0.448-0.395-0.689
		c-0.184-0.24-0.348-0.438-0.494-0.592c-0.148-0.153-0.357-0.357-0.627-0.611l-2.939-2.631c-0.581-0.535-0.987-1.124-1.221-1.768
		c-0.164-0.451-0.246-0.982-0.247-1.592c-0.001-0.265,0.014-0.543,0.042-0.835c0.144-1.453,0.656-2.636,1.539-3.551
		c0.881-0.914,2.018-1.468,3.408-1.661c0.029-0.004,0.057-0.008,0.08-0.011c1.482-0.182,2.561,0.094,3.234,0.825
		c0.65,0.719,0.979,1.907,0.982,3.566c0,0.072,0,0.148,0,0.229l-2.256,0.913c0.008-0.186,0.012-0.367,0.01-0.543
		c0-0.345-0.018-0.651-0.047-0.92c-0.049-0.41-0.146-0.79-0.295-1.141c-0.146-0.35-0.379-0.592-0.695-0.729
		c-0.271-0.117-0.6-0.152-0.984-0.103c-0.07,0.009-0.145,0.022-0.221,0.041c-1.475,0.276-2.28,1.12-2.415,2.531
		c-0.016,0.154-0.023,0.3-0.022,0.437c0.001,0.393,0.06,0.73,0.177,1.012c0.154,0.38,0.438,0.766,0.849,1.153l2.96,2.616
		c0.775,0.694,1.363,1.465,1.768,2.311c0.318,0.665,0.479,1.426,0.48,2.283c0,0.225-0.01,0.458-0.031,0.702
		c-0.143,1.477-0.68,2.698-1.607,3.661C133.939,42.691,132.791,43.261,131.425,43.436z"/>
</g>
<path id="XMLID_84_" fill-rule="evenodd" clip-rule="evenodd" fill="#58595B" d="M153.422,3.329c0.926,0,1.68-0.709,1.68-1.578
	s-0.754-1.579-1.68-1.579c-0.924,0-1.68,0.71-1.68,1.579S152.498,3.329,153.422,3.329z"/>
<path id="XMLID_83_" fill-rule="evenodd" clip-rule="evenodd" fill="#6D6E70" d="M153.422,0.171c0.625,0,1.17,0.319,1.459,0.796
	c-0.088,0.528-0.625,1.01-1.346,1.154c-0.793,0.158-1.533-0.143-1.758-0.685C151.932,0.715,152.609,0.171,153.422,0.171z"/>
<path fill-rule="evenodd" clip-rule="evenodd" fill="#404041" d="M160.061,158.531c0.1,0.465,0.068,1.262,0.699,2.225
	s2.52,1.141,4.033,1.479c1.512,0.34,2.209,1.559,1.014,1.666s-8.303-0.037-9.432-0.037c-0.127,0-0.779-1.148-0.779-1.148
	c-0.15-0.01-0.348,1.148-0.521,1.148c-1.223,0-2.994,0.211-2.916-0.285c0.098-0.631,0.465-5.146,0.465-5.146L160.061,158.531z"/>
<path fill-rule="evenodd" clip-rule="evenodd" fill="#404041" d="M132.164,158.531c0.1,0.465,0.066,1.262,0.697,2.225
	s2.52,1.141,4.033,1.479c1.514,0.34,2.211,1.559,1.014,1.666c-1.195,0.107-8.302-0.037-9.431-0.037
	c-0.127,0-0.779-1.148-0.779-1.148c-0.15-0.01-0.522,1.018-0.688,0.963c-1.255-0.424-2.896-1.463-2.817-1.959
	c0.1-0.631,1.726-4.715,1.726-4.715L132.164,158.531z"/>
<linearGradient id="SVGID_1_" gradientUnits="userSpaceOnUse" x1="110.4038" y1="133.6816" x2="148.5327" y2="133.6816">
	<stop  offset="0" style="stop-color:#58595B"/>
	<stop  offset="1" style="stop-color:#231F20"/>
</linearGradient>
<path fill-rule="evenodd" clip-rule="evenodd" fill="url(#SVGID_1_)" d="M149.871,107.913c4.26,6.289,12.543,22.242,12.424,25.369
	c-0.4,10.451,0.242,22.714,0.494,26.419c0,0.01-10.426,1.135-10.693,0.93c-1.277-7.232,0.871-22.934,1.26-26.844
	c0.234-2.369-9.758-14.429-9.758-14.429c-0.154,4.504-0.088,6.66-0.666,16.807c-0.184,3.216-6.709,17.324-8.791,24.253
	c-6.151,0.016-5.995-0.461-9.478-2.793c-0.165-0.109,8.406-19.517,9.339-21.509c0.641-14.193-3.718-16.252-1.66-29.408
	L149.871,107.913z"/>
<path fill-rule="evenodd" clip-rule="evenodd" fill="#6D6E71" d="M155.291,160.457c-1.73,0.152-3.102,0.246-3.195,0.174
	c-1.277-7.232,0.871-22.934,1.26-26.844c0.234-2.369-9.758-14.429-9.758-14.429c-0.154,4.504-0.088,6.66-0.666,16.807
	c-0.184,3.216-6.709,17.324-8.791,24.253c-6.151,0.016-5.995-0.461-9.478-2.793c-0.01-0.006,0.009-0.074,0.051-0.193
	c2.263,0.865,6.866,2.496,7.544,1.729c0.904-1.025,6.086-14.741,7.148-16.833s1.66-3.952,1.66-3.952s0.465-8.104,0.6-10.894
	c0.133-2.79,1.328-12.223,1.328-12.223s10.494,14.747,11.027,15.942c0.531,1.195-0.332,9.432-0.332,9.831
	c0,0.398-0.93,18.466-0.299,18.732C153.697,159.893,154.535,160.188,155.291,160.457z"/>
<path fill-rule="evenodd" clip-rule="evenodd" fill="#58595B" d="M132.189,106.987c0.775,0.167,7.363,0.828,11.625,0.371
	c4.26-0.457,6.225-1.466,6.225-1.466l0.361,2.813c0,0-1.248,1.773-8.4,1.719c-7.15-0.056-10.144-0.887-10.144-0.887L132.189,106.987
	z"/>
<path fill-rule="evenodd" clip-rule="evenodd" fill="#404041" d="M147.186,107.954c0.035,0.184,0.33,2.001-0.121,2.246
	c-0.449,0.245-2.967,0.378-3.199,0.328s-0.398-1.959-0.299-1.993C143.666,108.502,147.186,107.954,147.186,107.954z"/>
<linearGradient id="SVGID_2_" gradientUnits="userSpaceOnUse" x1="130.4185" y1="89.5142" x2="150.7598" y2="89.5142">
	<stop  offset="0" style="stop-color:#E6E7E8"/>
	<stop  offset="1" style="stop-color:#6D6E71"/>
</linearGradient>
<path fill-rule="evenodd" clip-rule="evenodd" fill="url(#SVGID_2_)" d="M142.369,70.001c0.82,1.242,1.932,2.272,1.932,2.272
	c6.436,1.038,5.879,27.913,6.459,33.904c-1.557,4.383-17.896,2.722-20.341,1.473c1.418-13.205,3.818-22.398,0.61-35.254
	c2.34-0.258,3.866-0.479,3.866-0.479L142.369,70.001L142.369,70.001z"/>
<path fill-rule="evenodd" clip-rule="evenodd" fill="#6D6E71" d="M150.453,99.642c0.105,2.862,0.178,5.211,0.307,6.536
	c-1.107,3.118-9.699,3.177-15.445,2.501c-0.221-0.245-0.303-0.427-0.303-0.427s13.367-1.279,13.975-1.947
	c0.609-0.668,0.057-3.451-0.309-5.277s-5.385-27.363-5.385-27.363s2.563,1.226,2.828,1.358
	C146.121,75.023,148.814,90.297,150.453,99.642z"/>
<polygon fill-rule="evenodd" clip-rule="evenodd" fill="#A6A8AB" points="132.963,72.171 132.607,70.125 142.578,69.289 
	143.844,71.818 "/>
<path fill-rule="evenodd" clip-rule="evenodd" fill="#FBD2C0" d="M129.605,57.501c3.018-3.489,4.292-4.36,8.157-3.018
	c0.32,0.111,1.156,1.761,1.438,1.802c0.951,0.142,2.059,0.207,3.688,0.468l0.016,1.903c0,0,1.566,3.199,1.928,4.46
	c0.359,1.261-3.01,4.491-3.002,5.709s1.02,1.895,1.281,2.519l0,0l-1.424,4.568c0,0-8.523-3.663-8.072-4.172
	c0.289-0.328,0.104-2.255,0.104-2.255c-0.35-1.218-0.381-1.278-0.84-1.448C128.065,66.246,126.166,61.479,129.605,57.501z"/>
<polygon fill-rule="evenodd" clip-rule="evenodd" fill="#EDBFAF" points="142.77,56.735 142.771,56.736 142.887,56.756 
	142.902,58.657 140.326,58.993 138.957,56.755 140.51,58.418 "/>
<path fill-rule="evenodd" clip-rule="evenodd" fill="#EDBFAF" d="M144.83,63.117c0.359,1.261-3.01,4.491-3.002,5.709
	s1.02,1.895,1.281,2.52l0,0l-1.041,3.333c-1.535,0.133-3.031,0.055-3.689-0.242l-0.023-0.011c-0.975-0.45-3.135-2.028-4.617-3.15
	c0.045-0.637,0.146-1.451,0.146-1.451c-0.295-0.262-0.215-1.397-0.787-1.585c0.215-0.45,0.342-0.705,0.465-0.996
	c0.125-0.292-1.361-2.559-1.361-2.559s0.77,0.155,0.9-0.5c0.492,0.51,1.154,1.32,1.705,1.5
	C137.914,66.699,142.914,63.09,144.83,63.117z"/>
<linearGradient id="SVGID_3_" gradientUnits="userSpaceOnUse" x1="127.2979" y1="61.0317" x2="138.2129" y2="61.0317">
	<stop  offset="0" style="stop-color:#9A6046"/>
	<stop  offset="0.5" style="stop-color:#6E2405"/>
	<stop  offset="1" style="stop-color:#4E0000"/>
</linearGradient>
<path fill-rule="evenodd" clip-rule="evenodd" fill="url(#SVGID_3_)" d="M138.176,54.946c0.08-0.425,0.074-1.19-0.457-1.426
	c-2.955-1.312-9.356,2.485-10.242,5.81c-0.237,0.89,0.135,2.088,0.135,2.088c-0.803,1.607,0.087,2.925,0.943,3.8
	c1.456,1.49,4.738,3.592,4.738,3.592s0.281-2.029,0.25-2.207s-1.342-1.919-1.342-1.919s-0.913-0.094-1.652-0.854
	c-0.737-0.759-0.888-1.202-0.352-1.853c0.535-0.65,0.956-0.546,1.473-0.398c0.515,0.149,1.646,1.578,1.791,1.501
	c0.145-0.076,0.65-0.292,0.65-0.292c-1.736-1.727-3.66-6.41-0.346-7.727C136.955,53.793,138.176,54.946,138.176,54.946z"/>
<path fill-rule="evenodd" clip-rule="evenodd" fill="#EDBFAF" d="M138.213,56.033c-0.15-0.028-3.338,0.256-3.646,0.379
	c-0.307,0.124-1.16,0.948-1.16,0.948s3.086,0.526,3.4,0.377c0.313-0.148,1.545-0.927,1.545-0.927L138.213,56.033z"/>
<path fill-rule="evenodd" clip-rule="evenodd" fill="#A6A8AB" d="M135.201,74.194c0.389-0.98,0.732-1.854,1.119-2.835
	c1.199,0.376,3.137,0.979,3.516,0.931c0,0,1.035,3.417,0.951,3.401L135.201,74.194z"/>
<linearGradient id="SVGID_4_" gradientUnits="userSpaceOnUse" x1="131.7456" y1="132.9067" x2="131.7456" y2="84.5563">
	<stop  offset="0" style="stop-color:#58595B"/>
	<stop  offset="1" style="stop-color:#231F20"/>
</linearGradient>
<path fill-rule="evenodd" clip-rule="evenodd" fill="url(#SVGID_4_)" d="M136.383,73.49c3.391,0.793-0.314,38.511-0.314,38.511
	c-0.715-0.715-6.339,0.109-10.39-1.692l2.104-9.851l1.5-18.139l1.745-9.914c0.152-0.019,0.306-0.038,0.46-0.059L136.383,73.49z"/>
<path fill-rule="evenodd" clip-rule="evenodd" fill="#FBD2C0" d="M110.817,56.452c0.285-0.655,0.754-1.17,1.161-2.239
	c0.18-0.472,0.243-1.134,0.265-1.765c0.332-0.177,0.801-0.629,0.983-1.01c0.251-0.525-0.389-1.714-0.687-1.966
	c-0.114-0.097-0.36-0.151-0.669-0.175c-0.156-0.328-0.407-0.666-0.634-0.809c-0.223-0.141-0.609-0.096-1.002-0.003
	c-0.271-0.455-0.482-0.385-0.986-0.316c-0.736,0.101-2.105,0.642-2.598,1.22c-0.637,0.751-0.553,2.081-0.192,3.021
	c0.359,0.94,0.892,2.373,1.484,2.908C108.535,55.855,110.817,56.452,110.817,56.452z"/>
<path fill-rule="evenodd" clip-rule="evenodd" fill="#FFFFFF" d="M112.362,55.958c-0.013-0.104,0.129-0.518,0.129-0.518
	l-0.281-1.315c0,0-5.59,1.306-5.432,1.212c0.156-0.093,0.568,2.12,0.568,2.12L112.362,55.958z"/>
<linearGradient id="SVGID_5_" gradientUnits="userSpaceOnUse" x1="106.6704" y1="69.061" x2="131.9146" y2="69.061">
	<stop  offset="0" style="stop-color:#58595B"/>
	<stop  offset="1" style="stop-color:#231F20"/>
</linearGradient>
<path fill-rule="evenodd" clip-rule="evenodd" fill="url(#SVGID_5_)" d="M131.915,83.139c-4.209-1.131-15.406-5.583-17.48-7.617
	c-1.171-1.146-5.907-9.295-7.764-18.668c1.926-0.749,4.52-1.648,6.846-1.871c1.484,7.485,4.334,13.646,5.455,15.479
	c0,0,4.57,1.251,7.939,2.01c0,0,3.654-0.028,4.576-0.125L131.915,83.139z"/>
<path fill-rule="evenodd" clip-rule="evenodd" fill="#4B4B4E" d="M136.482,73.49c1.943,0.908,1.588,12.33,0.666,24.669
	c-0.006-0.036-3.361-16.898-3.361-16.898l2.172-2.698l-3.523,0.346l0.527-6.736L136.482,73.49z"/>
<path fill-rule="evenodd" clip-rule="evenodd" fill="#FBD2C0" d="M166.502,54.371c0.057-0.649,0.707-1.842,0.75-2.885
	c0.041-1.044,0.213-2.604-0.139-3.29s-2.258-0.897-3.678-0.856c-1.418,0.042-2.127,0.71-2.461,1.545
	c-0.334,0.833,0.125,1.961,0.709,2.67s1.211,1.377,1.252,2.169C162.977,54.516,166.502,54.371,166.502,54.371z"/>
<path fill-rule="evenodd" clip-rule="evenodd" fill="#EFC8B7" d="M166.113,48.247c0.215,0.12,0.369,0.219,0.332,0.398
	c-0.039,0.18,0.057,1.377,0.051,1.752c-0.008,0.376-0.984,0.871-1.361,1.005c-0.373,0.135-1.746-0.164-1.746-0.164
	s-0.182-0.151-0.541-0.71c-0.361-0.558-0.557-0.727-0.557-0.727s1.164,0.302,1.17,0.214c0.004-0.088-1.043-0.595-0.756-1.212
	s0.572-1.025,0.92-1.043S166.113,48.247,166.113,48.247z"/>
<polygon fill-rule="evenodd" clip-rule="evenodd" fill="#FFFFFF" points="162.686,55.226 162.664,53.119 166.961,53.39 
	166.67,55.331 "/>
<linearGradient id="SVGID_6_" gradientUnits="userSpaceOnUse" x1="155.4814" y1="123.0469" x2="155.4814" y2="60.296">
	<stop  offset="0" style="stop-color:#58595B"/>
	<stop  offset="1" style="stop-color:#231F20"/>
</linearGradient>
<path fill-rule="evenodd" clip-rule="evenodd" fill="url(#SVGID_6_)" d="M143.273,71.19c1.988-0.386,4.287,0.173,6.57-0.1
	c0.781-0.094,7.908-2.396,7.908-2.396c1.291-2.406,2.523-8.59,3.629-15.631l6.309,0.718c-2.295,11.587-4.111,15.791-5.057,18.503
	c-0.344,0.986-6.492,4.974-11.117,7.131l2.166,21.811l1.582,7.452l-4.471,0.649L143.273,71.19z"/>
<polygon fill-rule="evenodd" clip-rule="evenodd" fill="#4B4B4E" points="143.842,70.763 144.514,71.057 149.205,77.677 
	145.615,77.368 148.477,79.142 148.266,95.358 143.125,71 "/>
<path fill-rule="evenodd" clip-rule="evenodd" fill="#A6A8AB" d="M141.939,71.706l0.299-0.587c0.027-0.052,1.824,2.025,1.824,2.025
	s-1.676,2.158-1.697,1.982L141.939,71.706z"/>
<path fill-rule="evenodd" clip-rule="evenodd" fill="#424242" d="M142.648,75.308l5.281,27.864l-1.84,5.903l-4-5.713l-1.303-27.672
	l-0.029,0.006l-2.084-3.155c0.207-0.06,3.959-1.012,3.959-1.012l0.021,3.777L142.648,75.308z"/>
<path fill-rule="evenodd" clip-rule="evenodd" fill="#333232" d="M147.93,103.172l-1.84,5.903l-4-5.713l-1.303-27.672l-0.029,0.006
	l-1.824-2.76l0.902-0.647c0,0,1.057,2.851,1.139,2.967c0.084,0.116,1.574-0.322,1.402-0.119c-0.174,0.201-1.285,0.866-1.285,0.866
	s1.643,26.586,1.709,26.935s3.09,5.215,3.09,5.215L147.93,103.172z"/>
<linearGradient id="SVGID_7_" gradientUnits="userSpaceOnUse" x1="141.8848" y1="72.2666" x2="144.3984" y2="72.2666">
	<stop  offset="0" style="stop-color:#E6E7E8"/>
	<stop  offset="1" style="stop-color:#6D6E71"/>
</linearGradient>
<polygon fill-rule="evenodd" clip-rule="evenodd" fill="url(#SVGID_7_)" points="141.885,71.653 144.398,75.245 144.383,70.277 
	142.578,69.289 "/>
<linearGradient id="SVGID_8_" gradientUnits="userSpaceOnUse" x1="131.4575" y1="73.4229" x2="139.8359" y2="73.4229">
	<stop  offset="0" style="stop-color:#E6E7E8"/>
	<stop  offset="1" style="stop-color:#6D6E71"/>
</linearGradient>
<polygon fill-rule="evenodd" clip-rule="evenodd" fill="url(#SVGID_8_)" points="131.458,72.349 132.607,70.125 139.836,72.29 
	138.027,76.72 "/>
<path fill-rule="evenodd" clip-rule="evenodd" fill="#FBD2C0" d="M163.293,46.5c-0.254-0.282-0.758-0.302-1.094-0.175
	c-0.334,0.128-0.621,0.55-0.703,0.671c-0.08,0.12-0.307,1.661-0.295,1.729c0.014,0.066,0.457,1.246,0.887,1.246
	c0.428,0,0.656-0.442,0.656-0.616c0-0.175-0.068-0.857-0.068-0.857s0.037-0.607,0.104-0.62c0.066-0.014,0.521-0.09,0.643-0.412
	C163.541,47.144,163.293,46.5,163.293,46.5z"/>
<path fill-rule="evenodd" clip-rule="evenodd" fill="#F2C3AF" d="M163.232,47.242c-0.07,0.046-0.033-0.687-0.148-0.851
	c-0.088-0.127-0.318,0.247-0.398,0.328c-0.18,0.186-0.27,0.787-0.307,0.842c-0.057,0.084-0.129,0.569-0.061,1.139
	c0.014,0.091,0.188,0.392,0.201,0.484c0.107,0.677-0.236,0.627-0.402,0.616s-0.4-0.202-0.574-0.331
	c0.156,0.267,0.352,0.502,0.545,0.502c0.428,0,0.656-0.442,0.656-0.616c0-0.175-0.068-0.857-0.068-0.857s0.037-0.607,0.104-0.62
	c0.066-0.014,0.521-0.09,0.643-0.412c0.037-0.102,0.039-0.236,0.021-0.373C163.381,47.137,163.309,47.188,163.232,47.242z"/>
<path fill-rule="evenodd" clip-rule="evenodd" fill="#FBD2C0" d="M164.486,46.366c-0.256-0.281-0.758-0.301-1.094-0.174
	c-0.334,0.127-0.623,0.549-0.703,0.67s-0.309,1.662-0.295,1.729c0.014,0.067,0.455,1.247,0.885,1.247s0.656-0.442,0.656-0.616
	c0-0.175-0.068-0.858-0.068-0.858s0.037-0.606,0.105-0.62c0.066-0.013,0.521-0.089,0.641-0.41
	C164.734,47.01,164.486,46.366,164.486,46.366z"/>
<path fill-rule="evenodd" clip-rule="evenodd" fill="#F2C3AF" d="M164.125,46.772c-0.449,0.316-0.682,1.627-0.607,2.104
	c0.107,0.677-0.043,0.802-0.207,0.792c-0.166-0.013-0.398-0.204-0.576-0.332c0.16,0.267,0.354,0.502,0.545,0.502
	c0.43,0,0.656-0.442,0.656-0.616c0-0.175-0.068-0.858-0.068-0.858s0.037-0.606,0.105-0.62c0.066-0.013,0.563-0.199,0.641-0.41
	c0.08-0.213-0.014-0.512-0.029-0.648C164.527,46.49,164.199,46.718,164.125,46.772z"/>
<path fill-rule="evenodd" clip-rule="evenodd" fill="#FBD2C0" d="M165.705,46.727c-0.256-0.281-0.758-0.302-1.094-0.174
	c-0.334,0.127-0.623,0.549-0.703,0.67c-0.08,0.12-0.309,1.662-0.295,1.729s0.455,1.247,0.885,1.247c0.428,0,0.656-0.442,0.656-0.616
	c0-0.176-0.066-0.858-0.066-0.858s0.035-0.606,0.104-0.62c0.066-0.014,0.52-0.09,0.641-0.411S165.705,46.727,165.705,46.727z"/>
<path fill-rule="evenodd" clip-rule="evenodd" fill="#F2C3AF" d="M165.543,47.241c-0.301,0.211-0.506,0.551-0.57,0.649
	c-0.066,0.099-0.242,0.743-0.135,1.42s-0.145,0.729-0.309,0.718c-0.166-0.012-0.4-0.203-0.574-0.331
	c0.156,0.266,0.352,0.502,0.543,0.502c0.428,0,0.656-0.442,0.656-0.616c0-0.176-0.066-0.858-0.066-0.858s0.035-0.606,0.104-0.62
	c0.066-0.014,0.561-0.199,0.641-0.411s0.113-0.404,0.098-0.541C165.867,47.196,165.775,46.948,165.543,47.241z"/>
<path fill-rule="evenodd" clip-rule="evenodd" fill="#FBD2C0" d="M166.984,47.23c-0.254-0.281-0.756-0.302-1.092-0.175
	c-0.334,0.128-0.623,0.55-0.703,0.671c-0.08,0.12-0.154,1.112-0.201,1.628s0.361,1.347,0.791,1.347c0.428,0,0.656-0.441,0.656-0.616
	c0-0.174-0.068-0.857-0.068-0.857s0.037-0.607,0.105-0.62c0.066-0.013,0.52-0.09,0.641-0.411S166.984,47.23,166.984,47.23z"/>
<path fill-rule="evenodd" clip-rule="evenodd" fill="#F2C3AF" d="M166.619,48.398c-0.301,0.212-0.34,0.017-0.406,0.115
	s-0.063,0.529,0.047,1.206c0.107,0.677-0.285,0.822-0.449,0.811c-0.166-0.01-0.441-0.199-0.615-0.328
	c0.156,0.268,0.273,0.499,0.584,0.499s0.656-0.441,0.656-0.616c0-0.174-0.068-0.857-0.068-0.857s0.037-0.607,0.105-0.62
	c0.066-0.013,0.402-0.046,0.426-0.271C166.912,48.208,166.717,48.331,166.619,48.398z"/>
<path fill-rule="evenodd" clip-rule="evenodd" fill="#F2C3AF" d="M160.975,48.884c0.131-0.351,0.283-0.417,0.594-0.619
	c0.139-0.089,0.434-0.072,0.648-0.042c0.215,0.029,1.494,0.429,1.85,0.63c0.355,0.2,0.563,0.336,0.58,0.506
	c0.016,0.169-0.119,0.456-0.273,0.548c-0.154,0.091-0.949-0.491-1.707-0.799C161.908,48.799,160.975,48.884,160.975,48.884z"/>
<path fill-rule="evenodd" clip-rule="evenodd" fill="#FBD2C0" d="M162.898,52.385c-0.893-0.004-2.549-2.354-1.924-3.501
	c0.303-0.558,0.877-0.586,0.986-0.586c0.105,0,1.164,0.192,1.799,0.558c0.633,0.364,1.135,0.599,0.613,1.051
	c-0.4,0.347-1.221,0.167-1.887,0.063c0.197,0.161,1.016,0.566,0.895,1.33S163.381,52.198,162.898,52.385z"/>
<path fill-rule="evenodd" clip-rule="evenodd" fill="#F2C3AF" d="M164.486,49.333c0.152,0.166,0.156,0.341-0.113,0.574
	c-0.4,0.347-1.221,0.167-1.887,0.063c0.137,0.112,1.283,0.61,0.895,1.33c-0.256,0.026-0.254-0.476-0.533-0.772
	c-0.281-0.297-0.471-0.512-0.545-0.598c-0.072-0.086-0.742-0.642-0.742-0.642s0.684,0.479,0.918,0.537
	c0.234,0.06,1.395,0.149,1.633,0.103C164.346,49.883,164.461,49.55,164.486,49.333z"/>
<path fill-rule="evenodd" clip-rule="evenodd" fill="#6D6E71" d="M127.782,100.458l-2.104,9.851c1.927,0.856,4.209,1.119,6.15,1.236
	c1.626,0.099,3.013,0.095,3.75,0.251c-0.637-0.182-2.275-0.666-3.691-1.203c-0.922-0.35-1.748-0.722-2.142-1.047
	c-1.163-0.963-0.765-4.65-0.599-5.746s0.83-14.713,0.896-16.439c0.041-1.049,0.697-2.979,1.205-4.41
	c0.237,0.07,0.444-0.265,0.65-0.21c-2.104-1.137-1.867-0.873-4.347-2.122c-1.419-0.715-11.923-6.111-12.255-6.211
	s-1.395-1.793-2.325-4.252c-0.749-1.98-3.192-10.08-4.112-13.149c-0.109-0.362-0.196-0.655-0.258-0.858
	c-0.493,0.168-0.969,0.34-1.417,0.51c-0.176,0.066-0.347,0.133-0.515,0.197c1.856,9.373,6.593,17.521,7.764,18.668
	c1.727,1.693,9.771,5.061,14.85,6.795L127.782,100.458z"/>
<linearGradient id="SVGID_9_" gradientUnits="userSpaceOnUse" x1="144.5703" y1="208.5234" x2="144.5703" y2="111.5651">
	<stop  offset="0" style="stop-color:#961C43"/>
	<stop  offset="0.4" style="stop-color:#FF6797"/>
	<stop  offset="0.8" style="stop-color:#800D32"/>
	<stop  offset="0.83" style="stop-color:#851136"/>
	<stop  offset="0.8676" style="stop-color:#951C43"/>
	<stop  offset="0.9092" style="stop-color:#AE2E57"/>
	<stop  offset="0.9537" style="stop-color:#D24773"/>
	<stop  offset="1" style="stop-color:#FF6797"/>
</linearGradient>
<path fill="url(#SVGID_9_)" d="M110.336,210.355c8.219-0.402,17.391-0.635,27.199-0.656c11.061-0.023,21.762,0.225,31.561,0.688
	c8.943,0.424,17.047,1.023,23.953,1.754v-42.006c-0.117-1.221-1.609-2.4-4.242-3.492c-2.678-1.109-6.529-2.123-11.285-2.98
	c-4.822-0.869-10.549-1.576-16.877-2.061c-6.375-0.488-13.318-0.748-20.486-0.725c-6.447,0.021-12.482,0.271-17.898,0.709
	c-5.381,0.434-10.119,1.047-14.035,1.799c-3.871,0.742-6.924,1.615-8.999,2.574c-2.044,0.947-3.135,1.975-3.135,3.047v42.305
	C100.39,210.934,105.159,210.611,110.336,210.355z"/>
<linearGradient id="SVGID_10_" gradientUnits="userSpaceOnUse" x1="96.0913" y1="187.5313" x2="193.0488" y2="187.5313">
	<stop  offset="0" style="stop-color:#961C43"/>
	<stop  offset="0.4" style="stop-color:#FF6797"/>
	<stop  offset="0.8" style="stop-color:#800D32"/>
	<stop  offset="0.83" style="stop-color:#851136"/>
	<stop  offset="0.8676" style="stop-color:#951C43"/>
	<stop  offset="0.9092" style="stop-color:#AE2E57"/>
	<stop  offset="0.9537" style="stop-color:#D24773"/>
	<stop  offset="1" style="stop-color:#FF6797"/>
</linearGradient>
<path fill="url(#SVGID_10_)" d="M110.336,211.381c8.219-0.404,17.391-0.637,27.199-0.658c11.061-0.023,21.762,0.225,31.561,0.688
	c8.943,0.424,17.047,1.023,23.953,1.754v-42.006c-0.117-1.219-1.609-2.4-4.242-3.49c-2.678-1.111-6.529-2.123-11.285-2.98
	c-4.822-0.871-10.549-1.578-16.877-2.063c-6.375-0.488-13.318-0.748-20.486-0.725c-6.447,0.023-12.482,0.273-17.898,0.709
	c-5.381,0.434-10.119,1.047-14.035,1.799c-3.871,0.742-6.924,1.615-8.999,2.576c-2.044,0.945-3.135,1.975-3.135,3.045v42.305
	C100.39,211.957,105.159,211.635,110.336,211.381z"/>
<linearGradient id="SVGID_11_" gradientUnits="userSpaceOnUse" x1="144.5703" y1="244.1553" x2="144.5703" y2="105.4413">
	<stop  offset="0" style="stop-color:#005D80"/>
	<stop  offset="0.4" style="stop-color:#4DCEFF"/>
	<stop  offset="0.8" style="stop-color:#005D80"/>
	<stop  offset="0.83" style="stop-color:#036285"/>
	<stop  offset="0.8676" style="stop-color:#0D7095"/>
	<stop  offset="0.9092" style="stop-color:#1C86AE"/>
	<stop  offset="0.9537" style="stop-color:#32A6D2"/>
	<stop  offset="1" style="stop-color:#4DCEFF"/>
</linearGradient>
<path fill="url(#SVGID_11_)" d="M95.594,245.639c11.758-0.404,24.879-0.635,38.914-0.656c15.822-0.023,31.129,0.225,45.148,0.688
	c12.795,0.424,24.389,1.023,34.27,1.754v-42.006c-0.168-1.221-2.303-2.402-6.068-3.492c-3.832-1.111-9.344-2.123-16.146-2.98
	c-6.898-0.869-15.09-1.576-24.145-2.061c-9.121-0.488-19.053-0.75-29.309-0.725c-9.224,0.021-17.857,0.271-25.605,0.709
	c-7.697,0.432-14.477,1.047-20.08,1.799c-5.538,0.74-9.904,1.613-12.873,2.574c-2.924,0.947-4.484,1.975-4.484,3.045v42.305
	C81.365,246.215,88.186,245.895,95.594,245.639z"/>
<linearGradient id="SVGID_12_" gradientUnits="userSpaceOnUse" x1="75.2153" y1="223.3887" x2="213.9258" y2="223.3887">
	<stop  offset="0" style="stop-color:#005D80"/>
	<stop  offset="0.4" style="stop-color:#4DCEFF"/>
	<stop  offset="0.8" style="stop-color:#005D80"/>
	<stop  offset="0.83" style="stop-color:#036285"/>
	<stop  offset="0.8676" style="stop-color:#0D7095"/>
	<stop  offset="0.9092" style="stop-color:#1C86AE"/>
	<stop  offset="0.9537" style="stop-color:#32A6D2"/>
	<stop  offset="1" style="stop-color:#4DCEFF"/>
</linearGradient>
<path fill="url(#SVGID_12_)" d="M95.594,247.236c11.758-0.404,24.879-0.635,38.914-0.656c15.822-0.023,31.129,0.223,45.148,0.688
	c12.795,0.422,24.389,1.021,34.27,1.754v-42.006c-0.168-1.221-2.303-2.402-6.068-3.492c-3.832-1.111-9.344-2.123-16.146-2.98
	c-6.898-0.869-15.09-1.576-24.145-2.061c-9.121-0.49-19.053-0.75-29.309-0.725c-9.224,0.021-17.857,0.271-25.605,0.709
	c-7.697,0.432-14.477,1.047-20.08,1.797c-5.538,0.742-9.904,1.615-12.873,2.576c-2.924,0.945-4.484,1.975-4.484,3.045v42.305
	C81.365,247.813,88.186,247.49,95.594,247.236z"/>
<linearGradient id="SVGID_13_" gradientUnits="userSpaceOnUse" x1="144.5703" y1="306.749" x2="144.5703" y2="127.5864">
	<stop  offset="0" style="stop-color:#BF6000"/>
	<stop  offset="0.4" style="stop-color:#FFA933"/>
	<stop  offset="0.8" style="stop-color:#BF6000"/>
	<stop  offset="0.8385" style="stop-color:#C36505"/>
	<stop  offset="0.8866" style="stop-color:#CF7513"/>
	<stop  offset="0.9399" style="stop-color:#E28E2A"/>
	<stop  offset="0.9965" style="stop-color:#FDB24B"/>
	<stop  offset="1" style="stop-color:#FFB44D"/>
</linearGradient>
<path fill="url(#SVGID_13_)" d="M226.313,240.547c-4.951-1.111-12.066-2.123-20.855-2.98c-8.91-0.869-19.492-1.576-31.186-2.061
	c-11.781-0.49-24.609-0.75-37.855-0.725c-11.914,0.021-23.064,0.271-33.071,0.709c-9.941,0.432-18.697,1.047-25.935,1.797
	c-7.154,0.742-12.793,1.615-16.628,2.576c-3.776,0.947-5.792,1.975-5.792,3.045v16.889v0.615v16.887c0,1.072,2.016,2.1,5.792,3.047
	c3.835,0.961,9.474,1.834,16.628,2.574c7.237,0.752,15.993,1.365,25.935,1.799c10.007,0.436,21.157,0.688,33.071,0.709
	c13.246,0.025,26.074-0.236,37.855-0.725c11.693-0.484,22.275-1.191,31.186-2.061c8.789-0.857,15.904-1.871,20.855-2.98
	c4.863-1.09,7.621-2.271,7.838-3.492v-15.758v-0.615v-15.758C233.934,242.818,231.176,241.637,226.313,240.547z"/>
<linearGradient id="SVGID_14_" gradientUnits="userSpaceOnUse" x1="54.9907" y1="262.0205" x2="234.1504" y2="262.0205">
	<stop  offset="0" style="stop-color:#BF6000"/>
	<stop  offset="0.4" style="stop-color:#FFA933"/>
	<stop  offset="0.8" style="stop-color:#BF6000"/>
	<stop  offset="0.8385" style="stop-color:#C36505"/>
	<stop  offset="0.8866" style="stop-color:#CF7513"/>
	<stop  offset="0.9399" style="stop-color:#E28E2A"/>
	<stop  offset="0.9965" style="stop-color:#FDB24B"/>
	<stop  offset="1" style="stop-color:#FFB44D"/>
</linearGradient>
<path fill="url(#SVGID_14_)" d="M226.313,242.463c-4.951-1.109-12.066-2.123-20.855-2.98c-8.91-0.869-19.492-1.576-31.186-2.061
	c-11.781-0.488-24.609-0.75-37.855-0.725c-11.914,0.021-23.064,0.271-33.071,0.707c-9.941,0.434-18.697,1.049-25.935,1.799
	c-7.154,0.742-12.793,1.615-16.628,2.576c-3.776,0.945-5.792,1.975-5.792,3.045v16.889v0.615v16.887c0,1.072,2.016,2.1,5.792,3.047
	c3.835,0.961,9.474,1.832,16.628,2.576c7.237,0.75,15.993,1.365,25.935,1.797c10.007,0.438,21.157,0.688,33.071,0.709
	c13.246,0.025,26.074-0.236,37.855-0.725c11.693-0.484,22.275-1.191,31.186-2.061c8.789-0.857,15.904-1.871,20.855-2.98
	c4.863-1.09,7.621-2.271,7.838-3.492v-15.758v-0.615v-15.758C233.934,244.734,231.176,243.553,226.313,242.463z"/>
<g>
	<path fill="#F1F2F2" d="M145.506,186.564c0,1.623-0.57,2.998-1.713,4.127s-2.51,1.693-4.107,1.693c-1.621,0-3-0.568-4.135-1.703
		s-1.703-2.508-1.703-4.117v-13.313c0-1.621,0.57-3,1.713-4.135c1.141-1.135,2.518-1.703,4.125-1.703
		c1.623,0,2.998,0.57,4.127,1.713c1.129,1.141,1.693,2.518,1.693,4.125V186.564z M141.691,173.174c0-0.582-0.209-1.082-0.623-1.498
		c-0.416-0.414-0.914-0.623-1.498-0.623s-1.08,0.209-1.49,0.623c-0.408,0.416-0.613,0.916-0.613,1.498v13.332
		c0,0.584,0.205,1.084,0.613,1.5c0.41,0.414,0.906,0.623,1.49,0.623s1.082-0.209,1.498-0.623c0.414-0.416,0.623-0.916,0.623-1.5
		V173.174z"/>
	<path fill="#F1F2F2" d="M151.617,192.131V173.35h-3.135v-2.568c0.883-0.104,1.723-0.438,2.521-1.002
		c0.797-0.564,1.371-1.25,1.723-2.055h2.568v24.406H151.617z"/>
</g>
<g>
	<path fill="#F1F2F2" d="M142.635,223.371c0,1.932-0.682,3.572-2.041,4.916c-1.361,1.346-2.992,2.02-4.895,2.02
		c-1.934,0-3.576-0.678-4.929-2.031c-1.354-1.352-2.029-2.986-2.029-4.904v-15.867c0-1.932,0.68-3.574,2.041-4.928
		c1.361-1.354,3-2.029,4.917-2.029c1.934,0,3.572,0.68,4.918,2.041s2.018,3,2.018,4.916V223.371z M138.088,207.412
		c0-0.695-0.246-1.291-0.742-1.787c-0.494-0.494-1.09-0.742-1.785-0.742c-0.697,0-1.287,0.248-1.775,0.742
		c-0.486,0.496-0.73,1.092-0.73,1.787v15.889c0,0.695,0.244,1.291,0.73,1.787c0.488,0.494,1.078,0.742,1.775,0.742
		c0.695,0,1.291-0.248,1.785-0.742c0.496-0.496,0.742-1.092,0.742-1.787V207.412z"/>
	<path fill="#F1F2F2" d="M146.184,209.129c0-2.752,0.742-4.855,2.227-6.311c1.283-1.283,2.969-1.924,5.057-1.924
		c1.918,0,3.553,0.719,4.906,2.156c1.352,1.439,2.029,3.117,2.029,5.033c0,1.98-0.441,3.891-1.322,5.73
		c-0.48,1.02-1.602,2.775-3.363,5.266c-0.48,0.68-1.191,1.738-2.135,3.178l-0.787,1.182c-0.512,0.773-0.898,1.385-1.16,1.834
		c-0.125,0.229-0.186,0.367-0.186,0.416h8.605v4.291h-13.941v-4.02c0-0.094,0.318-0.629,0.957-1.605
		c0.295-0.447,0.629-0.939,1.002-1.48l1.141-1.645c0.666-0.912,1.711-2.373,3.135-4.383c1.348-1.885,2.354-3.594,3.02-5.123
		c0.543-1.252,0.813-2.42,0.813-3.502c0-0.881-0.246-1.631-0.742-2.25c-0.541-0.648-1.236-0.973-2.086-0.973
		c-1.223,0-2.088,0.703-2.6,2.111c-0.17,0.463-0.254,1.02-0.254,1.67v1.113h-4.314V209.129z"/>
</g>
<g>
	<path fill="#F1F2F2" d="M142.559,270.205c0,2.332-0.82,4.307-2.461,5.93c-1.641,1.621-3.607,2.432-5.9,2.432
		c-2.332,0-4.312-0.814-5.943-2.445c-1.632-1.633-2.447-3.604-2.447-5.916v-19.127c0-2.33,0.82-4.311,2.461-5.941
		c1.641-1.633,3.617-2.447,5.929-2.447c2.33,0,4.307,0.82,5.928,2.461c1.623,1.641,2.434,3.617,2.434,5.928V270.205z
		 M137.076,250.967c0-0.84-0.297-1.557-0.895-2.154c-0.596-0.596-1.314-0.895-2.152-0.895c-0.84,0-1.553,0.299-2.139,0.895
		c-0.588,0.598-0.881,1.314-0.881,2.154v19.154c0,0.84,0.293,1.559,0.881,2.154c0.586,0.596,1.299,0.895,2.139,0.895
		c0.838,0,1.557-0.299,2.152-0.895c0.598-0.596,0.895-1.314,0.895-2.154V250.967z"/>
	<path fill="#F1F2F2" d="M154.414,273.17c2.424,0,3.637-1.127,3.637-3.381v-2.066c0-3.594-1.885-5.391-5.65-5.391v-4.525
		c2.033,0,3.533-0.568,4.504-1.703c0.895-1.025,1.342-2.459,1.342-4.303v-0.811c0-2.291-1.008-3.436-3.02-3.436
		c-1.119,0-1.939,0.426-2.461,1.279c-0.393,0.648-0.588,1.492-0.588,2.529v0.918h-5.174v-0.813c0-2.498,0.635-4.529,1.902-6.096
		c1.436-1.789,3.457-2.684,6.068-2.684c2.479,0,4.465,0.838,5.955,2.516c1.344,1.51,2.014,3.395,2.014,5.648v1.482
		c0,2.182-0.652,4.064-1.957,5.65c-0.559,0.67-1.213,1.238-1.957,1.705c1.566,0.877,2.777,2.209,3.635,3.998
		c0.447,0.914,0.672,2.023,0.672,3.328v2.77c0,2.59-0.887,4.717-2.656,6.375c-1.697,1.604-3.738,2.404-6.125,2.404
		c-2.33,0-4.307-0.82-5.928-2.461c-1.623-1.639-2.434-3.607-2.434-5.9v-0.865l5.033-0.393l0.111,1.23
		c0.074,0.877,0.387,1.594,0.938,2.154C152.824,272.891,153.539,273.17,154.414,273.17z"/>
</g>
</svg>
