<?xml version="1.0" encoding="utf-8"?>
<!-- Generator: Adobe Illustrator 16.0.0, SVG Export Plug-In . SVG Version: 6.00 Build 0)  -->
<!DOCTYPE svg PUBLIC "-//W3C//DTD SVG 1.1//EN" "http://www.w3.org/Graphics/SVG/1.1/DTD/svg11.dtd">
<svg version="1.1" id="Layer_1" xmlns="http://www.w3.org/2000/svg" xmlns:xlink="http://www.w3.org/1999/xlink" x="0px" y="0px"
	 width="131px" height="91px" viewBox="0 0 131 91" enable-background="new 0 0 131 91" xml:space="preserve">
<path fill="#E676AA" d="M0,45c0,4.686,3.813,8.5,8.5,8.5c4.173,0,7.646-3.027,8.359-7H54v21.602l38.5,22.604L131,68.102V22.898
	L92.5,0.294L54,22.898V44.5H16.975c-0.261-4.454-3.957-8-8.475-8C3.813,36.5,0,40.313,0,45z M56,24.043L92.5,2.614L129,24.043
	v42.914l-36.5,21.43L56,66.957V24.043z M2,45c0-3.584,2.916-6.5,6.5-6.5S15,41.416,15,45s-2.916,6.5-6.5,6.5S2,48.584,2,45z"/>
</svg>
