<?xml version="1.0" encoding="utf-8"?>
<!-- Generator: Adobe Illustrator 16.0.0, SVG Export Plug-In . SVG Version: 6.00 Build 0)  -->
<!DOCTYPE svg PUBLIC "-//W3C//DTD SVG 1.1//EN" "http://www.w3.org/Graphics/SVG/1.1/DTD/svg11.dtd">
<svg version="1.1" id="Layer_1" xmlns="http://www.w3.org/2000/svg" xmlns:xlink="http://www.w3.org/1999/xlink" x="0px" y="0px"
	 width="170px" height="160px" viewBox="0 0 170 160" enable-background="new 0 0 170 160" xml:space="preserve">
<g>
	<g>
		<g>
			<path fill="#271F19" d="M169.754,74.074c-0.037-0.077-0.084-0.141-0.133-0.186c-0.027-0.023-0.053-0.04-0.082-0.057
				c-0.029-0.021-0.061-0.036-0.088-0.041c-0.477-0.094-0.943-0.124-1.389-0.104c-2.119,0.236-3.701,0.842-4.908,1.586
				s-2.033,1.633-2.6,2.421c0,0,0.055-0.912,0.075-1.83c0.013-0.458,0.019-0.919,0.015-1.267c-0.002-0.176-0.004-0.32-0.006-0.423
				c-0.005-0.107-0.007-0.168-0.007-0.168l-0.024,0.001c1.01-1.021,2.559-3.192,1.776-6.411c-1.125-4.616-4.139-6.198-4.393-5.536
				c-0.136,0.348-4.396,8.849,1.022,12.188c0.002,0.093,0.004,0.215,0.006,0.363c0.002,0.328-0.002,0.771-0.014,1.214
				c-0.02,0.887-0.074,1.775-0.074,1.775c-0.471-0.825-1.236-1.741-2.426-2.396c-1.188-0.657-2.809-1.047-4.932-0.81
				c-0.441,0.019-0.906,0.033-1.379,0.027c-0.029-0.002-0.06-0.003-0.086-0.009c-0.029,0.005-0.058,0.013-0.082,0.018
				c-0.049,0.018-0.094,0.038-0.127,0.061c-0.066,0.036-0.088,0.14-0.055,0.212c0.01,0.02,0.045,0.1,0.106,0.25
				c0.03,0.072,0.067,0.158,0.112,0.255c0.045,0.104,0.095,0.22,0.154,0.343c0.119,0.245,0.256,0.552,0.432,0.871
				c0.173,0.327,0.375,0.678,0.607,1.039c0.469,0.721,1.059,1.473,1.826,2.086c0.758,0.612,1.695,1.087,2.855,1.218l0,0
				c0.854,0.094,1.783-0.019,2.764-0.355c0,0-0.018,0.158-0.041,0.396c-0.027,0.239-0.057,0.56-0.1,0.875
				c-0.041,0.317-0.08,0.635-0.109,0.872c-0.029,0.238-0.053,0.396-0.053,0.396s-0.033,0.222-0.082,0.555
				c-0.049,0.33-0.107,0.771-0.187,1.212c-0.073,0.439-0.146,0.881-0.202,1.211c-0.062,0.328-0.104,0.549-0.104,0.549
				c-0.177-0.44-0.433-0.914-0.771-1.382c-0.343-0.469-0.765-0.93-1.31-1.354c-1.086-0.847-2.604-1.519-4.716-1.806
				c-0.438-0.061-0.901-0.104-1.377-0.132c-0.118-0.009-0.235,0.034-0.315,0.111c-0.08,0.078-0.119,0.187-0.101,0.294
				c0.019,0.119,0.265,1.578,0.992,3.172c0.377,0.798,0.861,1.626,1.549,2.336c0.693,0.706,1.556,1.286,2.693,1.551l0,0
				c0.838,0.196,1.779,0.194,2.789-0.025c0,0-0.031,0.156-0.09,0.392c-0.053,0.231-0.129,0.543-0.203,0.854
				c-0.074,0.311-0.15,0.621-0.207,0.855c-0.063,0.232-0.102,0.387-0.102,0.387s-0.059,0.217-0.143,0.541
				c-0.091,0.322-0.193,0.756-0.322,1.184c-0.252,0.859-0.502,1.716-0.502,1.716c-0.273-0.923-0.775-1.993-1.762-2.956
				c-0.982-0.968-2.414-1.813-4.478-2.342c-0.429-0.11-0.884-0.208-1.353-0.289c-0.117-0.02-0.236,0.008-0.326,0.076
				c-0.088,0.07-0.139,0.172-0.133,0.283c0,0.058,0.023,0.463,0.111,1.059c0.074,0.593,0.24,1.384,0.514,2.218
				c0.264,0.83,0.682,1.718,1.273,2.496c0.594,0.776,1.396,1.454,2.496,1.847v0.002c0.811,0.287,1.738,0.39,2.771,0.287
				c0,0-0.214,0.605-0.427,1.209c-0.103,0.303-0.226,0.6-0.312,0.823s-0.145,0.373-0.145,0.373s-0.08,0.209-0.199,0.522
				c-0.121,0.312-0.279,0.729-0.457,1.139c-0.348,0.822-0.69,1.646-0.69,1.646c-0.168-0.947-0.554-2.071-1.408-3.138
				c-0.869-1.073-2.196-2.075-4.188-2.837c-0.414-0.158-0.853-0.309-1.31-0.441c-0.112-0.035-0.235-0.02-0.332,0.039
				c-0.096,0.059-0.155,0.154-0.162,0.265c0,0.127-0.116,1.598,0.248,3.317c0.17,0.854,0.474,1.778,0.981,2.623
				c0.498,0.838,1.216,1.604,2.261,2.121l0,0c0.772,0.383,1.685,0.594,2.726,0.612c0,0-0.285,0.571-0.57,1.146
				c-0.144,0.287-0.287,0.572-0.396,0.787c-0.112,0.213-0.188,0.353-0.188,0.353s-0.424,0.786-0.848,1.571
				c-0.207,0.395-0.445,0.771-0.611,1.063c-0.17,0.29-0.281,0.482-0.281,0.482c-0.021-0.478-0.092-1.006-0.248-1.558
				c-0.154-0.553-0.416-1.143-0.781-1.722c-0.729-1.166-1.93-2.313-3.814-3.301c-0.393-0.207-0.813-0.406-1.248-0.594
				c-0.11-0.047-0.235-0.047-0.338,0c-0.102,0.043-0.174,0.133-0.194,0.237c-0.013,0.062-0.088,0.454-0.131,1.054
				c-0.021,0.303-0.046,0.647-0.056,1.025c-0.006,0.384,0.006,0.799,0.045,1.236c0.095,0.882,0.258,1.814,0.662,2.714
				c0.402,0.896,1.029,1.741,2.004,2.381l0,0c0.724,0.474,1.599,0.788,2.621,0.928c0,0-0.084,0.136-0.213,0.339
				c-0.129,0.201-0.293,0.478-0.479,0.737c-0.363,0.526-0.726,1.054-0.726,1.054s-0.127,0.187-0.313,0.461
				c-0.097,0.139-0.205,0.299-0.324,0.471c-0.125,0.17-0.258,0.35-0.39,0.525c-0.532,0.717-1.065,1.435-1.065,1.435
				c0.065-0.958-0.045-2.142-0.623-3.375c-0.592-1.249-1.649-2.536-3.401-3.742c-0.365-0.252-0.76-0.5-1.168-0.738
				c-0.105-0.062-0.228-0.075-0.332-0.043c-0.107,0.035-0.188,0.114-0.219,0.218c-0.021,0.131-0.496,1.51-0.529,3.273
				c-0.039,0.866,0.026,1.827,0.32,2.768c0.147,0.471,0.354,0.936,0.633,1.377c0.274,0.438,0.623,0.854,1.069,1.23v0.001
				c0.658,0.556,1.5,0.981,2.492,1.24c0,0-0.101,0.122-0.25,0.312c-0.158,0.182-0.367,0.422-0.578,0.662
				c-0.42,0.483-0.84,0.967-0.84,0.967s-0.146,0.168-0.365,0.42c-0.217,0.256-0.532,0.572-0.836,0.899
				c-0.612,0.647-1.226,1.298-1.226,1.298c0.179-0.943,0.207-2.136-0.217-3.432c-0.207-0.645-0.543-1.327-1.022-2.021
				c-0.479-0.693-1.104-1.396-1.897-2.103c-0.332-0.294-0.693-0.589-1.07-0.874c-0.096-0.071-0.213-0.102-0.322-0.08
				s-0.197,0.092-0.242,0.191c-0.021,0.059-0.193,0.418-0.391,0.979c-0.195,0.562-0.41,1.335-0.539,2.204
				c-0.145,0.852-0.188,1.813-0.008,2.784c0.09,0.483,0.238,0.969,0.463,1.442c0.217,0.467,0.516,0.922,0.912,1.35v0.003
				c0.586,0.629,1.369,1.155,2.324,1.532c0,0-0.115,0.11-0.287,0.277c-0.178,0.162-0.416,0.374-0.654,0.588
				c-0.475,0.428-0.951,0.855-0.951,0.855s-0.166,0.148-0.414,0.372c-0.246,0.229-0.598,0.503-0.939,0.792
				c-0.688,0.566-1.375,1.138-1.375,1.138c0.295-0.917,0.47-2.096,0.205-3.435c-0.127-0.662-0.375-1.383-0.768-2.129
				c-0.391-0.746-0.926-1.52-1.629-2.316c-0.295-0.333-0.617-0.669-0.955-0.998c-0.086-0.083-0.201-0.127-0.313-0.119
				c-0.109,0.008-0.207,0.066-0.26,0.159c-0.029,0.058-0.242,0.39-0.505,0.922c-0.264,0.529-0.563,1.274-0.801,2.113
				c-0.246,0.83-0.412,1.782-0.353,2.768c0.017,0.248,0.045,0.495,0.09,0.744c0.043,0.245,0.105,0.491,0.187,0.737
				c0.158,0.492,0.396,0.98,0.738,1.453h0.002c0.502,0.699,1.213,1.315,2.123,1.816c0,0-0.035,0.023-0.091,0.065
				c-0.059,0.041-0.139,0.098-0.235,0.168c-0.194,0.138-0.457,0.321-0.719,0.507c-0.523,0.368-1.048,0.738-1.048,0.738
				s-0.045,0.031-0.125,0.088c-0.077,0.059-0.192,0.134-0.336,0.225c-0.278,0.184-0.653,0.428-1.026,0.672
				c-0.373,0.241-0.748,0.485-1.029,0.668c-0.284,0.174-0.479,0.287-0.479,0.287c0.105-0.213,0.203-0.441,0.291-0.691
				c0.082-0.254,0.156-0.523,0.218-0.809c0.114-0.568,0.168-1.197,0.119-1.881c-0.052-0.681-0.201-1.416-0.496-2.199
				c-0.295-0.785-0.731-1.623-1.332-2.5c-0.252-0.367-0.526-0.738-0.826-1.107c-0.075-0.092-0.185-0.148-0.293-0.154
				s-0.217,0.035-0.285,0.117c-0.038,0.048-0.295,0.355-0.614,0.857c-0.162,0.252-0.34,0.551-0.521,0.892
				c-0.181,0.345-0.375,0.704-0.543,1.108c-0.174,0.401-0.324,0.836-0.447,1.293c-0.059,0.229-0.108,0.463-0.147,0.703
				c-0.041,0.234-0.074,0.475-0.09,0.719c-0.066,0.973,0.086,2.012,0.649,3.033l0,0c0.418,0.756,1.047,1.446,1.89,2.053
				c0,0-0.562,0.312-1.119,0.621c-0.279,0.158-0.56,0.313-0.775,0.42c-0.213,0.109-0.355,0.182-0.355,0.182s-0.795,0.408-1.59,0.814
				c-0.807,0.383-1.613,0.765-1.613,0.765c0.252-0.406,0.492-0.884,0.679-1.429c0.094-0.273,0.174-0.562,0.233-0.87
				c0.058-0.313,0.095-0.64,0.107-0.984c0.063-1.377-0.27-3.005-1.256-4.892c-0.207-0.393-0.439-0.797-0.691-1.197
				c-0.063-0.104-0.164-0.172-0.275-0.193c-0.108-0.018-0.219,0.012-0.299,0.088c-0.041,0.043-0.328,0.326-0.709,0.797
				c-0.385,0.459-0.871,1.092-1.305,1.863c-0.432,0.768-0.828,1.642-1.004,2.614c-0.176,0.978-0.146,2.019,0.297,3.099l0,0
				c0.328,0.791,0.879,1.563,1.643,2.252c0,0-0.146,0.067-0.368,0.156c-0.224,0.09-0.519,0.209-0.816,0.329
				c-0.594,0.237-1.188,0.476-1.188,0.476s-0.838,0.311-1.676,0.621c-0.418,0.158-0.842,0.301-1.16,0.406
				c-0.316,0.106-0.529,0.18-0.529,0.18c0.299-0.375,0.592-0.821,0.836-1.342c0.244-0.527,0.439-1.133,0.549-1.811
				c0.217-1.357,0.076-3.008-0.693-4.996c-0.157-0.414-0.344-0.84-0.551-1.268c-0.051-0.107-0.145-0.19-0.252-0.224
				c-0.111-0.032-0.223-0.013-0.311,0.054c-0.1,0.069-1.27,1.002-2.316,2.418c-0.133,0.181-0.258,0.366-0.381,0.563
				c-0.123,0.191-0.244,0.391-0.357,0.6c-0.225,0.414-0.418,0.858-0.559,1.33c-0.283,0.951-0.367,1.992-0.043,3.113v0.001
				c0.24,0.824,0.705,1.647,1.387,2.418c0,0-0.152,0.049-0.383,0.115c-0.23,0.063-0.539,0.149-0.848,0.237s-0.617,0.176-0.848,0.238
				c-0.23,0.068-0.39,0.104-0.39,0.104s-0.862,0.223-1.729,0.442c-0.871,0.202-1.74,0.403-1.74,0.403
				c0.334-0.343,0.672-0.76,0.973-1.253c0.148-0.246,0.289-0.514,0.414-0.801c0.127-0.291,0.236-0.604,0.324-0.936
				c0.363-1.328,0.398-2.99-0.148-5.046c-0.117-0.43-0.254-0.874-0.412-1.321c-0.039-0.113-0.125-0.205-0.229-0.246
				c-0.104-0.045-0.221-0.037-0.313,0.021c-0.056,0.031-0.4,0.245-0.881,0.621c-0.48,0.36-1.097,0.89-1.691,1.54
				c-0.596,0.646-1.17,1.441-1.555,2.342c-0.386,0.905-0.574,1.942-0.373,3.092l0,0c0.149,0.848,0.521,1.703,1.121,2.547
				c0,0-0.158,0.03-0.396,0.073c-0.233,0.048-0.552,0.101-0.867,0.152s-0.633,0.104-0.869,0.146
				c-0.235,0.041-0.396,0.061-0.396,0.061s-0.221,0.031-0.551,0.081c-0.33,0.051-0.775,0.114-1.217,0.169
				c-0.443,0.056-0.886,0.115-1.22,0.148c-0.33,0.037-0.556,0.063-0.556,0.063c0.742-0.6,1.525-1.503,2.025-2.776
				c0.502-1.284,0.715-2.933,0.389-5.036c-0.067-0.439-0.155-0.896-0.266-1.357c-0.027-0.115-0.102-0.215-0.199-0.271
				c-0.098-0.053-0.213-0.06-0.313-0.012c-0.111,0.055-1.451,0.703-2.75,1.863c-0.324,0.285-0.65,0.611-0.949,0.97
				c-0.301,0.354-0.578,0.745-0.814,1.173c-0.471,0.852-0.778,1.854-0.721,3.018l0,0c0.043,0.859,0.301,1.76,0.791,2.67
				c0,0-0.637,0.041-1.271,0.065c-0.318,0.013-0.633,0.021-0.869,0.022c-0.229,0.001-0.383,0.001-0.383,0.001l-0.021,1.625
				c0,0,0.17-0.002,0.426-0.002c0.25-0.005,0.581-0.015,0.909-0.025c0.657-0.024,1.313-0.067,1.313-0.067
				c-0.385,0.966-0.578,1.887-0.535,2.746c0.057,1.168,0.531,2.125,1.242,2.9c0.354,0.387,0.764,0.723,1.207,1.02
				c0.438,0.295,0.908,0.541,1.383,0.754c1.883,0.843,3.775,1.019,3.928,1.029c0.137,0.014,0.277-0.031,0.381-0.113
				c0.103-0.084,0.158-0.202,0.152-0.322c-0.023-0.475-0.07-0.938-0.137-1.375c-0.326-2.104-1.098-3.607-1.982-4.689
				c-0.887-1.091-1.893-1.761-2.762-2.193c0,0,0.227-0.025,0.566-0.063c0.342-0.033,0.791-0.096,1.244-0.154
				c0.452-0.052,0.903-0.121,1.241-0.17c0.336-0.052,0.563-0.084,0.563-0.084s0.162-0.021,0.404-0.063
				c0.241-0.039,0.563-0.094,0.887-0.146c0.322-0.054,0.645-0.106,0.885-0.154c0.238-0.045,0.402-0.074,0.402-0.074
				c-0.265,1.005-0.34,1.943-0.188,2.793c0.205,1.146,0.778,2.041,1.563,2.729c0.778,0.693,1.752,1.153,2.723,1.475
				c0.969,0.314,1.926,0.462,2.662,0.543c0.729,0.066,1.238,0.061,1.316,0.059c0.137-0.002,0.271-0.059,0.362-0.152
				c0.095-0.096,0.138-0.217,0.117-0.336c-0.074-0.469-0.171-0.924-0.283-1.352c-0.551-2.057-1.479-3.473-2.474-4.454
				c-0.25-0.245-0.504-0.463-0.758-0.655c-0.256-0.199-0.51-0.373-0.766-0.527c-0.506-0.307-1.002-0.53-1.457-0.69
				c0,0,0.887-0.204,1.775-0.411c0.883-0.226,1.766-0.453,1.766-0.453s0.16-0.035,0.395-0.104c0.234-0.066,0.552-0.154,0.863-0.244
				c0.316-0.088,0.631-0.179,0.865-0.242c0.234-0.066,0.391-0.119,0.391-0.119c-0.154,1.035-0.129,1.963,0.111,2.793
				c0.326,1.121,0.998,1.957,1.844,2.55c0.422,0.299,0.889,0.54,1.375,0.733c0.242,0.1,0.492,0.185,0.742,0.26
				c0.248,0.069,0.498,0.129,0.748,0.183c1.998,0.426,3.877,0.187,4.027,0.173c0.139-0.016,0.268-0.089,0.35-0.189
				c0.082-0.104,0.111-0.229,0.08-0.347c-0.125-0.459-0.27-0.901-0.43-1.315c-0.766-1.982-1.842-3.293-2.938-4.164
				c-0.549-0.438-1.104-0.762-1.641-1.008c-0.539-0.254-1.056-0.426-1.522-0.541c0,0,0.215-0.073,0.536-0.184
				c0.326-0.107,0.757-0.251,1.183-0.415c0.854-0.315,1.709-0.631,1.709-0.631s0.606-0.242,1.215-0.485
				c0.303-0.123,0.605-0.246,0.832-0.334c0.229-0.092,0.375-0.16,0.375-0.16c-0.039,1.047,0.084,1.963,0.414,2.764
				c0.445,1.079,1.205,1.838,2.111,2.332c0.905,0.494,1.973,0.762,2.985,0.851c1.017,0.087,1.994,0.035,2.731-0.052
				c0.734-0.1,1.232-0.218,1.31-0.238c0.133-0.033,0.252-0.117,0.323-0.23c0.07-0.114,0.087-0.243,0.044-0.354
				c-0.175-0.44-0.369-0.864-0.574-1.258c-0.987-1.888-2.205-3.06-3.392-3.799c-0.297-0.185-0.594-0.341-0.883-0.476
				c-0.293-0.137-0.582-0.252-0.863-0.348c-0.563-0.189-1.096-0.303-1.573-0.363c0,0,0.821-0.391,1.646-0.779
				c0.813-0.415,1.623-0.831,1.623-0.831s0.146-0.075,0.363-0.188c0.221-0.108,0.506-0.266,0.791-0.427
				c0.572-0.316,1.143-0.637,1.143-0.637c0.076,1.035,0.312,1.945,0.728,2.699c0.563,1.021,1.401,1.681,2.371,2.08
				c0.239,0.1,0.489,0.184,0.743,0.252c0.253,0.064,0.509,0.112,0.767,0.149c0.521,0.073,1.045,0.099,1.562,0.086
				c0.51-0.014,1.02-0.049,1.475-0.126c0.457-0.074,0.877-0.165,1.24-0.256c0.725-0.182,1.211-0.355,1.283-0.381
				c0.131-0.049,0.242-0.143,0.299-0.266c0.059-0.123,0.057-0.256-0.002-0.362c-0.226-0.416-0.469-0.814-0.721-1.183
				c-0.599-0.88-1.236-1.568-1.882-2.115c-0.647-0.551-1.303-0.959-1.938-1.258c-0.637-0.302-1.254-0.492-1.832-0.608
				c-0.289-0.06-0.568-0.099-0.836-0.124c-0.269-0.028-0.525-0.047-0.771-0.051c0,0,0.195-0.117,0.488-0.295
				c0.287-0.188,0.67-0.436,1.051-0.686c0.386-0.247,0.767-0.497,1.052-0.684c0.145-0.092,0.264-0.17,0.344-0.229
				c0.08-0.059,0.127-0.09,0.127-0.09s0.535-0.378,1.068-0.755c0.268-0.188,0.534-0.377,0.733-0.52
				c0.103-0.07,0.187-0.129,0.243-0.172c0.058-0.043,0.091-0.066,0.091-0.066c0.198,1.02,0.534,1.89,1.039,2.588
				c0.344,0.474,0.741,0.85,1.184,1.143c0.222,0.146,0.451,0.273,0.689,0.381c0.235,0.104,0.479,0.187,0.731,0.254
				c0.998,0.269,2.092,0.258,3.117,0.114c1.018-0.151,1.947-0.459,2.65-0.721c0.701-0.263,1.166-0.494,1.232-0.536
				c0.12-0.066,0.217-0.181,0.258-0.309c0.041-0.129,0.024-0.26-0.045-0.357c-0.277-0.387-0.564-0.752-0.859-1.084
				c-0.705-0.799-1.422-1.406-2.129-1.868c-0.707-0.463-1.4-0.778-2.074-1.003c-1.338-0.441-2.553-0.473-3.506-0.355
				c0,0,0.703-0.58,1.406-1.164c0.348-0.295,0.707-0.575,0.957-0.807c0.256-0.229,0.426-0.382,0.426-0.382s0.484-0.438,0.971-0.875
				c0.244-0.219,0.488-0.438,0.67-0.601c0.176-0.172,0.291-0.287,0.291-0.287c0.334,0.996,0.771,1.816,1.359,2.447
				c0.397,0.428,0.842,0.752,1.313,0.988c0.47,0.23,0.97,0.375,1.482,0.445c1.026,0.143,2.112-0.002,3.116-0.268
				c0.982-0.28,1.869-0.691,2.531-1.037s1.096-0.631,1.152-0.68c0.115-0.082,0.193-0.203,0.219-0.338
				c0.025-0.132-0.006-0.26-0.086-0.349c-0.322-0.349-0.654-0.677-0.986-0.972c-0.797-0.707-1.582-1.221-2.342-1.594
				c-0.756-0.373-1.481-0.603-2.18-0.746c-1.383-0.275-2.592-0.153-3.523,0.078c0,0,0.625-0.664,1.252-1.328
				c0.312-0.332,0.633-0.656,0.854-0.918c0.226-0.257,0.375-0.43,0.375-0.43s0.431-0.492,0.858-0.984
				c0.216-0.248,0.429-0.494,0.588-0.681c0.152-0.19,0.259-0.317,0.259-0.317c0.446,0.945,0.983,1.709,1.646,2.264
				c0.444,0.377,0.924,0.646,1.424,0.82c0.494,0.176,1.006,0.259,1.522,0.269c1.037,0.019,2.101-0.253,3.06-0.638
				c1.879-0.803,3.354-2.043,3.451-2.157c0.104-0.093,0.168-0.226,0.18-0.358c0.01-0.136-0.039-0.259-0.131-0.336
				c-0.361-0.309-0.729-0.593-1.094-0.845c-1.757-1.21-3.375-1.673-4.765-1.771c-1.412-0.106-2.599,0.155-3.496,0.496
				c0,0,0.541-0.73,1.086-1.464c0.136-0.183,0.271-0.368,0.399-0.538c0.119-0.176,0.232-0.342,0.33-0.481
				c0.193-0.281,0.322-0.47,0.322-0.47s0.371-0.539,0.738-1.078c0.191-0.268,0.359-0.547,0.492-0.754
				c0.131-0.207,0.217-0.345,0.217-0.345c0.557,0.882,1.191,1.578,1.912,2.052c0.975,0.638,2.021,0.826,3.059,0.721
				c1.033-0.104,2.072-0.492,2.951-1.004c0.445-0.254,0.861-0.53,1.238-0.807c0.377-0.274,0.715-0.549,0.984-0.801
				c0.551-0.501,0.895-0.885,0.947-0.943c0.092-0.104,0.145-0.24,0.137-0.375c-0.006-0.133-0.066-0.25-0.168-0.315
				c-0.394-0.261-0.793-0.499-1.187-0.706c-1.887-0.988-3.56-1.26-4.957-1.193c-0.7,0.033-1.321,0.16-1.899,0.322
				c-0.57,0.161-1.076,0.371-1.506,0.594c0,0,0.116-0.197,0.289-0.492c0.168-0.297,0.411-0.684,0.623-1.088
				c0.434-0.803,0.864-1.604,0.864-1.604s0.078-0.146,0.194-0.36c0.107-0.219,0.255-0.512,0.4-0.804
				c0.293-0.586,0.584-1.171,0.584-1.171c0.646,0.807,1.357,1.421,2.131,1.803c1.047,0.516,2.111,0.581,3.138,0.359
				c1.01-0.229,1.967-0.746,2.803-1.346c1.649-1.213,2.767-2.767,2.84-2.896c0.078-0.115,0.113-0.258,0.091-0.39
				c-0.023-0.133-0.099-0.24-0.205-0.295c-0.425-0.213-0.849-0.402-1.265-0.563c-1.987-0.759-3.676-0.832-5.047-0.601
				c-1.392,0.229-2.481,0.766-3.274,1.31c0,0,0.354-0.839,0.707-1.679c0.184-0.42,0.346-0.846,0.467-1.165
				c0.123-0.318,0.205-0.532,0.205-0.532s0.059-0.152,0.146-0.38c0.086-0.229,0.213-0.532,0.315-0.841
				c0.22-0.616,0.438-1.233,0.438-1.233c0.738,0.728,1.519,1.254,2.328,1.543c1.101,0.392,2.164,0.333,3.151-0.008
				c0.988-0.336,1.867-0.963,2.629-1.653c0.757-0.691,1.353-1.459,1.787-2.063c0.427-0.608,0.662-1.061,0.701-1.129
				c0.064-0.12,0.082-0.268,0.047-0.395c-0.037-0.129-0.125-0.229-0.235-0.269c-0.445-0.165-0.89-0.306-1.318-0.416
				c-2.063-0.528-3.75-0.411-5.092-0.025c-1.342,0.392-2.375,1.044-3.101,1.677c0,0,0.257-0.875,0.515-1.748
				c0.129-0.438,0.235-0.881,0.328-1.209c0.088-0.332,0.146-0.553,0.146-0.553s0.043-0.156,0.104-0.395s0.135-0.557,0.213-0.873
				c0.076-0.317,0.15-0.637,0.207-0.875c0.061-0.236,0.092-0.398,0.092-0.398c0.822,0.639,1.646,1.074,2.488,1.268
				c1.135,0.267,2.195,0.088,3.127-0.364c0.932-0.448,1.764-1.164,2.426-1.941c1.344-1.549,2.057-3.325,2.111-3.468
				c0.051-0.128,0.053-0.273,0.002-0.4c-0.053-0.123-0.15-0.211-0.264-0.238c-0.463-0.112-0.918-0.199-1.357-0.262
				c-2.111-0.287-3.773,0.026-5.064,0.564c-0.643,0.271-1.209,0.598-1.684,0.945c-0.477,0.352-0.875,0.722-1.209,1.074
				c0,0,0.043-0.226,0.105-0.562c0.057-0.335,0.131-0.787,0.207-1.235c0.082-0.449,0.139-0.902,0.19-1.24
				c0.049-0.336,0.082-0.563,0.082-0.563s0.024-0.16,0.053-0.404c0.031-0.244,0.072-0.568,0.113-0.894
				c0.045-0.324,0.073-0.649,0.103-0.896c0.022-0.242,0.043-0.406,0.043-0.406c0.889,0.537,1.766,0.875,2.623,0.969
				c1.159,0.13,2.182-0.176,3.063-0.739c0.873-0.567,1.604-1.389,2.172-2.266c0.283-0.437,0.526-0.892,0.735-1.323
				c0.203-0.439,0.375-0.849,0.502-1.231c0.066-0.186,0.121-0.36,0.173-0.519c0.049-0.162,0.086-0.31,0.118-0.432
				c0.064-0.247,0.099-0.42,0.105-0.466C169.848,74.396,169.826,74.244,169.754,74.074z"/>
		</g>
		<g>
			<path fill="#271F19" d="M0.248,74.074c0.035-0.077,0.082-0.141,0.133-0.186c0.027-0.023,0.053-0.04,0.082-0.057
				c0.027-0.021,0.059-0.036,0.088-0.041c0.477-0.094,0.941-0.124,1.385-0.104c2.121,0.236,3.703,0.842,4.91,1.586
				s2.035,1.633,2.602,2.421c0,0-0.055-0.912-0.078-1.83c-0.01-0.458-0.014-0.919-0.012-1.267c0.002-0.176,0.004-0.32,0.006-0.423
				c0.004-0.107,0.006-0.168,0.006-0.168l0.025,0.001c-1.012-1.021-2.563-3.192-1.775-6.411c1.123-4.616,4.135-6.198,4.391-5.536
				c0.133,0.348,4.395,8.849-1.023,12.188c-0.002,0.093-0.004,0.215-0.006,0.363c-0.004,0.328,0,0.771,0.012,1.214
				c0.021,0.887,0.076,1.775,0.076,1.775c0.469-0.825,1.236-1.741,2.424-2.396c1.189-0.657,2.809-1.047,4.932-0.81
				c0.443,0.019,0.906,0.033,1.379,0.027c0.031-0.002,0.061-0.003,0.088-0.009c0.027,0.005,0.055,0.013,0.08,0.018
				c0.051,0.018,0.094,0.038,0.129,0.061c0.064,0.036,0.088,0.14,0.053,0.212c-0.008,0.02-0.043,0.1-0.104,0.25
				c-0.035,0.072-0.072,0.158-0.117,0.255c-0.043,0.104-0.094,0.22-0.152,0.343c-0.119,0.245-0.256,0.552-0.434,0.871
				c-0.17,0.327-0.375,0.678-0.607,1.039c-0.467,0.721-1.057,1.473-1.824,2.086c-0.758,0.612-1.697,1.087-2.857,1.218l0,0
				c-0.855,0.094-1.783-0.019-2.764-0.355c0,0,0.018,0.158,0.043,0.396c0.027,0.239,0.055,0.56,0.1,0.875
				c0.039,0.317,0.08,0.635,0.109,0.872c0.027,0.238,0.053,0.396,0.053,0.396s0.033,0.222,0.082,0.555
				c0.049,0.33,0.105,0.771,0.184,1.212c0.074,0.439,0.148,0.881,0.205,1.211c0.063,0.328,0.102,0.549,0.102,0.549
				c0.178-0.44,0.43-0.914,0.773-1.382c0.342-0.469,0.762-0.93,1.307-1.354c1.088-0.847,2.605-1.519,4.717-1.806
				c0.441-0.061,0.902-0.104,1.375-0.132c0.121-0.009,0.238,0.034,0.318,0.111c0.078,0.078,0.117,0.187,0.1,0.294
				c-0.02,0.119-0.262,1.578-0.994,3.172c-0.375,0.798-0.861,1.626-1.549,2.336c-0.691,0.706-1.555,1.286-2.693,1.551l0,0
				c-0.836,0.196-1.779,0.194-2.787-0.025c0,0,0.029,0.156,0.09,0.392c0.053,0.231,0.129,0.543,0.203,0.854
				c0.074,0.311,0.148,0.621,0.207,0.855c0.061,0.232,0.102,0.387,0.102,0.387s0.057,0.217,0.141,0.541
				c0.09,0.322,0.195,0.756,0.322,1.184c0.252,0.859,0.502,1.716,0.502,1.716c0.277-0.923,0.777-1.993,1.762-2.956
				c0.982-0.968,2.414-1.813,4.475-2.342c0.43-0.11,0.887-0.208,1.354-0.289c0.117-0.02,0.238,0.008,0.326,0.076
				c0.09,0.07,0.141,0.172,0.135,0.283c0,0.058-0.025,0.463-0.113,1.059c-0.076,0.593-0.24,1.384-0.512,2.218
				c-0.264,0.83-0.684,1.718-1.273,2.496c-0.594,0.776-1.396,1.454-2.496,1.847v0.002c-0.811,0.287-1.74,0.39-2.773,0.287
				c0,0,0.215,0.605,0.426,1.209c0.104,0.303,0.227,0.6,0.311,0.823c0.088,0.224,0.145,0.373,0.145,0.373s0.082,0.209,0.201,0.522
				c0.119,0.312,0.279,0.729,0.457,1.139c0.346,0.822,0.691,1.646,0.691,1.646c0.166-0.947,0.553-2.071,1.408-3.138
				c0.869-1.073,2.199-2.075,4.188-2.837c0.414-0.158,0.855-0.309,1.311-0.441c0.113-0.035,0.234-0.02,0.33,0.039
				c0.098,0.059,0.156,0.154,0.164,0.265c0,0.127,0.115,1.598-0.248,3.317c-0.17,0.854-0.473,1.778-0.982,2.623
				c-0.498,0.838-1.217,1.604-2.26,2.121l0,0c-0.775,0.383-1.684,0.594-2.725,0.612c0,0,0.285,0.571,0.568,1.146
				c0.143,0.287,0.289,0.572,0.395,0.787c0.115,0.213,0.191,0.353,0.191,0.353s0.422,0.786,0.848,1.571
				c0.207,0.395,0.445,0.771,0.611,1.063c0.168,0.29,0.281,0.482,0.281,0.482c0.021-0.478,0.092-1.006,0.25-1.558
				c0.152-0.553,0.412-1.143,0.777-1.722c0.73-1.166,1.932-2.313,3.816-3.301c0.393-0.207,0.814-0.406,1.248-0.594
				c0.109-0.047,0.234-0.047,0.336,0c0.102,0.043,0.174,0.133,0.195,0.237c0.012,0.062,0.09,0.454,0.133,1.054
				c0.018,0.303,0.043,0.647,0.053,1.025c0.006,0.384-0.006,0.799-0.045,1.236c-0.092,0.882-0.256,1.814-0.66,2.714
				c-0.404,0.896-1.029,1.741-2.006,2.381l0,0c-0.723,0.474-1.598,0.788-2.621,0.928c0,0,0.086,0.136,0.213,0.339
				c0.131,0.201,0.297,0.478,0.482,0.737c0.359,0.526,0.723,1.054,0.723,1.054s0.127,0.187,0.316,0.461
				c0.096,0.139,0.203,0.299,0.322,0.471c0.125,0.17,0.258,0.35,0.391,0.525c0.533,0.717,1.064,1.435,1.064,1.435
				c-0.064-0.958,0.047-2.142,0.621-3.375c0.594-1.249,1.652-2.536,3.406-3.742c0.365-0.252,0.76-0.5,1.168-0.738
				c0.104-0.062,0.225-0.075,0.332-0.043c0.105,0.035,0.186,0.114,0.219,0.218c0.021,0.131,0.496,1.51,0.529,3.273
				c0.037,0.866-0.027,1.827-0.322,2.768c-0.148,0.471-0.354,0.936-0.633,1.377c-0.275,0.438-0.623,0.854-1.068,1.23v0.001
				c-0.66,0.556-1.5,0.981-2.496,1.24c0,0,0.104,0.122,0.254,0.312c0.156,0.182,0.369,0.422,0.576,0.662
				c0.422,0.483,0.842,0.967,0.842,0.967s0.145,0.168,0.365,0.42c0.217,0.256,0.531,0.572,0.836,0.899
				c0.613,0.647,1.225,1.298,1.225,1.298c-0.178-0.943-0.209-2.136,0.215-3.432c0.209-0.645,0.545-1.327,1.023-2.021
				c0.48-0.693,1.104-1.396,1.898-2.103c0.334-0.294,0.693-0.589,1.07-0.874c0.096-0.071,0.215-0.102,0.324-0.08
				s0.197,0.092,0.24,0.191c0.021,0.059,0.195,0.418,0.393,0.979c0.197,0.562,0.41,1.335,0.537,2.204
				c0.145,0.852,0.189,1.813,0.01,2.784c-0.09,0.483-0.238,0.969-0.463,1.442c-0.219,0.467-0.516,0.922-0.912,1.35v0.003
				c-0.588,0.629-1.371,1.155-2.324,1.532c0,0,0.113,0.11,0.287,0.277c0.178,0.162,0.414,0.374,0.652,0.588
				c0.477,0.428,0.953,0.855,0.953,0.855s0.164,0.148,0.414,0.372c0.246,0.229,0.598,0.503,0.938,0.792
				c0.688,0.566,1.377,1.138,1.377,1.138c-0.295-0.917-0.471-2.096-0.207-3.435c0.129-0.662,0.377-1.383,0.77-2.129
				c0.391-0.746,0.926-1.52,1.631-2.316c0.291-0.333,0.615-0.669,0.953-0.998c0.086-0.083,0.201-0.127,0.311-0.119
				c0.113,0.008,0.205,0.066,0.262,0.159c0.027,0.058,0.24,0.39,0.506,0.922c0.26,0.529,0.561,1.274,0.799,2.113
				c0.248,0.83,0.41,1.782,0.352,2.768c-0.016,0.248-0.045,0.495-0.092,0.744c-0.043,0.245-0.104,0.491-0.184,0.737
				c-0.158,0.492-0.398,0.98-0.74,1.453l0,0c-0.504,0.699-1.213,1.315-2.123,1.816c0,0,0.033,0.023,0.088,0.065
				c0.059,0.041,0.139,0.098,0.236,0.168c0.195,0.138,0.459,0.321,0.719,0.507c0.525,0.368,1.047,0.738,1.047,0.738
				s0.045,0.031,0.127,0.088c0.076,0.059,0.195,0.134,0.334,0.225c0.281,0.184,0.656,0.428,1.027,0.672
				c0.375,0.241,0.75,0.485,1.029,0.668c0.287,0.174,0.479,0.287,0.479,0.287c-0.104-0.213-0.201-0.441-0.289-0.691
				c-0.086-0.254-0.158-0.523-0.217-0.809c-0.115-0.568-0.168-1.197-0.119-1.881c0.049-0.681,0.203-1.416,0.496-2.199
				c0.295-0.785,0.732-1.623,1.332-2.5c0.25-0.367,0.527-0.738,0.826-1.107c0.074-0.092,0.184-0.148,0.291-0.154
				c0.111-0.006,0.219,0.035,0.287,0.117c0.039,0.048,0.291,0.355,0.615,0.857c0.162,0.252,0.34,0.551,0.52,0.892
				c0.178,0.345,0.373,0.704,0.543,1.108c0.17,0.401,0.324,0.836,0.445,1.293c0.061,0.229,0.109,0.463,0.15,0.703
				c0.039,0.234,0.072,0.475,0.09,0.719c0.064,0.973-0.086,2.012-0.652,3.033l0,0c-0.418,0.756-1.045,1.446-1.887,2.053
				c0,0,0.559,0.312,1.119,0.621c0.279,0.158,0.559,0.313,0.775,0.42c0.213,0.109,0.355,0.182,0.355,0.182s0.795,0.408,1.588,0.814
				c0.809,0.383,1.615,0.765,1.615,0.765c-0.252-0.406-0.494-0.884-0.68-1.429c-0.09-0.273-0.172-0.562-0.232-0.87
				c-0.057-0.313-0.096-0.64-0.109-0.984c-0.061-1.377,0.271-3.005,1.258-4.892c0.205-0.393,0.439-0.797,0.689-1.197
				c0.063-0.104,0.166-0.172,0.277-0.193c0.109-0.018,0.217,0.012,0.297,0.088c0.041,0.043,0.33,0.326,0.709,0.797
				c0.385,0.459,0.873,1.092,1.305,1.863c0.434,0.768,0.83,1.642,1.006,2.614c0.174,0.978,0.146,2.019-0.299,3.099l0,0
				c-0.326,0.791-0.879,1.563-1.641,2.252c0,0,0.146,0.067,0.369,0.156c0.223,0.09,0.518,0.209,0.816,0.329
				c0.594,0.237,1.189,0.476,1.189,0.476s0.838,0.311,1.676,0.621c0.416,0.158,0.84,0.301,1.158,0.406
				c0.316,0.106,0.529,0.18,0.529,0.18c-0.295-0.375-0.59-0.821-0.838-1.342c-0.24-0.527-0.436-1.133-0.545-1.811
				c-0.219-1.357-0.076-3.008,0.693-4.996c0.158-0.414,0.344-0.84,0.551-1.268c0.051-0.107,0.143-0.19,0.252-0.224
				c0.109-0.032,0.221-0.013,0.309,0.054c0.102,0.069,1.271,1.002,2.318,2.418c0.129,0.181,0.258,0.366,0.381,0.563
				c0.121,0.191,0.242,0.391,0.355,0.6c0.223,0.414,0.416,0.858,0.559,1.33c0.285,0.951,0.367,1.992,0.043,3.113v0.001
				c-0.238,0.824-0.703,1.647-1.387,2.418c0,0,0.152,0.049,0.383,0.115c0.232,0.063,0.541,0.149,0.85,0.237
				c0.307,0.088,0.615,0.176,0.848,0.238c0.23,0.068,0.389,0.104,0.389,0.104s0.865,0.223,1.73,0.442
				c0.871,0.202,1.74,0.403,1.74,0.403c-0.332-0.343-0.672-0.76-0.973-1.253c-0.148-0.246-0.291-0.514-0.416-0.801
				c-0.125-0.291-0.232-0.604-0.322-0.936c-0.363-1.328-0.4-2.99,0.148-5.046c0.115-0.43,0.254-0.874,0.412-1.321
				c0.041-0.113,0.123-0.205,0.227-0.246c0.105-0.045,0.223-0.037,0.314,0.021c0.053,0.031,0.398,0.245,0.879,0.621
				c0.482,0.36,1.098,0.89,1.693,1.54c0.596,0.646,1.17,1.441,1.555,2.342c0.383,0.905,0.574,1.942,0.373,3.092l0,0
				c-0.152,0.848-0.521,1.703-1.121,2.547c0,0,0.158,0.03,0.395,0.073c0.234,0.048,0.551,0.101,0.867,0.152
				c0.314,0.053,0.631,0.104,0.869,0.146c0.236,0.039,0.395,0.061,0.395,0.061s0.221,0.031,0.553,0.081
				c0.33,0.051,0.773,0.114,1.215,0.169c0.443,0.056,0.887,0.115,1.221,0.148c0.33,0.037,0.555,0.063,0.555,0.063
				c-0.742-0.6-1.527-1.503-2.025-2.776c-0.506-1.284-0.717-2.933-0.389-5.036c0.066-0.439,0.158-0.896,0.264-1.357
				c0.027-0.115,0.102-0.215,0.199-0.271c0.1-0.053,0.215-0.06,0.314-0.012c0.109,0.055,1.449,0.703,2.75,1.863
				c0.324,0.285,0.648,0.611,0.947,0.97c0.301,0.354,0.58,0.745,0.816,1.173c0.469,0.852,0.777,1.854,0.719,3.018l0,0
				c-0.041,0.859-0.299,1.76-0.791,2.67c0,0,0.637,0.041,1.273,0.065c0.316,0.013,0.633,0.021,0.869,0.022
				c0.23,0.001,0.381,0.001,0.381,0.001l0.023,1.625c0,0-0.17-0.002-0.426-0.002c-0.25-0.005-0.58-0.015-0.91-0.025
				c-0.656-0.024-1.311-0.067-1.311-0.067c0.385,0.966,0.58,1.887,0.535,2.746c-0.059,1.168-0.531,2.125-1.244,2.9
				c-0.355,0.387-0.764,0.723-1.207,1.02c-0.439,0.295-0.908,0.541-1.381,0.754c-1.883,0.843-3.775,1.019-3.928,1.029
				c-0.137,0.014-0.277-0.031-0.381-0.113c-0.104-0.084-0.158-0.202-0.154-0.322c0.025-0.475,0.07-0.938,0.139-1.375
				c0.324-2.104,1.098-3.607,1.979-4.689c0.889-1.091,1.896-1.761,2.766-2.193c0,0-0.229-0.025-0.566-0.063
				c-0.342-0.033-0.795-0.096-1.244-0.154c-0.455-0.052-0.904-0.121-1.242-0.17c-0.34-0.052-0.564-0.084-0.564-0.084
				s-0.164-0.021-0.402-0.063c-0.242-0.039-0.564-0.094-0.887-0.146c-0.322-0.054-0.645-0.106-0.885-0.154
				c-0.24-0.045-0.402-0.074-0.402-0.074c0.266,1.005,0.338,1.943,0.188,2.793c-0.205,1.146-0.781,2.041-1.563,2.729
				c-0.779,0.693-1.754,1.153-2.725,1.475c-0.967,0.314-1.926,0.462-2.66,0.543c-0.732,0.066-1.24,0.061-1.316,0.059
				c-0.139-0.002-0.271-0.059-0.365-0.152c-0.092-0.096-0.135-0.217-0.115-0.336c0.074-0.469,0.17-0.924,0.283-1.352
				c0.551-2.057,1.477-3.473,2.471-4.454c0.25-0.245,0.504-0.463,0.76-0.655c0.254-0.199,0.51-0.373,0.764-0.527
				c0.508-0.307,1.002-0.53,1.459-0.69c0,0-0.889-0.204-1.775-0.411c-0.883-0.226-1.766-0.453-1.766-0.453s-0.16-0.035-0.396-0.104
				c-0.234-0.066-0.547-0.154-0.863-0.244c-0.314-0.088-0.629-0.179-0.863-0.242c-0.236-0.066-0.393-0.119-0.393-0.119
				c0.154,1.035,0.129,1.963-0.111,2.793c-0.322,1.121-0.996,1.957-1.842,2.55c-0.422,0.299-0.889,0.54-1.375,0.733
				c-0.244,0.1-0.492,0.185-0.742,0.26c-0.248,0.069-0.498,0.129-0.748,0.183c-1.998,0.426-3.879,0.187-4.029,0.173
				c-0.137-0.016-0.264-0.089-0.348-0.189c-0.082-0.104-0.111-0.229-0.082-0.347c0.127-0.459,0.27-0.901,0.43-1.315
				c0.768-1.982,1.844-3.293,2.939-4.164c0.549-0.438,1.105-0.762,1.639-1.008c0.541-0.254,1.059-0.426,1.525-0.541
				c0,0-0.213-0.073-0.539-0.184c-0.324-0.107-0.756-0.251-1.182-0.415c-0.854-0.315-1.707-0.631-1.707-0.631
				s-0.609-0.242-1.215-0.485c-0.303-0.123-0.605-0.246-0.832-0.334c-0.229-0.092-0.377-0.16-0.377-0.16
				c0.039,1.047-0.084,1.963-0.414,2.764c-0.443,1.079-1.205,1.838-2.111,2.332c-0.906,0.494-1.971,0.762-2.986,0.851
				c-1.016,0.087-1.992,0.035-2.73-0.052c-0.734-0.1-1.232-0.218-1.309-0.238c-0.135-0.033-0.254-0.117-0.324-0.23
				c-0.072-0.114-0.086-0.243-0.043-0.354c0.176-0.44,0.369-0.864,0.574-1.258c0.986-1.888,2.203-3.06,3.391-3.799
				c0.295-0.185,0.594-0.341,0.881-0.476c0.293-0.137,0.582-0.252,0.865-0.348c0.563-0.189,1.096-0.303,1.572-0.363
				c0,0-0.822-0.391-1.646-0.779c-0.813-0.415-1.623-0.831-1.623-0.831s-0.143-0.075-0.363-0.188
				c-0.221-0.108-0.504-0.266-0.791-0.427c-0.57-0.316-1.143-0.637-1.143-0.637c-0.074,1.035-0.307,1.945-0.725,2.699
				c-0.564,1.021-1.404,1.681-2.371,2.08c-0.24,0.1-0.492,0.184-0.744,0.252c-0.252,0.064-0.51,0.112-0.768,0.149
				c-0.518,0.073-1.047,0.099-1.559,0.086c-0.512-0.014-1.02-0.049-1.475-0.126c-0.457-0.074-0.879-0.165-1.242-0.256
				c-0.723-0.182-1.209-0.355-1.283-0.381c-0.131-0.049-0.244-0.143-0.299-0.266c-0.057-0.123-0.057-0.256,0.002-0.362
				c0.227-0.416,0.469-0.814,0.721-1.183c0.6-0.88,1.236-1.568,1.883-2.115c0.646-0.551,1.303-0.959,1.939-1.258
				c0.635-0.302,1.252-0.492,1.83-0.608c0.289-0.06,0.568-0.099,0.834-0.124c0.27-0.028,0.529-0.047,0.773-0.051
				c0,0-0.195-0.117-0.488-0.295c-0.289-0.188-0.67-0.436-1.053-0.686c-0.383-0.247-0.764-0.497-1.051-0.684
				c-0.143-0.092-0.262-0.17-0.344-0.229c-0.08-0.059-0.127-0.09-0.127-0.09s-0.535-0.378-1.068-0.755
				c-0.268-0.188-0.533-0.377-0.734-0.52c-0.102-0.07-0.186-0.129-0.24-0.172c-0.059-0.043-0.094-0.066-0.094-0.066
				c-0.195,1.02-0.533,1.89-1.039,2.588c-0.342,0.474-0.74,0.85-1.182,1.143c-0.221,0.146-0.451,0.273-0.689,0.381
				c-0.238,0.104-0.48,0.187-0.732,0.254c-0.998,0.269-2.092,0.258-3.119,0.114c-1.016-0.151-1.945-0.459-2.65-0.721
				c-0.701-0.263-1.166-0.494-1.229-0.536c-0.125-0.066-0.219-0.181-0.26-0.309c-0.041-0.129-0.025-0.26,0.045-0.357
				c0.275-0.387,0.564-0.752,0.857-1.084c0.707-0.799,1.424-1.406,2.131-1.868c0.705-0.463,1.398-0.778,2.07-1.003
				c1.342-0.441,2.557-0.473,3.51-0.355c0,0-0.703-0.58-1.404-1.164c-0.35-0.295-0.709-0.575-0.961-0.807
				c-0.254-0.229-0.424-0.382-0.424-0.382s-0.486-0.438-0.973-0.875c-0.244-0.219-0.486-0.438-0.67-0.601
				c-0.174-0.172-0.291-0.287-0.291-0.287c-0.332,0.996-0.77,1.816-1.357,2.447c-0.398,0.428-0.84,0.752-1.316,0.988
				c-0.467,0.23-0.967,0.375-1.48,0.445c-1.025,0.143-2.113-0.002-3.115-0.268c-0.984-0.28-1.871-0.691-2.535-1.037
				c-0.66-0.346-1.094-0.631-1.152-0.68c-0.113-0.082-0.193-0.203-0.217-0.338c-0.027-0.132,0.004-0.26,0.086-0.349
				c0.322-0.349,0.652-0.677,0.986-0.972c0.797-0.707,1.582-1.221,2.342-1.594c0.756-0.373,1.482-0.603,2.178-0.746
				c1.385-0.275,2.592-0.153,3.523,0.078c0,0-0.625-0.664-1.25-1.328c-0.309-0.332-0.633-0.656-0.854-0.918
				c-0.225-0.257-0.375-0.43-0.375-0.43s-0.43-0.492-0.859-0.984c-0.215-0.248-0.43-0.494-0.588-0.681
				c-0.156-0.19-0.258-0.317-0.258-0.317c-0.447,0.945-0.986,1.709-1.645,2.264c-0.447,0.377-0.928,0.646-1.424,0.82
				c-0.494,0.176-1.006,0.259-1.525,0.269c-1.037,0.019-2.098-0.253-3.059-0.638c-1.879-0.803-3.354-2.043-3.449-2.157
				c-0.104-0.093-0.17-0.226-0.18-0.358c-0.01-0.136,0.039-0.259,0.129-0.336c0.361-0.309,0.729-0.593,1.096-0.845
				c1.754-1.21,3.375-1.673,4.764-1.771c1.41-0.106,2.596,0.155,3.496,0.496c0,0-0.545-0.73-1.088-1.464
				c-0.133-0.183-0.271-0.368-0.398-0.538c-0.121-0.176-0.232-0.342-0.328-0.481c-0.195-0.281-0.324-0.47-0.324-0.47
				s-0.371-0.539-0.738-1.078c-0.193-0.268-0.361-0.547-0.492-0.754c-0.133-0.207-0.221-0.345-0.221-0.345
				c-0.553,0.882-1.188,1.578-1.908,2.052c-0.977,0.638-2.023,0.826-3.059,0.721c-1.033-0.104-2.072-0.492-2.953-1.004
				c-0.443-0.254-0.859-0.53-1.236-0.807c-0.379-0.274-0.717-0.549-0.984-0.801c-0.553-0.501-0.895-0.885-0.947-0.943
				c-0.092-0.104-0.143-0.24-0.137-0.375c0.006-0.133,0.066-0.25,0.164-0.315c0.396-0.261,0.795-0.499,1.188-0.706
				c1.889-0.988,3.561-1.26,4.957-1.193c0.703,0.033,1.322,0.16,1.9,0.322c0.572,0.161,1.078,0.371,1.508,0.594
				c0,0-0.117-0.197-0.289-0.492c-0.168-0.297-0.414-0.684-0.625-1.088c-0.432-0.803-0.865-1.604-0.865-1.604
				s-0.076-0.146-0.193-0.36c-0.109-0.219-0.258-0.512-0.402-0.804c-0.291-0.586-0.582-1.171-0.582-1.171
				c-0.648,0.807-1.359,1.421-2.133,1.803c-1.045,0.516-2.109,0.581-3.135,0.359c-1.01-0.229-1.969-0.746-2.805-1.346
				c-1.648-1.213-2.764-2.767-2.84-2.896c-0.078-0.115-0.111-0.258-0.088-0.39c0.023-0.133,0.096-0.24,0.203-0.295
				c0.424-0.213,0.85-0.402,1.264-0.563c1.988-0.759,3.676-0.832,5.049-0.601c1.391,0.229,2.484,0.766,3.275,1.31
				c0,0-0.354-0.839-0.709-1.679c-0.182-0.42-0.344-0.846-0.465-1.165c-0.123-0.318-0.205-0.532-0.205-0.532
				s-0.059-0.152-0.148-0.38c-0.084-0.229-0.211-0.532-0.316-0.841c-0.217-0.616-0.436-1.233-0.436-1.233
				c-0.74,0.728-1.518,1.254-2.33,1.543c-1.098,0.392-2.162,0.333-3.15-0.008c-0.99-0.336-1.867-0.963-2.629-1.653
				c-0.756-0.691-1.352-1.459-1.787-2.063c-0.426-0.608-0.664-1.061-0.703-1.129c-0.064-0.12-0.08-0.268-0.045-0.395
				c0.037-0.129,0.125-0.229,0.236-0.269C3.7,94.24,4.144,94.1,4.573,93.989c2.063-0.528,3.748-0.411,5.092-0.025
				c1.342,0.392,2.375,1.044,3.098,1.677c0,0-0.254-0.875-0.512-1.748c-0.131-0.438-0.238-0.881-0.326-1.209
				c-0.09-0.332-0.148-0.553-0.148-0.553s-0.041-0.156-0.104-0.395c-0.059-0.238-0.137-0.557-0.211-0.873
				c-0.076-0.317-0.15-0.637-0.209-0.875c-0.059-0.236-0.092-0.398-0.092-0.398c-0.822,0.639-1.648,1.074-2.488,1.268
				c-1.135,0.267-2.195,0.088-3.127-0.364c-0.934-0.448-1.764-1.164-2.424-1.941c-1.346-1.549-2.057-3.325-2.113-3.468
				c-0.051-0.128-0.051-0.273,0-0.4c0.051-0.123,0.146-0.211,0.266-0.238c0.459-0.112,0.916-0.199,1.355-0.262
				c2.111-0.287,3.773,0.026,5.063,0.564c0.645,0.271,1.209,0.598,1.686,0.945c0.477,0.352,0.873,0.722,1.209,1.074
				c0,0-0.043-0.226-0.105-0.562c-0.057-0.335-0.133-0.787-0.209-1.235c-0.08-0.449-0.139-0.902-0.189-1.24
				c-0.051-0.336-0.082-0.563-0.082-0.563s-0.025-0.16-0.055-0.404c-0.031-0.244-0.07-0.568-0.111-0.894
				c-0.043-0.324-0.076-0.649-0.1-0.896c-0.029-0.242-0.047-0.406-0.047-0.406c-0.887,0.537-1.764,0.875-2.623,0.969
				c-1.158,0.13-2.18-0.176-3.063-0.739c-0.873-0.567-1.607-1.389-2.174-2.266c-0.285-0.437-0.527-0.892-0.734-1.323
				c-0.205-0.439-0.377-0.849-0.502-1.231c-0.068-0.186-0.123-0.36-0.174-0.519c-0.045-0.162-0.086-0.31-0.117-0.432
				c-0.066-0.247-0.1-0.42-0.107-0.466C0.152,74.396,0.176,74.244,0.248,74.074z"/>
		</g>
	</g>
	<g>
		<circle fill="#E25050" cx="85" cy="73.263" r="71.824"/>
	</g>
	<g>
		<circle fill="#FFFFFF" cx="85" cy="73.263" r="44.504"/>
	</g>
	<g>
		<path fill="#FFFFFF" d="M66.01,13.514l-1.02,0.68l3.057,12.797l-2.456,1.228L58.82,20.72l-0.055,0.027l1.934,9.916l-2.456,1.227
			l-8.419-10.115l-1.146,0.402l-0.797-1.594l4.856-2.428l0.797,1.595l-1.101,0.811l5.127,6.474l0.059-0.019l-2.046-10.277
			l1.947-0.975l7.012,7.797l0.05-0.036l-2.11-7.981l-1.309,0.394l-0.798-1.595l4.848-2.423L66.01,13.514z"/>
		<path fill="#FFFFFF" d="M86.154,16.659c0.211,2.151-0.23,3.988-1.323,5.513c-1.093,1.525-2.634,2.385-4.623,2.578
			c-1.982,0.194-3.652-0.352-5.009-1.638c-1.357-1.285-2.141-3.004-2.351-5.154l-0.021-0.222c-0.208-2.137,0.227-3.971,1.306-5.501
			c1.078-1.53,2.609-2.392,4.592-2.585c1.989-0.194,3.669,0.354,5.04,1.646s2.161,3.005,2.369,5.142L86.154,16.659z M83.198,16.704
			c-0.147-1.519-0.584-2.722-1.309-3.607c-0.724-0.886-1.704-1.269-2.94-1.148c-1.237,0.121-2.113,0.682-2.63,1.682
			c-0.517,1.001-0.7,2.267-0.551,3.799l0.024,0.242c0.15,1.546,0.579,2.761,1.286,3.645c0.707,0.885,1.676,1.267,2.906,1.146
			c1.243-0.121,2.131-0.685,2.664-1.689c0.532-1.005,0.724-2.281,0.573-3.827L83.198,16.704z"/>
		<path fill="#FFFFFF" d="M98.811,11.06c1.635,0.36,2.834,1.017,3.601,1.97c0.765,0.953,1.002,2.09,0.712,3.408
			c-0.16,0.726-0.493,1.313-1,1.761c-0.506,0.449-1.172,0.755-1.996,0.92c0.796,0.438,1.314,0.989,1.561,1.655
			c0.244,0.665,0.271,1.43,0.08,2.294l-0.16,0.731c-0.07,0.317-0.063,0.576,0.024,0.778c0.087,0.203,0.271,0.353,0.556,0.449
			l0.345,0.128l-0.384,1.741l-1.494-0.329c-0.941-0.208-1.549-0.607-1.819-1.199c-0.271-0.592-0.317-1.29-0.142-2.095l0.182-0.821
			c0.154-0.699,0.089-1.289-0.195-1.771c-0.285-0.48-0.766-0.806-1.439-0.975l-2.363-0.521l-0.837,3.798l1.478,0.637l-0.381,1.731
			l-5.965-1.313l0.383-1.731l1.598,0.041l2.275-10.337l-1.468-0.635l0.383-1.74l1.533,0.337L98.811,11.06z M95.363,16.96
			l1.998,0.439c0.805,0.177,1.445,0.139,1.924-0.116c0.479-0.254,0.788-0.704,0.93-1.351c0.143-0.646,0.057-1.206-0.257-1.68
			s-0.86-0.796-1.64-0.968l-2.047-0.45L95.363,16.96z"/>
		<path fill="#FFFFFF" d="M104.986,26.12l1.506,0.541l5.406-9.099l-1.193-1.063l0.91-1.532l5.181,3.079l-0.909,1.532l-1.445-0.505
			l-2.012,3.387l1.104,0.657l4.545-2.095l-0.688-0.549l0.911-1.533l5.024,2.986l-0.911,1.532l-1.517-0.583l-5.59,2.31l0.524,7.087
			l1.142,0.974l-0.904,1.523l-5.024-2.985l0.906-1.524l0.846,0.361l-0.26-5.114l-1.42-0.844l-2.085,3.509l1.134,1.027l-0.905,1.524
			l-5.182-3.079L104.986,26.12z"/>
	</g>
	<g>
		<path fill="#FFFFFF" d="M33.802,99.275l-2.262-5.049l-5.109,2.289l2.607,5.817l1.878-0.749l0.401,0.896l-2.698,1.207l-4.111-9.177
			l0.745-0.334l0.728,1.33l10.598-4.748l-0.508-1.428l0.753-0.337l0.618,1.378l3.475,7.757l-2.707,1.212l-0.401-0.896l1.81-0.902
			l-2.588-5.775l-4.627,2.071l2.263,5.05L33.802,99.275z"/>
		<path fill="#FFFFFF" d="M32.363,108.51l0.787,0.817l7.25-0.502l1.874-6.773l-0.644-0.935l0.639-0.521l2.346,2.87l-0.639,0.522
			l-0.858-0.963l-1.66,5.761l5.982-0.472l-0.761-1.02l0.639-0.521l2.34,2.863l-0.639,0.522l-0.787-0.817l-7.005,0.494l-1.937,7.004
			l0.649,0.941l-0.632,0.517l-2.34-2.862l0.632-0.518l0.846,0.948l1.718-5.999l-6.228,0.479l0.767,1.026l-0.632,0.517l-2.34-2.863
			L32.363,108.51z"/>
		<path fill="#FFFFFF" d="M55.95,114.434c1.148,0.827,1.826,1.76,2.035,2.797c0.208,1.037-0.034,2.037-0.728,3
			c-0.7,0.974-1.574,1.522-2.623,1.651c-1.048,0.128-2.146-0.221-3.294-1.048l-2.497-1.798l-2.729,3.79l1.155,0.98l-0.477,0.661
			l-3.347-2.409l0.477-0.662l1.296,0.785l6.787-9.425l-1.155-0.979l0.481-0.67l1.227,0.884L55.95,114.434z M49.396,118.27
			l2.497,1.797c0.902,0.65,1.745,0.91,2.529,0.777c0.784-0.132,1.428-0.546,1.93-1.242c0.505-0.703,0.699-1.447,0.582-2.236
			c-0.117-0.788-0.63-1.51-1.537-2.163l-2.497-1.8L49.396,118.27z"/>
		<path fill="#FFFFFF" d="M66.953,127.784l-5.16-1.998l-2.021,5.221l5.946,2.304l0.808-1.854l0.916,0.354l-1.067,2.758l-9.378-3.633
			l0.295-0.761l1.452,0.435l4.193-10.83l-1.365-0.657l0.298-0.771l1.409,0.547l7.925,3.068l-1.07,2.766l-0.916-0.354l0.651-1.914
			l-5.903-2.286l-1.83,4.729l5.159,1.997L66.953,127.784z"/>
		<path fill="#FFFFFF" d="M79.529,123.359c1.438,0.15,2.509,0.58,3.214,1.289s0.995,1.656,0.87,2.842
			c-0.074,0.699-0.347,1.309-0.817,1.824c-0.47,0.515-1.094,0.859-1.87,1.033c0.808,0.295,1.365,0.731,1.675,1.309
			c0.309,0.576,0.42,1.273,0.333,2.09l-0.129,1.227c-0.05,0.474-0.014,0.832,0.11,1.074c0.123,0.242,0.335,0.389,0.634,0.439
			l0.449,0.074l-0.087,0.82l-0.7-0.074c-0.651-0.067-1.083-0.338-1.295-0.808c-0.211-0.47-0.283-1.022-0.216-1.663l0.126-1.188
			c0.086-0.813-0.106-1.482-0.575-2.015c-0.469-0.53-1.166-0.854-2.092-0.971l-3.374-0.356l-0.551,5.217l1.489,0.289l-0.085,0.802
			l-4.102-0.433l0.085-0.803l1.516,0.029l1.218-11.54l-1.488-0.287l0.086-0.812L79.529,123.359z M75.885,129.368l2.848,0.3
			c1.211,0.128,2.121-0.021,2.731-0.447c0.61-0.427,0.958-1.045,1.044-1.855c0.091-0.86-0.118-1.557-0.628-2.09
			c-0.509-0.531-1.325-0.856-2.45-0.976l-2.977-0.313L75.885,129.368z"/>
		<path fill="#FFFFFF" d="M88.096,124.417l-0.082-0.821l4.113-0.408l0.082,0.819l-1.491,0.271l1.15,11.556l1.516-0.028l0.08,0.812
			l-4.112,0.409l-0.08-0.813l1.49-0.27l-1.15-11.557L88.096,124.417z"/>
		<path fill="#FFFFFF" d="M98.618,135.18l0.919-0.381l0.623-13.471l0.994-0.326l8.438,10.497l0.983-0.244l0.254,0.774l-3.161,1.037
			l-0.255-0.774l1.09-0.455l-1.999-2.524l-5.759,1.891l-0.124,3.221l1.147-0.277l0.254,0.773l-3.152,1.034L98.618,135.18z
			 M100.79,130.145l5.063-1.66l-4.717-5.963l-0.054,0.017L100.79,130.145z"/>
		<path fill="#FFFFFF" d="M119.168,110.85l0.473,0.676l-1.168,0.965l7.196,10.281l-0.903,0.631l-12.934-5.11l-0.041,0.04l6.111,8.73
			l1.308-0.768l0.468,0.668l-3.387,2.371l-0.468-0.669l1.169-0.965l-6.659-9.515l-1.308,0.769l-0.474-0.677l1.238-0.865l0.911-0.639
			l12.923,5.097l0.04-0.039l-6.096-8.71l-1.309,0.768l-0.473-0.676l2.143-1.498L119.168,110.85z"/>
		<path fill="#FFFFFF" d="M130.691,103.613l-0.541,0.67l-1.691-1.167c-0.557,0.01-1.118,0.155-1.684,0.437
			c-0.566,0.282-1.086,0.715-1.562,1.301c-0.948,1.172-1.278,2.447-0.985,3.83c0.291,1.381,1.111,2.618,2.461,3.711l0.15,0.123
			c1.35,1.094,2.729,1.646,4.141,1.655c1.412,0.011,2.568-0.542,3.472-1.655c0.479-0.591,0.81-1.211,0.993-1.859
			c0.185-0.649,0.226-1.243,0.121-1.781l-1.492-1.412l0.543-0.67l1.843,1.494c0.187,0.691,0.179,1.475-0.026,2.345
			c-0.205,0.872-0.623,1.696-1.254,2.476c-1.09,1.344-2.479,2.039-4.166,2.086c-1.688,0.048-3.312-0.56-4.867-1.819l-0.137-0.11
			c-1.56-1.265-2.492-2.727-2.798-4.386s0.101-3.178,1.216-4.556c0.631-0.777,1.346-1.35,2.146-1.715
			c0.8-0.364,1.56-0.526,2.275-0.487L130.691,103.613z"/>
		<path fill="#FFFFFF" d="M138.521,94.082l-2.263,5.05l5.108,2.289l2.605-5.819l-1.81-0.901l0.401-0.896l2.697,1.209l-4.111,9.176
			l-0.743-0.332l0.508-1.43l-10.599-4.746l-0.728,1.328l-0.753-0.337l0.617-1.379l3.475-7.757l2.707,1.213l-0.4,0.896l-1.879-0.75
			l-2.588,5.776l4.627,2.072l2.262-5.05L138.521,94.082z"/>
	</g>
	<g>
		<g>
			<polygon fill="#271F19" points="85.324,59.99 89.965,68.073 100.326,69.369 92.82,75.658 94.596,84.536 85.324,80.346 
				76.051,84.536 77.82,75.658 70.32,69.369 80.689,68.073 			"/>
		</g>
		<g>
			<g>
				<polygon fill="#271F19" points="56.418,66.312 58.664,70.231 63.689,70.861 60.055,73.911 60.912,78.215 56.418,76.18 
					51.918,78.215 52.777,73.911 49.137,70.861 54.164,70.231 				"/>
			</g>
		</g>
		<g>
			<g>
				<polygon fill="#271F19" points="114.229,66.312 116.475,70.231 121.498,70.861 117.863,73.911 118.719,78.215 114.229,76.18 
					109.73,78.215 110.582,73.911 106.953,70.861 111.979,70.231 				"/>
			</g>
		</g>
	</g>
</g>
</svg>
