<?xml version="1.0" encoding="utf-8"?>
<!-- Generator: Adobe Illustrator 16.0.0, SVG Export Plug-In . SVG Version: 6.00 Build 0)  -->
<!DOCTYPE svg PUBLIC "-//W3C//DTD SVG 1.1//EN" "http://www.w3.org/Graphics/SVG/1.1/DTD/svg11.dtd">
<svg version="1.1" id="Layer_1" xmlns="http://www.w3.org/2000/svg" xmlns:xlink="http://www.w3.org/1999/xlink" x="0px" y="0px"
	 width="500px" height="325px" viewBox="0 0 500 325" enable-background="new 0 0 500 325" xml:space="preserve">
<g>
	<g>
		<g>
			<g>
				<polygon fill="#F26823" points="112,67 112,53.218 80.557,74.981 112,96.742 112,86 305,86 305,67 				"/>
			</g>
		</g>
	</g>
	<g>
		<g>
			<g>
				<polygon fill="#F26823" points="396,299 396,312.668 427.443,290.905 396,269.143 396,280 202,280 202,299 				"/>
			</g>
		</g>
	</g>
	<g>
		<rect x="49" y="117" fill="#E7E7E7" width="20" height="22"/>
	</g>
	<g>
		<rect x="49" y="153" fill="#33C1D8" width="20" height="22"/>
	</g>
	<g>
		<rect x="49" y="188" fill="#FFD248" width="20" height="22"/>
	</g>
	<g>
		<g>
			<path fill="#231F20" d="M73,136H54.253C53.06,136,52,135.158,52,133.964V119h4v13h17V136z"/>
		</g>
		<g>
			<path fill="#231F20" d="M67.106,127.738L67.106,127.738c-0.572,0-1.122-0.228-1.526-0.633l-4.755-4.757l3.052-3.051l3.229,3.23
				L81.134,108.5l3.052,3.052l-15.553,15.554C68.228,127.51,67.679,127.738,67.106,127.738z"/>
		</g>
		<g>
			<rect x="88" y="121" fill="#231F20" width="18" height="4"/>
		</g>
		<g>
			<rect x="88" y="130" fill="#231F20" width="41" height="4"/>
		</g>
	</g>
	<g>
		<g>
			<path fill="#231F20" d="M73,172H54.253C53.06,172,52,171.458,52,170.265V155h4v13h17V172z"/>
		</g>
		<g>
			<path fill="#231F20" d="M67.106,163.209c-0.552,0-1.104-0.21-1.526-0.632l-4.755-4.755l3.052-3.052l3.229,3.229l14.027-14.026
				l3.052,3.052l-15.553,15.552C68.211,162.999,67.659,163.209,67.106,163.209z"/>
		</g>
		<g>
			<rect x="88" y="156" fill="#231F20" width="18" height="4"/>
		</g>
		<g>
			<rect x="88" y="165" fill="#231F20" width="41" height="4"/>
		</g>
	</g>
	<g>
		<g>
			<path fill="#231F20" d="M73,207H54.253C53.06,207,52,206.03,52,204.837V191h4v12h17V207z"/>
		</g>
		<g>
			<path fill="#231F20" d="M67.106,198.683L67.106,198.683c-0.572,0-1.122-0.228-1.526-0.632l-4.755-4.757l3.052-3.053l3.229,3.231
				l14.027-14.026l3.052,3.052l-15.553,15.553C68.228,198.455,67.679,198.683,67.106,198.683z"/>
		</g>
		<g>
			<rect x="88" y="192" fill="#231F20" width="18" height="5"/>
		</g>
		<g>
			<rect x="88" y="201" fill="#231F20" width="41" height="4"/>
		</g>
	</g>
	<g>
		<g id="XMLID_1_">
			<g>
				<g>
					<path fill="#F2F2F2" d="M292.123,170.094v148.201h-98.708v-50.896h-49.739h-39.713v-71.193v-23.564
						c0-51.175,42.937-94.576,94.126-94.576C248.305,78.065,289.039,119.553,292.123,170.094z"/>
				</g>
			</g>
			<g>
				<g>
					<path fill="#231F20" d="M294.281,318.295h-4.316V170.16c-3.111-50.438-43.455-89.937-91.876-89.937
						c-49.852,0-91.968,42.322-91.968,92.417v92.6h87.294c1.192,0,2.158,0.967,2.158,2.158v50.896h-4.316v-48.738h-87.295
						c-1.192,0-2.159-0.967-2.159-2.158v-94.758c0-52.436,44.093-96.733,96.285-96.733c24.675,0,48.189,9.833,66.21,27.687
						c17.795,17.63,28.441,41.201,29.979,66.369c0.002,0.043,0.004,0.088,0.004,0.131V318.295z"/>
				</g>
			</g>
		</g>
		<g>
			<path fill="#231F20" d="M151,229h-15.502c-1.193,0-2.498-0.498-2.498-1.691V165h5v60h13V229z"/>
		</g>
	</g>
	<g>
		<path fill="#231F20" d="M383.896,209.595l-3.633-2.331c1.268-1.975,2.479-4.012,3.603-6.056l3.782,2.08
			C386.479,205.416,385.216,207.538,383.896,209.595z M390.962,196.735l-3.918-1.812c0.986-2.133,1.907-4.316,2.738-6.49
			l4.031,1.539C392.948,192.239,391.989,194.515,390.962,196.735z M396.194,183.028l-4.129-1.258
			c0.682-2.235,1.294-4.524,1.821-6.807l4.205,0.971C397.543,178.313,396.904,180.699,396.194,183.028z M399.495,168.729
			l-4.263-0.681c0.367-2.301,0.659-4.652,0.869-6.991l4.299,0.385C400.182,163.879,399.877,166.331,399.495,168.729z
			 M400.807,154.113l-4.314-0.095c0.016-0.753,0.024-1.509,0.024-2.267c0-1.596-0.036-3.205-0.109-4.783l4.312-0.198
			c0.075,1.643,0.114,3.318,0.114,4.98C400.833,152.54,400.824,153.328,400.807,154.113z M395.847,139.948
			c-0.265-2.321-0.614-4.665-1.038-6.963l4.244-0.783c0.442,2.396,0.806,4.837,1.082,7.257L395.847,139.948z M393.296,126.109
			c-0.585-2.271-1.252-4.543-1.985-6.756l4.097-1.358c0.764,2.306,1.46,4.674,2.068,7.04L393.296,126.109z M388.863,112.751
			c-0.884-2.157-1.856-4.314-2.89-6.412l3.87-1.908c1.078,2.186,2.092,4.434,3.014,6.682L388.863,112.751z M382.647,100.139
			c-1.169-2.015-2.429-4.02-3.742-5.96l3.574-2.419c1.368,2.021,2.681,4.111,3.9,6.21L382.647,100.139z M374.762,88.486
			c-1.438-1.843-2.961-3.659-4.521-5.397l3.213-2.883c1.625,1.812,3.211,3.704,4.71,5.624L374.762,88.486z M365.361,78.009
			c-1.674-1.627-3.429-3.221-5.216-4.736l2.792-3.292c1.86,1.578,3.688,3.238,5.432,4.933L365.361,78.009z M230.054,70.933
			l-2.672-3.39c1.913-1.507,3.903-2.969,5.915-4.344l2.435,3.564C233.799,68.083,231.889,69.486,230.054,70.933z M354.621,68.902
			c-1.882-1.387-3.838-2.727-5.812-3.983l2.315-3.641c2.059,1.309,4.096,2.706,6.057,4.15L354.621,68.902z M241.68,62.993
			l-2.186-3.722c2.104-1.234,4.274-2.411,6.453-3.496l1.924,3.863C245.781,60.679,243.698,61.808,241.68,62.993z M342.735,61.341
			c-2.057-1.119-4.178-2.18-6.303-3.152l1.796-3.925c2.216,1.014,4.426,2.12,6.57,3.286L342.735,61.341z M254.278,56.717
			l-1.654-3.986c2.251-0.934,4.563-1.801,6.871-2.578l1.375,4.091C258.656,54.989,256.438,55.821,254.278,56.717z M329.926,55.477
			c-2.187-0.824-4.43-1.583-6.67-2.254l1.239-4.134c2.336,0.7,4.675,1.491,6.953,2.349L329.926,55.477z M267.618,52.232
			l-1.091-4.176c2.356-0.615,4.765-1.156,7.159-1.607l0.8,4.241C272.189,51.124,269.878,51.642,267.618,52.232z M316.444,51.435
			c-2.279-0.516-4.606-0.958-6.917-1.316l0.66-4.265c2.407,0.372,4.833,0.833,7.209,1.37L316.444,51.435z M281.442,49.623
			l-0.507-4.286c2.411-0.285,4.87-0.492,7.308-0.614l0.216,4.311C286.118,49.151,283.758,49.349,281.442,49.623z M302.535,49.281
			c-2.324-0.198-4.689-0.32-7.033-0.361l0.076-4.315c2.439,0.042,4.904,0.169,7.325,0.376L302.535,49.281z"/>
	</g>
	<g>
		<g>
			<path fill="#FFD248" d="M384.822,150.683c0-49.739-40.833-90.058-90.571-90.058c-49.736,0-90.795,40.318-90.795,90.058
				c0,38.928,24.544,72.083,58.544,84.657V261h64v-25.468C359,223.113,384.822,189.821,384.822,150.683z"/>
		</g>
		<g>
			<g>
				<path fill="#FFC432" d="M293.644,92.623c-32.949,0-59.66,26.71-59.66,59.659c0,32.951,26.711,59.662,59.66,59.662
					c32.951,0,59.66-26.711,59.66-59.662C353.304,119.333,326.595,92.623,293.644,92.623z M293.784,190.77
					c-21.177,0-38.345-17.168-38.345-38.346c0-21.179,17.168-38.346,38.345-38.346c21.18,0,38.348,17.167,38.348,38.346
					C332.132,173.602,314.964,190.77,293.784,190.77z"/>
			</g>
		</g>
		<g>
			<rect x="262" y="261" fill="#ACACAC" width="64" height="13"/>
		</g>
		<g>
			<rect x="262" y="274" fill="#E7E7E7" width="64" height="7"/>
		</g>
		<g>
			<rect x="262" y="292" fill="#E7E7E7" width="64" height="7"/>
		</g>
		<g>
			<rect x="262" y="281" fill="#ACACAC" width="64" height="11"/>
		</g>
		<g>
			<rect x="283" y="299" fill="#ACACAC" width="24" height="17"/>
		</g>
		<g>
			<rect x="257" y="271" fill="#231F20" width="72" height="4"/>
		</g>
		<g>
			<rect x="257" y="280" fill="#231F20" width="72" height="4"/>
		</g>
		<g>
			<rect x="257" y="290" fill="#231F20" width="72" height="4"/>
		</g>
		<g>
			<rect x="257" y="297" fill="#231F20" width="72" height="4"/>
		</g>
		<g>
			<rect x="283" y="314" fill="#231F20" width="24" height="4"/>
		</g>
		<g>
			<rect x="287" y="195" fill="#231F20" width="5" height="66"/>
		</g>
		<g>
			<rect x="297" y="195" fill="#231F20" width="4" height="66"/>
		</g>
	</g>
	<g>
		<g id="XMLID_95_">
			<g>
				<g>
					<path fill="#BDBEC0" d="M339.162,142.361v21.594h-9.9c-0.094,0-2.283,3.979-2.438,4.256l8.545,7.156l-15.053,14.93
						l-8.854-8.607c-0.293,0.154-3.146,2.268-6.23,2.377v13.816h-21.592v-13.816c0-0.109-4.689-2.037-4.982-2.191l-7.865,8.791
						l-14.93-14.574l8.607-7.881c-0.156-0.277-2.27-4.256-2.361-4.256h-13.943v-21.594h13.943c0.092-3.083,2.113-6.646,2.266-6.94
						l-8.697-9.825l14.744-14.929l8.236,8.607c0.293-0.155,4.982-2.271,4.982-2.376v-10.009h21.592v10.009
						c3.084,0.106,5.938,2.376,6.23,2.528l9.115-8.467l14.93,15.238l-8.621,9.224c0.154,0.294,2.281,3.857,2.375,6.94H339.162z
						 M304.971,151.725c0-6.388-5.166-11.567-11.568-11.567c-6.385,0-11.566,5.179-11.566,11.567
						c0,6.384,5.182,11.566,11.566,11.566C299.805,163.291,304.971,158.109,304.971,151.725z"/>
				</g>
				<g>
					<path fill="#F2F2F2" d="M293.402,140.158c6.402,0,11.568,5.179,11.568,11.567c0,6.384-5.166,11.566-11.568,11.566
						c-6.385,0-11.566-5.182-11.566-11.566C281.836,145.337,287.018,140.158,293.402,140.158z"/>
				</g>
			</g>
			<g>
				<g>
					<path fill="#231F20" d="M305.232,200.041h-21.592c-1.193,0-2.158-0.965-2.158-2.158v-12.451
						c-0.707-0.307-1.602-0.686-2.195-0.936c-0.018-0.008-0.037-0.018-0.057-0.025l-6.828,7.635
						c-0.393,0.439-0.949,0.699-1.537,0.719c-0.566,0.018-1.16-0.201-1.58-0.613l-14.93-14.574c-0.424-0.416-0.66-0.986-0.65-1.58
						c0.01-0.592,0.264-1.156,0.701-1.557l7.365-6.746c-0.281-0.523-0.615-1.141-0.893-1.641h-12.712
						c-1.192,0-2.158-0.967-2.158-2.158v-21.594c0-1.192,0.966-2.158,2.158-2.158h12.052c0.35-1.64,0.984-3.221,1.568-4.451
						l-7.725-8.725c-0.752-0.851-0.719-2.139,0.08-2.947l14.744-14.929c0.41-0.415,0.969-0.619,1.553-0.642
						c0.582,0.004,1.139,0.245,1.541,0.666l7.168,7.491c0.646-0.298,1.604-0.74,2.334-1.086v-8.691c0-1.192,0.965-2.158,2.158-2.158
						h21.592c1.191,0,2.158,0.966,2.158,2.158v8.16c1.533,0.391,2.877,1.078,3.836,1.652l7.883-7.323
						c0.857-0.796,2.191-0.764,3.01,0.071l14.93,15.238c0.809,0.825,0.824,2.141,0.035,2.984l-7.57,8.1
						c0.65,1.313,1.279,2.858,1.629,4.432h8.02c1.191,0,2.158,0.966,2.158,2.158v21.594c0,1.191-0.967,2.158-2.158,2.158h-8.691
						c-0.209,0.361-0.496,0.871-0.896,1.586l7.18,6.014c0.465,0.391,0.744,0.957,0.771,1.564c0.025,0.605-0.207,1.195-0.637,1.623
						l-15.051,14.93c-0.84,0.828-2.184,0.834-3.025,0.014l-7.652-7.439c-0.951,0.535-2.268,1.162-3.77,1.525v11.953
						C307.391,199.076,306.424,200.041,305.232,200.041z M285.799,195.725h17.275v-11.658c0-1.162,0.92-2.115,2.082-2.156
						c1.398-0.051,3.053-0.688,4.914-1.895c0.191-0.125,0.328-0.205,0.393-0.238c0.828-0.432,1.836-0.285,2.504,0.365l7.334,7.131
						l11.867-11.771l-6.73-5.637c-0.791-0.664-1.002-1.797-0.5-2.701l0.07-0.129c2.893-5.239,2.893-5.239,4.254-5.239h7.742v-17.277
						h-7.742c-1.168,0-2.123-0.927-2.158-2.093c-0.045-1.479-0.787-3.606-2.035-5.834l-0.092-0.167
						c-0.428-0.813-0.295-1.807,0.332-2.478l7.213-7.715l-12.014-12.262l-7.576,7.038c-0.668,0.62-1.65,0.754-2.461,0.335
						c-0.074-0.039-0.242-0.141-0.482-0.305c-0.691-0.474-2.793-1.914-4.83-1.984c-1.162-0.04-2.084-0.994-2.084-2.157v-7.851
						h-17.275v7.851c0,1.415-0.91,1.845-2.563,2.627c-0.762,0.361-1.711,0.798-2.457,1.142c-0.566,0.262-1.01,0.465-1.137,0.528
						c-0.844,0.42-1.891,0.256-2.545-0.428l-6.699-7.003l-11.768,11.914l7.359,8.313c0.594,0.67,0.713,1.637,0.297,2.431
						l-0.055,0.104c-1.205,2.224-1.92,4.374-1.967,5.899c-0.035,1.166-0.99,2.094-2.156,2.094h-11.785v17.277h11.785
						c1.363,0,1.363,0,3.941,4.797c0.156,0.293,0.268,0.5,0.303,0.563c0.486,0.873,0.311,1.971-0.426,2.646l-6.924,6.34
						l11.684,11.406l6.361-7.113c0.658-0.736,1.734-0.93,2.609-0.473c0.109,0.051,0.65,0.279,1.313,0.559
						c4.555,1.928,4.828,2.043,4.828,3.545V195.725z"/>
				</g>
			</g>
		</g>
	</g>
	<g>
		<g id="XMLID_96_">
			<g>
				<g>
					<circle fill="#F26823" cx="347.127" cy="61.115" r="27.76"/>
				</g>
			</g>
			<g>
				<g>
					<circle fill="#F38820" cx="347.127" cy="61.115" r="19.085"/>
				</g>
			</g>
			<g>
				<g>
					<path fill="#231F20" d="M347.127,91.034c-16.496,0-29.918-13.421-29.918-29.918c0-16.498,13.422-29.919,29.918-29.919
						c16.498,0,29.92,13.421,29.92,29.919C377.047,77.612,363.625,91.034,347.127,91.034z M347.127,35.513
						c-14.117,0-25.602,11.485-25.602,25.603c0,14.117,11.484,25.602,25.602,25.602s25.604-11.485,25.604-25.602
						C372.73,46.998,361.244,35.513,347.127,35.513z"/>
				</g>
			</g>
		</g>
		<g>
			<path fill="#231F20" d="M341.026,72.232c-0.572,0-1.121-0.228-1.525-0.632l-6.363-6.362l3.053-3.052l4.836,4.836l19.102-19.104
				l3.052,3.052L342.553,71.6C342.148,72.004,341.599,72.231,341.026,72.232z"/>
		</g>
	</g>
	<g>
		<g id="XMLID_97_">
			<g>
				<g>
					<rect x="350.344" y="104.095" fill="#BDBEC0" width="19.279" height="22.543"/>
				</g>
				<g>
					<polygon fill="#F2F2F2" points="359.34,133.758 350.344,133.758 350.344,126.638 369.623,126.638 369.623,133.758 					"/>
				</g>
				<g>
					<polygon fill="#E7E7E7" points="359.984,318.859 350.344,296.316 359.34,296.316 369.623,296.316 					"/>
				</g>
				<g>
					<polygon fill="#33C1D8" points="359.34,296.316 350.344,296.316 350.344,133.758 359.34,133.758 359.34,295.723 					"/>
				</g>
				<g>
					<polygon fill="#33C1D8" points="369.623,296.316 359.34,296.316 359.34,295.723 359.34,133.758 369.623,133.758 					"/>
				</g>
			</g>
			<g>
				<g>
					<rect x="367.465" y="133.758" fill="#231F20" width="4.316" height="162.558"/>
				</g>
				<g>
					<rect x="348.186" y="133.758" fill="#231F20" width="4.316" height="162.558"/>
				</g>
				<g>
					<rect x="357.182" y="133.164" fill="#231F20" width="4.316" height="162.559"/>
				</g>
				<g>
					<path fill="#231F20" d="M369.623,135.917h-19.279c-1.191,0-2.158-0.966-2.158-2.158v-7.12h4.316v4.962h14.963v-4.962h4.316
						v7.12C371.781,134.95,370.816,135.917,369.623,135.917z"/>
				</g>
				<g>
					<path fill="#231F20" d="M369.623,128.796h-19.279c-1.191,0-2.158-0.967-2.158-2.158v-22.543c0-1.192,0.967-2.158,2.158-2.158
						h19.279c1.193,0,2.158,0.966,2.158,2.158v22.543C371.781,127.83,370.816,128.796,369.623,128.796z M352.502,124.48h14.963
						v-18.227h-14.963V124.48z"/>
				</g>
				<g>
					<path fill="#231F20" d="M359.984,321.018c-0.865,0-1.645-0.516-1.984-1.309l-9.641-22.543
						c-0.285-0.668-0.215-1.432,0.184-2.037c0.4-0.605,1.076-0.971,1.801-0.971h19.279c0.727,0,1.402,0.365,1.803,0.971
						c0.398,0.605,0.469,1.369,0.182,2.037l-9.639,22.543C361.629,320.502,360.848,321.018,359.984,321.018z M353.613,298.475
						l6.371,14.896l6.369-14.896H353.613z"/>
				</g>
			</g>
		</g>
	</g>
	<g>
		<g>
			<g>
				<rect x="139" y="288" fill="#231F20" width="6" height="5"/>
			</g>
			<g>
				<rect x="126" y="288" fill="#231F20" width="7" height="5"/>
			</g>
			<g>
				<rect x="114" y="288" fill="#231F20" width="6" height="5"/>
			</g>
		</g>
		<g>
			<rect x="126" y="299" fill="#231F20" width="19" height="4"/>
		</g>
	</g>
	<g>
		<g>
			<g>
				<rect x="396" y="242" fill="#231F20" width="6" height="5"/>
			</g>
			<g>
				<rect x="407" y="242" fill="#231F20" width="8" height="5"/>
			</g>
			<g>
				<rect x="420" y="242" fill="#231F20" width="6" height="5"/>
			</g>
		</g>
		<g>
			<rect x="396" y="231" fill="#231F20" width="19" height="5"/>
		</g>
	</g>
	<g>
		<g>
			<g>
				<rect x="138" y="41" fill="#231F20" width="7" height="4"/>
			</g>
			<g>
				<rect x="151" y="41" fill="#231F20" width="5" height="4"/>
			</g>
			<g>
				<rect x="162" y="41" fill="#231F20" width="7" height="4"/>
			</g>
		</g>
		<g>
			<rect x="138" y="31" fill="#231F20" width="18" height="4"/>
		</g>
	</g>
	<g>
		<g>
			<rect x="73" y="227" fill="#231F20" width="4" height="6"/>
		</g>
		<g>
			<rect x="73" y="238" fill="#231F20" width="4" height="6"/>
		</g>
		<g>
			<rect x="65" y="234" fill="#231F20" width="6" height="4"/>
		</g>
		<g>
			<rect x="78" y="234" fill="#231F20" width="6" height="4"/>
		</g>
	</g>
	<g>
		<g>
			<rect x="241" y="19" fill="#231F20" width="4" height="5"/>
		</g>
		<g>
			<rect x="241" y="30" fill="#231F20" width="4" height="5"/>
		</g>
		<g>
			<rect x="234" y="25" fill="#231F20" width="6" height="5"/>
		</g>
		<g>
			<rect x="247" y="25" fill="#231F20" width="6" height="5"/>
		</g>
	</g>
	<g>
		<g>
			<rect x="400" y="61" fill="#231F20" width="5" height="6"/>
		</g>
		<g>
			<rect x="400" y="73" fill="#231F20" width="5" height="5"/>
		</g>
		<g>
			<rect x="393" y="69" fill="#231F20" width="6" height="4"/>
		</g>
		<g>
			<rect x="406" y="69" fill="#231F20" width="6" height="4"/>
		</g>
	</g>
	<g>
		<g>
			<rect x="422" y="181" fill="#231F20" width="4" height="5"/>
		</g>
		<g>
			<rect x="422" y="192" fill="#231F20" width="4" height="6"/>
		</g>
		<g>
			<rect x="415" y="188" fill="#231F20" width="5" height="4"/>
		</g>
		<g>
			<rect x="428" y="188" fill="#231F20" width="5" height="4"/>
		</g>
	</g>
	<g>
		<circle fill="#33C1D8" cx="433.317" cy="126.336" r="5.924"/>
	</g>
	<g>
		<circle fill="#33C1D8" cx="83.719" cy="275.959" r="5.925"/>
	</g>
	<g>
		<circle fill="#E7E7E7" cx="289.449" cy="9.804" r="5.925"/>
	</g>
	<g>
		<circle fill="#33C1D8" cx="198.813" cy="48.647" r="5.925"/>
	</g>
	<g>
		<circle fill="#E7E7E7" cx="444.826" cy="267.326" r="5.925"/>
	</g>
	<g>
		<circle fill="#E7E7E7" cx="63.578" cy="93.246" r="5.924"/>
	</g>
</g>
</svg>
